%TF.GenerationSoftware,KiCad,Pcbnew,(6.0.7)*%
%TF.CreationDate,2022-09-13T16:55:12+02:00*%
%TF.ProjectId,myDAQExpansionBoard,6d794441-5145-4787-9061-6e73696f6e42,rev?*%
%TF.SameCoordinates,Original*%
%TF.FileFunction,Soldermask,Top*%
%TF.FilePolarity,Negative*%
%FSLAX46Y46*%
G04 Gerber Fmt 4.6, Leading zero omitted, Abs format (unit mm)*
G04 Created by KiCad (PCBNEW (6.0.7)) date 2022-09-13 16:55:12*
%MOMM*%
%LPD*%
G01*
G04 APERTURE LIST*
G04 Aperture macros list*
%AMRoundRect*
0 Rectangle with rounded corners*
0 $1 Rounding radius*
0 $2 $3 $4 $5 $6 $7 $8 $9 X,Y pos of 4 corners*
0 Add a 4 corners polygon primitive as box body*
4,1,4,$2,$3,$4,$5,$6,$7,$8,$9,$2,$3,0*
0 Add four circle primitives for the rounded corners*
1,1,$1+$1,$2,$3*
1,1,$1+$1,$4,$5*
1,1,$1+$1,$6,$7*
1,1,$1+$1,$8,$9*
0 Add four rect primitives between the rounded corners*
20,1,$1+$1,$2,$3,$4,$5,0*
20,1,$1+$1,$4,$5,$6,$7,0*
20,1,$1+$1,$6,$7,$8,$9,0*
20,1,$1+$1,$8,$9,$2,$3,0*%
G04 Aperture macros list end*
%ADD10C,2.300000*%
%ADD11R,1.800000X1.800000*%
%ADD12C,1.800000*%
%ADD13RoundRect,0.200000X-0.275000X0.200000X-0.275000X-0.200000X0.275000X-0.200000X0.275000X0.200000X0*%
%ADD14RoundRect,0.200000X-0.200000X-0.275000X0.200000X-0.275000X0.200000X0.275000X-0.200000X0.275000X0*%
%ADD15C,1.600000*%
%ADD16C,5.700000*%
%ADD17R,1.700000X1.700000*%
%ADD18O,1.700000X1.700000*%
%ADD19RoundRect,0.250000X-0.250000X-0.475000X0.250000X-0.475000X0.250000X0.475000X-0.250000X0.475000X0*%
%ADD20RoundRect,0.225000X-0.225000X-0.250000X0.225000X-0.250000X0.225000X0.250000X-0.225000X0.250000X0*%
%ADD21RoundRect,0.200000X0.275000X-0.200000X0.275000X0.200000X-0.275000X0.200000X-0.275000X-0.200000X0*%
%ADD22RoundRect,0.225000X0.250000X-0.225000X0.250000X0.225000X-0.250000X0.225000X-0.250000X-0.225000X0*%
%ADD23C,2.000000*%
%ADD24C,1.700000*%
%ADD25O,3.000000X5.000000*%
%ADD26O,2.000000X3.000000*%
%ADD27RoundRect,0.250000X0.625000X-0.375000X0.625000X0.375000X-0.625000X0.375000X-0.625000X-0.375000X0*%
%ADD28O,1.800000X1.800000*%
%ADD29R,1.600000X1.600000*%
%ADD30O,1.600000X1.600000*%
%ADD31R,2.600000X2.600000*%
%ADD32C,2.600000*%
%ADD33C,5.000000*%
%ADD34C,1.500000*%
%ADD35O,2.500000X3.000000*%
%ADD36RoundRect,0.250000X-0.625000X0.375000X-0.625000X-0.375000X0.625000X-0.375000X0.625000X0.375000X0*%
%ADD37RoundRect,0.150000X-0.825000X-0.150000X0.825000X-0.150000X0.825000X0.150000X-0.825000X0.150000X0*%
%ADD38C,0.800000*%
G04 APERTURE END LIST*
D10*
%TO.C,J4*%
X83055000Y-36800000D03*
X83055000Y-39340000D03*
X86865000Y-36760000D03*
X86865000Y-39300000D03*
X90675000Y-36800000D03*
X90675000Y-39340000D03*
X94485000Y-36760000D03*
X94485000Y-39300000D03*
X98295000Y-39380000D03*
X98295000Y-36840000D03*
X102105000Y-36800000D03*
X102105000Y-39340000D03*
X105915000Y-36840000D03*
X105915000Y-39380000D03*
X109725000Y-39340000D03*
X109725000Y-36800000D03*
X113535000Y-36800000D03*
X113535000Y-39340000D03*
X117345000Y-36840000D03*
X117345000Y-39380000D03*
X121155000Y-36800000D03*
X121155000Y-39340000D03*
X124965000Y-39420000D03*
X124965000Y-36880000D03*
X128775000Y-39380000D03*
X128775000Y-36840000D03*
X132585000Y-36880000D03*
X132585000Y-39420000D03*
X136395000Y-36840000D03*
X136395000Y-39380000D03*
X140205000Y-36800000D03*
X140205000Y-39340000D03*
X144015000Y-36880000D03*
X144015000Y-39420000D03*
X147825000Y-36840000D03*
X147825000Y-39380000D03*
X151635000Y-39420000D03*
X151635000Y-36880000D03*
X155445000Y-39380000D03*
X155445000Y-36840000D03*
%TD*%
D11*
%TO.C,D2*%
X134237500Y-101512500D03*
D12*
X134237500Y-98972500D03*
%TD*%
D13*
%TO.C,R20*%
X162750000Y-43975000D03*
X162750000Y-45625000D03*
%TD*%
D14*
%TO.C,R3*%
X107025000Y-109750000D03*
X108675000Y-109750000D03*
%TD*%
D15*
%TO.C,C5*%
X91500000Y-82500000D03*
X86500000Y-82500000D03*
%TD*%
D13*
%TO.C,R18*%
X116080000Y-50675000D03*
X116080000Y-52325000D03*
%TD*%
D14*
%TO.C,R8*%
X121385000Y-69750000D03*
X123035000Y-69750000D03*
%TD*%
%TO.C,R11*%
X121385000Y-76250000D03*
X123035000Y-76250000D03*
%TD*%
D16*
%TO.C,H1*%
X72750000Y-37250000D03*
%TD*%
D17*
%TO.C,JP10*%
X103500000Y-82225000D03*
D18*
X103500000Y-84765000D03*
%TD*%
D14*
%TO.C,R10*%
X121385000Y-73000000D03*
X123035000Y-73000000D03*
%TD*%
D19*
%TO.C,CD1*%
X110500000Y-109750000D03*
X112400000Y-109750000D03*
%TD*%
D20*
%TO.C,C3*%
X86475000Y-65750000D03*
X88025000Y-65750000D03*
%TD*%
D21*
%TO.C,R2*%
X156750000Y-73325000D03*
X156750000Y-71675000D03*
%TD*%
D13*
%TO.C,R6*%
X161750000Y-71675000D03*
X161750000Y-73325000D03*
%TD*%
D22*
%TO.C,C2*%
X81250000Y-100525000D03*
X81250000Y-98975000D03*
%TD*%
D23*
%TO.C,U2*%
X127380000Y-80620000D03*
X129920000Y-80620000D03*
X132460000Y-80620000D03*
X135000000Y-80620000D03*
X137540000Y-80620000D03*
X137540000Y-65380000D03*
X135000000Y-65380000D03*
X132460000Y-65380000D03*
X129920000Y-65380000D03*
X127380000Y-65380000D03*
%TD*%
D16*
%TO.C,H4*%
X72750000Y-130250000D03*
%TD*%
D13*
%TO.C,R12*%
X105960000Y-65175000D03*
X105960000Y-66825000D03*
%TD*%
D24*
%TO.C,JP8*%
X111000000Y-44750000D03*
D18*
X113540000Y-44750000D03*
X116080000Y-44750000D03*
%TD*%
D25*
%TO.C,RV1*%
X105200000Y-98689500D03*
X114800000Y-98689500D03*
D26*
X112500000Y-91689500D03*
X110000000Y-91689500D03*
X107500000Y-91689500D03*
%TD*%
D17*
%TO.C,JP5*%
X151750000Y-87512500D03*
D18*
X151750000Y-84972500D03*
%TD*%
D17*
%TO.C,JP4*%
X161750000Y-65000000D03*
D18*
X161750000Y-62460000D03*
%TD*%
D17*
%TO.C,JP9*%
X99750000Y-82225000D03*
D18*
X99750000Y-84765000D03*
%TD*%
D17*
%TO.C,J3*%
X143375000Y-44750000D03*
D18*
X140835000Y-44750000D03*
X138295000Y-44750000D03*
X135755000Y-44750000D03*
X133215000Y-44750000D03*
X130675000Y-44750000D03*
X128135000Y-44750000D03*
X125595000Y-44750000D03*
%TD*%
D17*
%TO.C,J2*%
X151675000Y-54500000D03*
D18*
X154215000Y-54500000D03*
X156755000Y-54500000D03*
X159295000Y-54500000D03*
X161835000Y-54500000D03*
%TD*%
D20*
%TO.C,C4*%
X93725000Y-87000000D03*
X95275000Y-87000000D03*
%TD*%
D27*
%TO.C,D13*%
X83375000Y-56400000D03*
X83375000Y-53600000D03*
%TD*%
D13*
%TO.C,R7*%
X143237500Y-93662500D03*
X143237500Y-95312500D03*
%TD*%
D11*
%TO.C,U4*%
X83940000Y-90355000D03*
D28*
X89020000Y-91625000D03*
X83940000Y-92895000D03*
X89020000Y-94165000D03*
X83940000Y-95435000D03*
X89020000Y-96705000D03*
X83940000Y-97975000D03*
X89020000Y-99245000D03*
X83940000Y-100515000D03*
X89020000Y-101785000D03*
X83940000Y-103055000D03*
X89020000Y-104325000D03*
X83940000Y-105595000D03*
X89020000Y-106865000D03*
X83940000Y-108135000D03*
%TD*%
D24*
%TO.C,JP7*%
X105275000Y-44750000D03*
D18*
X102735000Y-44750000D03*
X100195000Y-44750000D03*
%TD*%
D21*
%TO.C,R19*%
X87750000Y-55825000D03*
X87750000Y-54175000D03*
%TD*%
D13*
%TO.C,R5*%
X134237500Y-93662500D03*
X134237500Y-95312500D03*
%TD*%
D11*
%TO.C,D3*%
X143237500Y-101512500D03*
D12*
X143237500Y-98972500D03*
%TD*%
D29*
%TO.C,U1*%
X110160000Y-64125000D03*
D30*
X110160000Y-66665000D03*
X110160000Y-69205000D03*
X110160000Y-71745000D03*
X110160000Y-74285000D03*
X110160000Y-76825000D03*
X110160000Y-79365000D03*
X110160000Y-81905000D03*
X117780000Y-81905000D03*
X117780000Y-79365000D03*
X117780000Y-76825000D03*
X117780000Y-74285000D03*
X117780000Y-71745000D03*
X117780000Y-69205000D03*
X117780000Y-66665000D03*
X117780000Y-64125000D03*
%TD*%
D31*
%TO.C,J6*%
X74700000Y-101800000D03*
D32*
X74700000Y-106880000D03*
%TD*%
D20*
%TO.C,C6*%
X86475000Y-68500000D03*
X88025000Y-68500000D03*
%TD*%
D13*
%TO.C,R9*%
X152237500Y-93662500D03*
X152237500Y-95312500D03*
%TD*%
D19*
%TO.C,CD2*%
X128550000Y-110000000D03*
X130450000Y-110000000D03*
%TD*%
D13*
%TO.C,R1*%
X125237500Y-93662500D03*
X125237500Y-95312500D03*
%TD*%
D17*
%TO.C,JP1*%
X156750000Y-65025000D03*
D18*
X156750000Y-62485000D03*
%TD*%
D33*
%TO.C,J8*%
X72850000Y-120250000D03*
X88150000Y-120250000D03*
%TD*%
D34*
%TO.C,R17*%
X119550000Y-51750000D03*
X122950000Y-51750000D03*
%TD*%
D12*
%TO.C,SW4*%
X123000000Y-122000000D03*
X132000000Y-122000000D03*
D35*
X130000000Y-115500000D03*
X130000000Y-128000000D03*
X125000000Y-128000000D03*
X125000000Y-115500000D03*
%TD*%
D11*
%TO.C,D1*%
X125237500Y-101512500D03*
D12*
X125237500Y-98972500D03*
%TD*%
D14*
%TO.C,R15*%
X121385000Y-63250000D03*
X123035000Y-63250000D03*
%TD*%
D24*
%TO.C,JP6*%
X129960000Y-85750000D03*
D18*
X132500000Y-85750000D03*
X135040000Y-85750000D03*
%TD*%
D14*
%TO.C,R13*%
X121385000Y-79500000D03*
X123035000Y-79500000D03*
%TD*%
D16*
%TO.C,H3*%
X165750000Y-130250000D03*
%TD*%
D12*
%TO.C,SW1*%
X144250000Y-124290000D03*
X144250000Y-121750000D03*
X144250000Y-119210000D03*
%TD*%
D33*
%TO.C,J7*%
X88150000Y-47250000D03*
X72850000Y-47250000D03*
%TD*%
D12*
%TO.C,SW2*%
X157250000Y-124290000D03*
X157250000Y-121750000D03*
X157250000Y-119210000D03*
%TD*%
D17*
%TO.C,JP2*%
X146750000Y-65025000D03*
D18*
X146750000Y-62485000D03*
%TD*%
D36*
%TO.C,D14*%
X165900000Y-43350000D03*
X165900000Y-46150000D03*
%TD*%
D17*
%TO.C,JP3*%
X151750000Y-65025000D03*
D18*
X151750000Y-62485000D03*
%TD*%
D12*
%TO.C,SW3*%
X105250000Y-122000000D03*
X114250000Y-122000000D03*
D35*
X112250000Y-128000000D03*
X112250000Y-115500000D03*
X107250000Y-128000000D03*
X107250000Y-115500000D03*
%TD*%
D14*
%TO.C,R4*%
X125175000Y-110000000D03*
X126825000Y-110000000D03*
%TD*%
D11*
%TO.C,D4*%
X152237500Y-101512500D03*
D12*
X152237500Y-98972500D03*
%TD*%
D31*
%TO.C,J5*%
X74695000Y-91555000D03*
D32*
X74695000Y-96635000D03*
%TD*%
D20*
%TO.C,C1*%
X117780000Y-61500000D03*
X119330000Y-61500000D03*
%TD*%
D17*
%TO.C,J1*%
X151675000Y-49750000D03*
D18*
X154215000Y-49750000D03*
X156755000Y-49750000D03*
X159295000Y-49750000D03*
X161835000Y-49750000D03*
%TD*%
D16*
%TO.C,H2*%
X165750000Y-37250000D03*
%TD*%
D37*
%TO.C,U3*%
X78775000Y-65845000D03*
X78775000Y-67115000D03*
X78775000Y-68385000D03*
X78775000Y-69655000D03*
X83725000Y-69655000D03*
X83725000Y-68385000D03*
X83725000Y-67115000D03*
X83725000Y-65845000D03*
%TD*%
D14*
%TO.C,R16*%
X121385000Y-66500000D03*
X123035000Y-66500000D03*
%TD*%
%TO.C,R14*%
X121385000Y-82750000D03*
X123035000Y-82750000D03*
%TD*%
D38*
X90750000Y-63750000D03*
X81100000Y-113700000D03*
X102000000Y-109750000D03*
X115500000Y-61500000D03*
X102000000Y-103750000D03*
X93000000Y-63750000D03*
X101000000Y-63750000D03*
X123500000Y-89500000D03*
X109000000Y-61500000D03*
X99000000Y-63750000D03*
X81250000Y-103750000D03*
X107500000Y-82250000D03*
X87750000Y-53250000D03*
X113500000Y-109750000D03*
X131500000Y-110000000D03*
X85500000Y-69750000D03*
X89000000Y-68500000D03*
X89000000Y-65750000D03*
X96250000Y-87000000D03*
X114900000Y-52300000D03*
X162750000Y-46750000D03*
X120500000Y-61500000D03*
X81250000Y-97750000D03*
X104210000Y-73415000D03*
X98750000Y-73500000D03*
X135000000Y-53750000D03*
X129500000Y-53750000D03*
X129750000Y-103250000D03*
X129750000Y-100237500D03*
X138750000Y-100250000D03*
X135000000Y-50000000D03*
X132000000Y-50000000D03*
X138750000Y-103250000D03*
X147750000Y-100250000D03*
X147750000Y-103250000D03*
X99000000Y-109000000D03*
X99000000Y-103750000D03*
M02*
