M48
; DRILL file {KiCad (6.0.7)} date Tue Sep 13 16:55:12 2022
; FORMAT={-:-/ absolute / inch / decimal}
; #@! TF.CreationDate,2022-09-13T16:55:12+02:00
; #@! TF.GenerationSoftware,Kicad,Pcbnew,(6.0.7)
; #@! TF.FileFunction,Plated,1,2,PTH
FMAT,2
INCH
; #@! TA.AperFunction,Plated,PTH,ViaDrill
T1C0.0157
; #@! TA.AperFunction,Plated,PTH,ComponentDrill
T2C0.0315
; #@! TA.AperFunction,Plated,PTH,ComponentDrill
T3C0.0354
; #@! TA.AperFunction,Plated,PTH,ComponentDrill
T4C0.0394
; #@! TA.AperFunction,Plated,PTH,ComponentDrill
T5C0.0472
; #@! TA.AperFunction,Plated,PTH,ComponentDrill
T6C0.0512
; #@! TA.AperFunction,Plated,PTH,ComponentDrill
T7C0.0551
; #@! TA.AperFunction,Plated,PTH,ComponentDrill
T8C0.0591
; #@! TA.AperFunction,Plated,PTH,ComponentDrill
T9C0.0764
; #@! TA.AperFunction,Plated,PTH,ComponentDrill
T10C0.1260
%
G90
G05
T1
X3.1929Y-4.4764
X3.1988Y-3.8484
X3.1988Y-4.0846
X3.3661Y-2.7461
X3.4547Y-2.0965
X3.5039Y-2.5886
X3.5039Y-2.6969
X3.5728Y-2.5098
X3.6614Y-2.5098
X3.7894Y-3.4252
X3.8878Y-2.8937
X3.8976Y-2.5098
X3.8976Y-4.0846
X3.8976Y-4.2913
X3.9764Y-2.5098
X4.0157Y-4.0846
X4.0157Y-4.3209
X4.1028Y-2.8904
X4.2323Y-3.2382
X4.2913Y-2.4213
X4.4685Y-4.3209
X4.5236Y-2.0591
X4.5472Y-2.4213
X4.7441Y-2.4213
X4.8622Y-3.5236
X5.0984Y-2.1161
X5.1083Y-3.9464
X5.1083Y-4.065
X5.1772Y-4.3307
X5.1969Y-1.9685
X5.315Y-1.9685
X5.315Y-2.1161
X5.4626Y-3.9469
X5.4626Y-4.065
X5.8169Y-3.9469
X5.8169Y-4.065
X6.4075Y-1.8406
T2
X3.4055Y-3.248
X3.6024Y-3.248
X4.337Y-2.5246
X4.337Y-2.6246
X4.337Y-2.7246
X4.337Y-2.8246
X4.337Y-2.9246
X4.337Y-3.0246
X4.337Y-3.1246
X4.337Y-3.2246
X4.637Y-2.5246
X4.637Y-2.6246
X4.637Y-2.7246
X4.637Y-2.8246
X4.637Y-2.9246
X4.637Y-3.0246
X4.637Y-3.1246
X4.637Y-3.2246
X4.7067Y-2.0374
X4.8406Y-2.0374
X5.6791Y-4.6933
X5.6791Y-4.7933
X5.6791Y-4.8933
X6.1909Y-4.6933
X6.1909Y-4.7933
X6.1909Y-4.8933
T3
X4.9306Y-3.8966
X4.9306Y-3.9966
X5.2849Y-3.8966
X5.2849Y-3.9966
X5.6393Y-3.8966
X5.6393Y-3.9966
X5.9936Y-3.8966
X5.9936Y-3.9966
T4
X3.3047Y-3.5573
X3.3047Y-3.6573
X3.3047Y-3.7573
X3.3047Y-3.8573
X3.3047Y-3.9573
X3.3047Y-4.0573
X3.3047Y-4.1573
X3.3047Y-4.2573
X3.5047Y-3.6073
X3.5047Y-3.7073
X3.5047Y-3.8073
X3.5047Y-3.9073
X3.5047Y-4.0073
X3.5047Y-4.1073
X3.5047Y-4.2073
X3.9272Y-3.2372
X3.9272Y-3.3372
X3.9447Y-1.7618
X4.0447Y-1.7618
X4.0748Y-3.2372
X4.0748Y-3.3372
X4.1447Y-1.7618
X4.2323Y-3.6098
X4.3307Y-3.6098
X4.3701Y-1.7618
X4.4291Y-3.6098
X4.4701Y-1.7618
X4.5701Y-1.7618
X4.9447Y-1.7618
X5.015Y-2.574
X5.015Y-3.174
X5.0447Y-1.7618
X5.115Y-2.574
X5.115Y-3.174
X5.1165Y-3.376
X5.1447Y-1.7618
X5.215Y-2.574
X5.215Y-3.174
X5.2165Y-3.376
X5.2447Y-1.7618
X5.315Y-2.574
X5.315Y-3.174
X5.3165Y-3.376
X5.3447Y-1.7618
X5.415Y-2.574
X5.415Y-3.174
X5.4447Y-1.7618
X5.5447Y-1.7618
X5.6447Y-1.7618
X5.7776Y-2.46
X5.7776Y-2.56
X5.9715Y-1.9587
X5.9715Y-2.1457
X5.9744Y-2.46
X5.9744Y-2.56
X5.9744Y-3.3454
X5.9744Y-3.4454
X6.0715Y-1.9587
X6.0715Y-2.1457
X6.1713Y-2.46
X6.1713Y-2.56
X6.1715Y-1.9587
X6.1715Y-2.1457
X6.2715Y-1.9587
X6.2715Y-2.1457
X6.3681Y-2.4591
X6.3681Y-2.5591
X6.3715Y-1.9587
X6.3715Y-2.1457
T5
X4.2224Y-4.5472
X4.2224Y-5.0394
X4.4193Y-4.5472
X4.4193Y-5.0394
X4.9213Y-4.5472
X4.9213Y-5.0394
X5.1181Y-4.5472
X5.1181Y-5.0394
T6
X2.9407Y-3.6045
X2.9407Y-3.8045
X2.9409Y-4.0079
X2.9409Y-4.2079
T7
X3.2699Y-1.4488
X3.2699Y-1.5488
X3.4199Y-1.4472
X3.4199Y-1.5472
X3.5699Y-1.4488
X3.5699Y-1.5488
X3.7199Y-1.4472
X3.7199Y-1.5472
X3.8699Y-1.4504
X3.8699Y-1.5504
X4.0199Y-1.4488
X4.0199Y-1.5488
X4.1699Y-1.4504
X4.1699Y-1.5504
X4.3199Y-1.4488
X4.3199Y-1.5488
X4.4699Y-1.4488
X4.4699Y-1.5488
X4.6199Y-1.4504
X4.6199Y-1.5504
X4.7699Y-1.4488
X4.7699Y-1.5488
X4.9199Y-1.452
X4.9199Y-1.552
X5.0699Y-1.4504
X5.0699Y-1.5504
X5.2199Y-1.452
X5.2199Y-1.552
X5.3699Y-1.4504
X5.3699Y-1.5504
X5.5199Y-1.4488
X5.5199Y-1.5488
X5.6699Y-1.452
X5.6699Y-1.552
X5.8199Y-1.4504
X5.8199Y-1.5504
X5.9699Y-1.452
X5.9699Y-1.552
X6.1199Y-1.4504
X6.1199Y-1.5504
T9
X2.8681Y-1.8602
X2.8681Y-4.7343
X3.4705Y-1.8602
X3.4705Y-4.7343
T10
X2.8642Y-1.4665
X2.8642Y-5.128
X6.5256Y-1.4665
X6.5256Y-5.128
T8
G00X4.1417Y-3.9051
M15
G01X4.1417Y-3.8657
M16
G05
G00X4.5197Y-3.9051
M15
G01X4.5197Y-3.8657
M16
G05
T0
M30
