%TF.GenerationSoftware,KiCad,Pcbnew,(6.0.9)*%
%TF.CreationDate,2022-12-19T14:35:32+01:00*%
%TF.ProjectId,myDAQExpansionBoard,6d794441-5145-4787-9061-6e73696f6e42,rev?*%
%TF.SameCoordinates,Original*%
%TF.FileFunction,Legend,Bot*%
%TF.FilePolarity,Positive*%
%FSLAX46Y46*%
G04 Gerber Fmt 4.6, Leading zero omitted, Abs format (unit mm)*
G04 Created by KiCad (PCBNEW (6.0.9)) date 2022-12-19 14:35:32*
%MOMM*%
%LPD*%
G01*
G04 APERTURE LIST*
%ADD10C,0.250000*%
%ADD11C,0.150000*%
%ADD12C,0.120000*%
%ADD13R,1.800000X1.800000*%
%ADD14C,1.800000*%
%ADD15C,1.600000*%
%ADD16C,5.700000*%
%ADD17R,1.700000X1.700000*%
%ADD18O,1.700000X1.700000*%
%ADD19C,2.000000*%
%ADD20C,1.700000*%
%ADD21O,3.000000X5.000000*%
%ADD22O,2.000000X3.000000*%
%ADD23C,2.300000*%
%ADD24O,1.800000X1.800000*%
%ADD25C,2.500000*%
%ADD26R,1.600000X1.600000*%
%ADD27O,1.600000X1.600000*%
%ADD28R,2.600000X2.600000*%
%ADD29C,2.600000*%
%ADD30C,5.000000*%
%ADD31C,1.500000*%
%ADD32O,2.500000X3.000000*%
%ADD33C,3.500000*%
%ADD34R,2.500000X1.800000*%
%ADD35R,1.800000X2.500000*%
G04 APERTURE END LIST*
D10*
X159950000Y-67300000D02*
X160083333Y-67233333D01*
X160283333Y-67233333D01*
X160483333Y-67300000D01*
X160616666Y-67433333D01*
X160683333Y-67566666D01*
X160750000Y-67833333D01*
X160750000Y-68033333D01*
X160683333Y-68300000D01*
X160616666Y-68433333D01*
X160483333Y-68566666D01*
X160283333Y-68633333D01*
X160150000Y-68633333D01*
X159950000Y-68566666D01*
X159883333Y-68500000D01*
X159883333Y-68033333D01*
X160150000Y-68033333D01*
X159283333Y-68633333D02*
X159283333Y-67700000D01*
X159283333Y-67233333D02*
X159350000Y-67300000D01*
X159283333Y-67366666D01*
X159216666Y-67300000D01*
X159283333Y-67233333D01*
X159283333Y-67366666D01*
X158816666Y-67700000D02*
X158283333Y-67700000D01*
X158616666Y-67233333D02*
X158616666Y-68433333D01*
X158550000Y-68566666D01*
X158416666Y-68633333D01*
X158283333Y-68633333D01*
X157816666Y-68500000D02*
X157750000Y-68566666D01*
X157816666Y-68633333D01*
X157883333Y-68566666D01*
X157816666Y-68500000D01*
X157816666Y-68633333D01*
X157816666Y-67766666D02*
X157750000Y-67833333D01*
X157816666Y-67900000D01*
X157883333Y-67833333D01*
X157816666Y-67766666D01*
X157816666Y-67900000D01*
D11*
X160738095Y-129785714D02*
X160738095Y-130642857D01*
X160785714Y-130738095D01*
X160880952Y-130785714D01*
X160928571Y-130785714D01*
X160738095Y-129452380D02*
X160785714Y-129500000D01*
X160738095Y-129547619D01*
X160690476Y-129500000D01*
X160738095Y-129452380D01*
X160738095Y-129547619D01*
X160119047Y-130452380D02*
X160214285Y-130404761D01*
X160261904Y-130357142D01*
X160309523Y-130261904D01*
X160309523Y-129976190D01*
X160261904Y-129880952D01*
X160214285Y-129833333D01*
X160119047Y-129785714D01*
X159976190Y-129785714D01*
X159880952Y-129833333D01*
X159833333Y-129880952D01*
X159785714Y-129976190D01*
X159785714Y-130261904D01*
X159833333Y-130357142D01*
X159880952Y-130404761D01*
X159976190Y-130452380D01*
X160119047Y-130452380D01*
X159404761Y-130404761D02*
X159309523Y-130452380D01*
X159119047Y-130452380D01*
X159023809Y-130404761D01*
X158976190Y-130309523D01*
X158976190Y-130261904D01*
X159023809Y-130166666D01*
X159119047Y-130119047D01*
X159261904Y-130119047D01*
X159357142Y-130071428D01*
X159404761Y-129976190D01*
X159404761Y-129928571D01*
X159357142Y-129833333D01*
X159261904Y-129785714D01*
X159119047Y-129785714D01*
X159023809Y-129833333D01*
X158547619Y-130452380D02*
X158547619Y-129785714D01*
X158547619Y-129452380D02*
X158595238Y-129500000D01*
X158547619Y-129547619D01*
X158500000Y-129500000D01*
X158547619Y-129452380D01*
X158547619Y-129547619D01*
X158071428Y-129785714D02*
X158071428Y-130785714D01*
X158071428Y-129833333D02*
X157976190Y-129785714D01*
X157785714Y-129785714D01*
X157690476Y-129833333D01*
X157642857Y-129880952D01*
X157595238Y-129976190D01*
X157595238Y-130261904D01*
X157642857Y-130357142D01*
X157690476Y-130404761D01*
X157785714Y-130452380D01*
X157976190Y-130452380D01*
X158071428Y-130404761D01*
X157166666Y-130357142D02*
X157119047Y-130404761D01*
X157166666Y-130452380D01*
X157214285Y-130404761D01*
X157166666Y-130357142D01*
X157166666Y-130452380D01*
X156690476Y-130452380D02*
X156690476Y-129452380D01*
X156595238Y-130071428D02*
X156309523Y-130452380D01*
X156309523Y-129785714D02*
X156690476Y-130166666D01*
X155738095Y-130452380D02*
X155833333Y-130404761D01*
X155880952Y-130357142D01*
X155928571Y-130261904D01*
X155928571Y-129976190D01*
X155880952Y-129880952D01*
X155833333Y-129833333D01*
X155738095Y-129785714D01*
X155595238Y-129785714D01*
X155500000Y-129833333D01*
X155452380Y-129880952D01*
X155404761Y-129976190D01*
X155404761Y-130261904D01*
X155452380Y-130357142D01*
X155500000Y-130404761D01*
X155595238Y-130452380D01*
X155738095Y-130452380D01*
X154976190Y-130452380D02*
X154976190Y-129785714D01*
X154976190Y-129976190D02*
X154928571Y-129880952D01*
X154880952Y-129833333D01*
X154785714Y-129785714D01*
X154690476Y-129785714D01*
X153928571Y-130452380D02*
X153928571Y-129452380D01*
X153928571Y-130404761D02*
X154023809Y-130452380D01*
X154214285Y-130452380D01*
X154309523Y-130404761D01*
X154357142Y-130357142D01*
X154404761Y-130261904D01*
X154404761Y-129976190D01*
X154357142Y-129880952D01*
X154309523Y-129833333D01*
X154214285Y-129785714D01*
X154023809Y-129785714D01*
X153928571Y-129833333D01*
X153071428Y-130404761D02*
X153166666Y-130452380D01*
X153357142Y-130452380D01*
X153452380Y-130404761D01*
X153500000Y-130309523D01*
X153500000Y-129928571D01*
X153452380Y-129833333D01*
X153357142Y-129785714D01*
X153166666Y-129785714D01*
X153071428Y-129833333D01*
X153023809Y-129928571D01*
X153023809Y-130023809D01*
X153500000Y-130119047D01*
X152595238Y-130452380D02*
X152595238Y-129452380D01*
X152500000Y-130071428D02*
X152214285Y-130452380D01*
X152214285Y-129785714D02*
X152595238Y-130166666D01*
X151166666Y-129976190D02*
X151214285Y-129928571D01*
X151309523Y-129880952D01*
X151404761Y-129880952D01*
X151500000Y-129928571D01*
X151547619Y-129976190D01*
X151595238Y-130071428D01*
X151595238Y-130166666D01*
X151547619Y-130261904D01*
X151500000Y-130309523D01*
X151404761Y-130357142D01*
X151309523Y-130357142D01*
X151214285Y-130309523D01*
X151166666Y-130261904D01*
X151166666Y-129880952D02*
X151166666Y-130261904D01*
X151119047Y-130309523D01*
X151071428Y-130309523D01*
X150976190Y-130261904D01*
X150928571Y-130166666D01*
X150928571Y-129928571D01*
X151023809Y-129785714D01*
X151166666Y-129690476D01*
X151357142Y-129642857D01*
X151547619Y-129690476D01*
X151690476Y-129785714D01*
X151785714Y-129928571D01*
X151833333Y-130119047D01*
X151785714Y-130309523D01*
X151690476Y-130452380D01*
X151547619Y-130547619D01*
X151357142Y-130595238D01*
X151166666Y-130547619D01*
X151023809Y-130452380D01*
X150071428Y-129785714D02*
X150071428Y-130595238D01*
X150119047Y-130690476D01*
X150166666Y-130738095D01*
X150261904Y-130785714D01*
X150404761Y-130785714D01*
X150500000Y-130738095D01*
X150071428Y-130404761D02*
X150166666Y-130452380D01*
X150357142Y-130452380D01*
X150452380Y-130404761D01*
X150500000Y-130357142D01*
X150547619Y-130261904D01*
X150547619Y-129976190D01*
X150500000Y-129880952D01*
X150452380Y-129833333D01*
X150357142Y-129785714D01*
X150166666Y-129785714D01*
X150071428Y-129833333D01*
X149595238Y-130452380D02*
X149595238Y-129785714D01*
X149595238Y-129880952D02*
X149547619Y-129833333D01*
X149452380Y-129785714D01*
X149309523Y-129785714D01*
X149214285Y-129833333D01*
X149166666Y-129928571D01*
X149166666Y-130452380D01*
X149166666Y-129928571D02*
X149119047Y-129833333D01*
X149023809Y-129785714D01*
X148880952Y-129785714D01*
X148785714Y-129833333D01*
X148738095Y-129928571D01*
X148738095Y-130452380D01*
X147833333Y-130452380D02*
X147833333Y-129928571D01*
X147880952Y-129833333D01*
X147976190Y-129785714D01*
X148166666Y-129785714D01*
X148261904Y-129833333D01*
X147833333Y-130404761D02*
X147928571Y-130452380D01*
X148166666Y-130452380D01*
X148261904Y-130404761D01*
X148309523Y-130309523D01*
X148309523Y-130214285D01*
X148261904Y-130119047D01*
X148166666Y-130071428D01*
X147928571Y-130071428D01*
X147833333Y-130023809D01*
X147357142Y-130452380D02*
X147357142Y-129785714D01*
X147357142Y-129452380D02*
X147404761Y-129500000D01*
X147357142Y-129547619D01*
X147309523Y-129500000D01*
X147357142Y-129452380D01*
X147357142Y-129547619D01*
X146738095Y-130452380D02*
X146833333Y-130404761D01*
X146880952Y-130309523D01*
X146880952Y-129452380D01*
X146357142Y-130357142D02*
X146309523Y-130404761D01*
X146357142Y-130452380D01*
X146404761Y-130404761D01*
X146357142Y-130357142D01*
X146357142Y-130452380D01*
X145452380Y-130404761D02*
X145547619Y-130452380D01*
X145738095Y-130452380D01*
X145833333Y-130404761D01*
X145880952Y-130357142D01*
X145928571Y-130261904D01*
X145928571Y-129976190D01*
X145880952Y-129880952D01*
X145833333Y-129833333D01*
X145738095Y-129785714D01*
X145547619Y-129785714D01*
X145452380Y-129833333D01*
X144880952Y-130452380D02*
X144976190Y-130404761D01*
X145023809Y-130357142D01*
X145071428Y-130261904D01*
X145071428Y-129976190D01*
X145023809Y-129880952D01*
X144976190Y-129833333D01*
X144880952Y-129785714D01*
X144738095Y-129785714D01*
X144642857Y-129833333D01*
X144595238Y-129880952D01*
X144547619Y-129976190D01*
X144547619Y-130261904D01*
X144595238Y-130357142D01*
X144642857Y-130404761D01*
X144738095Y-130452380D01*
X144880952Y-130452380D01*
X144119047Y-130452380D02*
X144119047Y-129785714D01*
X144119047Y-129880952D02*
X144071428Y-129833333D01*
X143976190Y-129785714D01*
X143833333Y-129785714D01*
X143738095Y-129833333D01*
X143690476Y-129928571D01*
X143690476Y-130452380D01*
X143690476Y-129928571D02*
X143642857Y-129833333D01*
X143547619Y-129785714D01*
X143404761Y-129785714D01*
X143309523Y-129833333D01*
X143261904Y-129928571D01*
X143261904Y-130452380D01*
%TO.C,D6*%
X85988095Y-97202380D02*
X85988095Y-96202380D01*
X85750000Y-96202380D01*
X85607142Y-96250000D01*
X85511904Y-96345238D01*
X85464285Y-96440476D01*
X85416666Y-96630952D01*
X85416666Y-96773809D01*
X85464285Y-96964285D01*
X85511904Y-97059523D01*
X85607142Y-97154761D01*
X85750000Y-97202380D01*
X85988095Y-97202380D01*
X84559523Y-96202380D02*
X84750000Y-96202380D01*
X84845238Y-96250000D01*
X84892857Y-96297619D01*
X84988095Y-96440476D01*
X85035714Y-96630952D01*
X85035714Y-97011904D01*
X84988095Y-97107142D01*
X84940476Y-97154761D01*
X84845238Y-97202380D01*
X84654761Y-97202380D01*
X84559523Y-97154761D01*
X84511904Y-97107142D01*
X84464285Y-97011904D01*
X84464285Y-96773809D01*
X84511904Y-96678571D01*
X84559523Y-96630952D01*
X84654761Y-96583333D01*
X84845238Y-96583333D01*
X84940476Y-96630952D01*
X84988095Y-96678571D01*
X85035714Y-96773809D01*
%TO.C,D5*%
X85988095Y-86702380D02*
X85988095Y-85702380D01*
X85750000Y-85702380D01*
X85607142Y-85750000D01*
X85511904Y-85845238D01*
X85464285Y-85940476D01*
X85416666Y-86130952D01*
X85416666Y-86273809D01*
X85464285Y-86464285D01*
X85511904Y-86559523D01*
X85607142Y-86654761D01*
X85750000Y-86702380D01*
X85988095Y-86702380D01*
X84511904Y-85702380D02*
X84988095Y-85702380D01*
X85035714Y-86178571D01*
X84988095Y-86130952D01*
X84892857Y-86083333D01*
X84654761Y-86083333D01*
X84559523Y-86130952D01*
X84511904Y-86178571D01*
X84464285Y-86273809D01*
X84464285Y-86511904D01*
X84511904Y-86607142D01*
X84559523Y-86654761D01*
X84654761Y-86702380D01*
X84892857Y-86702380D01*
X84988095Y-86654761D01*
X85035714Y-86607142D01*
%TO.C,D10*%
X71702380Y-110685714D02*
X70702380Y-110685714D01*
X70702380Y-110923809D01*
X70750000Y-111066666D01*
X70845238Y-111161904D01*
X70940476Y-111209523D01*
X71130952Y-111257142D01*
X71273809Y-111257142D01*
X71464285Y-111209523D01*
X71559523Y-111161904D01*
X71654761Y-111066666D01*
X71702380Y-110923809D01*
X71702380Y-110685714D01*
X71702380Y-112209523D02*
X71702380Y-111638095D01*
X71702380Y-111923809D02*
X70702380Y-111923809D01*
X70845238Y-111828571D01*
X70940476Y-111733333D01*
X70988095Y-111638095D01*
X70702380Y-112828571D02*
X70702380Y-112923809D01*
X70750000Y-113019047D01*
X70797619Y-113066666D01*
X70892857Y-113114285D01*
X71083333Y-113161904D01*
X71321428Y-113161904D01*
X71511904Y-113114285D01*
X71607142Y-113066666D01*
X71654761Y-113019047D01*
X71702380Y-112923809D01*
X71702380Y-112828571D01*
X71654761Y-112733333D01*
X71607142Y-112685714D01*
X71511904Y-112638095D01*
X71321428Y-112590476D01*
X71083333Y-112590476D01*
X70892857Y-112638095D01*
X70797619Y-112685714D01*
X70750000Y-112733333D01*
X70702380Y-112828571D01*
%TO.C,D11*%
X84952380Y-54035714D02*
X83952380Y-54035714D01*
X83952380Y-54273809D01*
X84000000Y-54416666D01*
X84095238Y-54511904D01*
X84190476Y-54559523D01*
X84380952Y-54607142D01*
X84523809Y-54607142D01*
X84714285Y-54559523D01*
X84809523Y-54511904D01*
X84904761Y-54416666D01*
X84952380Y-54273809D01*
X84952380Y-54035714D01*
X84952380Y-55559523D02*
X84952380Y-54988095D01*
X84952380Y-55273809D02*
X83952380Y-55273809D01*
X84095238Y-55178571D01*
X84190476Y-55083333D01*
X84238095Y-54988095D01*
X84952380Y-56511904D02*
X84952380Y-55940476D01*
X84952380Y-56226190D02*
X83952380Y-56226190D01*
X84095238Y-56130952D01*
X84190476Y-56035714D01*
X84238095Y-55940476D01*
%TO.C,D9*%
X79952380Y-111161904D02*
X78952380Y-111161904D01*
X78952380Y-111400000D01*
X79000000Y-111542857D01*
X79095238Y-111638095D01*
X79190476Y-111685714D01*
X79380952Y-111733333D01*
X79523809Y-111733333D01*
X79714285Y-111685714D01*
X79809523Y-111638095D01*
X79904761Y-111542857D01*
X79952380Y-111400000D01*
X79952380Y-111161904D01*
X79952380Y-112209523D02*
X79952380Y-112400000D01*
X79904761Y-112495238D01*
X79857142Y-112542857D01*
X79714285Y-112638095D01*
X79523809Y-112685714D01*
X79142857Y-112685714D01*
X79047619Y-112638095D01*
X79000000Y-112590476D01*
X78952380Y-112495238D01*
X78952380Y-112304761D01*
X79000000Y-112209523D01*
X79047619Y-112161904D01*
X79142857Y-112114285D01*
X79380952Y-112114285D01*
X79476190Y-112161904D01*
X79523809Y-112209523D01*
X79571428Y-112304761D01*
X79571428Y-112495238D01*
X79523809Y-112590476D01*
X79476190Y-112638095D01*
X79380952Y-112685714D01*
%TO.C,D7*%
X85988095Y-81902380D02*
X85988095Y-80902380D01*
X85750000Y-80902380D01*
X85607142Y-80950000D01*
X85511904Y-81045238D01*
X85464285Y-81140476D01*
X85416666Y-81330952D01*
X85416666Y-81473809D01*
X85464285Y-81664285D01*
X85511904Y-81759523D01*
X85607142Y-81854761D01*
X85750000Y-81902380D01*
X85988095Y-81902380D01*
X85083333Y-80902380D02*
X84416666Y-80902380D01*
X84845238Y-81902380D01*
%TO.C,D12*%
X76702380Y-54035714D02*
X75702380Y-54035714D01*
X75702380Y-54273809D01*
X75750000Y-54416666D01*
X75845238Y-54511904D01*
X75940476Y-54559523D01*
X76130952Y-54607142D01*
X76273809Y-54607142D01*
X76464285Y-54559523D01*
X76559523Y-54511904D01*
X76654761Y-54416666D01*
X76702380Y-54273809D01*
X76702380Y-54035714D01*
X76702380Y-55559523D02*
X76702380Y-54988095D01*
X76702380Y-55273809D02*
X75702380Y-55273809D01*
X75845238Y-55178571D01*
X75940476Y-55083333D01*
X75988095Y-54988095D01*
X75797619Y-55940476D02*
X75750000Y-55988095D01*
X75702380Y-56083333D01*
X75702380Y-56321428D01*
X75750000Y-56416666D01*
X75797619Y-56464285D01*
X75892857Y-56511904D01*
X75988095Y-56511904D01*
X76130952Y-56464285D01*
X76702380Y-55892857D01*
X76702380Y-56511904D01*
%TO.C,D8*%
X85988095Y-71652380D02*
X85988095Y-70652380D01*
X85750000Y-70652380D01*
X85607142Y-70700000D01*
X85511904Y-70795238D01*
X85464285Y-70890476D01*
X85416666Y-71080952D01*
X85416666Y-71223809D01*
X85464285Y-71414285D01*
X85511904Y-71509523D01*
X85607142Y-71604761D01*
X85750000Y-71652380D01*
X85988095Y-71652380D01*
X84845238Y-71080952D02*
X84940476Y-71033333D01*
X84988095Y-70985714D01*
X85035714Y-70890476D01*
X85035714Y-70842857D01*
X84988095Y-70747619D01*
X84940476Y-70700000D01*
X84845238Y-70652380D01*
X84654761Y-70652380D01*
X84559523Y-70700000D01*
X84511904Y-70747619D01*
X84464285Y-70842857D01*
X84464285Y-70890476D01*
X84511904Y-70985714D01*
X84559523Y-71033333D01*
X84654761Y-71080952D01*
X84845238Y-71080952D01*
X84940476Y-71128571D01*
X84988095Y-71176190D01*
X85035714Y-71271428D01*
X85035714Y-71461904D01*
X84988095Y-71557142D01*
X84940476Y-71604761D01*
X84845238Y-71652380D01*
X84654761Y-71652380D01*
X84559523Y-71604761D01*
X84511904Y-71557142D01*
X84464285Y-71461904D01*
X84464285Y-71271428D01*
X84511904Y-71176190D01*
X84559523Y-71128571D01*
X84654761Y-71080952D01*
D12*
%TO.C,D6*%
X88650000Y-100900000D02*
X83250000Y-100900000D01*
X88650000Y-97600000D02*
X88650000Y-100900000D01*
X88650000Y-97600000D02*
X83250000Y-97600000D01*
%TO.C,G\u002A\u002A\u002A*%
G36*
X149580690Y-71593770D02*
G01*
X148364315Y-71593770D01*
X148364315Y-70377395D01*
X149580690Y-70377395D01*
X149580690Y-71593770D01*
G37*
G36*
X157689856Y-74837436D02*
G01*
X157284397Y-74837436D01*
X157284397Y-74431978D01*
X157689856Y-74431978D01*
X157689856Y-74837436D01*
G37*
G36*
X155662564Y-71999228D02*
G01*
X155257106Y-71999228D01*
X155257106Y-72810144D01*
X154851648Y-72810144D01*
X154851648Y-71999228D01*
X154446189Y-71999228D01*
X154446189Y-71593770D01*
X155662564Y-71593770D01*
X155662564Y-71999228D01*
G37*
G36*
X147958857Y-73215603D02*
G01*
X147553398Y-73215603D01*
X147553398Y-72810144D01*
X147958857Y-72810144D01*
X147958857Y-73215603D01*
G37*
G36*
X157689856Y-81324769D02*
G01*
X157284397Y-81324769D01*
X157284397Y-80919310D01*
X157689856Y-80919310D01*
X157689856Y-81324769D01*
G37*
G36*
X160933522Y-78486560D02*
G01*
X160528064Y-78486560D01*
X160528064Y-78081102D01*
X160933522Y-78081102D01*
X160933522Y-78486560D01*
G37*
G36*
X160933522Y-77675644D02*
G01*
X160528064Y-77675644D01*
X160528064Y-78081102D01*
X160122605Y-78081102D01*
X160122605Y-76459269D01*
X160933522Y-76459269D01*
X160933522Y-77675644D01*
G37*
G36*
X152418898Y-70782853D02*
G01*
X151607981Y-70782853D01*
X151607981Y-71188311D01*
X151202523Y-71188311D01*
X151202523Y-70782853D01*
X150797065Y-70782853D01*
X150797065Y-70377395D01*
X152013440Y-70377395D01*
X152013440Y-69971936D01*
X152418898Y-69971936D01*
X152418898Y-70782853D01*
G37*
G36*
X157689856Y-78486560D02*
G01*
X157284397Y-78486560D01*
X157284397Y-78081102D01*
X157689856Y-78081102D01*
X157689856Y-78486560D01*
G37*
G36*
X147553398Y-72404686D02*
G01*
X147553398Y-71973069D01*
X147985015Y-71973069D01*
X149959989Y-71973069D01*
X149959989Y-69998095D01*
X147985015Y-69998095D01*
X147985015Y-71973069D01*
X147553398Y-71973069D01*
X147553398Y-69566478D01*
X150391606Y-69566478D01*
X150391606Y-72404686D01*
X147553398Y-72404686D01*
G37*
G36*
X154446189Y-72404686D02*
G01*
X154040731Y-72404686D01*
X154040731Y-71999228D01*
X154446189Y-71999228D01*
X154446189Y-72404686D01*
G37*
G36*
X148364315Y-74837436D02*
G01*
X147553398Y-74837436D01*
X147553398Y-74431978D01*
X147958857Y-74431978D01*
X147958857Y-74026519D01*
X148364315Y-74026519D01*
X148364315Y-74837436D01*
G37*
G36*
X155257106Y-75242894D02*
G01*
X154851648Y-75242894D01*
X154851648Y-74837436D01*
X155257106Y-74837436D01*
X155257106Y-75242894D01*
G37*
G36*
X153229814Y-74431978D02*
G01*
X152824356Y-74431978D01*
X152824356Y-74026519D01*
X153229814Y-74026519D01*
X153229814Y-74431978D01*
G37*
G36*
X158906230Y-76053811D02*
G01*
X158906230Y-75648352D01*
X159311689Y-75648352D01*
X160528064Y-75648352D01*
X160528064Y-75242894D01*
X160122605Y-75242894D01*
X160122605Y-75648352D01*
X159717147Y-75648352D01*
X159717147Y-74431978D01*
X159311689Y-74431978D01*
X159311689Y-75648352D01*
X158906230Y-75648352D01*
X158906230Y-75242894D01*
X158500772Y-75242894D01*
X158500772Y-74837436D01*
X158095314Y-74837436D01*
X158095314Y-74431978D01*
X158500772Y-74431978D01*
X158500772Y-74837436D01*
X158906230Y-74837436D01*
X158906230Y-74026519D01*
X158095314Y-74026519D01*
X158095314Y-74431978D01*
X157689856Y-74431978D01*
X157689856Y-74026519D01*
X158095314Y-74026519D01*
X158095314Y-73621061D01*
X158906230Y-73621061D01*
X158906230Y-72810144D01*
X159311689Y-72810144D01*
X159311689Y-73215603D01*
X159717147Y-73215603D01*
X159717147Y-73621061D01*
X160122605Y-73621061D01*
X160122605Y-74026519D01*
X160528064Y-74026519D01*
X160528064Y-73621061D01*
X160933522Y-73621061D01*
X160933522Y-76053811D01*
X158906230Y-76053811D01*
G37*
G36*
X150797065Y-74026519D02*
G01*
X150391606Y-74026519D01*
X150391606Y-74837436D01*
X149986148Y-74837436D01*
X149986148Y-73621061D01*
X150391606Y-73621061D01*
X150391606Y-73215603D01*
X149175231Y-73215603D01*
X149175231Y-74026519D01*
X148769773Y-74026519D01*
X148769773Y-73621061D01*
X147958857Y-73621061D01*
X147958857Y-73215603D01*
X148769773Y-73215603D01*
X148769773Y-72810144D01*
X150797065Y-72810144D01*
X150797065Y-74026519D01*
G37*
G36*
X147958857Y-76864727D02*
G01*
X147553398Y-76864727D01*
X147553398Y-76459269D01*
X147958857Y-76459269D01*
X147958857Y-76864727D01*
G37*
G36*
X147958857Y-82946602D02*
G01*
X147553398Y-82946602D01*
X147553398Y-82541143D01*
X147958857Y-82541143D01*
X147958857Y-82946602D01*
G37*
G36*
X158095314Y-72404686D02*
G01*
X158095314Y-71973069D01*
X158526931Y-71973069D01*
X160501905Y-71973069D01*
X160501905Y-69998095D01*
X158526931Y-69998095D01*
X158526931Y-71973069D01*
X158095314Y-71973069D01*
X158095314Y-69566478D01*
X160933522Y-69566478D01*
X160933522Y-72404686D01*
X158095314Y-72404686D01*
G37*
G36*
X160122605Y-82135685D02*
G01*
X158906230Y-82135685D01*
X158906230Y-80919310D01*
X160122605Y-80919310D01*
X160122605Y-82135685D01*
G37*
G36*
X160933522Y-73215603D02*
G01*
X160528064Y-73215603D01*
X160528064Y-72810144D01*
X160933522Y-72810144D01*
X160933522Y-73215603D01*
G37*
G36*
X150391606Y-80513852D02*
G01*
X149986148Y-80513852D01*
X149986148Y-80108394D01*
X150391606Y-80108394D01*
X150391606Y-80513852D01*
G37*
G36*
X156068022Y-77270186D02*
G01*
X155662564Y-77270186D01*
X155662564Y-76864727D01*
X156068022Y-76864727D01*
X156068022Y-77270186D01*
G37*
G36*
X154851648Y-76053811D02*
G01*
X154040731Y-76053811D01*
X154040731Y-76459269D01*
X153635273Y-76459269D01*
X153635273Y-75648352D01*
X154446189Y-75648352D01*
X154446189Y-75242894D01*
X154851648Y-75242894D01*
X154851648Y-76053811D01*
G37*
G36*
X150797065Y-76864727D02*
G01*
X150391606Y-76864727D01*
X150391606Y-76459269D01*
X150797065Y-76459269D01*
X150797065Y-76864727D01*
G37*
G36*
X153635273Y-76864727D02*
G01*
X153229814Y-76864727D01*
X153229814Y-76459269D01*
X153635273Y-76459269D01*
X153635273Y-76864727D01*
G37*
G36*
X148364315Y-75648352D02*
G01*
X147958857Y-75648352D01*
X147958857Y-75242894D01*
X148364315Y-75242894D01*
X148364315Y-75648352D01*
G37*
G36*
X157284397Y-78081102D02*
G01*
X156878939Y-78081102D01*
X156878939Y-77675644D01*
X157284397Y-77675644D01*
X157284397Y-78081102D01*
G37*
G36*
X154851648Y-74837436D02*
G01*
X154040731Y-74837436D01*
X154040731Y-74431978D01*
X154851648Y-74431978D01*
X154851648Y-74837436D01*
G37*
G36*
X160122605Y-71593770D02*
G01*
X158906230Y-71593770D01*
X158906230Y-70377395D01*
X160122605Y-70377395D01*
X160122605Y-71593770D01*
G37*
G36*
X157689856Y-69971936D02*
G01*
X157284397Y-69971936D01*
X157284397Y-70377395D01*
X156878939Y-70377395D01*
X156878939Y-69566478D01*
X157689856Y-69566478D01*
X157689856Y-69971936D01*
G37*
G36*
X156878939Y-77270186D02*
G01*
X156473481Y-77270186D01*
X156473481Y-76864727D01*
X156878939Y-76864727D01*
X156878939Y-77270186D01*
G37*
G36*
X149175231Y-82946602D02*
G01*
X148769773Y-82946602D01*
X148769773Y-82541143D01*
X149175231Y-82541143D01*
X149175231Y-82946602D01*
G37*
G36*
X157689856Y-82946602D02*
G01*
X157284397Y-82946602D01*
X157284397Y-82541143D01*
X157689856Y-82541143D01*
X157689856Y-82946602D01*
G37*
G36*
X156878939Y-78486560D02*
G01*
X156473481Y-78486560D01*
X156473481Y-78081102D01*
X156878939Y-78081102D01*
X156878939Y-78486560D01*
G37*
G36*
X147958857Y-81324769D02*
G01*
X147553398Y-81324769D01*
X147553398Y-80919310D01*
X147958857Y-80919310D01*
X147958857Y-81324769D01*
G37*
G36*
X157689856Y-72810144D02*
G01*
X158500772Y-72810144D01*
X158500772Y-73215603D01*
X158095314Y-73215603D01*
X158095314Y-73621061D01*
X156473481Y-73621061D01*
X156473481Y-73215603D01*
X156878939Y-73215603D01*
X156878939Y-72810144D01*
X157284397Y-72810144D01*
X157284397Y-70782853D01*
X157689856Y-70782853D01*
X157689856Y-72810144D01*
G37*
G36*
X153635273Y-74026519D02*
G01*
X153229814Y-74026519D01*
X153229814Y-73621061D01*
X153635273Y-73621061D01*
X153635273Y-74026519D01*
G37*
G36*
X159717147Y-78486560D02*
G01*
X160122605Y-78486560D01*
X160122605Y-79297477D01*
X160933522Y-79297477D01*
X160933522Y-79702935D01*
X159717147Y-79702935D01*
X159717147Y-79297477D01*
X159311689Y-79297477D01*
X159311689Y-78892019D01*
X159717147Y-78892019D01*
X159717147Y-78486560D01*
G37*
G36*
X149986148Y-75242894D02*
G01*
X150797065Y-75242894D01*
X150797065Y-74431978D01*
X151202523Y-74431978D01*
X151202523Y-72810144D01*
X150797065Y-72810144D01*
X150797065Y-71999228D01*
X151202523Y-71999228D01*
X151202523Y-72404686D01*
X151607981Y-72404686D01*
X152013440Y-72404686D01*
X152418898Y-72404686D01*
X152418898Y-71999228D01*
X152013440Y-71999228D01*
X152013440Y-72404686D01*
X151607981Y-72404686D01*
X151607981Y-71999228D01*
X152013440Y-71999228D01*
X152013440Y-71593770D01*
X152824356Y-71593770D01*
X152824356Y-69971936D01*
X153229814Y-69971936D01*
X153229814Y-69566478D01*
X153635273Y-69566478D01*
X153635273Y-70377395D01*
X154040731Y-70377395D01*
X154040731Y-69566478D01*
X154851648Y-69566478D01*
X154851648Y-69971936D01*
X155257106Y-69971936D01*
X155257106Y-69566478D01*
X155662564Y-69566478D01*
X155662564Y-69971936D01*
X156473481Y-69971936D01*
X156473481Y-70377395D01*
X156878939Y-70377395D01*
X156878939Y-71188311D01*
X156473481Y-71188311D01*
X156473481Y-70782853D01*
X156068022Y-70782853D01*
X156068022Y-70377395D01*
X155257106Y-70377395D01*
X155257106Y-70782853D01*
X154446189Y-70782853D01*
X154446189Y-70377395D01*
X154851648Y-70377395D01*
X154851648Y-69971936D01*
X154446189Y-69971936D01*
X154446189Y-70377395D01*
X154040731Y-70377395D01*
X154040731Y-70782853D01*
X154446189Y-70782853D01*
X154446189Y-71593770D01*
X154040731Y-71593770D01*
X154040731Y-71999228D01*
X153635273Y-71999228D01*
X153635273Y-70782853D01*
X153229814Y-70782853D01*
X153229814Y-71593770D01*
X152824356Y-71593770D01*
X152824356Y-72404686D01*
X153229814Y-72404686D01*
X153229814Y-71999228D01*
X153635273Y-71999228D01*
X153635273Y-72404686D01*
X154040731Y-72404686D01*
X154040731Y-73215603D01*
X154446189Y-73215603D01*
X154446189Y-72810144D01*
X154851648Y-72810144D01*
X154851648Y-73215603D01*
X155257106Y-73215603D01*
X155257106Y-72810144D01*
X155662564Y-72810144D01*
X155662564Y-71999228D01*
X156068022Y-71999228D01*
X156068022Y-71593770D01*
X155662564Y-71593770D01*
X155662564Y-71188311D01*
X156473481Y-71188311D01*
X156473481Y-71593770D01*
X156878939Y-71593770D01*
X156878939Y-72404686D01*
X156473481Y-72404686D01*
X156473481Y-71999228D01*
X156068022Y-71999228D01*
X156068022Y-72404686D01*
X156473481Y-72404686D01*
X156473481Y-73215603D01*
X156068022Y-73215603D01*
X156068022Y-73621061D01*
X155662564Y-73621061D01*
X155662564Y-73215603D01*
X155257106Y-73215603D01*
X155257106Y-73621061D01*
X155662564Y-73621061D01*
X155662564Y-74431978D01*
X156878939Y-74431978D01*
X156878939Y-75242894D01*
X156473481Y-75242894D01*
X156473481Y-76053811D01*
X156878939Y-76053811D01*
X156878939Y-75648352D01*
X157284397Y-75648352D01*
X157284397Y-75242894D01*
X157689856Y-75242894D01*
X157689856Y-76053811D01*
X157284397Y-76053811D01*
X157284397Y-76459269D01*
X157689856Y-76459269D01*
X157689856Y-76053811D01*
X158500772Y-76053811D01*
X158500772Y-76459269D01*
X159311689Y-76459269D01*
X159311689Y-76864727D01*
X159717147Y-76864727D01*
X159717147Y-77270186D01*
X158095314Y-77270186D01*
X158095314Y-77675644D01*
X159311689Y-77675644D01*
X159311689Y-78081102D01*
X159717147Y-78081102D01*
X159717147Y-78486560D01*
X159311689Y-78486560D01*
X159311689Y-78892019D01*
X158906230Y-78892019D01*
X158906230Y-79297477D01*
X158500772Y-79297477D01*
X158500772Y-78892019D01*
X157689856Y-78892019D01*
X157689856Y-78486560D01*
X158500772Y-78486560D01*
X158500772Y-78081102D01*
X157689856Y-78081102D01*
X157689856Y-77675644D01*
X157284397Y-77675644D01*
X157284397Y-77270186D01*
X157689856Y-77270186D01*
X157689856Y-76864727D01*
X158095314Y-76864727D01*
X158500772Y-76864727D01*
X158500772Y-76459269D01*
X158095314Y-76459269D01*
X158095314Y-76864727D01*
X157689856Y-76864727D01*
X156878939Y-76864727D01*
X156878939Y-76459269D01*
X156068022Y-76459269D01*
X156068022Y-74837436D01*
X155257106Y-74837436D01*
X155257106Y-74026519D01*
X154446189Y-74026519D01*
X154446189Y-73621061D01*
X153635273Y-73621061D01*
X153635273Y-72810144D01*
X152824356Y-72810144D01*
X152824356Y-73215603D01*
X152418898Y-73215603D01*
X152418898Y-73621061D01*
X152013440Y-73621061D01*
X152013440Y-72810144D01*
X151607981Y-72810144D01*
X151607981Y-74431978D01*
X152013440Y-74431978D01*
X152013440Y-74026519D01*
X152418898Y-74026519D01*
X152418898Y-74837436D01*
X153635273Y-74837436D01*
X153635273Y-75242894D01*
X152824356Y-75242894D01*
X152824356Y-75648352D01*
X152418898Y-75648352D01*
X152418898Y-75242894D01*
X152013440Y-75242894D01*
X152013440Y-74837436D01*
X151607981Y-74837436D01*
X151607981Y-75648352D01*
X152418898Y-75648352D01*
X152418898Y-76053811D01*
X153229814Y-76053811D01*
X153229814Y-76459269D01*
X151607981Y-76459269D01*
X151607981Y-76864727D01*
X152824356Y-76864727D01*
X152824356Y-77270186D01*
X153635273Y-77270186D01*
X153635273Y-76864727D01*
X154040731Y-76864727D01*
X154040731Y-77270186D01*
X154446189Y-77270186D01*
X154446189Y-76459269D01*
X154851648Y-76459269D01*
X154851648Y-76053811D01*
X155257106Y-76053811D01*
X155257106Y-75242894D01*
X155662564Y-75242894D01*
X155662564Y-76459269D01*
X155257106Y-76459269D01*
X155257106Y-76864727D01*
X154851648Y-76864727D01*
X154851648Y-77675644D01*
X153635273Y-77675644D01*
X153635273Y-78081102D01*
X153229814Y-78081102D01*
X153229814Y-77675644D01*
X152824356Y-77675644D01*
X152824356Y-78081102D01*
X153229814Y-78081102D01*
X153229814Y-78486560D01*
X154040731Y-78486560D01*
X154040731Y-78081102D01*
X154446189Y-78081102D01*
X154446189Y-78892019D01*
X154040731Y-78892019D01*
X154040731Y-79297477D01*
X155257106Y-79297477D01*
X155257106Y-78486560D01*
X154851648Y-78486560D01*
X154851648Y-78081102D01*
X155257106Y-78081102D01*
X155257106Y-77675644D01*
X156473481Y-77675644D01*
X156473481Y-78081102D01*
X155662564Y-78081102D01*
X155662564Y-78892019D01*
X156068022Y-78892019D01*
X156068022Y-79297477D01*
X155662564Y-79297477D01*
X155662564Y-79702935D01*
X155257106Y-79702935D01*
X155257106Y-80108394D01*
X154851648Y-80108394D01*
X154851648Y-80513852D01*
X154446189Y-80513852D01*
X154446189Y-79702935D01*
X154040731Y-79702935D01*
X154040731Y-80108394D01*
X153635273Y-80108394D01*
X153635273Y-80513852D01*
X153229814Y-80513852D01*
X153229814Y-79702935D01*
X153635273Y-79702935D01*
X153635273Y-78892019D01*
X153229814Y-78892019D01*
X153229814Y-79297477D01*
X152824356Y-79297477D01*
X152824356Y-81324769D01*
X153635273Y-81324769D01*
X153635273Y-81730227D01*
X154040731Y-81730227D01*
X154040731Y-82135685D01*
X154446189Y-82135685D01*
X154446189Y-81730227D01*
X155257106Y-81730227D01*
X155257106Y-82946602D01*
X154851648Y-82946602D01*
X154851648Y-82541143D01*
X154040731Y-82541143D01*
X154040731Y-82946602D01*
X153635273Y-82946602D01*
X153635273Y-82541143D01*
X153229814Y-82541143D01*
X153229814Y-81730227D01*
X152013440Y-81730227D01*
X152013440Y-81324769D01*
X151607981Y-81324769D01*
X151607981Y-80108394D01*
X152013440Y-80108394D01*
X152013440Y-80513852D01*
X152418898Y-80513852D01*
X152418898Y-79702935D01*
X151607981Y-79702935D01*
X151607981Y-80108394D01*
X151202523Y-80108394D01*
X151202523Y-81324769D01*
X151607981Y-81324769D01*
X151607981Y-82541143D01*
X152013440Y-82541143D01*
X152013440Y-82135685D01*
X152824356Y-82135685D01*
X152824356Y-82541143D01*
X153229814Y-82541143D01*
X153229814Y-82946602D01*
X150797065Y-82946602D01*
X150797065Y-81324769D01*
X150391606Y-81324769D01*
X150391606Y-82946602D01*
X149986148Y-82946602D01*
X149986148Y-82135685D01*
X148769773Y-82135685D01*
X148769773Y-81730227D01*
X149175231Y-81730227D01*
X149175231Y-81324769D01*
X148769773Y-81324769D01*
X148769773Y-80919310D01*
X149175231Y-80919310D01*
X149580690Y-80919310D01*
X150797065Y-80919310D01*
X150797065Y-79702935D01*
X149580690Y-79702935D01*
X149580690Y-80919310D01*
X149175231Y-80919310D01*
X149175231Y-80513852D01*
X148769773Y-80513852D01*
X148769773Y-80108394D01*
X149175231Y-80108394D01*
X149175231Y-79702935D01*
X148769773Y-79702935D01*
X148769773Y-80108394D01*
X148364315Y-80108394D01*
X148364315Y-80513852D01*
X147958857Y-80513852D01*
X147958857Y-80108394D01*
X147553398Y-80108394D01*
X147553398Y-79702935D01*
X148364315Y-79702935D01*
X148769773Y-79702935D01*
X148769773Y-79297477D01*
X152013440Y-79297477D01*
X152013440Y-78892019D01*
X152824356Y-78892019D01*
X152824356Y-78081102D01*
X152013440Y-78081102D01*
X152013440Y-78892019D01*
X151202523Y-78892019D01*
X151202523Y-79297477D01*
X149175231Y-79297477D01*
X149175231Y-78486560D01*
X149580690Y-78486560D01*
X149580690Y-78081102D01*
X149986148Y-78081102D01*
X149986148Y-78892019D01*
X150391606Y-78892019D01*
X150391606Y-78081102D01*
X150797065Y-78081102D01*
X150797065Y-78486560D01*
X151202523Y-78486560D01*
X151202523Y-78081102D01*
X151607981Y-78081102D01*
X151607981Y-77675644D01*
X152013440Y-77675644D01*
X152013440Y-77270186D01*
X151607981Y-77270186D01*
X151607981Y-77675644D01*
X151202523Y-77675644D01*
X151202523Y-78081102D01*
X150797065Y-78081102D01*
X150797065Y-77675644D01*
X150391606Y-77675644D01*
X150391606Y-78081102D01*
X149986148Y-78081102D01*
X149986148Y-77675644D01*
X149580690Y-77675644D01*
X149580690Y-78081102D01*
X149175231Y-78081102D01*
X149175231Y-78486560D01*
X148364315Y-78486560D01*
X148364315Y-79702935D01*
X147553398Y-79702935D01*
X147553398Y-79297477D01*
X147958857Y-79297477D01*
X147958857Y-78081102D01*
X148364315Y-78081102D01*
X148769773Y-78081102D01*
X148769773Y-77675644D01*
X149580690Y-77675644D01*
X149580690Y-76864727D01*
X149986148Y-76864727D01*
X149986148Y-77270186D01*
X151202523Y-77270186D01*
X151202523Y-76459269D01*
X150797065Y-76459269D01*
X150797065Y-76053811D01*
X150391606Y-76053811D01*
X150391606Y-76459269D01*
X149986148Y-76459269D01*
X149986148Y-76053811D01*
X149580690Y-76053811D01*
X149580690Y-76459269D01*
X149175231Y-76459269D01*
X149175231Y-77270186D01*
X148769773Y-77270186D01*
X148769773Y-76864727D01*
X148364315Y-76864727D01*
X148364315Y-78081102D01*
X147958857Y-78081102D01*
X147553398Y-78081102D01*
X147553398Y-77675644D01*
X147958857Y-77675644D01*
X147958857Y-76864727D01*
X148364315Y-76864727D01*
X148364315Y-76459269D01*
X147958857Y-76459269D01*
X147958857Y-76053811D01*
X148769773Y-76053811D01*
X148769773Y-76459269D01*
X149175231Y-76459269D01*
X149175231Y-75242894D01*
X148769773Y-75242894D01*
X148769773Y-74431978D01*
X149580690Y-74431978D01*
X149580690Y-74837436D01*
X149175231Y-74837436D01*
X149175231Y-75242894D01*
X149580690Y-75242894D01*
X149580690Y-75648352D01*
X149986148Y-75648352D01*
X150797065Y-75648352D01*
X151202523Y-75648352D01*
X151202523Y-76053811D01*
X151607981Y-76053811D01*
X151607981Y-75648352D01*
X151202523Y-75648352D01*
X151202523Y-75242894D01*
X150797065Y-75242894D01*
X150797065Y-75648352D01*
X149986148Y-75648352D01*
X149986148Y-75242894D01*
X149580690Y-75242894D01*
X149580690Y-74837436D01*
X149986148Y-74837436D01*
X149986148Y-75242894D01*
G37*
G36*
X154446189Y-80919310D02*
G01*
X155257106Y-80919310D01*
X155257106Y-81324769D01*
X154040731Y-81324769D01*
X154040731Y-80513852D01*
X154446189Y-80513852D01*
X154446189Y-80919310D01*
G37*
G36*
X151607981Y-69971936D02*
G01*
X151202523Y-69971936D01*
X151202523Y-69566478D01*
X151607981Y-69566478D01*
X151607981Y-69971936D01*
G37*
G36*
X158500772Y-75648352D02*
G01*
X158095314Y-75648352D01*
X158095314Y-75242894D01*
X158500772Y-75242894D01*
X158500772Y-75648352D01*
G37*
G36*
X156473481Y-82135685D02*
G01*
X156878939Y-82135685D01*
X156878939Y-82946602D01*
X155662564Y-82946602D01*
X155662564Y-81730227D01*
X155257106Y-81730227D01*
X155257106Y-81324769D01*
X156068022Y-81324769D01*
X156068022Y-80919310D01*
X155662564Y-80919310D01*
X155662564Y-80513852D01*
X156473481Y-80513852D01*
X156473481Y-79297477D01*
X156878939Y-79297477D01*
X156878939Y-78892019D01*
X157284397Y-78892019D01*
X157284397Y-79297477D01*
X158500772Y-79297477D01*
X158500772Y-79702935D01*
X157689856Y-79702935D01*
X157689856Y-80513852D01*
X157284397Y-80513852D01*
X157284397Y-80108394D01*
X156878939Y-80108394D01*
X156878939Y-80513852D01*
X157284397Y-80513852D01*
X157284397Y-80919310D01*
X156473481Y-80919310D01*
X156473481Y-81324769D01*
X156878939Y-81324769D01*
X156878939Y-81730227D01*
X156473481Y-81730227D01*
X156473481Y-82135685D01*
X156068022Y-82135685D01*
X156068022Y-82541143D01*
X156473481Y-82541143D01*
X156473481Y-82135685D01*
G37*
G36*
X157284397Y-81730227D02*
G01*
X157284397Y-82135685D01*
X156878939Y-82135685D01*
X156878939Y-81730227D01*
X157284397Y-81730227D01*
G37*
G36*
X158095314Y-82946602D02*
G01*
X158095314Y-82514985D01*
X158526931Y-82514985D01*
X160501905Y-82514985D01*
X160501905Y-80540011D01*
X158526931Y-80540011D01*
X158526931Y-82514985D01*
X158095314Y-82514985D01*
X158095314Y-80108394D01*
X160933522Y-80108394D01*
X160933522Y-82946602D01*
X158095314Y-82946602D01*
G37*
%TO.C,D5*%
X88650000Y-87100000D02*
X83250000Y-87100000D01*
X88650000Y-90400000D02*
X83250000Y-90400000D01*
X88650000Y-87100000D02*
X88650000Y-90400000D01*
%TO.C,D10*%
X72100000Y-108500000D02*
X72100000Y-113900000D01*
X72100000Y-108500000D02*
X75400000Y-108500000D01*
X75400000Y-108500000D02*
X75400000Y-113900000D01*
%TO.C,D11*%
X80350000Y-58650000D02*
X80350000Y-53250000D01*
X83650000Y-58650000D02*
X83650000Y-53250000D01*
X83650000Y-58650000D02*
X80350000Y-58650000D01*
%TO.C,D9*%
X83650000Y-108500000D02*
X83650000Y-113900000D01*
X80350000Y-108500000D02*
X83650000Y-108500000D01*
X80350000Y-108500000D02*
X80350000Y-113900000D01*
%TO.C,D7*%
X88650000Y-77100000D02*
X88650000Y-80400000D01*
X88650000Y-80400000D02*
X83250000Y-80400000D01*
X88650000Y-77100000D02*
X83250000Y-77100000D01*
%TO.C,D12*%
X75400000Y-58650000D02*
X72100000Y-58650000D01*
X75400000Y-58650000D02*
X75400000Y-53250000D01*
X72100000Y-58650000D02*
X72100000Y-53250000D01*
%TO.C,D8*%
X88650000Y-66850000D02*
X88650000Y-70150000D01*
X88650000Y-70150000D02*
X83250000Y-70150000D01*
X88650000Y-66850000D02*
X83250000Y-66850000D01*
%TD*%
%LPC*%
D13*
%TO.C,D2*%
X114737500Y-101512500D03*
D14*
X114737500Y-98972500D03*
%TD*%
D15*
%TO.C,C5*%
X86500000Y-65545000D03*
X91500000Y-65545000D03*
%TD*%
D16*
%TO.C,H1*%
X72750000Y-37250000D03*
%TD*%
D17*
%TO.C,JP10*%
X97525000Y-90500000D03*
D18*
X94985000Y-90500000D03*
%TD*%
D19*
%TO.C,U2*%
X127380000Y-80620000D03*
X129920000Y-80620000D03*
X132460000Y-80620000D03*
X135000000Y-80620000D03*
X137540000Y-80620000D03*
X137540000Y-65380000D03*
X135000000Y-65380000D03*
X132460000Y-65380000D03*
X129920000Y-65380000D03*
X127380000Y-65380000D03*
%TD*%
D16*
%TO.C,H4*%
X72750000Y-130250000D03*
%TD*%
D20*
%TO.C,JP8*%
X111000000Y-44750000D03*
D18*
X113540000Y-44750000D03*
X116080000Y-44750000D03*
%TD*%
D21*
%TO.C,RV1*%
X155360500Y-100237500D03*
X145760500Y-100237500D03*
D22*
X153060500Y-93237500D03*
X150560500Y-93237500D03*
X148060500Y-93237500D03*
%TD*%
D17*
%TO.C,JP5*%
X96250000Y-101525000D03*
D18*
X96250000Y-98985000D03*
%TD*%
D17*
%TO.C,JP4*%
X161750000Y-65000000D03*
D18*
X161750000Y-62460000D03*
%TD*%
D17*
%TO.C,JP9*%
X97525000Y-81205000D03*
D18*
X94985000Y-81205000D03*
%TD*%
D17*
%TO.C,J3*%
X143375000Y-44750000D03*
D18*
X140835000Y-44750000D03*
X138295000Y-44750000D03*
X135755000Y-44750000D03*
X133215000Y-44750000D03*
X130675000Y-44750000D03*
X128135000Y-44750000D03*
X125595000Y-44750000D03*
%TD*%
D17*
%TO.C,J2*%
X151675000Y-54500000D03*
D18*
X154215000Y-54500000D03*
X156755000Y-54500000D03*
X159295000Y-54500000D03*
X161835000Y-54500000D03*
%TD*%
D23*
%TO.C,J4*%
X83055000Y-36800000D03*
X83055000Y-39340000D03*
X86865000Y-36760000D03*
X86865000Y-39300000D03*
X90675000Y-39340000D03*
X90675000Y-36800000D03*
X94485000Y-36760000D03*
X94485000Y-39300000D03*
X98295000Y-36840000D03*
X98295000Y-39380000D03*
X102105000Y-36800000D03*
X102105000Y-39340000D03*
X105915000Y-39380000D03*
X105915000Y-36840000D03*
X109725000Y-36800000D03*
X109725000Y-39340000D03*
X113535000Y-36800000D03*
X113535000Y-39340000D03*
X117345000Y-36840000D03*
X117345000Y-39380000D03*
X121155000Y-36800000D03*
X121155000Y-39340000D03*
X124965000Y-39420000D03*
X124965000Y-36880000D03*
X128775000Y-36840000D03*
X128775000Y-39380000D03*
X132585000Y-39420000D03*
X132585000Y-36880000D03*
X136395000Y-39380000D03*
X136395000Y-36840000D03*
X140205000Y-39340000D03*
X140205000Y-36800000D03*
X144015000Y-36880000D03*
X144015000Y-39420000D03*
X147825000Y-39380000D03*
X147825000Y-36840000D03*
X151635000Y-36880000D03*
X151635000Y-39420000D03*
X155445000Y-39380000D03*
X155445000Y-36840000D03*
%TD*%
D13*
%TO.C,U4*%
X73440000Y-74855000D03*
D24*
X78520000Y-76125000D03*
X73440000Y-77395000D03*
X78520000Y-78665000D03*
X73440000Y-79935000D03*
X78520000Y-81205000D03*
X73440000Y-82475000D03*
X78520000Y-83745000D03*
D25*
X85190000Y-92755000D03*
X85190000Y-74955000D03*
D24*
X73440000Y-85015000D03*
X78520000Y-86285000D03*
X73440000Y-87555000D03*
X78520000Y-88825000D03*
X73440000Y-90095000D03*
X78520000Y-91365000D03*
X73440000Y-92635000D03*
%TD*%
D20*
%TO.C,JP7*%
X105275000Y-44750000D03*
D18*
X102735000Y-44750000D03*
X100195000Y-44750000D03*
%TD*%
D13*
%TO.C,D3*%
X123737500Y-101512500D03*
D14*
X123737500Y-98972500D03*
%TD*%
D26*
%TO.C,U1*%
X110160000Y-64125000D03*
D27*
X110160000Y-66665000D03*
X110160000Y-69205000D03*
X110160000Y-71745000D03*
X110160000Y-74285000D03*
X110160000Y-76825000D03*
X110160000Y-79365000D03*
X110160000Y-81905000D03*
X117780000Y-81905000D03*
X117780000Y-79365000D03*
X117780000Y-76825000D03*
X117780000Y-74285000D03*
X117780000Y-71745000D03*
X117780000Y-69205000D03*
X117780000Y-66665000D03*
X117780000Y-64125000D03*
%TD*%
D28*
%TO.C,J6*%
X77000000Y-99250000D03*
D29*
X77000000Y-104330000D03*
%TD*%
D17*
%TO.C,JP1*%
X156750000Y-65025000D03*
D18*
X156750000Y-62485000D03*
%TD*%
D30*
%TO.C,J8*%
X72850000Y-120250000D03*
X88150000Y-120250000D03*
%TD*%
D31*
%TO.C,R17*%
X119550000Y-51750000D03*
X122950000Y-51750000D03*
%TD*%
D14*
%TO.C,SW4*%
X123000000Y-122000000D03*
X132000000Y-122000000D03*
D32*
X130000000Y-115500000D03*
X130000000Y-128000000D03*
X125000000Y-128000000D03*
X125000000Y-115500000D03*
%TD*%
D13*
%TO.C,D1*%
X105737500Y-101512500D03*
D14*
X105737500Y-98972500D03*
%TD*%
D20*
%TO.C,JP6*%
X135010000Y-85750000D03*
D18*
X132470000Y-85750000D03*
X129930000Y-85750000D03*
%TD*%
D16*
%TO.C,H3*%
X165750000Y-130250000D03*
%TD*%
D33*
%TO.C,SW1*%
X144250000Y-126450000D03*
X144250000Y-121750000D03*
X144250000Y-117050000D03*
%TD*%
D30*
%TO.C,J7*%
X88150000Y-47250000D03*
X72850000Y-47250000D03*
%TD*%
D33*
%TO.C,SW2*%
X157250000Y-126450000D03*
X157250000Y-121750000D03*
X157250000Y-117050000D03*
%TD*%
D17*
%TO.C,JP2*%
X146750000Y-65025000D03*
D18*
X146750000Y-62485000D03*
%TD*%
D17*
%TO.C,JP3*%
X151750000Y-65025000D03*
D18*
X151750000Y-62485000D03*
%TD*%
D14*
%TO.C,SW3*%
X105250000Y-122000000D03*
X114250000Y-122000000D03*
D32*
X112250000Y-128000000D03*
X112250000Y-115500000D03*
X107250000Y-128000000D03*
X107250000Y-115500000D03*
%TD*%
D13*
%TO.C,D4*%
X132737500Y-101512500D03*
D14*
X132737500Y-98972500D03*
%TD*%
D28*
%TO.C,J5*%
X77000000Y-63000000D03*
D29*
X77000000Y-68080000D03*
%TD*%
D17*
%TO.C,J1*%
X151675000Y-49750000D03*
D18*
X154215000Y-49750000D03*
X156755000Y-49750000D03*
X159295000Y-49750000D03*
X161835000Y-49750000D03*
%TD*%
D16*
%TO.C,H2*%
X165750000Y-37250000D03*
%TD*%
D34*
%TO.C,D6*%
X87250000Y-99250000D03*
X83250000Y-99250000D03*
%TD*%
%TO.C,D5*%
X87250000Y-88750000D03*
X83250000Y-88750000D03*
%TD*%
D35*
%TO.C,D10*%
X73750000Y-109900000D03*
X73750000Y-113900000D03*
%TD*%
%TO.C,D11*%
X82000000Y-57250000D03*
X82000000Y-53250000D03*
%TD*%
%TO.C,D9*%
X82000000Y-109900000D03*
X82000000Y-113900000D03*
%TD*%
D34*
%TO.C,D7*%
X87250000Y-78750000D03*
X83250000Y-78750000D03*
%TD*%
D35*
%TO.C,D12*%
X73750000Y-57250000D03*
X73750000Y-53250000D03*
%TD*%
D34*
%TO.C,D8*%
X87250000Y-68500000D03*
X83250000Y-68500000D03*
%TD*%
M02*
