M48
; DRILL file {KiCad (6.0.9)} date Mon Dec 19 14:35:32 2022
; FORMAT={-:-/ absolute / inch / decimal}
; #@! TF.CreationDate,2022-12-19T14:35:32+01:00
; #@! TF.GenerationSoftware,Kicad,Pcbnew,(6.0.9)
; #@! TF.FileFunction,Plated,1,2,PTH
FMAT,2
INCH
; #@! TA.AperFunction,Plated,PTH,ViaDrill
T1C0.0157
; #@! TA.AperFunction,Plated,PTH,ComponentDrill
T2C0.0315
; #@! TA.AperFunction,Plated,PTH,ComponentDrill
T3C0.0354
; #@! TA.AperFunction,Plated,PTH,ComponentDrill
T4C0.0394
; #@! TA.AperFunction,Plated,PTH,ComponentDrill
T5C0.0472
; #@! TA.AperFunction,Plated,PTH,ComponentDrill
T6C0.0512
; #@! TA.AperFunction,Plated,PTH,ComponentDrill
T7C0.0551
; #@! TA.AperFunction,Plated,PTH,ComponentDrill
T8C0.0591
; #@! TA.AperFunction,Plated,PTH,ComponentDrill
T9C0.0728
; #@! TA.AperFunction,Plated,PTH,ComponentDrill
T10C0.0764
; #@! TA.AperFunction,Plated,PTH,ComponentDrill
T11C0.1260
%
G90
G05
T1
X2.7854Y-3.2382
X3.4557Y-2.3327
X3.5935Y-2.1752
X3.5935Y-2.2835
X3.7697Y-3.4154
X3.7992Y-3.4646
X3.8287Y-2.0374
X3.8878Y-3.4646
X3.9173Y-3.4154
X3.9272Y-3.9469
X3.9272Y-4.1929
X4.0059Y-2.0374
X4.0551Y-3.2972
X4.1043Y-3.2283
X4.1142Y-3.5433
X4.124Y-2.0374
X4.2126Y-3.5433
X4.2224Y-3.2972
X4.2717Y-2.0374
X4.2913Y-2.4213
X4.3209Y-3.3169
X4.3583Y-4.4213
X4.3858Y-2.0591
X4.4094Y-3.4646
X4.4094Y-3.5433
X4.5472Y-2.4213
X4.5571Y-3.3169
X4.7441Y-2.4213
X4.7933Y-3.7205
X4.872Y-3.4843
X4.872Y-3.6417
X5.0492Y-2.2539
X5.0492Y-3.7205
X5.0571Y-4.4213
X5.2953Y-2.2539
X5.4921Y-2.2539
X5.5413Y-2.3819
X5.5709Y-3.376
X5.7382Y-2.2539
X5.7382Y-2.3819
X5.8563Y-3.376
X6.2303Y-3.563
X6.5157Y-3.563
X6.5748Y-1.8307
T2
X3.4055Y-2.5805
X3.6024Y-2.5805
X4.337Y-2.5246
X4.337Y-2.6246
X4.337Y-2.7246
X4.337Y-2.8246
X4.337Y-2.9246
X4.337Y-3.0246
X4.337Y-3.1246
X4.337Y-3.2246
X4.637Y-2.5246
X4.637Y-2.6246
X4.637Y-2.7246
X4.637Y-2.8246
X4.637Y-2.9246
X4.637Y-3.0246
X4.637Y-3.1246
X4.637Y-3.2246
X4.7067Y-2.0374
X4.8406Y-2.0374
T3
X4.1629Y-3.8966
X4.1629Y-3.9966
X4.5172Y-3.8966
X4.5172Y-3.9966
X4.8716Y-3.8966
X4.8716Y-3.9966
X5.2259Y-3.8966
X5.2259Y-3.9966
T4
X2.8913Y-2.947
X2.8913Y-3.047
X2.8913Y-3.147
X2.8913Y-3.247
X2.8913Y-3.347
X2.8913Y-3.447
X2.8913Y-3.547
X2.8913Y-3.647
X3.0913Y-2.997
X3.0913Y-3.097
X3.0913Y-3.197
X3.0913Y-3.297
X3.0913Y-3.397
X3.0913Y-3.497
X3.0913Y-3.597
X3.7396Y-3.197
X3.7396Y-3.563
X3.7894Y-3.897
X3.7894Y-3.997
X3.8396Y-3.197
X3.8396Y-3.563
X3.9447Y-1.7618
X4.0447Y-1.7618
X4.1447Y-1.7618
X4.3701Y-1.7618
X4.4701Y-1.7618
X4.5701Y-1.7618
X4.9447Y-1.7618
X5.015Y-2.574
X5.015Y-3.174
X5.0447Y-1.7618
X5.115Y-2.574
X5.115Y-3.174
X5.1154Y-3.376
X5.1447Y-1.7618
X5.215Y-2.574
X5.215Y-3.174
X5.2154Y-3.376
X5.2447Y-1.7618
X5.315Y-2.574
X5.315Y-3.174
X5.3154Y-3.376
X5.3447Y-1.7618
X5.415Y-2.574
X5.415Y-3.174
X5.4447Y-1.7618
X5.5447Y-1.7618
X5.6447Y-1.7618
X5.7776Y-2.46
X5.7776Y-2.56
X5.8292Y-3.6708
X5.9276Y-3.6708
X5.9715Y-1.9587
X5.9715Y-2.1457
X5.9744Y-2.46
X5.9744Y-2.56
X6.026Y-3.6708
X6.0715Y-1.9587
X6.0715Y-2.1457
X6.1713Y-2.46
X6.1713Y-2.56
X6.1715Y-1.9587
X6.1715Y-2.1457
X6.2715Y-1.9587
X6.2715Y-2.1457
X6.3681Y-2.4591
X6.3681Y-2.5591
X6.3715Y-1.9587
X6.3715Y-2.1457
T5
X4.2224Y-4.5472
X4.2224Y-5.0394
X4.4193Y-4.5472
X4.4193Y-5.0394
X4.9213Y-4.5472
X4.9213Y-5.0394
X5.1181Y-4.5472
X5.1181Y-5.0394
T6
X3.0315Y-2.4803
X3.0315Y-2.6803
X3.0315Y-3.9075
X3.0315Y-4.1075
X3.3539Y-2.951
X3.3539Y-3.6518
T7
X3.2699Y-1.4488
X3.2699Y-1.5488
X3.4199Y-1.4472
X3.4199Y-1.5472
X3.5699Y-1.4488
X3.5699Y-1.5488
X3.7199Y-1.4472
X3.7199Y-1.5472
X3.8699Y-1.4504
X3.8699Y-1.5504
X4.0199Y-1.4488
X4.0199Y-1.5488
X4.1699Y-1.4504
X4.1699Y-1.5504
X4.3199Y-1.4488
X4.3199Y-1.5488
X4.4699Y-1.4488
X4.4699Y-1.5488
X4.6199Y-1.4504
X4.6199Y-1.5504
X4.7699Y-1.4488
X4.7699Y-1.5488
X4.9199Y-1.452
X4.9199Y-1.552
X5.0699Y-1.4504
X5.0699Y-1.5504
X5.2199Y-1.452
X5.2199Y-1.552
X5.3699Y-1.4504
X5.3699Y-1.5504
X5.5199Y-1.4488
X5.5199Y-1.5488
X5.6699Y-1.452
X5.6699Y-1.552
X5.8199Y-1.4504
X5.8199Y-1.5504
X5.9699Y-1.452
X5.9699Y-1.552
X6.1199Y-1.4504
X6.1199Y-1.5504
T9
X5.6791Y-4.6083
X5.6791Y-4.7933
X5.6791Y-4.9783
X6.1909Y-4.6083
X6.1909Y-4.7933
X6.1909Y-4.9783
T10
X2.8681Y-1.8602
X2.8681Y-4.7343
X3.4705Y-1.8602
X3.4705Y-4.7343
T11
X2.8642Y-1.4665
X2.8642Y-5.128
X6.5256Y-1.4665
X6.5256Y-5.128
T8
G00X5.7386Y-3.966
M15
G01X5.7386Y-3.9267
M16
G05
G00X6.1166Y-3.966
M15
G01X6.1166Y-3.9267
M16
G05
T0
M30
