%TF.GenerationSoftware,KiCad,Pcbnew,(6.0.8)*%
%TF.CreationDate,2022-11-24T14:06:35+01:00*%
%TF.ProjectId,myDAQExpansionBoard,6d794441-5145-4787-9061-6e73696f6e42,rev?*%
%TF.SameCoordinates,Original*%
%TF.FileFunction,Soldermask,Top*%
%TF.FilePolarity,Negative*%
%FSLAX46Y46*%
G04 Gerber Fmt 4.6, Leading zero omitted, Abs format (unit mm)*
G04 Created by KiCad (PCBNEW (6.0.8)) date 2022-11-24 14:06:35*
%MOMM*%
%LPD*%
G01*
G04 APERTURE LIST*
G04 Aperture macros list*
%AMRoundRect*
0 Rectangle with rounded corners*
0 $1 Rounding radius*
0 $2 $3 $4 $5 $6 $7 $8 $9 X,Y pos of 4 corners*
0 Add a 4 corners polygon primitive as box body*
4,1,4,$2,$3,$4,$5,$6,$7,$8,$9,$2,$3,0*
0 Add four circle primitives for the rounded corners*
1,1,$1+$1,$2,$3*
1,1,$1+$1,$4,$5*
1,1,$1+$1,$6,$7*
1,1,$1+$1,$8,$9*
0 Add four rect primitives between the rounded corners*
20,1,$1+$1,$2,$3,$4,$5,0*
20,1,$1+$1,$4,$5,$6,$7,0*
20,1,$1+$1,$6,$7,$8,$9,0*
20,1,$1+$1,$8,$9,$2,$3,0*%
G04 Aperture macros list end*
%ADD10RoundRect,0.200000X-0.200000X-0.275000X0.200000X-0.275000X0.200000X0.275000X-0.200000X0.275000X0*%
%ADD11C,1.800000*%
%ADD12R,1.800000X1.800000*%
%ADD13RoundRect,0.200000X-0.275000X0.200000X-0.275000X-0.200000X0.275000X-0.200000X0.275000X0.200000X0*%
%ADD14C,1.600000*%
%ADD15C,5.700000*%
%ADD16O,1.700000X1.700000*%
%ADD17R,1.700000X1.700000*%
%ADD18RoundRect,0.250000X-0.250000X-0.475000X0.250000X-0.475000X0.250000X0.475000X-0.250000X0.475000X0*%
%ADD19RoundRect,0.225000X-0.225000X-0.250000X0.225000X-0.250000X0.225000X0.250000X-0.225000X0.250000X0*%
%ADD20RoundRect,0.200000X0.275000X-0.200000X0.275000X0.200000X-0.275000X0.200000X-0.275000X-0.200000X0*%
%ADD21RoundRect,0.225000X0.250000X-0.225000X0.250000X0.225000X-0.250000X0.225000X-0.250000X-0.225000X0*%
%ADD22C,2.000000*%
%ADD23C,1.700000*%
%ADD24O,2.000000X3.000000*%
%ADD25O,3.000000X5.000000*%
%ADD26C,2.300000*%
%ADD27O,1.800000X1.800000*%
%ADD28C,2.500000*%
%ADD29O,1.600000X1.600000*%
%ADD30R,1.600000X1.600000*%
%ADD31C,2.600000*%
%ADD32R,2.600000X2.600000*%
%ADD33C,5.000000*%
%ADD34C,1.500000*%
%ADD35O,2.500000X3.000000*%
%ADD36RoundRect,0.250000X-0.625000X0.375000X-0.625000X-0.375000X0.625000X-0.375000X0.625000X0.375000X0*%
%ADD37RoundRect,0.150000X-0.825000X-0.150000X0.825000X-0.150000X0.825000X0.150000X-0.825000X0.150000X0*%
G04 APERTURE END LIST*
D10*
%TO.C,R21*%
X130675000Y-110800000D03*
X132325000Y-110800000D03*
%TD*%
%TO.C,R19*%
X112925000Y-110800000D03*
X114575000Y-110800000D03*
%TD*%
D11*
%TO.C,D2*%
X114737500Y-98972500D03*
D12*
X114737500Y-101512500D03*
%TD*%
D13*
%TO.C,R20*%
X167000000Y-45325000D03*
X167000000Y-43675000D03*
%TD*%
D10*
%TO.C,R3*%
X104925000Y-110800000D03*
X106575000Y-110800000D03*
%TD*%
D14*
%TO.C,C5*%
X91500000Y-65545000D03*
X86500000Y-65545000D03*
%TD*%
D13*
%TO.C,R18*%
X112500000Y-52325000D03*
X112500000Y-50675000D03*
%TD*%
D10*
%TO.C,R8*%
X123325000Y-69750000D03*
X121675000Y-69750000D03*
%TD*%
%TO.C,R11*%
X123325000Y-76250000D03*
X121675000Y-76250000D03*
%TD*%
D15*
%TO.C,H1*%
X72750000Y-37250000D03*
%TD*%
D16*
%TO.C,JP10*%
X94985000Y-90500000D03*
D17*
X97525000Y-90500000D03*
%TD*%
D10*
%TO.C,R10*%
X123325000Y-73000000D03*
X121675000Y-73000000D03*
%TD*%
D18*
%TO.C,CD1*%
X108800000Y-110800000D03*
X110700000Y-110800000D03*
%TD*%
D19*
%TO.C,C3*%
X90300000Y-55250000D03*
X88750000Y-55250000D03*
%TD*%
D20*
%TO.C,R2*%
X156750000Y-71675000D03*
X156750000Y-73325000D03*
%TD*%
D13*
%TO.C,R6*%
X161750000Y-73325000D03*
X161750000Y-71675000D03*
%TD*%
D21*
%TO.C,C2*%
X70750000Y-83475000D03*
X70750000Y-85025000D03*
%TD*%
D22*
%TO.C,U2*%
X127380000Y-65380000D03*
X129920000Y-65380000D03*
X132460000Y-65380000D03*
X135000000Y-65380000D03*
X137540000Y-65380000D03*
X137540000Y-80620000D03*
X135000000Y-80620000D03*
X132460000Y-80620000D03*
X129920000Y-80620000D03*
X127380000Y-80620000D03*
%TD*%
D15*
%TO.C,H4*%
X72750000Y-130250000D03*
%TD*%
D13*
%TO.C,R12*%
X105960000Y-66825000D03*
X105960000Y-65175000D03*
%TD*%
D16*
%TO.C,JP8*%
X116080000Y-44750000D03*
X113540000Y-44750000D03*
D23*
X111000000Y-44750000D03*
%TD*%
D24*
%TO.C,RV1*%
X148060500Y-93237500D03*
X150560500Y-93237500D03*
X153060500Y-93237500D03*
D25*
X145760500Y-100237500D03*
X155360500Y-100237500D03*
%TD*%
D16*
%TO.C,JP5*%
X96250000Y-98985000D03*
D17*
X96250000Y-101525000D03*
%TD*%
D16*
%TO.C,JP4*%
X161750000Y-62460000D03*
D17*
X161750000Y-65000000D03*
%TD*%
D16*
%TO.C,JP9*%
X94985000Y-81205000D03*
D17*
X97525000Y-81205000D03*
%TD*%
D16*
%TO.C,J3*%
X125595000Y-44750000D03*
X128135000Y-44750000D03*
X130675000Y-44750000D03*
X133215000Y-44750000D03*
X135755000Y-44750000D03*
X138295000Y-44750000D03*
X140835000Y-44750000D03*
D17*
X143375000Y-44750000D03*
%TD*%
D16*
%TO.C,J2*%
X161835000Y-54500000D03*
X159295000Y-54500000D03*
X156755000Y-54500000D03*
X154215000Y-54500000D03*
D17*
X151675000Y-54500000D03*
%TD*%
D21*
%TO.C,C4*%
X82250000Y-77125000D03*
X82250000Y-78675000D03*
%TD*%
D13*
%TO.C,R7*%
X123737500Y-95312500D03*
X123737500Y-93662500D03*
%TD*%
D26*
%TO.C,J4*%
X155445000Y-36840000D03*
X155445000Y-39380000D03*
X151635000Y-39420000D03*
X151635000Y-36880000D03*
X147825000Y-36840000D03*
X147825000Y-39380000D03*
X144015000Y-39420000D03*
X144015000Y-36880000D03*
X140205000Y-36800000D03*
X140205000Y-39340000D03*
X136395000Y-36840000D03*
X136395000Y-39380000D03*
X132585000Y-36880000D03*
X132585000Y-39420000D03*
X128775000Y-39380000D03*
X128775000Y-36840000D03*
X124965000Y-36880000D03*
X124965000Y-39420000D03*
X121155000Y-39340000D03*
X121155000Y-36800000D03*
X117345000Y-39380000D03*
X117345000Y-36840000D03*
X113535000Y-39340000D03*
X113535000Y-36800000D03*
X109725000Y-39340000D03*
X109725000Y-36800000D03*
X105915000Y-36840000D03*
X105915000Y-39380000D03*
X102105000Y-39340000D03*
X102105000Y-36800000D03*
X98295000Y-39380000D03*
X98295000Y-36840000D03*
X94485000Y-39300000D03*
X94485000Y-36760000D03*
X90675000Y-36800000D03*
X90675000Y-39340000D03*
X86865000Y-39300000D03*
X86865000Y-36760000D03*
X83055000Y-39340000D03*
X83055000Y-36800000D03*
%TD*%
D27*
%TO.C,U4*%
X73440000Y-92635000D03*
X78520000Y-91365000D03*
X73440000Y-90095000D03*
X78520000Y-88825000D03*
X73440000Y-87555000D03*
X78520000Y-86285000D03*
X73440000Y-85015000D03*
D28*
X85190000Y-74955000D03*
X85190000Y-92755000D03*
D27*
X78520000Y-83745000D03*
X73440000Y-82475000D03*
X78520000Y-81205000D03*
X73440000Y-79935000D03*
X78520000Y-78665000D03*
X73440000Y-77395000D03*
X78520000Y-76125000D03*
D12*
X73440000Y-74855000D03*
%TD*%
D16*
%TO.C,JP7*%
X100195000Y-44750000D03*
X102735000Y-44750000D03*
D23*
X105275000Y-44750000D03*
%TD*%
D13*
%TO.C,R5*%
X114737500Y-95312500D03*
X114737500Y-93662500D03*
%TD*%
D11*
%TO.C,D3*%
X123737500Y-98972500D03*
D12*
X123737500Y-101512500D03*
%TD*%
D29*
%TO.C,U1*%
X117780000Y-64125000D03*
X117780000Y-66665000D03*
X117780000Y-69205000D03*
X117780000Y-71745000D03*
X117780000Y-74285000D03*
X117780000Y-76825000D03*
X117780000Y-79365000D03*
X117780000Y-81905000D03*
X110160000Y-81905000D03*
X110160000Y-79365000D03*
X110160000Y-76825000D03*
X110160000Y-74285000D03*
X110160000Y-71745000D03*
X110160000Y-69205000D03*
X110160000Y-66665000D03*
D30*
X110160000Y-64125000D03*
%TD*%
D31*
%TO.C,J6*%
X77000000Y-104330000D03*
D32*
X77000000Y-99250000D03*
%TD*%
D19*
%TO.C,C6*%
X90300000Y-58000000D03*
X88750000Y-58000000D03*
%TD*%
D13*
%TO.C,R9*%
X132737500Y-95312500D03*
X132737500Y-93662500D03*
%TD*%
D18*
%TO.C,CD2*%
X128450000Y-110800000D03*
X126550000Y-110800000D03*
%TD*%
D13*
%TO.C,R1*%
X105737500Y-95312500D03*
X105737500Y-93662500D03*
%TD*%
D16*
%TO.C,JP1*%
X156750000Y-62485000D03*
D17*
X156750000Y-65025000D03*
%TD*%
D33*
%TO.C,J8*%
X88150000Y-120250000D03*
X72850000Y-120250000D03*
%TD*%
D34*
%TO.C,R17*%
X122950000Y-51750000D03*
X119550000Y-51750000D03*
%TD*%
D35*
%TO.C,SW4*%
X125000000Y-115500000D03*
X125000000Y-128000000D03*
X130000000Y-128000000D03*
X130000000Y-115500000D03*
D11*
X132000000Y-122000000D03*
X123000000Y-122000000D03*
%TD*%
%TO.C,D1*%
X105737500Y-98972500D03*
D12*
X105737500Y-101512500D03*
%TD*%
D10*
%TO.C,R15*%
X123325000Y-63250000D03*
X121675000Y-63250000D03*
%TD*%
D16*
%TO.C,JP6*%
X129930000Y-85750000D03*
X132470000Y-85750000D03*
D23*
X135010000Y-85750000D03*
%TD*%
D10*
%TO.C,R13*%
X123325000Y-79500000D03*
X121675000Y-79500000D03*
%TD*%
D15*
%TO.C,H3*%
X165750000Y-130250000D03*
%TD*%
D11*
%TO.C,SW1*%
X144250000Y-119210000D03*
X144250000Y-121750000D03*
X144250000Y-124290000D03*
%TD*%
D33*
%TO.C,J7*%
X72850000Y-47250000D03*
X88150000Y-47250000D03*
%TD*%
D11*
%TO.C,SW2*%
X157250000Y-119210000D03*
X157250000Y-121750000D03*
X157250000Y-124290000D03*
%TD*%
D16*
%TO.C,JP2*%
X146750000Y-62485000D03*
D17*
X146750000Y-65025000D03*
%TD*%
D36*
%TO.C,D14*%
X163150000Y-45850000D03*
X163150000Y-43050000D03*
%TD*%
D16*
%TO.C,JP3*%
X151750000Y-62485000D03*
D17*
X151750000Y-65025000D03*
%TD*%
D11*
%TO.C,SW3*%
X105250000Y-122000000D03*
X114250000Y-122000000D03*
D35*
X112250000Y-128000000D03*
X112250000Y-115500000D03*
X107250000Y-128000000D03*
X107250000Y-115500000D03*
%TD*%
D10*
%TO.C,R4*%
X124325000Y-110800000D03*
X122675000Y-110800000D03*
%TD*%
D11*
%TO.C,D4*%
X132737500Y-98972500D03*
D12*
X132737500Y-101512500D03*
%TD*%
D31*
%TO.C,J5*%
X77000000Y-68080000D03*
D32*
X77000000Y-63000000D03*
%TD*%
D19*
%TO.C,C1*%
X119330000Y-61500000D03*
X117780000Y-61500000D03*
%TD*%
D16*
%TO.C,J1*%
X161835000Y-49750000D03*
X159295000Y-49750000D03*
X156755000Y-49750000D03*
X154215000Y-49750000D03*
D17*
X151675000Y-49750000D03*
%TD*%
D15*
%TO.C,H2*%
X165750000Y-37250000D03*
%TD*%
D37*
%TO.C,U3*%
X86000000Y-55345000D03*
X86000000Y-56615000D03*
X86000000Y-57885000D03*
X86000000Y-59155000D03*
X81050000Y-59155000D03*
X81050000Y-57885000D03*
X81050000Y-56615000D03*
X81050000Y-55345000D03*
%TD*%
D10*
%TO.C,R16*%
X123325000Y-66500000D03*
X121675000Y-66500000D03*
%TD*%
%TO.C,R14*%
X123325000Y-82750000D03*
X121675000Y-82750000D03*
%TD*%
M02*
