%TF.GenerationSoftware,KiCad,Pcbnew,(6.0.8)*%
%TF.CreationDate,2022-11-24T14:06:35+01:00*%
%TF.ProjectId,myDAQExpansionBoard,6d794441-5145-4787-9061-6e73696f6e42,rev?*%
%TF.SameCoordinates,Original*%
%TF.FileFunction,Legend,Top*%
%TF.FilePolarity,Positive*%
%FSLAX46Y46*%
G04 Gerber Fmt 4.6, Leading zero omitted, Abs format (unit mm)*
G04 Created by KiCad (PCBNEW (6.0.8)) date 2022-11-24 14:06:35*
%MOMM*%
%LPD*%
G01*
G04 APERTURE LIST*
G04 Aperture macros list*
%AMRoundRect*
0 Rectangle with rounded corners*
0 $1 Rounding radius*
0 $2 $3 $4 $5 $6 $7 $8 $9 X,Y pos of 4 corners*
0 Add a 4 corners polygon primitive as box body*
4,1,4,$2,$3,$4,$5,$6,$7,$8,$9,$2,$3,0*
0 Add four circle primitives for the rounded corners*
1,1,$1+$1,$2,$3*
1,1,$1+$1,$4,$5*
1,1,$1+$1,$6,$7*
1,1,$1+$1,$8,$9*
0 Add four rect primitives between the rounded corners*
20,1,$1+$1,$2,$3,$4,$5,0*
20,1,$1+$1,$4,$5,$6,$7,0*
20,1,$1+$1,$6,$7,$8,$9,0*
20,1,$1+$1,$8,$9,$2,$3,0*%
G04 Aperture macros list end*
%ADD10C,0.150000*%
%ADD11C,0.200000*%
%ADD12C,0.250000*%
%ADD13C,0.300000*%
%ADD14C,0.240000*%
%ADD15C,0.120000*%
%ADD16RoundRect,0.200000X-0.200000X-0.275000X0.200000X-0.275000X0.200000X0.275000X-0.200000X0.275000X0*%
%ADD17C,1.800000*%
%ADD18R,1.800000X1.800000*%
%ADD19RoundRect,0.200000X-0.275000X0.200000X-0.275000X-0.200000X0.275000X-0.200000X0.275000X0.200000X0*%
%ADD20C,1.600000*%
%ADD21C,5.700000*%
%ADD22O,1.700000X1.700000*%
%ADD23R,1.700000X1.700000*%
%ADD24RoundRect,0.250000X-0.250000X-0.475000X0.250000X-0.475000X0.250000X0.475000X-0.250000X0.475000X0*%
%ADD25RoundRect,0.225000X-0.225000X-0.250000X0.225000X-0.250000X0.225000X0.250000X-0.225000X0.250000X0*%
%ADD26RoundRect,0.200000X0.275000X-0.200000X0.275000X0.200000X-0.275000X0.200000X-0.275000X-0.200000X0*%
%ADD27RoundRect,0.225000X0.250000X-0.225000X0.250000X0.225000X-0.250000X0.225000X-0.250000X-0.225000X0*%
%ADD28C,2.000000*%
%ADD29C,1.700000*%
%ADD30O,2.000000X3.000000*%
%ADD31O,3.000000X5.000000*%
%ADD32C,2.300000*%
%ADD33O,1.800000X1.800000*%
%ADD34C,2.500000*%
%ADD35O,1.600000X1.600000*%
%ADD36R,1.600000X1.600000*%
%ADD37C,2.600000*%
%ADD38R,2.600000X2.600000*%
%ADD39C,5.000000*%
%ADD40C,1.500000*%
%ADD41O,2.500000X3.000000*%
%ADD42RoundRect,0.250000X-0.625000X0.375000X-0.625000X-0.375000X0.625000X-0.375000X0.625000X0.375000X0*%
%ADD43RoundRect,0.150000X-0.825000X-0.150000X0.825000X-0.150000X0.825000X0.150000X-0.825000X0.150000X0*%
G04 APERTURE END LIST*
D10*
X69750000Y-60500000D02*
X71750000Y-60500000D01*
X73750000Y-110500000D02*
X73750000Y-116000000D01*
X71750000Y-52500000D02*
X71750000Y-70700000D01*
X71700000Y-96700000D02*
X71700000Y-106900000D01*
X78750000Y-110500000D02*
X73750000Y-110500000D01*
X73750000Y-51500000D02*
X73750000Y-57000000D01*
X73750000Y-57000000D02*
X78750000Y-57000000D01*
X78750000Y-116000000D02*
X78750000Y-110500000D01*
X69750000Y-70700000D02*
X71750000Y-70700000D01*
X69700000Y-101700000D02*
X71700000Y-101700000D01*
X78750000Y-57000000D02*
X78750000Y-51500000D01*
X69700000Y-96700000D02*
X71700000Y-96700000D01*
X69700000Y-106900000D02*
X71700000Y-106900000D01*
X69750000Y-52500000D02*
X71750000Y-52500000D01*
X69750000Y-65500000D02*
X71750000Y-65500000D01*
D11*
X115671428Y-47792857D02*
X115100000Y-47792857D01*
X115100000Y-46592857D01*
X116071428Y-47792857D02*
X116071428Y-46592857D01*
X116357142Y-46592857D01*
X116528571Y-46650000D01*
X116642857Y-46764285D01*
X116700000Y-46878571D01*
X116757142Y-47107142D01*
X116757142Y-47278571D01*
X116700000Y-47507142D01*
X116642857Y-47621428D01*
X116528571Y-47735714D01*
X116357142Y-47792857D01*
X116071428Y-47792857D01*
X117957142Y-47792857D02*
X117557142Y-47221428D01*
X117271428Y-47792857D02*
X117271428Y-46592857D01*
X117728571Y-46592857D01*
X117842857Y-46650000D01*
X117900000Y-46707142D01*
X117957142Y-46821428D01*
X117957142Y-46992857D01*
X117900000Y-47107142D01*
X117842857Y-47164285D01*
X117728571Y-47221428D01*
X117271428Y-47221428D01*
X139042857Y-50550000D02*
X137842857Y-50550000D01*
X137842857Y-50264285D01*
X137900000Y-50092857D01*
X138014285Y-49978571D01*
X138128571Y-49921428D01*
X138357142Y-49864285D01*
X138528571Y-49864285D01*
X138757142Y-49921428D01*
X138871428Y-49978571D01*
X138985714Y-50092857D01*
X139042857Y-50264285D01*
X139042857Y-50550000D01*
X139042857Y-49350000D02*
X137842857Y-49350000D01*
X137842857Y-48550000D02*
X137842857Y-48321428D01*
X137900000Y-48207142D01*
X138014285Y-48092857D01*
X138242857Y-48035714D01*
X138642857Y-48035714D01*
X138871428Y-48092857D01*
X138985714Y-48207142D01*
X139042857Y-48321428D01*
X139042857Y-48550000D01*
X138985714Y-48664285D01*
X138871428Y-48778571D01*
X138642857Y-48835714D01*
X138242857Y-48835714D01*
X138014285Y-48778571D01*
X137900000Y-48664285D01*
X137842857Y-48550000D01*
X137842857Y-46950000D02*
X137842857Y-47521428D01*
X138414285Y-47578571D01*
X138357142Y-47521428D01*
X138300000Y-47407142D01*
X138300000Y-47121428D01*
X138357142Y-47007142D01*
X138414285Y-46950000D01*
X138528571Y-46892857D01*
X138814285Y-46892857D01*
X138928571Y-46950000D01*
X138985714Y-47007142D01*
X139042857Y-47121428D01*
X139042857Y-47407142D01*
X138985714Y-47521428D01*
X138928571Y-47578571D01*
X70757142Y-104558571D02*
X69957142Y-104558571D01*
X71214285Y-104272857D02*
X70357142Y-103987142D01*
X70357142Y-104730000D01*
D12*
X126128571Y-130014285D02*
X127157142Y-130014285D01*
X126642857Y-131814285D02*
X126642857Y-130014285D01*
X127671428Y-130185714D02*
X127757142Y-130100000D01*
X127928571Y-130014285D01*
X128357142Y-130014285D01*
X128528571Y-130100000D01*
X128614285Y-130185714D01*
X128700000Y-130357142D01*
X128700000Y-130528571D01*
X128614285Y-130785714D01*
X127585714Y-131814285D01*
X128700000Y-131814285D01*
X142878571Y-130228571D02*
X143135714Y-130314285D01*
X143564285Y-130314285D01*
X143735714Y-130228571D01*
X143821428Y-130142857D01*
X143907142Y-129971428D01*
X143907142Y-129800000D01*
X143821428Y-129628571D01*
X143735714Y-129542857D01*
X143564285Y-129457142D01*
X143221428Y-129371428D01*
X143050000Y-129285714D01*
X142964285Y-129200000D01*
X142878571Y-129028571D01*
X142878571Y-128857142D01*
X142964285Y-128685714D01*
X143050000Y-128600000D01*
X143221428Y-128514285D01*
X143650000Y-128514285D01*
X143907142Y-128600000D01*
X145621428Y-130314285D02*
X144592857Y-130314285D01*
X145107142Y-130314285D02*
X145107142Y-128514285D01*
X144935714Y-128771428D01*
X144764285Y-128942857D01*
X144592857Y-129028571D01*
D11*
X131292857Y-50550000D02*
X130092857Y-50550000D01*
X130092857Y-50264285D01*
X130150000Y-50092857D01*
X130264285Y-49978571D01*
X130378571Y-49921428D01*
X130607142Y-49864285D01*
X130778571Y-49864285D01*
X131007142Y-49921428D01*
X131121428Y-49978571D01*
X131235714Y-50092857D01*
X131292857Y-50264285D01*
X131292857Y-50550000D01*
X131292857Y-49350000D02*
X130092857Y-49350000D01*
X130092857Y-48550000D02*
X130092857Y-48321428D01*
X130150000Y-48207142D01*
X130264285Y-48092857D01*
X130492857Y-48035714D01*
X130892857Y-48035714D01*
X131121428Y-48092857D01*
X131235714Y-48207142D01*
X131292857Y-48321428D01*
X131292857Y-48550000D01*
X131235714Y-48664285D01*
X131121428Y-48778571D01*
X130892857Y-48835714D01*
X130492857Y-48835714D01*
X130264285Y-48778571D01*
X130150000Y-48664285D01*
X130092857Y-48550000D01*
X130207142Y-47578571D02*
X130150000Y-47521428D01*
X130092857Y-47407142D01*
X130092857Y-47121428D01*
X130150000Y-47007142D01*
X130207142Y-46950000D01*
X130321428Y-46892857D01*
X130435714Y-46892857D01*
X130607142Y-46950000D01*
X131292857Y-47635714D01*
X131292857Y-46892857D01*
X109100000Y-47792857D02*
X109100000Y-46592857D01*
X109557142Y-46592857D01*
X109671428Y-46650000D01*
X109728571Y-46707142D01*
X109785714Y-46821428D01*
X109785714Y-46992857D01*
X109728571Y-47107142D01*
X109671428Y-47164285D01*
X109557142Y-47221428D01*
X109100000Y-47221428D01*
X110528571Y-46592857D02*
X110757142Y-46592857D01*
X110871428Y-46650000D01*
X110985714Y-46764285D01*
X111042857Y-46992857D01*
X111042857Y-47392857D01*
X110985714Y-47621428D01*
X110871428Y-47735714D01*
X110757142Y-47792857D01*
X110528571Y-47792857D01*
X110414285Y-47735714D01*
X110300000Y-47621428D01*
X110242857Y-47392857D01*
X110242857Y-46992857D01*
X110300000Y-46764285D01*
X110414285Y-46650000D01*
X110528571Y-46592857D01*
X111385714Y-46592857D02*
X112071428Y-46592857D01*
X111728571Y-47792857D02*
X111728571Y-46592857D01*
X141542857Y-50550000D02*
X140342857Y-50550000D01*
X140342857Y-50264285D01*
X140400000Y-50092857D01*
X140514285Y-49978571D01*
X140628571Y-49921428D01*
X140857142Y-49864285D01*
X141028571Y-49864285D01*
X141257142Y-49921428D01*
X141371428Y-49978571D01*
X141485714Y-50092857D01*
X141542857Y-50264285D01*
X141542857Y-50550000D01*
X141542857Y-49350000D02*
X140342857Y-49350000D01*
X140342857Y-48550000D02*
X140342857Y-48321428D01*
X140400000Y-48207142D01*
X140514285Y-48092857D01*
X140742857Y-48035714D01*
X141142857Y-48035714D01*
X141371428Y-48092857D01*
X141485714Y-48207142D01*
X141542857Y-48321428D01*
X141542857Y-48550000D01*
X141485714Y-48664285D01*
X141371428Y-48778571D01*
X141142857Y-48835714D01*
X140742857Y-48835714D01*
X140514285Y-48778571D01*
X140400000Y-48664285D01*
X140342857Y-48550000D01*
X140342857Y-47007142D02*
X140342857Y-47235714D01*
X140400000Y-47350000D01*
X140457142Y-47407142D01*
X140628571Y-47521428D01*
X140857142Y-47578571D01*
X141314285Y-47578571D01*
X141428571Y-47521428D01*
X141485714Y-47464285D01*
X141542857Y-47350000D01*
X141542857Y-47121428D01*
X141485714Y-47007142D01*
X141428571Y-46950000D01*
X141314285Y-46892857D01*
X141028571Y-46892857D01*
X140914285Y-46950000D01*
X140857142Y-47007142D01*
X140800000Y-47121428D01*
X140800000Y-47350000D01*
X140857142Y-47464285D01*
X140914285Y-47521428D01*
X141028571Y-47578571D01*
D12*
X155628571Y-130228571D02*
X155885714Y-130314285D01*
X156314285Y-130314285D01*
X156485714Y-130228571D01*
X156571428Y-130142857D01*
X156657142Y-129971428D01*
X156657142Y-129800000D01*
X156571428Y-129628571D01*
X156485714Y-129542857D01*
X156314285Y-129457142D01*
X155971428Y-129371428D01*
X155800000Y-129285714D01*
X155714285Y-129200000D01*
X155628571Y-129028571D01*
X155628571Y-128857142D01*
X155714285Y-128685714D01*
X155800000Y-128600000D01*
X155971428Y-128514285D01*
X156400000Y-128514285D01*
X156657142Y-128600000D01*
X157342857Y-128685714D02*
X157428571Y-128600000D01*
X157600000Y-128514285D01*
X158028571Y-128514285D01*
X158200000Y-128600000D01*
X158285714Y-128685714D01*
X158371428Y-128857142D01*
X158371428Y-129028571D01*
X158285714Y-129285714D01*
X157257142Y-130314285D01*
X158371428Y-130314285D01*
D11*
X69957142Y-63342857D02*
X69957142Y-62657142D01*
X69957142Y-63000000D02*
X71157142Y-63000000D01*
X70985714Y-62885714D01*
X70871428Y-62771428D01*
X70814285Y-62657142D01*
X136542857Y-50550000D02*
X135342857Y-50550000D01*
X135342857Y-50264285D01*
X135400000Y-50092857D01*
X135514285Y-49978571D01*
X135628571Y-49921428D01*
X135857142Y-49864285D01*
X136028571Y-49864285D01*
X136257142Y-49921428D01*
X136371428Y-49978571D01*
X136485714Y-50092857D01*
X136542857Y-50264285D01*
X136542857Y-50550000D01*
X136542857Y-49350000D02*
X135342857Y-49350000D01*
X135342857Y-48550000D02*
X135342857Y-48321428D01*
X135400000Y-48207142D01*
X135514285Y-48092857D01*
X135742857Y-48035714D01*
X136142857Y-48035714D01*
X136371428Y-48092857D01*
X136485714Y-48207142D01*
X136542857Y-48321428D01*
X136542857Y-48550000D01*
X136485714Y-48664285D01*
X136371428Y-48778571D01*
X136142857Y-48835714D01*
X135742857Y-48835714D01*
X135514285Y-48778571D01*
X135400000Y-48664285D01*
X135342857Y-48550000D01*
X135742857Y-47007142D02*
X136542857Y-47007142D01*
X135285714Y-47292857D02*
X136142857Y-47578571D01*
X136142857Y-46835714D01*
X133792857Y-50550000D02*
X132592857Y-50550000D01*
X132592857Y-50264285D01*
X132650000Y-50092857D01*
X132764285Y-49978571D01*
X132878571Y-49921428D01*
X133107142Y-49864285D01*
X133278571Y-49864285D01*
X133507142Y-49921428D01*
X133621428Y-49978571D01*
X133735714Y-50092857D01*
X133792857Y-50264285D01*
X133792857Y-50550000D01*
X133792857Y-49350000D02*
X132592857Y-49350000D01*
X132592857Y-48550000D02*
X132592857Y-48321428D01*
X132650000Y-48207142D01*
X132764285Y-48092857D01*
X132992857Y-48035714D01*
X133392857Y-48035714D01*
X133621428Y-48092857D01*
X133735714Y-48207142D01*
X133792857Y-48321428D01*
X133792857Y-48550000D01*
X133735714Y-48664285D01*
X133621428Y-48778571D01*
X133392857Y-48835714D01*
X132992857Y-48835714D01*
X132764285Y-48778571D01*
X132650000Y-48664285D01*
X132592857Y-48550000D01*
X132592857Y-47635714D02*
X132592857Y-46892857D01*
X133050000Y-47292857D01*
X133050000Y-47121428D01*
X133107142Y-47007142D01*
X133164285Y-46950000D01*
X133278571Y-46892857D01*
X133564285Y-46892857D01*
X133678571Y-46950000D01*
X133735714Y-47007142D01*
X133792857Y-47121428D01*
X133792857Y-47464285D01*
X133735714Y-47578571D01*
X133678571Y-47635714D01*
X126292857Y-50550000D02*
X125092857Y-50550000D01*
X125092857Y-50264285D01*
X125150000Y-50092857D01*
X125264285Y-49978571D01*
X125378571Y-49921428D01*
X125607142Y-49864285D01*
X125778571Y-49864285D01*
X126007142Y-49921428D01*
X126121428Y-49978571D01*
X126235714Y-50092857D01*
X126292857Y-50264285D01*
X126292857Y-50550000D01*
X126292857Y-49350000D02*
X125092857Y-49350000D01*
X125092857Y-48550000D02*
X125092857Y-48321428D01*
X125150000Y-48207142D01*
X125264285Y-48092857D01*
X125492857Y-48035714D01*
X125892857Y-48035714D01*
X126121428Y-48092857D01*
X126235714Y-48207142D01*
X126292857Y-48321428D01*
X126292857Y-48550000D01*
X126235714Y-48664285D01*
X126121428Y-48778571D01*
X125892857Y-48835714D01*
X125492857Y-48835714D01*
X125264285Y-48778571D01*
X125150000Y-48664285D01*
X125092857Y-48550000D01*
X125092857Y-47292857D02*
X125092857Y-47178571D01*
X125150000Y-47064285D01*
X125207142Y-47007142D01*
X125321428Y-46950000D01*
X125550000Y-46892857D01*
X125835714Y-46892857D01*
X126064285Y-46950000D01*
X126178571Y-47007142D01*
X126235714Y-47064285D01*
X126292857Y-47178571D01*
X126292857Y-47292857D01*
X126235714Y-47407142D01*
X126178571Y-47464285D01*
X126064285Y-47521428D01*
X125835714Y-47578571D01*
X125550000Y-47578571D01*
X125321428Y-47521428D01*
X125207142Y-47464285D01*
X125150000Y-47407142D01*
X125092857Y-47292857D01*
X71157142Y-53614285D02*
X71157142Y-53842857D01*
X71100000Y-53957142D01*
X70985714Y-54071428D01*
X70757142Y-54128571D01*
X70357142Y-54128571D01*
X70128571Y-54071428D01*
X70014285Y-53957142D01*
X69957142Y-53842857D01*
X69957142Y-53614285D01*
X70014285Y-53500000D01*
X70128571Y-53385714D01*
X70357142Y-53328571D01*
X70757142Y-53328571D01*
X70985714Y-53385714D01*
X71100000Y-53500000D01*
X71157142Y-53614285D01*
X71157142Y-54642857D02*
X70185714Y-54642857D01*
X70071428Y-54700000D01*
X70014285Y-54757142D01*
X69957142Y-54871428D01*
X69957142Y-55100000D01*
X70014285Y-55214285D01*
X70071428Y-55271428D01*
X70185714Y-55328571D01*
X71157142Y-55328571D01*
X71157142Y-55728571D02*
X71157142Y-56414285D01*
X69957142Y-56071428D02*
X71157142Y-56071428D01*
X69957142Y-56814285D02*
X71157142Y-56814285D01*
X71157142Y-57271428D01*
X71100000Y-57385714D01*
X71042857Y-57442857D01*
X70928571Y-57500000D01*
X70757142Y-57500000D01*
X70642857Y-57442857D01*
X70585714Y-57385714D01*
X70528571Y-57271428D01*
X70528571Y-56814285D01*
X71157142Y-58014285D02*
X70185714Y-58014285D01*
X70071428Y-58071428D01*
X70014285Y-58128571D01*
X69957142Y-58242857D01*
X69957142Y-58471428D01*
X70014285Y-58585714D01*
X70071428Y-58642857D01*
X70185714Y-58700000D01*
X71157142Y-58700000D01*
X71157142Y-59100000D02*
X71157142Y-59785714D01*
X69957142Y-59442857D02*
X71157142Y-59442857D01*
X101978571Y-47792857D02*
X101978571Y-46592857D01*
X102264285Y-47907142D02*
X103178571Y-47907142D01*
X103407142Y-47735714D02*
X103578571Y-47792857D01*
X103864285Y-47792857D01*
X103978571Y-47735714D01*
X104035714Y-47678571D01*
X104092857Y-47564285D01*
X104092857Y-47450000D01*
X104035714Y-47335714D01*
X103978571Y-47278571D01*
X103864285Y-47221428D01*
X103635714Y-47164285D01*
X103521428Y-47107142D01*
X103464285Y-47050000D01*
X103407142Y-46935714D01*
X103407142Y-46821428D01*
X103464285Y-46707142D01*
X103521428Y-46650000D01*
X103635714Y-46592857D01*
X103921428Y-46592857D01*
X104092857Y-46650000D01*
X104607142Y-47164285D02*
X105007142Y-47164285D01*
X105178571Y-47792857D02*
X104607142Y-47792857D01*
X104607142Y-46592857D01*
X105178571Y-46592857D01*
X105692857Y-47792857D02*
X105692857Y-46592857D01*
X106378571Y-47792857D01*
X106378571Y-46592857D01*
X106892857Y-47735714D02*
X107064285Y-47792857D01*
X107350000Y-47792857D01*
X107464285Y-47735714D01*
X107521428Y-47678571D01*
X107578571Y-47564285D01*
X107578571Y-47450000D01*
X107521428Y-47335714D01*
X107464285Y-47278571D01*
X107350000Y-47221428D01*
X107121428Y-47164285D01*
X107007142Y-47107142D01*
X106950000Y-47050000D01*
X106892857Y-46935714D01*
X106892857Y-46821428D01*
X106950000Y-46707142D01*
X107007142Y-46650000D01*
X107121428Y-46592857D01*
X107407142Y-46592857D01*
X107578571Y-46650000D01*
X97514285Y-47450000D02*
X98085714Y-47450000D01*
X97400000Y-47792857D02*
X97800000Y-46592857D01*
X98200000Y-47792857D01*
X98828571Y-46592857D02*
X99057142Y-46592857D01*
X99171428Y-46650000D01*
X99285714Y-46764285D01*
X99342857Y-46992857D01*
X99342857Y-47392857D01*
X99285714Y-47621428D01*
X99171428Y-47735714D01*
X99057142Y-47792857D01*
X98828571Y-47792857D01*
X98714285Y-47735714D01*
X98600000Y-47621428D01*
X98542857Y-47392857D01*
X98542857Y-46992857D01*
X98600000Y-46764285D01*
X98714285Y-46650000D01*
X98828571Y-46592857D01*
X100085714Y-46592857D02*
X100200000Y-46592857D01*
X100314285Y-46650000D01*
X100371428Y-46707142D01*
X100428571Y-46821428D01*
X100485714Y-47050000D01*
X100485714Y-47335714D01*
X100428571Y-47564285D01*
X100371428Y-47678571D01*
X100314285Y-47735714D01*
X100200000Y-47792857D01*
X100085714Y-47792857D01*
X99971428Y-47735714D01*
X99914285Y-47678571D01*
X99857142Y-47564285D01*
X99800000Y-47335714D01*
X99800000Y-47050000D01*
X99857142Y-46821428D01*
X99914285Y-46707142D01*
X99971428Y-46650000D01*
X100085714Y-46592857D01*
D12*
X120007142Y-57564285D02*
X119150000Y-57564285D01*
X119150000Y-55764285D01*
X120607142Y-57564285D02*
X120607142Y-55764285D01*
X121035714Y-55764285D01*
X121292857Y-55850000D01*
X121464285Y-56021428D01*
X121550000Y-56192857D01*
X121635714Y-56535714D01*
X121635714Y-56792857D01*
X121550000Y-57135714D01*
X121464285Y-57307142D01*
X121292857Y-57478571D01*
X121035714Y-57564285D01*
X120607142Y-57564285D01*
X123435714Y-57564285D02*
X122835714Y-56707142D01*
X122407142Y-57564285D02*
X122407142Y-55764285D01*
X123092857Y-55764285D01*
X123264285Y-55850000D01*
X123350000Y-55935714D01*
X123435714Y-56107142D01*
X123435714Y-56364285D01*
X123350000Y-56535714D01*
X123264285Y-56621428D01*
X123092857Y-56707142D01*
X122407142Y-56707142D01*
D11*
X71157142Y-98850000D02*
X71157142Y-99592857D01*
X70700000Y-99192857D01*
X70700000Y-99364285D01*
X70642857Y-99478571D01*
X70585714Y-99535714D01*
X70471428Y-99592857D01*
X70185714Y-99592857D01*
X70071428Y-99535714D01*
X70014285Y-99478571D01*
X69957142Y-99364285D01*
X69957142Y-99021428D01*
X70014285Y-98907142D01*
X70071428Y-98850000D01*
D13*
X113178571Y-80428571D02*
X114250000Y-80428571D01*
X114464285Y-80500000D01*
X114607142Y-80642857D01*
X114678571Y-80857142D01*
X114678571Y-81000000D01*
X114678571Y-79000000D02*
X114678571Y-79714285D01*
X113178571Y-79714285D01*
X114535714Y-77642857D02*
X114607142Y-77714285D01*
X114678571Y-77928571D01*
X114678571Y-78071428D01*
X114607142Y-78285714D01*
X114464285Y-78428571D01*
X114321428Y-78500000D01*
X114035714Y-78571428D01*
X113821428Y-78571428D01*
X113535714Y-78500000D01*
X113392857Y-78428571D01*
X113250000Y-78285714D01*
X113178571Y-78071428D01*
X113178571Y-77928571D01*
X113250000Y-77714285D01*
X113321428Y-77642857D01*
X113178571Y-76571428D02*
X114250000Y-76571428D01*
X114464285Y-76642857D01*
X114607142Y-76785714D01*
X114678571Y-77000000D01*
X114678571Y-77142857D01*
X114678571Y-75142857D02*
X114678571Y-75857142D01*
X113178571Y-75857142D01*
X114535714Y-73785714D02*
X114607142Y-73857142D01*
X114678571Y-74071428D01*
X114678571Y-74214285D01*
X114607142Y-74428571D01*
X114464285Y-74571428D01*
X114321428Y-74642857D01*
X114035714Y-74714285D01*
X113821428Y-74714285D01*
X113535714Y-74642857D01*
X113392857Y-74571428D01*
X113250000Y-74428571D01*
X113178571Y-74214285D01*
X113178571Y-74071428D01*
X113250000Y-73857142D01*
X113321428Y-73785714D01*
X113178571Y-72714285D02*
X114250000Y-72714285D01*
X114464285Y-72785714D01*
X114607142Y-72928571D01*
X114678571Y-73142857D01*
X114678571Y-73285714D01*
X114678571Y-71285714D02*
X114678571Y-72000000D01*
X113178571Y-72000000D01*
X114535714Y-69928571D02*
X114607142Y-70000000D01*
X114678571Y-70214285D01*
X114678571Y-70357142D01*
X114607142Y-70571428D01*
X114464285Y-70714285D01*
X114321428Y-70785714D01*
X114035714Y-70857142D01*
X113821428Y-70857142D01*
X113535714Y-70785714D01*
X113392857Y-70714285D01*
X113250000Y-70571428D01*
X113178571Y-70357142D01*
X113178571Y-70214285D01*
X113250000Y-70000000D01*
X113321428Y-69928571D01*
X113178571Y-68857142D02*
X114250000Y-68857142D01*
X114464285Y-68928571D01*
X114607142Y-69071428D01*
X114678571Y-69285714D01*
X114678571Y-69428571D01*
X114678571Y-67428571D02*
X114678571Y-68142857D01*
X113178571Y-68142857D01*
X114535714Y-66071428D02*
X114607142Y-66142857D01*
X114678571Y-66357142D01*
X114678571Y-66500000D01*
X114607142Y-66714285D01*
X114464285Y-66857142D01*
X114321428Y-66928571D01*
X114035714Y-67000000D01*
X113821428Y-67000000D01*
X113535714Y-66928571D01*
X113392857Y-66857142D01*
X113250000Y-66714285D01*
X113178571Y-66500000D01*
X113178571Y-66357142D01*
X113250000Y-66142857D01*
X113321428Y-66071428D01*
D12*
X108378571Y-130014285D02*
X109407142Y-130014285D01*
X108892857Y-131814285D02*
X108892857Y-130014285D01*
X110950000Y-131814285D02*
X109921428Y-131814285D01*
X110435714Y-131814285D02*
X110435714Y-130014285D01*
X110264285Y-130271428D01*
X110092857Y-130442857D01*
X109921428Y-130528571D01*
D11*
X164150000Y-55414285D02*
X164092857Y-55528571D01*
X164092857Y-55700000D01*
X164150000Y-55871428D01*
X164264285Y-55985714D01*
X164378571Y-56042857D01*
X164607142Y-56100000D01*
X164778571Y-56100000D01*
X165007142Y-56042857D01*
X165121428Y-55985714D01*
X165235714Y-55871428D01*
X165292857Y-55700000D01*
X165292857Y-55585714D01*
X165235714Y-55414285D01*
X165178571Y-55357142D01*
X164778571Y-55357142D01*
X164778571Y-55585714D01*
X165292857Y-54842857D02*
X164092857Y-54842857D01*
X165292857Y-54157142D01*
X164092857Y-54157142D01*
X165292857Y-53585714D02*
X164092857Y-53585714D01*
X164092857Y-53300000D01*
X164150000Y-53128571D01*
X164264285Y-53014285D01*
X164378571Y-52957142D01*
X164607142Y-52900000D01*
X164778571Y-52900000D01*
X165007142Y-52957142D01*
X165121428Y-53014285D01*
X165235714Y-53128571D01*
X165292857Y-53300000D01*
X165292857Y-53585714D01*
D12*
X148460500Y-109064285D02*
X148460500Y-107264285D01*
X149146214Y-107264285D01*
X149317642Y-107350000D01*
X149403357Y-107435714D01*
X149489071Y-107607142D01*
X149489071Y-107864285D01*
X149403357Y-108035714D01*
X149317642Y-108121428D01*
X149146214Y-108207142D01*
X148460500Y-108207142D01*
X150603357Y-107264285D02*
X150946214Y-107264285D01*
X151117642Y-107350000D01*
X151289071Y-107521428D01*
X151374785Y-107864285D01*
X151374785Y-108464285D01*
X151289071Y-108807142D01*
X151117642Y-108978571D01*
X150946214Y-109064285D01*
X150603357Y-109064285D01*
X150431928Y-108978571D01*
X150260500Y-108807142D01*
X150174785Y-108464285D01*
X150174785Y-107864285D01*
X150260500Y-107521428D01*
X150431928Y-107350000D01*
X150603357Y-107264285D01*
X151889071Y-107264285D02*
X152917642Y-107264285D01*
X152403357Y-109064285D02*
X152403357Y-107264285D01*
D11*
X164092857Y-49978571D02*
X164092857Y-50550000D01*
X164664285Y-50607142D01*
X164607142Y-50550000D01*
X164550000Y-50435714D01*
X164550000Y-50150000D01*
X164607142Y-50035714D01*
X164664285Y-49978571D01*
X164778571Y-49921428D01*
X165064285Y-49921428D01*
X165178571Y-49978571D01*
X165235714Y-50035714D01*
X165292857Y-50150000D01*
X165292857Y-50435714D01*
X165235714Y-50550000D01*
X165178571Y-50607142D01*
X164092857Y-49578571D02*
X165292857Y-49178571D01*
X164092857Y-48778571D01*
X137607142Y-86178571D02*
X137550000Y-86235714D01*
X137378571Y-86292857D01*
X137264285Y-86292857D01*
X137092857Y-86235714D01*
X136978571Y-86121428D01*
X136921428Y-86007142D01*
X136864285Y-85778571D01*
X136864285Y-85607142D01*
X136921428Y-85378571D01*
X136978571Y-85264285D01*
X137092857Y-85150000D01*
X137264285Y-85092857D01*
X137378571Y-85092857D01*
X137550000Y-85150000D01*
X137607142Y-85207142D01*
X138064285Y-85950000D02*
X138635714Y-85950000D01*
X137950000Y-86292857D02*
X138350000Y-85092857D01*
X138750000Y-86292857D01*
X144042857Y-50550000D02*
X142842857Y-50550000D01*
X142842857Y-50264285D01*
X142900000Y-50092857D01*
X143014285Y-49978571D01*
X143128571Y-49921428D01*
X143357142Y-49864285D01*
X143528571Y-49864285D01*
X143757142Y-49921428D01*
X143871428Y-49978571D01*
X143985714Y-50092857D01*
X144042857Y-50264285D01*
X144042857Y-50550000D01*
X144042857Y-49350000D02*
X142842857Y-49350000D01*
X142842857Y-48550000D02*
X142842857Y-48321428D01*
X142900000Y-48207142D01*
X143014285Y-48092857D01*
X143242857Y-48035714D01*
X143642857Y-48035714D01*
X143871428Y-48092857D01*
X143985714Y-48207142D01*
X144042857Y-48321428D01*
X144042857Y-48550000D01*
X143985714Y-48664285D01*
X143871428Y-48778571D01*
X143642857Y-48835714D01*
X143242857Y-48835714D01*
X143014285Y-48778571D01*
X142900000Y-48664285D01*
X142842857Y-48550000D01*
X142842857Y-47635714D02*
X142842857Y-46835714D01*
X144042857Y-47350000D01*
X128792857Y-50550000D02*
X127592857Y-50550000D01*
X127592857Y-50264285D01*
X127650000Y-50092857D01*
X127764285Y-49978571D01*
X127878571Y-49921428D01*
X128107142Y-49864285D01*
X128278571Y-49864285D01*
X128507142Y-49921428D01*
X128621428Y-49978571D01*
X128735714Y-50092857D01*
X128792857Y-50264285D01*
X128792857Y-50550000D01*
X128792857Y-49350000D02*
X127592857Y-49350000D01*
X127592857Y-48550000D02*
X127592857Y-48321428D01*
X127650000Y-48207142D01*
X127764285Y-48092857D01*
X127992857Y-48035714D01*
X128392857Y-48035714D01*
X128621428Y-48092857D01*
X128735714Y-48207142D01*
X128792857Y-48321428D01*
X128792857Y-48550000D01*
X128735714Y-48664285D01*
X128621428Y-48778571D01*
X128392857Y-48835714D01*
X127992857Y-48835714D01*
X127764285Y-48778571D01*
X127650000Y-48664285D01*
X127592857Y-48550000D01*
X128792857Y-46892857D02*
X128792857Y-47578571D01*
X128792857Y-47235714D02*
X127592857Y-47235714D01*
X127764285Y-47350000D01*
X127878571Y-47464285D01*
X127935714Y-47578571D01*
X161542857Y-47221428D02*
X160342857Y-47221428D01*
X160342857Y-46764285D01*
X160400000Y-46650000D01*
X160457142Y-46592857D01*
X160571428Y-46535714D01*
X160742857Y-46535714D01*
X160857142Y-46592857D01*
X160914285Y-46650000D01*
X160971428Y-46764285D01*
X160971428Y-47221428D01*
X160342857Y-45792857D02*
X160342857Y-45564285D01*
X160400000Y-45450000D01*
X160514285Y-45335714D01*
X160742857Y-45278571D01*
X161142857Y-45278571D01*
X161371428Y-45335714D01*
X161485714Y-45450000D01*
X161542857Y-45564285D01*
X161542857Y-45792857D01*
X161485714Y-45907142D01*
X161371428Y-46021428D01*
X161142857Y-46078571D01*
X160742857Y-46078571D01*
X160514285Y-46021428D01*
X160400000Y-45907142D01*
X160342857Y-45792857D01*
X160342857Y-44878571D02*
X161542857Y-44592857D01*
X160685714Y-44364285D01*
X161542857Y-44135714D01*
X160342857Y-43850000D01*
X160914285Y-43392857D02*
X160914285Y-42992857D01*
X161542857Y-42821428D02*
X161542857Y-43392857D01*
X160342857Y-43392857D01*
X160342857Y-42821428D01*
X161542857Y-41621428D02*
X160971428Y-42021428D01*
X161542857Y-42307142D02*
X160342857Y-42307142D01*
X160342857Y-41850000D01*
X160400000Y-41735714D01*
X160457142Y-41678571D01*
X160571428Y-41621428D01*
X160742857Y-41621428D01*
X160857142Y-41678571D01*
X160914285Y-41735714D01*
X160971428Y-41850000D01*
X160971428Y-42307142D01*
D13*
X76214285Y-52976190D02*
X76214285Y-56023809D01*
X74690476Y-54500000D02*
X77738095Y-54500000D01*
X76285714Y-114523809D02*
X76285714Y-111476190D01*
D11*
X127021428Y-86178571D02*
X126964285Y-86235714D01*
X126792857Y-86292857D01*
X126678571Y-86292857D01*
X126507142Y-86235714D01*
X126392857Y-86121428D01*
X126335714Y-86007142D01*
X126278571Y-85778571D01*
X126278571Y-85607142D01*
X126335714Y-85378571D01*
X126392857Y-85264285D01*
X126507142Y-85150000D01*
X126678571Y-85092857D01*
X126792857Y-85092857D01*
X126964285Y-85150000D01*
X127021428Y-85207142D01*
X128221428Y-86178571D02*
X128164285Y-86235714D01*
X127992857Y-86292857D01*
X127878571Y-86292857D01*
X127707142Y-86235714D01*
X127592857Y-86121428D01*
X127535714Y-86007142D01*
X127478571Y-85778571D01*
X127478571Y-85607142D01*
X127535714Y-85378571D01*
X127592857Y-85264285D01*
X127707142Y-85150000D01*
X127878571Y-85092857D01*
X127992857Y-85092857D01*
X128164285Y-85150000D01*
X128221428Y-85207142D01*
D14*
X77489333Y-129756333D02*
X77489333Y-128823000D01*
X77489333Y-128956333D02*
X77556000Y-128889666D01*
X77689333Y-128823000D01*
X77889333Y-128823000D01*
X78022666Y-128889666D01*
X78089333Y-129023000D01*
X78089333Y-129756333D01*
X78089333Y-129023000D02*
X78156000Y-128889666D01*
X78289333Y-128823000D01*
X78489333Y-128823000D01*
X78622666Y-128889666D01*
X78689333Y-129023000D01*
X78689333Y-129756333D01*
X79222666Y-128823000D02*
X79556000Y-129756333D01*
X79889333Y-128823000D02*
X79556000Y-129756333D01*
X79422666Y-130089666D01*
X79356000Y-130156333D01*
X79222666Y-130223000D01*
X80422666Y-129756333D02*
X80422666Y-128356333D01*
X80756000Y-128356333D01*
X80956000Y-128423000D01*
X81089333Y-128556333D01*
X81156000Y-128689666D01*
X81222666Y-128956333D01*
X81222666Y-129156333D01*
X81156000Y-129423000D01*
X81089333Y-129556333D01*
X80956000Y-129689666D01*
X80756000Y-129756333D01*
X80422666Y-129756333D01*
X81756000Y-129356333D02*
X82422666Y-129356333D01*
X81622666Y-129756333D02*
X82089333Y-128356333D01*
X82556000Y-129756333D01*
X83956000Y-129889666D02*
X83822666Y-129823000D01*
X83689333Y-129689666D01*
X83489333Y-129489666D01*
X83356000Y-129423000D01*
X83222666Y-129423000D01*
X83289333Y-129756333D02*
X83156000Y-129689666D01*
X83022666Y-129556333D01*
X82956000Y-129289666D01*
X82956000Y-128823000D01*
X83022666Y-128556333D01*
X83156000Y-128423000D01*
X83289333Y-128356333D01*
X83556000Y-128356333D01*
X83689333Y-128423000D01*
X83822666Y-128556333D01*
X83889333Y-128823000D01*
X83889333Y-129289666D01*
X83822666Y-129556333D01*
X83689333Y-129689666D01*
X83556000Y-129756333D01*
X83289333Y-129756333D01*
X84489333Y-129023000D02*
X84956000Y-129023000D01*
X85156000Y-129756333D02*
X84489333Y-129756333D01*
X84489333Y-128356333D01*
X85156000Y-128356333D01*
X85622666Y-129756333D02*
X86356000Y-128823000D01*
X85622666Y-128823000D02*
X86356000Y-129756333D01*
X86889333Y-128823000D02*
X86889333Y-130223000D01*
X86889333Y-128889666D02*
X87022666Y-128823000D01*
X87289333Y-128823000D01*
X87422666Y-128889666D01*
X87489333Y-128956333D01*
X87556000Y-129089666D01*
X87556000Y-129489666D01*
X87489333Y-129623000D01*
X87422666Y-129689666D01*
X87289333Y-129756333D01*
X87022666Y-129756333D01*
X86889333Y-129689666D01*
X88756000Y-129756333D02*
X88756000Y-129023000D01*
X88689333Y-128889666D01*
X88556000Y-128823000D01*
X88289333Y-128823000D01*
X88156000Y-128889666D01*
X88756000Y-129689666D02*
X88622666Y-129756333D01*
X88289333Y-129756333D01*
X88156000Y-129689666D01*
X88089333Y-129556333D01*
X88089333Y-129423000D01*
X88156000Y-129289666D01*
X88289333Y-129223000D01*
X88622666Y-129223000D01*
X88756000Y-129156333D01*
X89422666Y-128823000D02*
X89422666Y-129756333D01*
X89422666Y-128956333D02*
X89489333Y-128889666D01*
X89622666Y-128823000D01*
X89822666Y-128823000D01*
X89956000Y-128889666D01*
X90022666Y-129023000D01*
X90022666Y-129756333D01*
X90622666Y-129689666D02*
X90756000Y-129756333D01*
X91022666Y-129756333D01*
X91156000Y-129689666D01*
X91222666Y-129556333D01*
X91222666Y-129489666D01*
X91156000Y-129356333D01*
X91022666Y-129289666D01*
X90822666Y-129289666D01*
X90689333Y-129223000D01*
X90622666Y-129089666D01*
X90622666Y-129023000D01*
X90689333Y-128889666D01*
X90822666Y-128823000D01*
X91022666Y-128823000D01*
X91156000Y-128889666D01*
X91822666Y-129756333D02*
X91822666Y-128823000D01*
X91822666Y-128356333D02*
X91756000Y-128423000D01*
X91822666Y-128489666D01*
X91889333Y-128423000D01*
X91822666Y-128356333D01*
X91822666Y-128489666D01*
X92689333Y-129756333D02*
X92556000Y-129689666D01*
X92489333Y-129623000D01*
X92422666Y-129489666D01*
X92422666Y-129089666D01*
X92489333Y-128956333D01*
X92556000Y-128889666D01*
X92689333Y-128823000D01*
X92889333Y-128823000D01*
X93022666Y-128889666D01*
X93089333Y-128956333D01*
X93156000Y-129089666D01*
X93156000Y-129489666D01*
X93089333Y-129623000D01*
X93022666Y-129689666D01*
X92889333Y-129756333D01*
X92689333Y-129756333D01*
X93756000Y-128823000D02*
X93756000Y-129756333D01*
X93756000Y-128956333D02*
X93822666Y-128889666D01*
X93956000Y-128823000D01*
X94156000Y-128823000D01*
X94289333Y-128889666D01*
X94356000Y-129023000D01*
X94356000Y-129756333D01*
X95489333Y-129023000D02*
X95689333Y-129089666D01*
X95756000Y-129156333D01*
X95822666Y-129289666D01*
X95822666Y-129489666D01*
X95756000Y-129623000D01*
X95689333Y-129689666D01*
X95556000Y-129756333D01*
X95022666Y-129756333D01*
X95022666Y-128356333D01*
X95489333Y-128356333D01*
X95622666Y-128423000D01*
X95689333Y-128489666D01*
X95756000Y-128623000D01*
X95756000Y-128756333D01*
X95689333Y-128889666D01*
X95622666Y-128956333D01*
X95489333Y-129023000D01*
X95022666Y-129023000D01*
X96622666Y-129756333D02*
X96489333Y-129689666D01*
X96422666Y-129623000D01*
X96356000Y-129489666D01*
X96356000Y-129089666D01*
X96422666Y-128956333D01*
X96489333Y-128889666D01*
X96622666Y-128823000D01*
X96822666Y-128823000D01*
X96956000Y-128889666D01*
X97022666Y-128956333D01*
X97089333Y-129089666D01*
X97089333Y-129489666D01*
X97022666Y-129623000D01*
X96956000Y-129689666D01*
X96822666Y-129756333D01*
X96622666Y-129756333D01*
X98289333Y-129756333D02*
X98289333Y-129023000D01*
X98222666Y-128889666D01*
X98089333Y-128823000D01*
X97822666Y-128823000D01*
X97689333Y-128889666D01*
X98289333Y-129689666D02*
X98156000Y-129756333D01*
X97822666Y-129756333D01*
X97689333Y-129689666D01*
X97622666Y-129556333D01*
X97622666Y-129423000D01*
X97689333Y-129289666D01*
X97822666Y-129223000D01*
X98156000Y-129223000D01*
X98289333Y-129156333D01*
X98956000Y-129756333D02*
X98956000Y-128823000D01*
X98956000Y-129089666D02*
X99022666Y-128956333D01*
X99089333Y-128889666D01*
X99222666Y-128823000D01*
X99356000Y-128823000D01*
X100422666Y-129756333D02*
X100422666Y-128356333D01*
X100422666Y-129689666D02*
X100289333Y-129756333D01*
X100022666Y-129756333D01*
X99889333Y-129689666D01*
X99822666Y-129623000D01*
X99756000Y-129489666D01*
X99756000Y-129089666D01*
X99822666Y-128956333D01*
X99889333Y-128889666D01*
X100022666Y-128823000D01*
X100289333Y-128823000D01*
X100422666Y-128889666D01*
X77356000Y-131077000D02*
X77689333Y-132010333D01*
X78022666Y-131077000D01*
X79289333Y-132010333D02*
X78489333Y-132010333D01*
X78889333Y-132010333D02*
X78889333Y-130610333D01*
X78756000Y-130810333D01*
X78622666Y-130943666D01*
X78489333Y-131010333D01*
X79889333Y-132010333D02*
X79889333Y-131077000D01*
X79889333Y-131343666D02*
X79956000Y-131210333D01*
X80022666Y-131143666D01*
X80156000Y-131077000D01*
X80289333Y-131077000D01*
X81289333Y-131943666D02*
X81156000Y-132010333D01*
X80889333Y-132010333D01*
X80756000Y-131943666D01*
X80689333Y-131810333D01*
X80689333Y-131277000D01*
X80756000Y-131143666D01*
X80889333Y-131077000D01*
X81156000Y-131077000D01*
X81289333Y-131143666D01*
X81356000Y-131277000D01*
X81356000Y-131410333D01*
X80689333Y-131543666D01*
X81822666Y-131077000D02*
X82156000Y-132010333D01*
X82489333Y-131077000D01*
X83756000Y-132010333D02*
X82956000Y-132010333D01*
X83356000Y-132010333D02*
X83356000Y-130610333D01*
X83222666Y-130810333D01*
X83089333Y-130943666D01*
X82956000Y-131010333D01*
D11*
X71042857Y-67737142D02*
X71100000Y-67794285D01*
X71157142Y-67908571D01*
X71157142Y-68194285D01*
X71100000Y-68308571D01*
X71042857Y-68365714D01*
X70928571Y-68422857D01*
X70814285Y-68422857D01*
X70642857Y-68365714D01*
X69957142Y-67680000D01*
X69957142Y-68422857D01*
D10*
%TO.C,R21*%
X130857142Y-109822380D02*
X130523809Y-109346190D01*
X130285714Y-109822380D02*
X130285714Y-108822380D01*
X130666666Y-108822380D01*
X130761904Y-108870000D01*
X130809523Y-108917619D01*
X130857142Y-109012857D01*
X130857142Y-109155714D01*
X130809523Y-109250952D01*
X130761904Y-109298571D01*
X130666666Y-109346190D01*
X130285714Y-109346190D01*
X131238095Y-108917619D02*
X131285714Y-108870000D01*
X131380952Y-108822380D01*
X131619047Y-108822380D01*
X131714285Y-108870000D01*
X131761904Y-108917619D01*
X131809523Y-109012857D01*
X131809523Y-109108095D01*
X131761904Y-109250952D01*
X131190476Y-109822380D01*
X131809523Y-109822380D01*
X132761904Y-109822380D02*
X132190476Y-109822380D01*
X132476190Y-109822380D02*
X132476190Y-108822380D01*
X132380952Y-108965238D01*
X132285714Y-109060476D01*
X132190476Y-109108095D01*
%TO.C,R19*%
X113107142Y-109822380D02*
X112773809Y-109346190D01*
X112535714Y-109822380D02*
X112535714Y-108822380D01*
X112916666Y-108822380D01*
X113011904Y-108870000D01*
X113059523Y-108917619D01*
X113107142Y-109012857D01*
X113107142Y-109155714D01*
X113059523Y-109250952D01*
X113011904Y-109298571D01*
X112916666Y-109346190D01*
X112535714Y-109346190D01*
X114059523Y-109822380D02*
X113488095Y-109822380D01*
X113773809Y-109822380D02*
X113773809Y-108822380D01*
X113678571Y-108965238D01*
X113583333Y-109060476D01*
X113488095Y-109108095D01*
X114535714Y-109822380D02*
X114726190Y-109822380D01*
X114821428Y-109774761D01*
X114869047Y-109727142D01*
X114964285Y-109584285D01*
X115011904Y-109393809D01*
X115011904Y-109012857D01*
X114964285Y-108917619D01*
X114916666Y-108870000D01*
X114821428Y-108822380D01*
X114630952Y-108822380D01*
X114535714Y-108870000D01*
X114488095Y-108917619D01*
X114440476Y-109012857D01*
X114440476Y-109250952D01*
X114488095Y-109346190D01*
X114535714Y-109393809D01*
X114630952Y-109441428D01*
X114821428Y-109441428D01*
X114916666Y-109393809D01*
X114964285Y-109346190D01*
X115011904Y-109250952D01*
D12*
%TO.C,D2*%
X113408928Y-105814285D02*
X113408928Y-104014285D01*
X113837500Y-104014285D01*
X114094642Y-104100000D01*
X114266071Y-104271428D01*
X114351785Y-104442857D01*
X114437500Y-104785714D01*
X114437500Y-105042857D01*
X114351785Y-105385714D01*
X114266071Y-105557142D01*
X114094642Y-105728571D01*
X113837500Y-105814285D01*
X113408928Y-105814285D01*
X115123214Y-104185714D02*
X115208928Y-104100000D01*
X115380357Y-104014285D01*
X115808928Y-104014285D01*
X115980357Y-104100000D01*
X116066071Y-104185714D01*
X116151785Y-104357142D01*
X116151785Y-104528571D01*
X116066071Y-104785714D01*
X115037500Y-105814285D01*
X116151785Y-105814285D01*
D10*
%TO.C,R20*%
X165952380Y-45142857D02*
X165476190Y-45476190D01*
X165952380Y-45714285D02*
X164952380Y-45714285D01*
X164952380Y-45333333D01*
X165000000Y-45238095D01*
X165047619Y-45190476D01*
X165142857Y-45142857D01*
X165285714Y-45142857D01*
X165380952Y-45190476D01*
X165428571Y-45238095D01*
X165476190Y-45333333D01*
X165476190Y-45714285D01*
X165047619Y-44761904D02*
X165000000Y-44714285D01*
X164952380Y-44619047D01*
X164952380Y-44380952D01*
X165000000Y-44285714D01*
X165047619Y-44238095D01*
X165142857Y-44190476D01*
X165238095Y-44190476D01*
X165380952Y-44238095D01*
X165952380Y-44809523D01*
X165952380Y-44190476D01*
X164952380Y-43571428D02*
X164952380Y-43476190D01*
X165000000Y-43380952D01*
X165047619Y-43333333D01*
X165142857Y-43285714D01*
X165333333Y-43238095D01*
X165571428Y-43238095D01*
X165761904Y-43285714D01*
X165857142Y-43333333D01*
X165904761Y-43380952D01*
X165952380Y-43476190D01*
X165952380Y-43571428D01*
X165904761Y-43666666D01*
X165857142Y-43714285D01*
X165761904Y-43761904D01*
X165571428Y-43809523D01*
X165333333Y-43809523D01*
X165142857Y-43761904D01*
X165047619Y-43714285D01*
X165000000Y-43666666D01*
X164952380Y-43571428D01*
%TO.C,R3*%
X105583333Y-109502380D02*
X105250000Y-109026190D01*
X105011904Y-109502380D02*
X105011904Y-108502380D01*
X105392857Y-108502380D01*
X105488095Y-108550000D01*
X105535714Y-108597619D01*
X105583333Y-108692857D01*
X105583333Y-108835714D01*
X105535714Y-108930952D01*
X105488095Y-108978571D01*
X105392857Y-109026190D01*
X105011904Y-109026190D01*
X105916666Y-108502380D02*
X106535714Y-108502380D01*
X106202380Y-108883333D01*
X106345238Y-108883333D01*
X106440476Y-108930952D01*
X106488095Y-108978571D01*
X106535714Y-109073809D01*
X106535714Y-109311904D01*
X106488095Y-109407142D01*
X106440476Y-109454761D01*
X106345238Y-109502380D01*
X106059523Y-109502380D01*
X105964285Y-109454761D01*
X105916666Y-109407142D01*
%TO.C,C5*%
X95333333Y-65902142D02*
X95285714Y-65949761D01*
X95142857Y-65997380D01*
X95047619Y-65997380D01*
X94904761Y-65949761D01*
X94809523Y-65854523D01*
X94761904Y-65759285D01*
X94714285Y-65568809D01*
X94714285Y-65425952D01*
X94761904Y-65235476D01*
X94809523Y-65140238D01*
X94904761Y-65045000D01*
X95047619Y-64997380D01*
X95142857Y-64997380D01*
X95285714Y-65045000D01*
X95333333Y-65092619D01*
X96238095Y-64997380D02*
X95761904Y-64997380D01*
X95714285Y-65473571D01*
X95761904Y-65425952D01*
X95857142Y-65378333D01*
X96095238Y-65378333D01*
X96190476Y-65425952D01*
X96238095Y-65473571D01*
X96285714Y-65568809D01*
X96285714Y-65806904D01*
X96238095Y-65902142D01*
X96190476Y-65949761D01*
X96095238Y-65997380D01*
X95857142Y-65997380D01*
X95761904Y-65949761D01*
X95714285Y-65902142D01*
%TO.C,R18*%
X114382380Y-52142857D02*
X113906190Y-52476190D01*
X114382380Y-52714285D02*
X113382380Y-52714285D01*
X113382380Y-52333333D01*
X113430000Y-52238095D01*
X113477619Y-52190476D01*
X113572857Y-52142857D01*
X113715714Y-52142857D01*
X113810952Y-52190476D01*
X113858571Y-52238095D01*
X113906190Y-52333333D01*
X113906190Y-52714285D01*
X114382380Y-51190476D02*
X114382380Y-51761904D01*
X114382380Y-51476190D02*
X113382380Y-51476190D01*
X113525238Y-51571428D01*
X113620476Y-51666666D01*
X113668095Y-51761904D01*
X113810952Y-50619047D02*
X113763333Y-50714285D01*
X113715714Y-50761904D01*
X113620476Y-50809523D01*
X113572857Y-50809523D01*
X113477619Y-50761904D01*
X113430000Y-50714285D01*
X113382380Y-50619047D01*
X113382380Y-50428571D01*
X113430000Y-50333333D01*
X113477619Y-50285714D01*
X113572857Y-50238095D01*
X113620476Y-50238095D01*
X113715714Y-50285714D01*
X113763333Y-50333333D01*
X113810952Y-50428571D01*
X113810952Y-50619047D01*
X113858571Y-50714285D01*
X113906190Y-50761904D01*
X114001428Y-50809523D01*
X114191904Y-50809523D01*
X114287142Y-50761904D01*
X114334761Y-50714285D01*
X114382380Y-50619047D01*
X114382380Y-50428571D01*
X114334761Y-50333333D01*
X114287142Y-50285714D01*
X114191904Y-50238095D01*
X114001428Y-50238095D01*
X113906190Y-50285714D01*
X113858571Y-50333333D01*
X113810952Y-50428571D01*
%TO.C,R8*%
X122333333Y-68702380D02*
X122000000Y-68226190D01*
X121761904Y-68702380D02*
X121761904Y-67702380D01*
X122142857Y-67702380D01*
X122238095Y-67750000D01*
X122285714Y-67797619D01*
X122333333Y-67892857D01*
X122333333Y-68035714D01*
X122285714Y-68130952D01*
X122238095Y-68178571D01*
X122142857Y-68226190D01*
X121761904Y-68226190D01*
X122904761Y-68130952D02*
X122809523Y-68083333D01*
X122761904Y-68035714D01*
X122714285Y-67940476D01*
X122714285Y-67892857D01*
X122761904Y-67797619D01*
X122809523Y-67750000D01*
X122904761Y-67702380D01*
X123095238Y-67702380D01*
X123190476Y-67750000D01*
X123238095Y-67797619D01*
X123285714Y-67892857D01*
X123285714Y-67940476D01*
X123238095Y-68035714D01*
X123190476Y-68083333D01*
X123095238Y-68130952D01*
X122904761Y-68130952D01*
X122809523Y-68178571D01*
X122761904Y-68226190D01*
X122714285Y-68321428D01*
X122714285Y-68511904D01*
X122761904Y-68607142D01*
X122809523Y-68654761D01*
X122904761Y-68702380D01*
X123095238Y-68702380D01*
X123190476Y-68654761D01*
X123238095Y-68607142D01*
X123285714Y-68511904D01*
X123285714Y-68321428D01*
X123238095Y-68226190D01*
X123190476Y-68178571D01*
X123095238Y-68130952D01*
%TO.C,R11*%
X121857142Y-75202380D02*
X121523809Y-74726190D01*
X121285714Y-75202380D02*
X121285714Y-74202380D01*
X121666666Y-74202380D01*
X121761904Y-74250000D01*
X121809523Y-74297619D01*
X121857142Y-74392857D01*
X121857142Y-74535714D01*
X121809523Y-74630952D01*
X121761904Y-74678571D01*
X121666666Y-74726190D01*
X121285714Y-74726190D01*
X122809523Y-75202380D02*
X122238095Y-75202380D01*
X122523809Y-75202380D02*
X122523809Y-74202380D01*
X122428571Y-74345238D01*
X122333333Y-74440476D01*
X122238095Y-74488095D01*
X123761904Y-75202380D02*
X123190476Y-75202380D01*
X123476190Y-75202380D02*
X123476190Y-74202380D01*
X123380952Y-74345238D01*
X123285714Y-74440476D01*
X123190476Y-74488095D01*
%TO.C,JP10*%
X94940476Y-92452380D02*
X94940476Y-93166666D01*
X94892857Y-93309523D01*
X94797619Y-93404761D01*
X94654761Y-93452380D01*
X94559523Y-93452380D01*
X95416666Y-93452380D02*
X95416666Y-92452380D01*
X95797619Y-92452380D01*
X95892857Y-92500000D01*
X95940476Y-92547619D01*
X95988095Y-92642857D01*
X95988095Y-92785714D01*
X95940476Y-92880952D01*
X95892857Y-92928571D01*
X95797619Y-92976190D01*
X95416666Y-92976190D01*
X96940476Y-93452380D02*
X96369047Y-93452380D01*
X96654761Y-93452380D02*
X96654761Y-92452380D01*
X96559523Y-92595238D01*
X96464285Y-92690476D01*
X96369047Y-92738095D01*
X97559523Y-92452380D02*
X97654761Y-92452380D01*
X97750000Y-92500000D01*
X97797619Y-92547619D01*
X97845238Y-92642857D01*
X97892857Y-92833333D01*
X97892857Y-93071428D01*
X97845238Y-93261904D01*
X97797619Y-93357142D01*
X97750000Y-93404761D01*
X97654761Y-93452380D01*
X97559523Y-93452380D01*
X97464285Y-93404761D01*
X97416666Y-93357142D01*
X97369047Y-93261904D01*
X97321428Y-93071428D01*
X97321428Y-92833333D01*
X97369047Y-92642857D01*
X97416666Y-92547619D01*
X97464285Y-92500000D01*
X97559523Y-92452380D01*
%TO.C,R10*%
X121857142Y-71952380D02*
X121523809Y-71476190D01*
X121285714Y-71952380D02*
X121285714Y-70952380D01*
X121666666Y-70952380D01*
X121761904Y-71000000D01*
X121809523Y-71047619D01*
X121857142Y-71142857D01*
X121857142Y-71285714D01*
X121809523Y-71380952D01*
X121761904Y-71428571D01*
X121666666Y-71476190D01*
X121285714Y-71476190D01*
X122809523Y-71952380D02*
X122238095Y-71952380D01*
X122523809Y-71952380D02*
X122523809Y-70952380D01*
X122428571Y-71095238D01*
X122333333Y-71190476D01*
X122238095Y-71238095D01*
X123428571Y-70952380D02*
X123523809Y-70952380D01*
X123619047Y-71000000D01*
X123666666Y-71047619D01*
X123714285Y-71142857D01*
X123761904Y-71333333D01*
X123761904Y-71571428D01*
X123714285Y-71761904D01*
X123666666Y-71857142D01*
X123619047Y-71904761D01*
X123523809Y-71952380D01*
X123428571Y-71952380D01*
X123333333Y-71904761D01*
X123285714Y-71857142D01*
X123238095Y-71761904D01*
X123190476Y-71571428D01*
X123190476Y-71333333D01*
X123238095Y-71142857D01*
X123285714Y-71047619D01*
X123333333Y-71000000D01*
X123428571Y-70952380D01*
%TO.C,CD1*%
X109083333Y-109407142D02*
X109035714Y-109454761D01*
X108892857Y-109502380D01*
X108797619Y-109502380D01*
X108654761Y-109454761D01*
X108559523Y-109359523D01*
X108511904Y-109264285D01*
X108464285Y-109073809D01*
X108464285Y-108930952D01*
X108511904Y-108740476D01*
X108559523Y-108645238D01*
X108654761Y-108550000D01*
X108797619Y-108502380D01*
X108892857Y-108502380D01*
X109035714Y-108550000D01*
X109083333Y-108597619D01*
X109511904Y-109502380D02*
X109511904Y-108502380D01*
X109750000Y-108502380D01*
X109892857Y-108550000D01*
X109988095Y-108645238D01*
X110035714Y-108740476D01*
X110083333Y-108930952D01*
X110083333Y-109073809D01*
X110035714Y-109264285D01*
X109988095Y-109359523D01*
X109892857Y-109454761D01*
X109750000Y-109502380D01*
X109511904Y-109502380D01*
X111035714Y-109502380D02*
X110464285Y-109502380D01*
X110750000Y-109502380D02*
X110750000Y-108502380D01*
X110654761Y-108645238D01*
X110559523Y-108740476D01*
X110464285Y-108788095D01*
%TO.C,C3*%
X89358333Y-54177142D02*
X89310714Y-54224761D01*
X89167857Y-54272380D01*
X89072619Y-54272380D01*
X88929761Y-54224761D01*
X88834523Y-54129523D01*
X88786904Y-54034285D01*
X88739285Y-53843809D01*
X88739285Y-53700952D01*
X88786904Y-53510476D01*
X88834523Y-53415238D01*
X88929761Y-53320000D01*
X89072619Y-53272380D01*
X89167857Y-53272380D01*
X89310714Y-53320000D01*
X89358333Y-53367619D01*
X89691666Y-53272380D02*
X90310714Y-53272380D01*
X89977380Y-53653333D01*
X90120238Y-53653333D01*
X90215476Y-53700952D01*
X90263095Y-53748571D01*
X90310714Y-53843809D01*
X90310714Y-54081904D01*
X90263095Y-54177142D01*
X90215476Y-54224761D01*
X90120238Y-54272380D01*
X89834523Y-54272380D01*
X89739285Y-54224761D01*
X89691666Y-54177142D01*
%TO.C,R2*%
X155772380Y-72666666D02*
X155296190Y-73000000D01*
X155772380Y-73238095D02*
X154772380Y-73238095D01*
X154772380Y-72857142D01*
X154820000Y-72761904D01*
X154867619Y-72714285D01*
X154962857Y-72666666D01*
X155105714Y-72666666D01*
X155200952Y-72714285D01*
X155248571Y-72761904D01*
X155296190Y-72857142D01*
X155296190Y-73238095D01*
X154867619Y-72285714D02*
X154820000Y-72238095D01*
X154772380Y-72142857D01*
X154772380Y-71904761D01*
X154820000Y-71809523D01*
X154867619Y-71761904D01*
X154962857Y-71714285D01*
X155058095Y-71714285D01*
X155200952Y-71761904D01*
X155772380Y-72333333D01*
X155772380Y-71714285D01*
%TO.C,R6*%
X160702380Y-72666666D02*
X160226190Y-73000000D01*
X160702380Y-73238095D02*
X159702380Y-73238095D01*
X159702380Y-72857142D01*
X159750000Y-72761904D01*
X159797619Y-72714285D01*
X159892857Y-72666666D01*
X160035714Y-72666666D01*
X160130952Y-72714285D01*
X160178571Y-72761904D01*
X160226190Y-72857142D01*
X160226190Y-73238095D01*
X159702380Y-71809523D02*
X159702380Y-72000000D01*
X159750000Y-72095238D01*
X159797619Y-72142857D01*
X159940476Y-72238095D01*
X160130952Y-72285714D01*
X160511904Y-72285714D01*
X160607142Y-72238095D01*
X160654761Y-72190476D01*
X160702380Y-72095238D01*
X160702380Y-71904761D01*
X160654761Y-71809523D01*
X160607142Y-71761904D01*
X160511904Y-71714285D01*
X160273809Y-71714285D01*
X160178571Y-71761904D01*
X160130952Y-71809523D01*
X160083333Y-71904761D01*
X160083333Y-72095238D01*
X160130952Y-72190476D01*
X160178571Y-72238095D01*
X160273809Y-72285714D01*
%TO.C,C2*%
X70583333Y-86857142D02*
X70535714Y-86904761D01*
X70392857Y-86952380D01*
X70297619Y-86952380D01*
X70154761Y-86904761D01*
X70059523Y-86809523D01*
X70011904Y-86714285D01*
X69964285Y-86523809D01*
X69964285Y-86380952D01*
X70011904Y-86190476D01*
X70059523Y-86095238D01*
X70154761Y-86000000D01*
X70297619Y-85952380D01*
X70392857Y-85952380D01*
X70535714Y-86000000D01*
X70583333Y-86047619D01*
X70964285Y-86047619D02*
X71011904Y-86000000D01*
X71107142Y-85952380D01*
X71345238Y-85952380D01*
X71440476Y-86000000D01*
X71488095Y-86047619D01*
X71535714Y-86142857D01*
X71535714Y-86238095D01*
X71488095Y-86380952D01*
X70916666Y-86952380D01*
X71535714Y-86952380D01*
%TO.C,U2*%
X131698095Y-61952380D02*
X131698095Y-62761904D01*
X131745714Y-62857142D01*
X131793333Y-62904761D01*
X131888571Y-62952380D01*
X132079047Y-62952380D01*
X132174285Y-62904761D01*
X132221904Y-62857142D01*
X132269523Y-62761904D01*
X132269523Y-61952380D01*
X132698095Y-62047619D02*
X132745714Y-62000000D01*
X132840952Y-61952380D01*
X133079047Y-61952380D01*
X133174285Y-62000000D01*
X133221904Y-62047619D01*
X133269523Y-62142857D01*
X133269523Y-62238095D01*
X133221904Y-62380952D01*
X132650476Y-62952380D01*
X133269523Y-62952380D01*
%TO.C,R12*%
X107842380Y-66642857D02*
X107366190Y-66976190D01*
X107842380Y-67214285D02*
X106842380Y-67214285D01*
X106842380Y-66833333D01*
X106890000Y-66738095D01*
X106937619Y-66690476D01*
X107032857Y-66642857D01*
X107175714Y-66642857D01*
X107270952Y-66690476D01*
X107318571Y-66738095D01*
X107366190Y-66833333D01*
X107366190Y-67214285D01*
X107842380Y-65690476D02*
X107842380Y-66261904D01*
X107842380Y-65976190D02*
X106842380Y-65976190D01*
X106985238Y-66071428D01*
X107080476Y-66166666D01*
X107128095Y-66261904D01*
X106937619Y-65309523D02*
X106890000Y-65261904D01*
X106842380Y-65166666D01*
X106842380Y-64928571D01*
X106890000Y-64833333D01*
X106937619Y-64785714D01*
X107032857Y-64738095D01*
X107128095Y-64738095D01*
X107270952Y-64785714D01*
X107842380Y-65357142D01*
X107842380Y-64738095D01*
%TO.C,JP8*%
X118166666Y-44202380D02*
X118166666Y-44916666D01*
X118119047Y-45059523D01*
X118023809Y-45154761D01*
X117880952Y-45202380D01*
X117785714Y-45202380D01*
X118642857Y-45202380D02*
X118642857Y-44202380D01*
X119023809Y-44202380D01*
X119119047Y-44250000D01*
X119166666Y-44297619D01*
X119214285Y-44392857D01*
X119214285Y-44535714D01*
X119166666Y-44630952D01*
X119119047Y-44678571D01*
X119023809Y-44726190D01*
X118642857Y-44726190D01*
X119785714Y-44630952D02*
X119690476Y-44583333D01*
X119642857Y-44535714D01*
X119595238Y-44440476D01*
X119595238Y-44392857D01*
X119642857Y-44297619D01*
X119690476Y-44250000D01*
X119785714Y-44202380D01*
X119976190Y-44202380D01*
X120071428Y-44250000D01*
X120119047Y-44297619D01*
X120166666Y-44392857D01*
X120166666Y-44440476D01*
X120119047Y-44535714D01*
X120071428Y-44583333D01*
X119976190Y-44630952D01*
X119785714Y-44630952D01*
X119690476Y-44678571D01*
X119642857Y-44726190D01*
X119595238Y-44821428D01*
X119595238Y-45011904D01*
X119642857Y-45107142D01*
X119690476Y-45154761D01*
X119785714Y-45202380D01*
X119976190Y-45202380D01*
X120071428Y-45154761D01*
X120119047Y-45107142D01*
X120166666Y-45011904D01*
X120166666Y-44821428D01*
X120119047Y-44726190D01*
X120071428Y-44678571D01*
X119976190Y-44630952D01*
%TO.C,JP5*%
X95416666Y-103652380D02*
X95416666Y-104366666D01*
X95369047Y-104509523D01*
X95273809Y-104604761D01*
X95130952Y-104652380D01*
X95035714Y-104652380D01*
X95892857Y-104652380D02*
X95892857Y-103652380D01*
X96273809Y-103652380D01*
X96369047Y-103700000D01*
X96416666Y-103747619D01*
X96464285Y-103842857D01*
X96464285Y-103985714D01*
X96416666Y-104080952D01*
X96369047Y-104128571D01*
X96273809Y-104176190D01*
X95892857Y-104176190D01*
X97369047Y-103652380D02*
X96892857Y-103652380D01*
X96845238Y-104128571D01*
X96892857Y-104080952D01*
X96988095Y-104033333D01*
X97226190Y-104033333D01*
X97321428Y-104080952D01*
X97369047Y-104128571D01*
X97416666Y-104223809D01*
X97416666Y-104461904D01*
X97369047Y-104557142D01*
X97321428Y-104604761D01*
X97226190Y-104652380D01*
X96988095Y-104652380D01*
X96892857Y-104604761D01*
X96845238Y-104557142D01*
%TO.C,JP4*%
X160916666Y-66782380D02*
X160916666Y-67496666D01*
X160869047Y-67639523D01*
X160773809Y-67734761D01*
X160630952Y-67782380D01*
X160535714Y-67782380D01*
X161392857Y-67782380D02*
X161392857Y-66782380D01*
X161773809Y-66782380D01*
X161869047Y-66830000D01*
X161916666Y-66877619D01*
X161964285Y-66972857D01*
X161964285Y-67115714D01*
X161916666Y-67210952D01*
X161869047Y-67258571D01*
X161773809Y-67306190D01*
X161392857Y-67306190D01*
X162821428Y-67115714D02*
X162821428Y-67782380D01*
X162583333Y-66734761D02*
X162345238Y-67449047D01*
X162964285Y-67449047D01*
%TO.C,JP9*%
X95416666Y-83157380D02*
X95416666Y-83871666D01*
X95369047Y-84014523D01*
X95273809Y-84109761D01*
X95130952Y-84157380D01*
X95035714Y-84157380D01*
X95892857Y-84157380D02*
X95892857Y-83157380D01*
X96273809Y-83157380D01*
X96369047Y-83205000D01*
X96416666Y-83252619D01*
X96464285Y-83347857D01*
X96464285Y-83490714D01*
X96416666Y-83585952D01*
X96369047Y-83633571D01*
X96273809Y-83681190D01*
X95892857Y-83681190D01*
X96940476Y-84157380D02*
X97130952Y-84157380D01*
X97226190Y-84109761D01*
X97273809Y-84062142D01*
X97369047Y-83919285D01*
X97416666Y-83728809D01*
X97416666Y-83347857D01*
X97369047Y-83252619D01*
X97321428Y-83205000D01*
X97226190Y-83157380D01*
X97035714Y-83157380D01*
X96940476Y-83205000D01*
X96892857Y-83252619D01*
X96845238Y-83347857D01*
X96845238Y-83585952D01*
X96892857Y-83681190D01*
X96940476Y-83728809D01*
X97035714Y-83776428D01*
X97226190Y-83776428D01*
X97321428Y-83728809D01*
X97369047Y-83681190D01*
X97416666Y-83585952D01*
%TO.C,J3*%
X145416666Y-44202380D02*
X145416666Y-44916666D01*
X145369047Y-45059523D01*
X145273809Y-45154761D01*
X145130952Y-45202380D01*
X145035714Y-45202380D01*
X145797619Y-44202380D02*
X146416666Y-44202380D01*
X146083333Y-44583333D01*
X146226190Y-44583333D01*
X146321428Y-44630952D01*
X146369047Y-44678571D01*
X146416666Y-44773809D01*
X146416666Y-45011904D01*
X146369047Y-45107142D01*
X146321428Y-45154761D01*
X146226190Y-45202380D01*
X145940476Y-45202380D01*
X145845238Y-45154761D01*
X145797619Y-45107142D01*
%TO.C,C4*%
X80857142Y-78066666D02*
X80904761Y-78114285D01*
X80952380Y-78257142D01*
X80952380Y-78352380D01*
X80904761Y-78495238D01*
X80809523Y-78590476D01*
X80714285Y-78638095D01*
X80523809Y-78685714D01*
X80380952Y-78685714D01*
X80190476Y-78638095D01*
X80095238Y-78590476D01*
X80000000Y-78495238D01*
X79952380Y-78352380D01*
X79952380Y-78257142D01*
X80000000Y-78114285D01*
X80047619Y-78066666D01*
X80285714Y-77209523D02*
X80952380Y-77209523D01*
X79904761Y-77447619D02*
X80619047Y-77685714D01*
X80619047Y-77066666D01*
%TO.C,R7*%
X125619880Y-94654166D02*
X125143690Y-94987500D01*
X125619880Y-95225595D02*
X124619880Y-95225595D01*
X124619880Y-94844642D01*
X124667500Y-94749404D01*
X124715119Y-94701785D01*
X124810357Y-94654166D01*
X124953214Y-94654166D01*
X125048452Y-94701785D01*
X125096071Y-94749404D01*
X125143690Y-94844642D01*
X125143690Y-95225595D01*
X124619880Y-94320833D02*
X124619880Y-93654166D01*
X125619880Y-94082738D01*
%TO.C,U4*%
X83592380Y-84506904D02*
X84401904Y-84506904D01*
X84497142Y-84459285D01*
X84544761Y-84411666D01*
X84592380Y-84316428D01*
X84592380Y-84125952D01*
X84544761Y-84030714D01*
X84497142Y-83983095D01*
X84401904Y-83935476D01*
X83592380Y-83935476D01*
X83925714Y-83030714D02*
X84592380Y-83030714D01*
X83544761Y-83268809D02*
X84259047Y-83506904D01*
X84259047Y-82887857D01*
%TO.C,JP7*%
X96166666Y-44202380D02*
X96166666Y-44916666D01*
X96119047Y-45059523D01*
X96023809Y-45154761D01*
X95880952Y-45202380D01*
X95785714Y-45202380D01*
X96642857Y-45202380D02*
X96642857Y-44202380D01*
X97023809Y-44202380D01*
X97119047Y-44250000D01*
X97166666Y-44297619D01*
X97214285Y-44392857D01*
X97214285Y-44535714D01*
X97166666Y-44630952D01*
X97119047Y-44678571D01*
X97023809Y-44726190D01*
X96642857Y-44726190D01*
X97547619Y-44202380D02*
X98214285Y-44202380D01*
X97785714Y-45202380D01*
%TO.C,R5*%
X116619880Y-94654166D02*
X116143690Y-94987500D01*
X116619880Y-95225595D02*
X115619880Y-95225595D01*
X115619880Y-94844642D01*
X115667500Y-94749404D01*
X115715119Y-94701785D01*
X115810357Y-94654166D01*
X115953214Y-94654166D01*
X116048452Y-94701785D01*
X116096071Y-94749404D01*
X116143690Y-94844642D01*
X116143690Y-95225595D01*
X115619880Y-93749404D02*
X115619880Y-94225595D01*
X116096071Y-94273214D01*
X116048452Y-94225595D01*
X116000833Y-94130357D01*
X116000833Y-93892261D01*
X116048452Y-93797023D01*
X116096071Y-93749404D01*
X116191309Y-93701785D01*
X116429404Y-93701785D01*
X116524642Y-93749404D01*
X116572261Y-93797023D01*
X116619880Y-93892261D01*
X116619880Y-94130357D01*
X116572261Y-94225595D01*
X116524642Y-94273214D01*
D12*
%TO.C,D3*%
X122408928Y-105814285D02*
X122408928Y-104014285D01*
X122837500Y-104014285D01*
X123094642Y-104100000D01*
X123266071Y-104271428D01*
X123351785Y-104442857D01*
X123437500Y-104785714D01*
X123437500Y-105042857D01*
X123351785Y-105385714D01*
X123266071Y-105557142D01*
X123094642Y-105728571D01*
X122837500Y-105814285D01*
X122408928Y-105814285D01*
X124037500Y-104014285D02*
X125151785Y-104014285D01*
X124551785Y-104700000D01*
X124808928Y-104700000D01*
X124980357Y-104785714D01*
X125066071Y-104871428D01*
X125151785Y-105042857D01*
X125151785Y-105471428D01*
X125066071Y-105642857D01*
X124980357Y-105728571D01*
X124808928Y-105814285D01*
X124294642Y-105814285D01*
X124123214Y-105728571D01*
X124037500Y-105642857D01*
D10*
%TO.C,U1*%
X113238095Y-83702380D02*
X113238095Y-84511904D01*
X113285714Y-84607142D01*
X113333333Y-84654761D01*
X113428571Y-84702380D01*
X113619047Y-84702380D01*
X113714285Y-84654761D01*
X113761904Y-84607142D01*
X113809523Y-84511904D01*
X113809523Y-83702380D01*
X114809523Y-84702380D02*
X114238095Y-84702380D01*
X114523809Y-84702380D02*
X114523809Y-83702380D01*
X114428571Y-83845238D01*
X114333333Y-83940476D01*
X114238095Y-83988095D01*
%TO.C,J6*%
X83416666Y-105747380D02*
X83416666Y-106461666D01*
X83369047Y-106604523D01*
X83273809Y-106699761D01*
X83130952Y-106747380D01*
X83035714Y-106747380D01*
X84321428Y-105747380D02*
X84130952Y-105747380D01*
X84035714Y-105795000D01*
X83988095Y-105842619D01*
X83892857Y-105985476D01*
X83845238Y-106175952D01*
X83845238Y-106556904D01*
X83892857Y-106652142D01*
X83940476Y-106699761D01*
X84035714Y-106747380D01*
X84226190Y-106747380D01*
X84321428Y-106699761D01*
X84369047Y-106652142D01*
X84416666Y-106556904D01*
X84416666Y-106318809D01*
X84369047Y-106223571D01*
X84321428Y-106175952D01*
X84226190Y-106128333D01*
X84035714Y-106128333D01*
X83940476Y-106175952D01*
X83892857Y-106223571D01*
X83845238Y-106318809D01*
%TO.C,C6*%
X89358333Y-56927142D02*
X89310714Y-56974761D01*
X89167857Y-57022380D01*
X89072619Y-57022380D01*
X88929761Y-56974761D01*
X88834523Y-56879523D01*
X88786904Y-56784285D01*
X88739285Y-56593809D01*
X88739285Y-56450952D01*
X88786904Y-56260476D01*
X88834523Y-56165238D01*
X88929761Y-56070000D01*
X89072619Y-56022380D01*
X89167857Y-56022380D01*
X89310714Y-56070000D01*
X89358333Y-56117619D01*
X90215476Y-56022380D02*
X90025000Y-56022380D01*
X89929761Y-56070000D01*
X89882142Y-56117619D01*
X89786904Y-56260476D01*
X89739285Y-56450952D01*
X89739285Y-56831904D01*
X89786904Y-56927142D01*
X89834523Y-56974761D01*
X89929761Y-57022380D01*
X90120238Y-57022380D01*
X90215476Y-56974761D01*
X90263095Y-56927142D01*
X90310714Y-56831904D01*
X90310714Y-56593809D01*
X90263095Y-56498571D01*
X90215476Y-56450952D01*
X90120238Y-56403333D01*
X89929761Y-56403333D01*
X89834523Y-56450952D01*
X89786904Y-56498571D01*
X89739285Y-56593809D01*
%TO.C,R9*%
X134619880Y-94654166D02*
X134143690Y-94987500D01*
X134619880Y-95225595D02*
X133619880Y-95225595D01*
X133619880Y-94844642D01*
X133667500Y-94749404D01*
X133715119Y-94701785D01*
X133810357Y-94654166D01*
X133953214Y-94654166D01*
X134048452Y-94701785D01*
X134096071Y-94749404D01*
X134143690Y-94844642D01*
X134143690Y-95225595D01*
X134619880Y-94177976D02*
X134619880Y-93987500D01*
X134572261Y-93892261D01*
X134524642Y-93844642D01*
X134381785Y-93749404D01*
X134191309Y-93701785D01*
X133810357Y-93701785D01*
X133715119Y-93749404D01*
X133667500Y-93797023D01*
X133619880Y-93892261D01*
X133619880Y-94082738D01*
X133667500Y-94177976D01*
X133715119Y-94225595D01*
X133810357Y-94273214D01*
X134048452Y-94273214D01*
X134143690Y-94225595D01*
X134191309Y-94177976D01*
X134238928Y-94082738D01*
X134238928Y-93892261D01*
X134191309Y-93797023D01*
X134143690Y-93749404D01*
X134048452Y-93701785D01*
%TO.C,CD2*%
X126833333Y-109407142D02*
X126785714Y-109454761D01*
X126642857Y-109502380D01*
X126547619Y-109502380D01*
X126404761Y-109454761D01*
X126309523Y-109359523D01*
X126261904Y-109264285D01*
X126214285Y-109073809D01*
X126214285Y-108930952D01*
X126261904Y-108740476D01*
X126309523Y-108645238D01*
X126404761Y-108550000D01*
X126547619Y-108502380D01*
X126642857Y-108502380D01*
X126785714Y-108550000D01*
X126833333Y-108597619D01*
X127261904Y-109502380D02*
X127261904Y-108502380D01*
X127500000Y-108502380D01*
X127642857Y-108550000D01*
X127738095Y-108645238D01*
X127785714Y-108740476D01*
X127833333Y-108930952D01*
X127833333Y-109073809D01*
X127785714Y-109264285D01*
X127738095Y-109359523D01*
X127642857Y-109454761D01*
X127500000Y-109502380D01*
X127261904Y-109502380D01*
X128214285Y-108597619D02*
X128261904Y-108550000D01*
X128357142Y-108502380D01*
X128595238Y-108502380D01*
X128690476Y-108550000D01*
X128738095Y-108597619D01*
X128785714Y-108692857D01*
X128785714Y-108788095D01*
X128738095Y-108930952D01*
X128166666Y-109502380D01*
X128785714Y-109502380D01*
%TO.C,R1*%
X107619880Y-94654166D02*
X107143690Y-94987500D01*
X107619880Y-95225595D02*
X106619880Y-95225595D01*
X106619880Y-94844642D01*
X106667500Y-94749404D01*
X106715119Y-94701785D01*
X106810357Y-94654166D01*
X106953214Y-94654166D01*
X107048452Y-94701785D01*
X107096071Y-94749404D01*
X107143690Y-94844642D01*
X107143690Y-95225595D01*
X107619880Y-93701785D02*
X107619880Y-94273214D01*
X107619880Y-93987500D02*
X106619880Y-93987500D01*
X106762738Y-94082738D01*
X106857976Y-94177976D01*
X106905595Y-94273214D01*
%TO.C,JP1*%
X155916666Y-66807380D02*
X155916666Y-67521666D01*
X155869047Y-67664523D01*
X155773809Y-67759761D01*
X155630952Y-67807380D01*
X155535714Y-67807380D01*
X156392857Y-67807380D02*
X156392857Y-66807380D01*
X156773809Y-66807380D01*
X156869047Y-66855000D01*
X156916666Y-66902619D01*
X156964285Y-66997857D01*
X156964285Y-67140714D01*
X156916666Y-67235952D01*
X156869047Y-67283571D01*
X156773809Y-67331190D01*
X156392857Y-67331190D01*
X157916666Y-67807380D02*
X157345238Y-67807380D01*
X157630952Y-67807380D02*
X157630952Y-66807380D01*
X157535714Y-66950238D01*
X157440476Y-67045476D01*
X157345238Y-67093095D01*
%TO.C,J8*%
X80166666Y-119202380D02*
X80166666Y-119916666D01*
X80119047Y-120059523D01*
X80023809Y-120154761D01*
X79880952Y-120202380D01*
X79785714Y-120202380D01*
X80785714Y-119630952D02*
X80690476Y-119583333D01*
X80642857Y-119535714D01*
X80595238Y-119440476D01*
X80595238Y-119392857D01*
X80642857Y-119297619D01*
X80690476Y-119250000D01*
X80785714Y-119202380D01*
X80976190Y-119202380D01*
X81071428Y-119250000D01*
X81119047Y-119297619D01*
X81166666Y-119392857D01*
X81166666Y-119440476D01*
X81119047Y-119535714D01*
X81071428Y-119583333D01*
X80976190Y-119630952D01*
X80785714Y-119630952D01*
X80690476Y-119678571D01*
X80642857Y-119726190D01*
X80595238Y-119821428D01*
X80595238Y-120011904D01*
X80642857Y-120107142D01*
X80690476Y-120154761D01*
X80785714Y-120202380D01*
X80976190Y-120202380D01*
X81071428Y-120154761D01*
X81119047Y-120107142D01*
X81166666Y-120011904D01*
X81166666Y-119821428D01*
X81119047Y-119726190D01*
X81071428Y-119678571D01*
X80976190Y-119630952D01*
D12*
%TO.C,D1*%
X104408928Y-105814285D02*
X104408928Y-104014285D01*
X104837500Y-104014285D01*
X105094642Y-104100000D01*
X105266071Y-104271428D01*
X105351785Y-104442857D01*
X105437500Y-104785714D01*
X105437500Y-105042857D01*
X105351785Y-105385714D01*
X105266071Y-105557142D01*
X105094642Y-105728571D01*
X104837500Y-105814285D01*
X104408928Y-105814285D01*
X107151785Y-105814285D02*
X106123214Y-105814285D01*
X106637500Y-105814285D02*
X106637500Y-104014285D01*
X106466071Y-104271428D01*
X106294642Y-104442857D01*
X106123214Y-104528571D01*
D10*
%TO.C,R15*%
X121857142Y-62272380D02*
X121523809Y-61796190D01*
X121285714Y-62272380D02*
X121285714Y-61272380D01*
X121666666Y-61272380D01*
X121761904Y-61320000D01*
X121809523Y-61367619D01*
X121857142Y-61462857D01*
X121857142Y-61605714D01*
X121809523Y-61700952D01*
X121761904Y-61748571D01*
X121666666Y-61796190D01*
X121285714Y-61796190D01*
X122809523Y-62272380D02*
X122238095Y-62272380D01*
X122523809Y-62272380D02*
X122523809Y-61272380D01*
X122428571Y-61415238D01*
X122333333Y-61510476D01*
X122238095Y-61558095D01*
X123714285Y-61272380D02*
X123238095Y-61272380D01*
X123190476Y-61748571D01*
X123238095Y-61700952D01*
X123333333Y-61653333D01*
X123571428Y-61653333D01*
X123666666Y-61700952D01*
X123714285Y-61748571D01*
X123761904Y-61843809D01*
X123761904Y-62081904D01*
X123714285Y-62177142D01*
X123666666Y-62224761D01*
X123571428Y-62272380D01*
X123333333Y-62272380D01*
X123238095Y-62224761D01*
X123190476Y-62177142D01*
%TO.C,JP6*%
X131676666Y-87702380D02*
X131676666Y-88416666D01*
X131629047Y-88559523D01*
X131533809Y-88654761D01*
X131390952Y-88702380D01*
X131295714Y-88702380D01*
X132152857Y-88702380D02*
X132152857Y-87702380D01*
X132533809Y-87702380D01*
X132629047Y-87750000D01*
X132676666Y-87797619D01*
X132724285Y-87892857D01*
X132724285Y-88035714D01*
X132676666Y-88130952D01*
X132629047Y-88178571D01*
X132533809Y-88226190D01*
X132152857Y-88226190D01*
X133581428Y-87702380D02*
X133390952Y-87702380D01*
X133295714Y-87750000D01*
X133248095Y-87797619D01*
X133152857Y-87940476D01*
X133105238Y-88130952D01*
X133105238Y-88511904D01*
X133152857Y-88607142D01*
X133200476Y-88654761D01*
X133295714Y-88702380D01*
X133486190Y-88702380D01*
X133581428Y-88654761D01*
X133629047Y-88607142D01*
X133676666Y-88511904D01*
X133676666Y-88273809D01*
X133629047Y-88178571D01*
X133581428Y-88130952D01*
X133486190Y-88083333D01*
X133295714Y-88083333D01*
X133200476Y-88130952D01*
X133152857Y-88178571D01*
X133105238Y-88273809D01*
%TO.C,R13*%
X121857142Y-78522380D02*
X121523809Y-78046190D01*
X121285714Y-78522380D02*
X121285714Y-77522380D01*
X121666666Y-77522380D01*
X121761904Y-77570000D01*
X121809523Y-77617619D01*
X121857142Y-77712857D01*
X121857142Y-77855714D01*
X121809523Y-77950952D01*
X121761904Y-77998571D01*
X121666666Y-78046190D01*
X121285714Y-78046190D01*
X122809523Y-78522380D02*
X122238095Y-78522380D01*
X122523809Y-78522380D02*
X122523809Y-77522380D01*
X122428571Y-77665238D01*
X122333333Y-77760476D01*
X122238095Y-77808095D01*
X123142857Y-77522380D02*
X123761904Y-77522380D01*
X123428571Y-77903333D01*
X123571428Y-77903333D01*
X123666666Y-77950952D01*
X123714285Y-77998571D01*
X123761904Y-78093809D01*
X123761904Y-78331904D01*
X123714285Y-78427142D01*
X123666666Y-78474761D01*
X123571428Y-78522380D01*
X123285714Y-78522380D01*
X123190476Y-78474761D01*
X123142857Y-78427142D01*
%TO.C,J7*%
X80166666Y-46202380D02*
X80166666Y-46916666D01*
X80119047Y-47059523D01*
X80023809Y-47154761D01*
X79880952Y-47202380D01*
X79785714Y-47202380D01*
X80547619Y-46202380D02*
X81214285Y-46202380D01*
X80785714Y-47202380D01*
%TO.C,JP2*%
X145916666Y-66807380D02*
X145916666Y-67521666D01*
X145869047Y-67664523D01*
X145773809Y-67759761D01*
X145630952Y-67807380D01*
X145535714Y-67807380D01*
X146392857Y-67807380D02*
X146392857Y-66807380D01*
X146773809Y-66807380D01*
X146869047Y-66855000D01*
X146916666Y-66902619D01*
X146964285Y-66997857D01*
X146964285Y-67140714D01*
X146916666Y-67235952D01*
X146869047Y-67283571D01*
X146773809Y-67331190D01*
X146392857Y-67331190D01*
X147345238Y-66902619D02*
X147392857Y-66855000D01*
X147488095Y-66807380D01*
X147726190Y-66807380D01*
X147821428Y-66855000D01*
X147869047Y-66902619D01*
X147916666Y-66997857D01*
X147916666Y-67093095D01*
X147869047Y-67235952D01*
X147297619Y-67807380D01*
X147916666Y-67807380D01*
%TO.C,JP3*%
X150916666Y-66807380D02*
X150916666Y-67521666D01*
X150869047Y-67664523D01*
X150773809Y-67759761D01*
X150630952Y-67807380D01*
X150535714Y-67807380D01*
X151392857Y-67807380D02*
X151392857Y-66807380D01*
X151773809Y-66807380D01*
X151869047Y-66855000D01*
X151916666Y-66902619D01*
X151964285Y-66997857D01*
X151964285Y-67140714D01*
X151916666Y-67235952D01*
X151869047Y-67283571D01*
X151773809Y-67331190D01*
X151392857Y-67331190D01*
X152297619Y-66807380D02*
X152916666Y-66807380D01*
X152583333Y-67188333D01*
X152726190Y-67188333D01*
X152821428Y-67235952D01*
X152869047Y-67283571D01*
X152916666Y-67378809D01*
X152916666Y-67616904D01*
X152869047Y-67712142D01*
X152821428Y-67759761D01*
X152726190Y-67807380D01*
X152440476Y-67807380D01*
X152345238Y-67759761D01*
X152297619Y-67712142D01*
%TO.C,R4*%
X123333333Y-109502380D02*
X123000000Y-109026190D01*
X122761904Y-109502380D02*
X122761904Y-108502380D01*
X123142857Y-108502380D01*
X123238095Y-108550000D01*
X123285714Y-108597619D01*
X123333333Y-108692857D01*
X123333333Y-108835714D01*
X123285714Y-108930952D01*
X123238095Y-108978571D01*
X123142857Y-109026190D01*
X122761904Y-109026190D01*
X124190476Y-108835714D02*
X124190476Y-109502380D01*
X123952380Y-108454761D02*
X123714285Y-109169047D01*
X124333333Y-109169047D01*
D12*
%TO.C,D4*%
X131408928Y-105814285D02*
X131408928Y-104014285D01*
X131837500Y-104014285D01*
X132094642Y-104100000D01*
X132266071Y-104271428D01*
X132351785Y-104442857D01*
X132437500Y-104785714D01*
X132437500Y-105042857D01*
X132351785Y-105385714D01*
X132266071Y-105557142D01*
X132094642Y-105728571D01*
X131837500Y-105814285D01*
X131408928Y-105814285D01*
X133980357Y-104614285D02*
X133980357Y-105814285D01*
X133551785Y-103928571D02*
X133123214Y-105214285D01*
X134237500Y-105214285D01*
D10*
%TO.C,J5*%
X83416666Y-69452380D02*
X83416666Y-70166666D01*
X83369047Y-70309523D01*
X83273809Y-70404761D01*
X83130952Y-70452380D01*
X83035714Y-70452380D01*
X84369047Y-69452380D02*
X83892857Y-69452380D01*
X83845238Y-69928571D01*
X83892857Y-69880952D01*
X83988095Y-69833333D01*
X84226190Y-69833333D01*
X84321428Y-69880952D01*
X84369047Y-69928571D01*
X84416666Y-70023809D01*
X84416666Y-70261904D01*
X84369047Y-70357142D01*
X84321428Y-70404761D01*
X84226190Y-70452380D01*
X83988095Y-70452380D01*
X83892857Y-70404761D01*
X83845238Y-70357142D01*
%TO.C,C1*%
X118388333Y-60427142D02*
X118340714Y-60474761D01*
X118197857Y-60522380D01*
X118102619Y-60522380D01*
X117959761Y-60474761D01*
X117864523Y-60379523D01*
X117816904Y-60284285D01*
X117769285Y-60093809D01*
X117769285Y-59950952D01*
X117816904Y-59760476D01*
X117864523Y-59665238D01*
X117959761Y-59570000D01*
X118102619Y-59522380D01*
X118197857Y-59522380D01*
X118340714Y-59570000D01*
X118388333Y-59617619D01*
X119340714Y-60522380D02*
X118769285Y-60522380D01*
X119055000Y-60522380D02*
X119055000Y-59522380D01*
X118959761Y-59665238D01*
X118864523Y-59760476D01*
X118769285Y-59808095D01*
%TO.C,U3*%
X82763095Y-53302380D02*
X82763095Y-54111904D01*
X82810714Y-54207142D01*
X82858333Y-54254761D01*
X82953571Y-54302380D01*
X83144047Y-54302380D01*
X83239285Y-54254761D01*
X83286904Y-54207142D01*
X83334523Y-54111904D01*
X83334523Y-53302380D01*
X83715476Y-53302380D02*
X84334523Y-53302380D01*
X84001190Y-53683333D01*
X84144047Y-53683333D01*
X84239285Y-53730952D01*
X84286904Y-53778571D01*
X84334523Y-53873809D01*
X84334523Y-54111904D01*
X84286904Y-54207142D01*
X84239285Y-54254761D01*
X84144047Y-54302380D01*
X83858333Y-54302380D01*
X83763095Y-54254761D01*
X83715476Y-54207142D01*
%TO.C,R16*%
X121857142Y-65522380D02*
X121523809Y-65046190D01*
X121285714Y-65522380D02*
X121285714Y-64522380D01*
X121666666Y-64522380D01*
X121761904Y-64570000D01*
X121809523Y-64617619D01*
X121857142Y-64712857D01*
X121857142Y-64855714D01*
X121809523Y-64950952D01*
X121761904Y-64998571D01*
X121666666Y-65046190D01*
X121285714Y-65046190D01*
X122809523Y-65522380D02*
X122238095Y-65522380D01*
X122523809Y-65522380D02*
X122523809Y-64522380D01*
X122428571Y-64665238D01*
X122333333Y-64760476D01*
X122238095Y-64808095D01*
X123666666Y-64522380D02*
X123476190Y-64522380D01*
X123380952Y-64570000D01*
X123333333Y-64617619D01*
X123238095Y-64760476D01*
X123190476Y-64950952D01*
X123190476Y-65331904D01*
X123238095Y-65427142D01*
X123285714Y-65474761D01*
X123380952Y-65522380D01*
X123571428Y-65522380D01*
X123666666Y-65474761D01*
X123714285Y-65427142D01*
X123761904Y-65331904D01*
X123761904Y-65093809D01*
X123714285Y-64998571D01*
X123666666Y-64950952D01*
X123571428Y-64903333D01*
X123380952Y-64903333D01*
X123285714Y-64950952D01*
X123238095Y-64998571D01*
X123190476Y-65093809D01*
%TO.C,R14*%
X121857142Y-81702380D02*
X121523809Y-81226190D01*
X121285714Y-81702380D02*
X121285714Y-80702380D01*
X121666666Y-80702380D01*
X121761904Y-80750000D01*
X121809523Y-80797619D01*
X121857142Y-80892857D01*
X121857142Y-81035714D01*
X121809523Y-81130952D01*
X121761904Y-81178571D01*
X121666666Y-81226190D01*
X121285714Y-81226190D01*
X122809523Y-81702380D02*
X122238095Y-81702380D01*
X122523809Y-81702380D02*
X122523809Y-80702380D01*
X122428571Y-80845238D01*
X122333333Y-80940476D01*
X122238095Y-80988095D01*
X123666666Y-81035714D02*
X123666666Y-81702380D01*
X123428571Y-80654761D02*
X123190476Y-81369047D01*
X123809523Y-81369047D01*
D15*
%TO.C,R21*%
X131262742Y-111322500D02*
X131737258Y-111322500D01*
X131262742Y-110277500D02*
X131737258Y-110277500D01*
%TO.C,R19*%
X113512742Y-111322500D02*
X113987258Y-111322500D01*
X113512742Y-110277500D02*
X113987258Y-110277500D01*
%TO.C,D2*%
X117237500Y-100242500D02*
G75*
G03*
X117237500Y-100242500I-2500000J0D01*
G01*
X116282330Y-102802500D02*
G75*
G03*
X114737038Y-97252500I-1544830J2560000D01*
G01*
X114737962Y-97252500D02*
G75*
G03*
X113192670Y-102802500I-462J-2990000D01*
G01*
X113192500Y-102802500D02*
X116282500Y-102802500D01*
%TO.C,R20*%
X166477500Y-44262742D02*
X166477500Y-44737258D01*
X167522500Y-44262742D02*
X167522500Y-44737258D01*
%TO.C,R3*%
X105512742Y-111322500D02*
X105987258Y-111322500D01*
X105512742Y-110277500D02*
X105987258Y-110277500D01*
%TO.C,C5*%
X94120000Y-65545000D02*
G75*
G03*
X94120000Y-65545000I-5120000J0D01*
G01*
%TO.C,R18*%
X111977500Y-51262742D02*
X111977500Y-51737258D01*
X113022500Y-51262742D02*
X113022500Y-51737258D01*
%TO.C,R8*%
X122262742Y-70272500D02*
X122737258Y-70272500D01*
X122262742Y-69227500D02*
X122737258Y-69227500D01*
%TO.C,R11*%
X122262742Y-76772500D02*
X122737258Y-76772500D01*
X122262742Y-75727500D02*
X122737258Y-75727500D01*
%TO.C,JP10*%
X98855000Y-89170000D02*
X93655000Y-89170000D01*
X98855000Y-89170000D02*
X98855000Y-91830000D01*
X93655000Y-89170000D02*
X93655000Y-91830000D01*
X98855000Y-91830000D02*
X93655000Y-91830000D01*
%TO.C,R10*%
X122262742Y-72477500D02*
X122737258Y-72477500D01*
X122262742Y-73522500D02*
X122737258Y-73522500D01*
%TO.C,CD1*%
X109488748Y-111535000D02*
X110011252Y-111535000D01*
X109488748Y-110065000D02*
X110011252Y-110065000D01*
%TO.C,C3*%
X89384420Y-55760000D02*
X89665580Y-55760000D01*
X89384420Y-54740000D02*
X89665580Y-54740000D01*
%TO.C,R2*%
X157272500Y-72737258D02*
X157272500Y-72262742D01*
X156227500Y-72737258D02*
X156227500Y-72262742D01*
%TO.C,R6*%
X161227500Y-72262742D02*
X161227500Y-72737258D01*
X162272500Y-72262742D02*
X162272500Y-72737258D01*
%TO.C,C2*%
X70240000Y-84390580D02*
X70240000Y-84109420D01*
X71260000Y-84390580D02*
X71260000Y-84109420D01*
D11*
%TO.C,U2*%
X125960000Y-64000000D02*
X138960000Y-64000000D01*
X138960000Y-64000000D02*
X138960000Y-82000000D01*
X138960000Y-82000000D02*
X125960000Y-82000000D01*
X125960000Y-82000000D02*
X125960000Y-64000000D01*
D15*
%TO.C,R12*%
X105437500Y-65762742D02*
X105437500Y-66237258D01*
X106482500Y-65762742D02*
X106482500Y-66237258D01*
%TO.C,JP8*%
X109670000Y-46080000D02*
X117410000Y-46080000D01*
X117410000Y-46080000D02*
X117410000Y-43420000D01*
X109670000Y-46080000D02*
X109670000Y-43420000D01*
X109670000Y-43420000D02*
X117410000Y-43420000D01*
D11*
%TO.C,RV1*%
X155894500Y-93379500D02*
X154624500Y-93379500D01*
X145226500Y-97189500D02*
X145226500Y-93379500D01*
X155894500Y-106079500D02*
X155894500Y-103285500D01*
X144718500Y-106079500D02*
X144718500Y-103285500D01*
X155894500Y-97189500D02*
X155894500Y-93379500D01*
X144718500Y-106079500D02*
X155894500Y-106079500D01*
X146496500Y-93379500D02*
X145226500Y-93379500D01*
D15*
%TO.C,JP5*%
X97580000Y-102855000D02*
X94920000Y-102855000D01*
X94920000Y-102855000D02*
X94920000Y-97655000D01*
X97580000Y-97655000D02*
X94920000Y-97655000D01*
X97580000Y-102855000D02*
X97580000Y-97655000D01*
%TO.C,JP4*%
X160420000Y-66330000D02*
X160420000Y-61130000D01*
X163080000Y-66330000D02*
X163080000Y-61130000D01*
X163080000Y-61130000D02*
X160420000Y-61130000D01*
X163080000Y-66330000D02*
X160420000Y-66330000D01*
%TO.C,JP9*%
X98855000Y-82535000D02*
X93655000Y-82535000D01*
X93655000Y-79875000D02*
X93655000Y-82535000D01*
X98855000Y-79875000D02*
X98855000Y-82535000D01*
X98855000Y-79875000D02*
X93655000Y-79875000D01*
%TO.C,J3*%
X124265000Y-43420000D02*
X124265000Y-46080000D01*
X142105000Y-43420000D02*
X124265000Y-43420000D01*
X142105000Y-46080000D02*
X124265000Y-46080000D01*
X143375000Y-43420000D02*
X144705000Y-43420000D01*
X144705000Y-43420000D02*
X144705000Y-44750000D01*
X142105000Y-43420000D02*
X142105000Y-46080000D01*
%TO.C,J2*%
X163165000Y-55830000D02*
X163165000Y-53170000D01*
X151675000Y-55830000D02*
X150345000Y-55830000D01*
X152945000Y-55830000D02*
X163165000Y-55830000D01*
X150345000Y-55830000D02*
X150345000Y-54500000D01*
X152945000Y-53170000D02*
X163165000Y-53170000D01*
X152945000Y-55830000D02*
X152945000Y-53170000D01*
%TO.C,C4*%
X81740000Y-78040580D02*
X81740000Y-77759420D01*
X82760000Y-78040580D02*
X82760000Y-77759420D01*
%TO.C,R7*%
X123215000Y-94250242D02*
X123215000Y-94724758D01*
X124260000Y-94250242D02*
X124260000Y-94724758D01*
%TO.C,J4*%
X157985000Y-41700000D02*
X157985000Y-34300000D01*
X80515000Y-41700000D02*
X157985000Y-41700000D01*
X80515000Y-34300000D02*
X80515000Y-41700000D01*
%TO.C,U4*%
X77899000Y-79590000D02*
X77899000Y-80281000D01*
X77899000Y-79935000D02*
X74505000Y-79935000D01*
X74640000Y-95655000D02*
X90140000Y-95655000D01*
X77899000Y-90095000D02*
X74505000Y-90095000D01*
X74640000Y-72055000D02*
X90140000Y-72055000D01*
X83140000Y-81896000D02*
X81300000Y-81896000D01*
X83140000Y-73525000D02*
X77899000Y-73525000D01*
X77899000Y-85015000D02*
X74505000Y-85015000D01*
X77899000Y-92290000D02*
X77899000Y-93965000D01*
X83140000Y-93965000D02*
X77899000Y-93965000D01*
X77899000Y-89750000D02*
X77899000Y-90441000D01*
X77899000Y-87555000D02*
X74505000Y-87555000D01*
X77899000Y-77395000D02*
X74505000Y-77395000D01*
X77899000Y-84670000D02*
X77899000Y-85361000D01*
X83140000Y-85595000D02*
X81300000Y-85595000D01*
X77899000Y-82475000D02*
X74505000Y-82475000D01*
X77899000Y-92635000D02*
X74505000Y-92635000D01*
X77899000Y-77050000D02*
X77899000Y-77741000D01*
X77899000Y-82130000D02*
X77899000Y-82821000D01*
X77899000Y-74855000D02*
X74490000Y-74855000D01*
X77899000Y-73525000D02*
X77899000Y-75201000D01*
X77899000Y-87210000D02*
X77899000Y-87901000D01*
X83140000Y-76155000D02*
X83140000Y-91555000D01*
X81300000Y-73525000D02*
X81300000Y-93965000D01*
%TO.C,JP7*%
X98865000Y-43420000D02*
X98865000Y-46080000D01*
X106605000Y-46080000D02*
X98865000Y-46080000D01*
X106605000Y-43420000D02*
X106605000Y-46080000D01*
X106605000Y-43420000D02*
X98865000Y-43420000D01*
%TO.C,R5*%
X115260000Y-94250242D02*
X115260000Y-94724758D01*
X114215000Y-94250242D02*
X114215000Y-94724758D01*
%TO.C,D3*%
X126237500Y-100242500D02*
G75*
G03*
X126237500Y-100242500I-2500000J0D01*
G01*
X125282330Y-102802500D02*
G75*
G03*
X123737038Y-97252500I-1544830J2560000D01*
G01*
X123737962Y-97252500D02*
G75*
G03*
X122192670Y-102802500I-462J-2990000D01*
G01*
X122192500Y-102802500D02*
X125282500Y-102802500D01*
%TO.C,U1*%
X112970000Y-62795000D02*
G75*
G03*
X114970000Y-62795000I1000000J0D01*
G01*
X112970000Y-62795000D02*
X111320000Y-62795000D01*
X111320000Y-83235000D02*
X116620000Y-83235000D01*
X116620000Y-62795000D02*
X114970000Y-62795000D01*
X116620000Y-83235000D02*
X116620000Y-62795000D01*
X111320000Y-62795000D02*
X111320000Y-83235000D01*
%TO.C,J6*%
X78680000Y-104330000D02*
G75*
G03*
X78680000Y-104330000I-1680000J0D01*
G01*
X78535000Y-99934000D02*
G75*
G03*
X78535427Y-98566958I-1534993J684001D01*
G01*
X75320000Y-99250000D02*
G75*
G03*
X75465244Y-99933318I1680000J0D01*
G01*
X75465000Y-98566000D02*
G75*
G03*
X75319747Y-99278805I1535001J-683999D01*
G01*
X77684000Y-97715000D02*
G75*
G03*
X76316958Y-97714573I-684001J-1534993D01*
G01*
X76316000Y-100785001D02*
G75*
G03*
X77683042Y-100785427I684000J1535001D01*
G01*
X72840000Y-96410000D02*
X72100000Y-96410000D01*
X75977000Y-103103000D02*
X75931000Y-103056000D01*
X72340000Y-96650000D02*
X72340000Y-106930000D01*
X79301000Y-96650000D02*
X79301000Y-106930000D01*
X75761000Y-103296000D02*
X75726000Y-103261000D01*
X82261000Y-96650000D02*
X82261000Y-106930000D01*
X82261000Y-106930000D02*
X72340000Y-106930000D01*
X72900000Y-96650000D02*
X72900000Y-106930000D01*
X78069000Y-105605000D02*
X78023000Y-105558000D01*
X74400000Y-96650000D02*
X74400000Y-106930000D01*
X72100000Y-96410000D02*
X72100000Y-96910000D01*
X82261000Y-96650000D02*
X72340000Y-96650000D01*
X78275000Y-105400000D02*
X78239000Y-105365000D01*
%TO.C,C6*%
X89384420Y-58510000D02*
X89665580Y-58510000D01*
X89384420Y-57490000D02*
X89665580Y-57490000D01*
%TO.C,R9*%
X132215000Y-94250242D02*
X132215000Y-94724758D01*
X133260000Y-94250242D02*
X133260000Y-94724758D01*
%TO.C,CD2*%
X127238748Y-111535000D02*
X127761252Y-111535000D01*
X127238748Y-110065000D02*
X127761252Y-110065000D01*
%TO.C,R1*%
X106260000Y-94250242D02*
X106260000Y-94724758D01*
X105215000Y-94250242D02*
X105215000Y-94724758D01*
%TO.C,JP1*%
X158080000Y-61155000D02*
X155420000Y-61155000D01*
X155420000Y-66355000D02*
X155420000Y-61155000D01*
X158080000Y-66355000D02*
X158080000Y-61155000D01*
X158080000Y-66355000D02*
X155420000Y-66355000D01*
%TO.C,R17*%
X119721766Y-49584474D02*
G75*
G03*
X119700000Y-53900000I1528234J-2165526D01*
G01*
X122794513Y-53868249D02*
G75*
G03*
X122750000Y-49600000I-1544513J2118249D01*
G01*
X119700000Y-53900000D02*
X122750000Y-53900000D01*
X119700000Y-49600000D02*
X122750000Y-49600000D01*
%TO.C,SW4*%
X128470000Y-127900000D02*
X126530000Y-127900000D01*
X126530000Y-115600000D02*
X128470000Y-115600000D01*
X121350000Y-127900000D02*
X121350000Y-115600000D01*
X131530000Y-115600000D02*
X133650000Y-115600000D01*
X133650000Y-115600000D02*
X133650000Y-127900000D01*
X133650000Y-127900000D02*
X131530000Y-127900000D01*
X121350000Y-115600000D02*
X123470000Y-115600000D01*
X123470000Y-127900000D02*
X121350000Y-127900000D01*
%TO.C,D1*%
X108237500Y-100242500D02*
G75*
G03*
X108237500Y-100242500I-2500000J0D01*
G01*
X105737962Y-97252500D02*
G75*
G03*
X104192670Y-102802500I-462J-2990000D01*
G01*
X107282330Y-102802500D02*
G75*
G03*
X105737038Y-97252500I-1544830J2560000D01*
G01*
X104192500Y-102802500D02*
X107282500Y-102802500D01*
%TO.C,R15*%
X122262742Y-63772500D02*
X122737258Y-63772500D01*
X122262742Y-62727500D02*
X122737258Y-62727500D01*
%TO.C,JP6*%
X136340000Y-84420000D02*
X128600000Y-84420000D01*
X136340000Y-87080000D02*
X128600000Y-87080000D01*
X136340000Y-84420000D02*
X136340000Y-87080000D01*
X128600000Y-84420000D02*
X128600000Y-87080000D01*
%TO.C,R13*%
X122262742Y-78977500D02*
X122737258Y-78977500D01*
X122262742Y-80022500D02*
X122737258Y-80022500D01*
%TO.C,SW1*%
X142750000Y-127000000D02*
X145750000Y-127000000D01*
X145750000Y-127000000D02*
X145750000Y-116500000D01*
X145750000Y-116500000D02*
X142750000Y-116500000D01*
X142750000Y-116500000D02*
X142750000Y-127000000D01*
%TO.C,SW2*%
X155750000Y-127000000D02*
X158750000Y-127000000D01*
X158750000Y-127000000D02*
X158750000Y-116500000D01*
X158750000Y-116500000D02*
X155750000Y-116500000D01*
X155750000Y-116500000D02*
X155750000Y-127000000D01*
%TO.C,G\u002A\u002A\u002A*%
G36*
X164707120Y-95222881D02*
G01*
X164735088Y-95347239D01*
X164738875Y-95465770D01*
X164738875Y-95745232D01*
X164273105Y-95745232D01*
X164027424Y-95740352D01*
X163883212Y-95722718D01*
X163818007Y-95687838D01*
X163807335Y-95652078D01*
X163835951Y-95597988D01*
X163937394Y-95568947D01*
X164135055Y-95559108D01*
X164179951Y-95558924D01*
X164552567Y-95558924D01*
X164552567Y-95372616D01*
X164580340Y-95224705D01*
X164645721Y-95186308D01*
X164707120Y-95222881D01*
G37*
G36*
X162455068Y-80061932D02*
G01*
X162603065Y-80135027D01*
X162698673Y-80187760D01*
X162885994Y-80279383D01*
X163052148Y-80335176D01*
X163108680Y-80343017D01*
X163217761Y-80367003D01*
X163248411Y-80405868D01*
X163196099Y-80455388D01*
X163117084Y-80467970D01*
X163007553Y-80491466D01*
X162854892Y-80551105D01*
X162689934Y-80630622D01*
X162543506Y-80713745D01*
X162446441Y-80784208D01*
X162429569Y-80825741D01*
X162434631Y-80828088D01*
X162491875Y-80900922D01*
X162503178Y-80969967D01*
X162518263Y-81036641D01*
X162582249Y-81072670D01*
X162723232Y-81087030D01*
X162875795Y-81088997D01*
X163092156Y-81096151D01*
X163208319Y-81121512D01*
X163247676Y-81170927D01*
X163248411Y-81182151D01*
X163219535Y-81236516D01*
X163117302Y-81265548D01*
X162918303Y-81275170D01*
X162880114Y-81275305D01*
X162673081Y-81279796D01*
X162559415Y-81300641D01*
X162508389Y-81348902D01*
X162491972Y-81415036D01*
X162459486Y-81542180D01*
X162419791Y-81559517D01*
X162380045Y-81480613D01*
X162347403Y-81319033D01*
X162329735Y-81107494D01*
X162322491Y-80875234D01*
X162331063Y-80734441D01*
X162365672Y-80652499D01*
X162436536Y-80596796D01*
X162500518Y-80562500D01*
X162647817Y-80466448D01*
X162674294Y-80382297D01*
X162580087Y-80293750D01*
X162503178Y-80250611D01*
X162375220Y-80164285D01*
X162315743Y-80084757D01*
X162340034Y-80037477D01*
X162372634Y-80033251D01*
X162455068Y-80061932D01*
G37*
G36*
X162566598Y-84629883D02*
G01*
X162758152Y-84703601D01*
X162955432Y-84792129D01*
X163124049Y-84880486D01*
X163229619Y-84953687D01*
X163248411Y-84983396D01*
X163196226Y-85061078D01*
X163067146Y-85143748D01*
X163031051Y-85159892D01*
X162816025Y-85248920D01*
X162595868Y-85340083D01*
X162588748Y-85343031D01*
X162424631Y-85409214D01*
X162344933Y-85428838D01*
X162319158Y-85402480D01*
X162316870Y-85348168D01*
X162370370Y-85278084D01*
X162507045Y-85195939D01*
X162611858Y-85151595D01*
X162831393Y-85064989D01*
X162935723Y-85001237D01*
X162928503Y-84947141D01*
X162813384Y-84889500D01*
X162695794Y-84848305D01*
X162455821Y-84753063D01*
X162334444Y-84666783D01*
X162334072Y-84591225D01*
X162338211Y-84586809D01*
X162415155Y-84585958D01*
X162566598Y-84629883D01*
G37*
G36*
X163148074Y-82071743D02*
G01*
X163173887Y-82095061D01*
X163234787Y-82229507D01*
X163238662Y-82414360D01*
X163184614Y-82589224D01*
X163181334Y-82594987D01*
X163101127Y-82693692D01*
X163050201Y-82677788D01*
X163036030Y-82554945D01*
X163045138Y-82455256D01*
X163048846Y-82275625D01*
X163006837Y-82207364D01*
X162933719Y-82253276D01*
X162844102Y-82416161D01*
X162843888Y-82416673D01*
X162730342Y-82603441D01*
X162598629Y-82673103D01*
X162455999Y-82622390D01*
X162432095Y-82602385D01*
X162340604Y-82446808D01*
X162321768Y-82249773D01*
X162372981Y-82090210D01*
X162446027Y-82029047D01*
X162501848Y-82070613D01*
X162522891Y-82193431D01*
X162516827Y-82266214D01*
X162516822Y-82410813D01*
X162564403Y-82450563D01*
X162643915Y-82387516D01*
X162733045Y-82237897D01*
X162854711Y-82074218D01*
X163000507Y-82016418D01*
X163148074Y-82071743D01*
G37*
G36*
X161573144Y-85385896D02*
G01*
X161595152Y-85406468D01*
X161663282Y-85542217D01*
X161693125Y-85738114D01*
X161680643Y-85934916D01*
X161639058Y-86050736D01*
X161541918Y-86106558D01*
X161482074Y-86098235D01*
X161414489Y-86042858D01*
X161443393Y-85940567D01*
X161444755Y-85938011D01*
X161498298Y-85795294D01*
X161509535Y-85719730D01*
X161483118Y-85630980D01*
X161420755Y-85638590D01*
X161347776Y-85730883D01*
X161313465Y-85810113D01*
X161209247Y-85998913D01*
X161072999Y-86073706D01*
X160913839Y-86029975D01*
X160894824Y-86017384D01*
X160806021Y-85898970D01*
X160767486Y-85732829D01*
X160778036Y-85562369D01*
X160836486Y-85431001D01*
X160912091Y-85384039D01*
X160986306Y-85384487D01*
X161006599Y-85446013D01*
X160986905Y-85585337D01*
X160973039Y-85748639D01*
X161006533Y-85802377D01*
X161077191Y-85747052D01*
X161174819Y-85583167D01*
X161178382Y-85575917D01*
X161303460Y-85388851D01*
X161435205Y-85325446D01*
X161573144Y-85385896D01*
G37*
G36*
X161468838Y-96928377D02*
G01*
X161608979Y-96942275D01*
X161676005Y-96973348D01*
X161695426Y-97028069D01*
X161695843Y-97043365D01*
X161650357Y-97150480D01*
X161535059Y-97287064D01*
X161462958Y-97351796D01*
X161230073Y-97542045D01*
X161462958Y-97544128D01*
X161619426Y-97557720D01*
X161685652Y-97606528D01*
X161695843Y-97670415D01*
X161684843Y-97733920D01*
X161634680Y-97771181D01*
X161519618Y-97789061D01*
X161313915Y-97794426D01*
X161230073Y-97794621D01*
X160989935Y-97790964D01*
X160849042Y-97776120D01*
X160782551Y-97744274D01*
X160765618Y-97689613D01*
X160765629Y-97685941D01*
X160813976Y-97589976D01*
X160936040Y-97464392D01*
X161029566Y-97390953D01*
X161292176Y-97204645D01*
X161028240Y-97185549D01*
X160857146Y-97162059D01*
X160779533Y-97113841D01*
X160764303Y-97045818D01*
X160776211Y-96984050D01*
X160829009Y-96947801D01*
X160948311Y-96930437D01*
X161159730Y-96925324D01*
X161230073Y-96925183D01*
X161468838Y-96928377D01*
G37*
G36*
X163017330Y-85568097D02*
G01*
X163180910Y-85588956D01*
X163247975Y-85619581D01*
X163248411Y-85622494D01*
X163190617Y-85653785D01*
X163034173Y-85675596D01*
X162804483Y-85684538D01*
X162782641Y-85684596D01*
X162547951Y-85676890D01*
X162384371Y-85656031D01*
X162317306Y-85625406D01*
X162316870Y-85622494D01*
X162374664Y-85591202D01*
X162531108Y-85569391D01*
X162760798Y-85560449D01*
X162782641Y-85560391D01*
X163017330Y-85568097D01*
G37*
G36*
X164705190Y-89755525D02*
G01*
X164733634Y-89873482D01*
X164738875Y-90021434D01*
X164730953Y-90205407D01*
X164710828Y-90333527D01*
X164697473Y-90362999D01*
X164618660Y-90383825D01*
X164451734Y-90398694D01*
X164232759Y-90404400D01*
X164231703Y-90404401D01*
X163807335Y-90404401D01*
X163807335Y-90062836D01*
X163815698Y-89856852D01*
X163845044Y-89750803D01*
X163900489Y-89721271D01*
X163965262Y-89762290D01*
X163991952Y-89898266D01*
X163993643Y-89969682D01*
X164009025Y-90142409D01*
X164060016Y-90213584D01*
X164086797Y-90218093D01*
X164155695Y-90170958D01*
X164179783Y-90020529D01*
X164179951Y-90000733D01*
X164200151Y-89839970D01*
X164264621Y-89783767D01*
X164273105Y-89783374D01*
X164342003Y-89830508D01*
X164366091Y-89980937D01*
X164366259Y-90000733D01*
X164386459Y-90161496D01*
X164450929Y-90217700D01*
X164459413Y-90218093D01*
X164524186Y-90177073D01*
X164550877Y-90041098D01*
X164552567Y-89969682D01*
X164567949Y-89796954D01*
X164618940Y-89725779D01*
X164645721Y-89721271D01*
X164705190Y-89755525D01*
G37*
G36*
X163207964Y-99810626D02*
G01*
X163236036Y-99911157D01*
X163247488Y-100105059D01*
X163248411Y-100216626D01*
X163238903Y-100468607D01*
X163211493Y-100615899D01*
X163179401Y-100651344D01*
X163098828Y-100613955D01*
X162957497Y-100516522D01*
X162806785Y-100397151D01*
X162503178Y-100142957D01*
X162503178Y-100366099D01*
X162484043Y-100529138D01*
X162422457Y-100588377D01*
X162410024Y-100589242D01*
X162357773Y-100562293D01*
X162328731Y-100465998D01*
X162317552Y-100277187D01*
X162316870Y-100185574D01*
X162324822Y-99948696D01*
X162358929Y-99822198D01*
X162434567Y-99800687D01*
X162567113Y-99878768D01*
X162751589Y-100033095D01*
X163031051Y-100278988D01*
X163050148Y-100030447D01*
X163085432Y-99847016D01*
X163154294Y-99782067D01*
X163158827Y-99781907D01*
X163207964Y-99810626D01*
G37*
G36*
X160546537Y-85493696D02*
G01*
X160577995Y-85512701D01*
X160674548Y-85624172D01*
X160697334Y-85760055D01*
X160643492Y-85870762D01*
X160600158Y-85896773D01*
X160487180Y-85913205D01*
X160466803Y-85855037D01*
X160510058Y-85784780D01*
X160548646Y-85691314D01*
X160518908Y-85655409D01*
X160459032Y-85563676D01*
X160453790Y-85525148D01*
X160471731Y-85468194D01*
X160546537Y-85493696D01*
G37*
G36*
X164012151Y-87895388D02*
G01*
X164024694Y-88053243D01*
X164056332Y-88275339D01*
X164150460Y-88390865D01*
X164305905Y-88398848D01*
X164400362Y-88364921D01*
X164507672Y-88301459D01*
X164546714Y-88214492D01*
X164537228Y-88056822D01*
X164535300Y-88042242D01*
X164528708Y-87870084D01*
X164562334Y-87800549D01*
X164627421Y-87841559D01*
X164674588Y-87916210D01*
X164734226Y-88141834D01*
X164679199Y-88357452D01*
X164676356Y-88362394D01*
X164578979Y-88457201D01*
X164434473Y-88538789D01*
X164218155Y-88572276D01*
X164027273Y-88505316D01*
X163885326Y-88361654D01*
X163815813Y-88165032D01*
X163841924Y-87940071D01*
X163909332Y-87810762D01*
X163969987Y-87798290D01*
X164012151Y-87895388D01*
G37*
G36*
X164518786Y-90595588D02*
G01*
X164662998Y-90613222D01*
X164728203Y-90648103D01*
X164738875Y-90683863D01*
X164714477Y-90732999D01*
X164626306Y-90761841D01*
X164451903Y-90774882D01*
X164273105Y-90777017D01*
X164027424Y-90772137D01*
X163883212Y-90754503D01*
X163818007Y-90719622D01*
X163807335Y-90683863D01*
X163831734Y-90634726D01*
X163919904Y-90605884D01*
X164094307Y-90592843D01*
X164273105Y-90590709D01*
X164518786Y-90595588D01*
G37*
G36*
X162329639Y-90497555D02*
G01*
X162338948Y-90299637D01*
X162387661Y-90146298D01*
X162396585Y-90132701D01*
X162514070Y-90049378D01*
X162672056Y-90017900D01*
X162815324Y-90042904D01*
X162874960Y-90092536D01*
X162938619Y-90137514D01*
X163050877Y-90099843D01*
X163059524Y-90095267D01*
X163192757Y-90050578D01*
X163239824Y-90084998D01*
X163186018Y-90176049D01*
X163139731Y-90217867D01*
X163033487Y-90345261D01*
X163000518Y-90472960D01*
X163042296Y-90565570D01*
X163124205Y-90590709D01*
X163228658Y-90624382D01*
X163238215Y-90695377D01*
X163163829Y-90751269D01*
X163058727Y-90765858D01*
X162875243Y-90769758D01*
X162713584Y-90764846D01*
X162658435Y-90761998D01*
X162347922Y-90745965D01*
X162331845Y-90527532D01*
X162512729Y-90527532D01*
X162561804Y-90582144D01*
X162658435Y-90590709D01*
X162769149Y-90576692D01*
X162806805Y-90509457D01*
X162802101Y-90388875D01*
X162768014Y-90242691D01*
X162690844Y-90189343D01*
X162658435Y-90187041D01*
X162565343Y-90219528D01*
X162521229Y-90336571D01*
X162514769Y-90388875D01*
X162512729Y-90527532D01*
X162331845Y-90527532D01*
X162329639Y-90497555D01*
G37*
G36*
X162905164Y-94013868D02*
G01*
X163038350Y-94043847D01*
X163123197Y-94107456D01*
X163151735Y-94144380D01*
X163237300Y-94356171D01*
X163225487Y-94575725D01*
X163124205Y-94751589D01*
X163004529Y-94831907D01*
X162829658Y-94869394D01*
X162658435Y-94875794D01*
X162461045Y-94870403D01*
X162358217Y-94847094D01*
X162320513Y-94795164D01*
X162316870Y-94751589D01*
X162333649Y-94676367D01*
X162404509Y-94639299D01*
X162560241Y-94627760D01*
X162619780Y-94627384D01*
X162854293Y-94603773D01*
X163000104Y-94538983D01*
X163044879Y-94442078D01*
X163000000Y-94347921D01*
X162873433Y-94281446D01*
X162648183Y-94255015D01*
X162619780Y-94254767D01*
X162436330Y-94247888D01*
X162345929Y-94218832D01*
X162317788Y-94154975D01*
X162316870Y-94130562D01*
X162330594Y-94060932D01*
X162390776Y-94023452D01*
X162525935Y-94008526D01*
X162685965Y-94006357D01*
X162905164Y-94013868D01*
G37*
G36*
X164704302Y-94039598D02*
G01*
X164732914Y-94154690D01*
X164738875Y-94316870D01*
X164738875Y-94627384D01*
X163807335Y-94627384D01*
X163807335Y-94316870D01*
X163817307Y-94121600D01*
X163851835Y-94026227D01*
X163900489Y-94006357D01*
X163965262Y-94047376D01*
X163991952Y-94183351D01*
X163993643Y-94254767D01*
X164009025Y-94427495D01*
X164060016Y-94498670D01*
X164086797Y-94503178D01*
X164155695Y-94456044D01*
X164179783Y-94305615D01*
X164179951Y-94285819D01*
X164200151Y-94125056D01*
X164264621Y-94068852D01*
X164273105Y-94068459D01*
X164342003Y-94115593D01*
X164366091Y-94266023D01*
X164366259Y-94285819D01*
X164386459Y-94446581D01*
X164450929Y-94502785D01*
X164459413Y-94503178D01*
X164524186Y-94462159D01*
X164550877Y-94326184D01*
X164552567Y-94254767D01*
X164567949Y-94082040D01*
X164618940Y-94010865D01*
X164645721Y-94006357D01*
X164704302Y-94039598D01*
G37*
G36*
X161656780Y-89749887D02*
G01*
X161685821Y-89851330D01*
X161695660Y-90048991D01*
X161695843Y-90093887D01*
X161695843Y-90466503D01*
X160764303Y-90466503D01*
X160764303Y-90093887D01*
X160771457Y-89877526D01*
X160796818Y-89761363D01*
X160846233Y-89722006D01*
X160857457Y-89721271D01*
X160922230Y-89762290D01*
X160948921Y-89898266D01*
X160950611Y-89969682D01*
X160965993Y-90142409D01*
X161016984Y-90213584D01*
X161043765Y-90218093D01*
X161112664Y-90170958D01*
X161136751Y-90020529D01*
X161136919Y-90000733D01*
X161157120Y-89839970D01*
X161221589Y-89783767D01*
X161230073Y-89783374D01*
X161298972Y-89830508D01*
X161323059Y-89980937D01*
X161323227Y-90000733D01*
X161343428Y-90161496D01*
X161407897Y-90217700D01*
X161416381Y-90218093D01*
X161481154Y-90177073D01*
X161507845Y-90041098D01*
X161509535Y-89969682D01*
X161524918Y-89796954D01*
X161575908Y-89725779D01*
X161602689Y-89721271D01*
X161656780Y-89749887D01*
G37*
G36*
X161403885Y-82348994D02*
G01*
X161568244Y-82404515D01*
X161598254Y-82428641D01*
X161669830Y-82568238D01*
X161693987Y-82759720D01*
X161670792Y-82948050D01*
X161600310Y-83078189D01*
X161597464Y-83080620D01*
X161484075Y-83129444D01*
X161294012Y-83170263D01*
X161131694Y-83188842D01*
X160926932Y-83200089D01*
X160816765Y-83190444D01*
X160772224Y-83151620D01*
X160764303Y-83083747D01*
X160781290Y-83000478D01*
X160854065Y-82961966D01*
X161015353Y-82952111D01*
X161031896Y-82952078D01*
X161265118Y-82925673D01*
X161427534Y-82854512D01*
X161498654Y-82750680D01*
X161490524Y-82681596D01*
X161432671Y-82618715D01*
X161303092Y-82587133D01*
X161107817Y-82579462D01*
X160909742Y-82574132D01*
X160806300Y-82551063D01*
X160768123Y-82499637D01*
X160764303Y-82455256D01*
X160778060Y-82385558D01*
X160838363Y-82348080D01*
X160973759Y-82333191D01*
X161132483Y-82331051D01*
X161403885Y-82348994D01*
G37*
G36*
X164701899Y-86957315D02*
G01*
X164730821Y-87064916D01*
X164738875Y-87268215D01*
X164738875Y-87609780D01*
X163807335Y-87609780D01*
X163807335Y-87263040D01*
X163824271Y-87055517D01*
X163865324Y-86947654D01*
X163915863Y-86945123D01*
X163961256Y-87053593D01*
X163981866Y-87195387D01*
X164021416Y-87365249D01*
X164085040Y-87430553D01*
X164146392Y-87389872D01*
X164179127Y-87241781D01*
X164179951Y-87206112D01*
X164200151Y-87045349D01*
X164264621Y-86989146D01*
X164273105Y-86988753D01*
X164342003Y-87035887D01*
X164366091Y-87186316D01*
X164366259Y-87206112D01*
X164386459Y-87366875D01*
X164450929Y-87423079D01*
X164459413Y-87423472D01*
X164524186Y-87382452D01*
X164550877Y-87246477D01*
X164552567Y-87175061D01*
X164567949Y-87002333D01*
X164618940Y-86931158D01*
X164645721Y-86926650D01*
X164701899Y-86957315D01*
G37*
G36*
X161661271Y-86649378D02*
G01*
X161689882Y-86764469D01*
X161695843Y-86926650D01*
X161695843Y-87237163D01*
X161230073Y-87237163D01*
X160991931Y-87234230D01*
X160852203Y-87220853D01*
X160785150Y-87190170D01*
X160765034Y-87135316D01*
X160764303Y-87112958D01*
X160777899Y-87043587D01*
X160837623Y-87006102D01*
X160971881Y-86991036D01*
X161136919Y-86988753D01*
X161509535Y-86988753D01*
X161509535Y-86802445D01*
X161537309Y-86654534D01*
X161602689Y-86616137D01*
X161661271Y-86649378D01*
G37*
G36*
X161468619Y-97984037D02*
G01*
X161608616Y-97997761D01*
X161675655Y-98028697D01*
X161695327Y-98083445D01*
X161695843Y-98101009D01*
X161651715Y-98200598D01*
X161525061Y-98240740D01*
X161392048Y-98285219D01*
X161338533Y-98402696D01*
X161334628Y-98431173D01*
X161335108Y-98550731D01*
X161398540Y-98595908D01*
X161505410Y-98601956D01*
X161643619Y-98620549D01*
X161693373Y-98690250D01*
X161695843Y-98726161D01*
X161684843Y-98789666D01*
X161634680Y-98826926D01*
X161519618Y-98844807D01*
X161313915Y-98850172D01*
X161230073Y-98850366D01*
X160991931Y-98847433D01*
X160852203Y-98834056D01*
X160785150Y-98803373D01*
X160765034Y-98748519D01*
X160764303Y-98726161D01*
X160793581Y-98635247D01*
X160902518Y-98603237D01*
X160950611Y-98601956D01*
X161082573Y-98586567D01*
X161131212Y-98513980D01*
X161136919Y-98415648D01*
X161121531Y-98283686D01*
X161048944Y-98235047D01*
X160950611Y-98229339D01*
X160814239Y-98209821D01*
X160766225Y-98137196D01*
X160764303Y-98105134D01*
X160775304Y-98041629D01*
X160825466Y-98004369D01*
X160940529Y-97986488D01*
X161146232Y-97981124D01*
X161230073Y-97980929D01*
X161468619Y-97984037D01*
G37*
G36*
X163807335Y-93537764D02*
G01*
X163814937Y-93459853D01*
X163993643Y-93459853D01*
X164002915Y-93566874D01*
X164053131Y-93617571D01*
X164177890Y-93632849D01*
X164273105Y-93633740D01*
X164445104Y-93627971D01*
X164526580Y-93596726D01*
X164551134Y-93519098D01*
X164552567Y-93459853D01*
X164527402Y-93304682D01*
X164478044Y-93211442D01*
X164356970Y-93149223D01*
X164273105Y-93136919D01*
X164102766Y-93186910D01*
X164009505Y-93331148D01*
X163993643Y-93459853D01*
X163814937Y-93459853D01*
X163828658Y-93319219D01*
X163905719Y-93163513D01*
X163959769Y-93103045D01*
X164152972Y-92977596D01*
X164349365Y-92961155D01*
X164526503Y-93041197D01*
X164661941Y-93205199D01*
X164733232Y-93440636D01*
X164738875Y-93537764D01*
X164738875Y-93820049D01*
X163807335Y-93820049D01*
X163807335Y-93537764D01*
G37*
G36*
X163106418Y-90986553D02*
G01*
X163198255Y-91040805D01*
X163210715Y-91061558D01*
X163244249Y-91311353D01*
X163158640Y-91551953D01*
X163119698Y-91607028D01*
X162955780Y-91738283D01*
X162773225Y-91770574D01*
X162595155Y-91721908D01*
X162444697Y-91610295D01*
X162344976Y-91453743D01*
X162319115Y-91270262D01*
X162390241Y-91077859D01*
X162408049Y-91052823D01*
X162473892Y-90983163D01*
X162505674Y-91007082D01*
X162509932Y-91136581D01*
X162504750Y-91230389D01*
X162535364Y-91433401D01*
X162656596Y-91552630D01*
X162823297Y-91584352D01*
X162979408Y-91549330D01*
X163054835Y-91446937D01*
X163085021Y-91267367D01*
X163039479Y-91137092D01*
X162930654Y-91087530D01*
X162833740Y-91060089D01*
X162813692Y-91025428D01*
X162863197Y-90974229D01*
X162977752Y-90962816D01*
X163106418Y-90986553D01*
G37*
G36*
X163050328Y-97808672D02*
G01*
X163162318Y-97882636D01*
X163184123Y-97914743D01*
X163243645Y-98130916D01*
X163223392Y-98361805D01*
X163139731Y-98532786D01*
X162952933Y-98671179D01*
X162733106Y-98702697D01*
X162516359Y-98623650D01*
X162483554Y-98599849D01*
X162375647Y-98497203D01*
X162329967Y-98383153D01*
X162327502Y-98205512D01*
X162329278Y-98176361D01*
X162353552Y-97988490D01*
X162403430Y-97894094D01*
X162464877Y-97866660D01*
X162544492Y-97869198D01*
X162554877Y-97942405D01*
X162539996Y-98011114D01*
X162526367Y-98219031D01*
X162587007Y-98368496D01*
X162700140Y-98441617D01*
X162843994Y-98420500D01*
X162946387Y-98345055D01*
X163037902Y-98208837D01*
X163015473Y-98107420D01*
X162886456Y-98054238D01*
X162773268Y-97990795D01*
X162751589Y-97914507D01*
X162799828Y-97824583D01*
X162914453Y-97789313D01*
X163050328Y-97808672D01*
G37*
G36*
X164615682Y-91906267D02*
G01*
X164638183Y-91927250D01*
X164725459Y-92094781D01*
X164717741Y-92297880D01*
X164671798Y-92407212D01*
X164591592Y-92505917D01*
X164540666Y-92490013D01*
X164526494Y-92367170D01*
X164535602Y-92267481D01*
X164539452Y-92087971D01*
X164497731Y-92019745D01*
X164424817Y-92065308D01*
X164335089Y-92227165D01*
X164332980Y-92232183D01*
X164239166Y-92415556D01*
X164142347Y-92495743D01*
X164017012Y-92491706D01*
X163993232Y-92484710D01*
X163877823Y-92388863D01*
X163818761Y-92215875D01*
X163828790Y-92004904D01*
X163832287Y-91990211D01*
X163886884Y-91875049D01*
X163949096Y-91864501D01*
X163996653Y-91942624D01*
X164007284Y-92093478D01*
X164005222Y-92114004D01*
X164002278Y-92274048D01*
X164041268Y-92319247D01*
X164117721Y-92249963D01*
X164211002Y-92097264D01*
X164344186Y-91910370D01*
X164478467Y-91846948D01*
X164615682Y-91906267D01*
G37*
G36*
X162316870Y-95473374D02*
G01*
X162323921Y-95398492D01*
X162503178Y-95398492D01*
X162535725Y-95528713D01*
X162600652Y-95558924D01*
X162666246Y-95512968D01*
X162677890Y-95411356D01*
X162673058Y-95398492D01*
X162875795Y-95398492D01*
X162908341Y-95528713D01*
X162973268Y-95558924D01*
X163038862Y-95512968D01*
X163050506Y-95411356D01*
X163011857Y-95308471D01*
X162953423Y-95263625D01*
X162892770Y-95294230D01*
X162875795Y-95398492D01*
X162673058Y-95398492D01*
X162639241Y-95308471D01*
X162580807Y-95263625D01*
X162520154Y-95294230D01*
X162503178Y-95398492D01*
X162323921Y-95398492D01*
X162340953Y-95217598D01*
X162409150Y-95058883D01*
X162515384Y-95005974D01*
X162617064Y-95041429D01*
X162742763Y-95070562D01*
X162847861Y-95023289D01*
X162961902Y-94972732D01*
X163069704Y-95007647D01*
X163111797Y-95035560D01*
X163194663Y-95117248D01*
X163235988Y-95237785D01*
X163248290Y-95436915D01*
X163248411Y-95469291D01*
X163248411Y-95807335D01*
X162316870Y-95807335D01*
X162316870Y-95473374D01*
G37*
G36*
X161384447Y-88754015D02*
G01*
X161574616Y-88838590D01*
X161673995Y-88989473D01*
X161695843Y-89156243D01*
X161658736Y-89376899D01*
X161582274Y-89494286D01*
X161429215Y-89567601D01*
X161174587Y-89596387D01*
X161116504Y-89597066D01*
X160915038Y-89591817D01*
X160808693Y-89569449D01*
X160768590Y-89520034D01*
X160764303Y-89475959D01*
X160781405Y-89405776D01*
X160851601Y-89365382D01*
X161003228Y-89343672D01*
X161120790Y-89336228D01*
X161330344Y-89317875D01*
X161444951Y-89283741D01*
X161493757Y-89223407D01*
X161499517Y-89200840D01*
X161484009Y-89082667D01*
X161375366Y-89010792D01*
X161162261Y-88979453D01*
X161059291Y-88976990D01*
X160878721Y-88969089D01*
X160790919Y-88938136D01*
X160764843Y-88870960D01*
X160764303Y-88851833D01*
X160779764Y-88778888D01*
X160846089Y-88741580D01*
X160993190Y-88728573D01*
X161092050Y-88727628D01*
X161384447Y-88754015D01*
G37*
G36*
X162529417Y-92425270D02*
G01*
X162382007Y-92328073D01*
X162339777Y-92273076D01*
X162593419Y-92273076D01*
X162618125Y-92324194D01*
X162634519Y-92335308D01*
X162775730Y-92388389D01*
X162859893Y-92343246D01*
X162875795Y-92267481D01*
X162861026Y-92166425D01*
X162840660Y-92143276D01*
X162764257Y-92169434D01*
X162677014Y-92212054D01*
X162593419Y-92273076D01*
X162339777Y-92273076D01*
X162330239Y-92260654D01*
X162331137Y-92255732D01*
X162397146Y-92193243D01*
X162541275Y-92108796D01*
X162729164Y-92017472D01*
X162926454Y-91934350D01*
X163098783Y-91874511D01*
X163211792Y-91853035D01*
X163233813Y-91859566D01*
X163227852Y-91925808D01*
X163170685Y-91984417D01*
X163098106Y-92093096D01*
X163063625Y-92253253D01*
X163069226Y-92415616D01*
X163116893Y-92530915D01*
X163147810Y-92552679D01*
X163192996Y-92624952D01*
X163225462Y-92779301D01*
X163244371Y-92981046D01*
X163248888Y-93195505D01*
X163238177Y-93387997D01*
X163211403Y-93523841D01*
X163172296Y-93568990D01*
X163085991Y-93528953D01*
X162943616Y-93427944D01*
X162813692Y-93320330D01*
X162534230Y-93074319D01*
X162503178Y-93302598D01*
X162463778Y-93458330D01*
X162406369Y-93550110D01*
X162394499Y-93556433D01*
X162348652Y-93533094D01*
X162323876Y-93415324D01*
X162316870Y-93204197D01*
X162326834Y-92973315D01*
X162366644Y-92854404D01*
X162451177Y-92841751D01*
X162595309Y-92929646D01*
X162734757Y-93043765D01*
X162882571Y-93164919D01*
X162990876Y-93243825D01*
X163025398Y-93261124D01*
X163049837Y-93206529D01*
X163061848Y-93072591D01*
X163062103Y-93047430D01*
X163080713Y-92891148D01*
X163126113Y-92794940D01*
X163132035Y-92790515D01*
X163114260Y-92746485D01*
X163001655Y-92668015D01*
X162814103Y-92568287D01*
X162775730Y-92550100D01*
X162753819Y-92539715D01*
X162529417Y-92425270D01*
G37*
G36*
X164518786Y-94880674D02*
G01*
X164662998Y-94898308D01*
X164728203Y-94933189D01*
X164738875Y-94968948D01*
X164714477Y-95018085D01*
X164626306Y-95046927D01*
X164451903Y-95059968D01*
X164273105Y-95062102D01*
X164027424Y-95057223D01*
X163883212Y-95039589D01*
X163818007Y-95004708D01*
X163807335Y-94968948D01*
X163831734Y-94919812D01*
X163919904Y-94890970D01*
X164094307Y-94877929D01*
X164273105Y-94875794D01*
X164518786Y-94880674D01*
G37*
G36*
X160984689Y-95561435D02*
G01*
X161039272Y-95656829D01*
X161009224Y-95751753D01*
X160980812Y-95903523D01*
X161043103Y-96027980D01*
X161162777Y-96104584D01*
X161306516Y-96112793D01*
X161441003Y-96032066D01*
X161448959Y-96022855D01*
X161496025Y-95909905D01*
X161460043Y-95779160D01*
X161424387Y-95648647D01*
X161474193Y-95562529D01*
X161477633Y-95559630D01*
X161562908Y-95540798D01*
X161632077Y-95614484D01*
X161678221Y-95749337D01*
X161694416Y-95914009D01*
X161673742Y-96077151D01*
X161618215Y-96196336D01*
X161445227Y-96332461D01*
X161230917Y-96376402D01*
X161017052Y-96328295D01*
X160849541Y-96193818D01*
X160787212Y-96056062D01*
X160768339Y-95890581D01*
X160786305Y-95728341D01*
X160834491Y-95600310D01*
X160906280Y-95537452D01*
X160984689Y-95561435D01*
G37*
G36*
X162316870Y-83338512D02*
G01*
X162337639Y-83196169D01*
X162503178Y-83196169D01*
X162518778Y-83331078D01*
X162586706Y-83381414D01*
X162662560Y-83386797D01*
X162776117Y-83368897D01*
X162807436Y-83289462D01*
X162802291Y-83216014D01*
X162750833Y-83075586D01*
X162642909Y-83025387D01*
X162544474Y-83030290D01*
X162507269Y-83106046D01*
X162503178Y-83196169D01*
X162337639Y-83196169D01*
X162353252Y-83089162D01*
X162451450Y-82918750D01*
X162595043Y-82840456D01*
X162767610Y-82867462D01*
X162845705Y-82914051D01*
X162950726Y-82967287D01*
X163054617Y-82938526D01*
X163105986Y-82906908D01*
X163208570Y-82847951D01*
X163244751Y-82864278D01*
X163248411Y-82911699D01*
X163198917Y-83016433D01*
X163124205Y-83076283D01*
X163024707Y-83178733D01*
X163000000Y-83264776D01*
X163044984Y-83367030D01*
X163124205Y-83386797D01*
X163225358Y-83425628D01*
X163248411Y-83479951D01*
X163224012Y-83529087D01*
X163135842Y-83557929D01*
X162961439Y-83570970D01*
X162782641Y-83573105D01*
X162316870Y-83573105D01*
X162316870Y-83338512D01*
G37*
G36*
X163053886Y-85942543D02*
G01*
X163205395Y-85976093D01*
X163240519Y-86041073D01*
X163162613Y-86144897D01*
X162975029Y-86294981D01*
X162953423Y-86310621D01*
X162658435Y-86522983D01*
X162953423Y-86541911D01*
X163151589Y-86569056D01*
X163240462Y-86620754D01*
X163248411Y-86650591D01*
X163221131Y-86698336D01*
X163125034Y-86726334D01*
X162938736Y-86738704D01*
X162782641Y-86740342D01*
X162511395Y-86730806D01*
X162359886Y-86697256D01*
X162324762Y-86632276D01*
X162402668Y-86528452D01*
X162590252Y-86378368D01*
X162611858Y-86362728D01*
X162906846Y-86150366D01*
X162611858Y-86131438D01*
X162413692Y-86104293D01*
X162324819Y-86052595D01*
X162316870Y-86022758D01*
X162344151Y-85975013D01*
X162440247Y-85947015D01*
X162626545Y-85934645D01*
X162782641Y-85933007D01*
X163053886Y-85942543D01*
G37*
G36*
X163052109Y-81690542D02*
G01*
X163201059Y-81725425D01*
X163232885Y-81756601D01*
X163211943Y-81798212D01*
X163104693Y-81822912D01*
X162895468Y-81833405D01*
X162782641Y-81834229D01*
X162529322Y-81828554D01*
X162384099Y-81809725D01*
X162331305Y-81775042D01*
X162332396Y-81756601D01*
X162411836Y-81708014D01*
X162610902Y-81682894D01*
X162782641Y-81678973D01*
X163052109Y-81690542D01*
G37*
G36*
X163209347Y-95960156D02*
G01*
X163238388Y-96061599D01*
X163248227Y-96259260D01*
X163248411Y-96304156D01*
X163248411Y-96676772D01*
X162316870Y-96676772D01*
X162316870Y-96304156D01*
X162324024Y-96087795D01*
X162349385Y-95971631D01*
X162398800Y-95932275D01*
X162410024Y-95931540D01*
X162474797Y-95972559D01*
X162501488Y-96108535D01*
X162503178Y-96179951D01*
X162518561Y-96352678D01*
X162569551Y-96423853D01*
X162596332Y-96428362D01*
X162665231Y-96381227D01*
X162689318Y-96230798D01*
X162689486Y-96211002D01*
X162709687Y-96050239D01*
X162774156Y-95994036D01*
X162782641Y-95993643D01*
X162851539Y-96040777D01*
X162875626Y-96191206D01*
X162875795Y-96211002D01*
X162895995Y-96371765D01*
X162960465Y-96427969D01*
X162968949Y-96428362D01*
X163033721Y-96387342D01*
X163060412Y-96251367D01*
X163062103Y-96179951D01*
X163077485Y-96007223D01*
X163128476Y-95936048D01*
X163155257Y-95931540D01*
X163209347Y-95960156D01*
G37*
G36*
X161634281Y-87844738D02*
G01*
X161677789Y-87979012D01*
X161690449Y-88146887D01*
X161666535Y-88318413D01*
X161604138Y-88458303D01*
X161441840Y-88595432D01*
X161238944Y-88635162D01*
X161029835Y-88579112D01*
X160848894Y-88428901D01*
X160843907Y-88422496D01*
X160783585Y-88287495D01*
X160767127Y-88123851D01*
X160787445Y-87962972D01*
X160837452Y-87836270D01*
X160910058Y-87775155D01*
X160984689Y-87798599D01*
X161039272Y-87893993D01*
X161009224Y-87988917D01*
X160980812Y-88140687D01*
X161043103Y-88265144D01*
X161162777Y-88341748D01*
X161306516Y-88349957D01*
X161441003Y-88269229D01*
X161448959Y-88260019D01*
X161496025Y-88147069D01*
X161460043Y-88016324D01*
X161424387Y-87885810D01*
X161474193Y-87799693D01*
X161477633Y-87796794D01*
X161565653Y-87774015D01*
X161634281Y-87844738D01*
G37*
G36*
X161654941Y-99001521D02*
G01*
X161683983Y-99097815D01*
X161695161Y-99286627D01*
X161695843Y-99378239D01*
X161695843Y-99781907D01*
X160764303Y-99781907D01*
X160764303Y-99409291D01*
X160772048Y-99190439D01*
X160798731Y-99073462D01*
X160849528Y-99036792D01*
X160853708Y-99036674D01*
X160925272Y-99095449D01*
X160962388Y-99264759D01*
X160998188Y-99444479D01*
X161052755Y-99519762D01*
X161105387Y-99487585D01*
X161135383Y-99344923D01*
X161136919Y-99290260D01*
X161160625Y-99107006D01*
X161216000Y-99029051D01*
X161279431Y-99059438D01*
X161327303Y-99201204D01*
X161335004Y-99264759D01*
X161371607Y-99451885D01*
X161426283Y-99522464D01*
X161478595Y-99477144D01*
X161508112Y-99316576D01*
X161509535Y-99259209D01*
X161521302Y-99073140D01*
X161561447Y-98987256D01*
X161602689Y-98974572D01*
X161654941Y-99001521D01*
G37*
G36*
X161468216Y-96493398D02*
G01*
X161607944Y-96506774D01*
X161674996Y-96537458D01*
X161695113Y-96592312D01*
X161695843Y-96614670D01*
X161684843Y-96678174D01*
X161634680Y-96715435D01*
X161519618Y-96733316D01*
X161313915Y-96738680D01*
X161230073Y-96738875D01*
X160991931Y-96735941D01*
X160852203Y-96722565D01*
X160785150Y-96691881D01*
X160765034Y-96637027D01*
X160764303Y-96614670D01*
X160775304Y-96551165D01*
X160825466Y-96513904D01*
X160940529Y-96496023D01*
X161146232Y-96490659D01*
X161230073Y-96490464D01*
X161468216Y-96493398D01*
G37*
G36*
X160890184Y-92245082D02*
G01*
X161054375Y-92305644D01*
X161266197Y-92382922D01*
X161279208Y-92387646D01*
X161501439Y-92474373D01*
X161628613Y-92544410D01*
X161685123Y-92615117D01*
X161695843Y-92684171D01*
X161641315Y-92828202D01*
X161556112Y-92883713D01*
X161419660Y-92937218D01*
X161221759Y-93015423D01*
X161090342Y-93067578D01*
X160764303Y-93197209D01*
X160764303Y-93049591D01*
X160806915Y-92919581D01*
X160916821Y-92863694D01*
X161093226Y-92810541D01*
X161242860Y-92756500D01*
X161416381Y-92687585D01*
X161105868Y-92581167D01*
X160906507Y-92498266D01*
X160803939Y-92412266D01*
X160774603Y-92333146D01*
X160778042Y-92233207D01*
X160808212Y-92213987D01*
X160890184Y-92245082D01*
G37*
G36*
X162752136Y-99525181D02*
G01*
X162520464Y-99414115D01*
X162385280Y-99326867D01*
X162325427Y-99247421D01*
X162318824Y-99207490D01*
X162652990Y-99207490D01*
X162715048Y-99264921D01*
X162743199Y-99280595D01*
X162841973Y-99319337D01*
X162873937Y-99272019D01*
X162875795Y-99225168D01*
X162856576Y-99123433D01*
X162829218Y-99099728D01*
X162740849Y-99130287D01*
X162696622Y-99155156D01*
X162652990Y-99207490D01*
X162318824Y-99207490D01*
X162316870Y-99195672D01*
X162338602Y-99117097D01*
X162418019Y-99042443D01*
X162576454Y-98956627D01*
X162782641Y-98866371D01*
X163248411Y-98671957D01*
X163248411Y-98823264D01*
X163215308Y-98945171D01*
X163155257Y-98974572D01*
X163085357Y-99023298D01*
X163062133Y-99177162D01*
X163062103Y-99185287D01*
X163089439Y-99354908D01*
X163155257Y-99431749D01*
X163214111Y-99496466D01*
X163249127Y-99602369D01*
X163248226Y-99693930D01*
X163217906Y-99719804D01*
X163150608Y-99696203D01*
X163000116Y-99633728D01*
X162841973Y-99564773D01*
X162796321Y-99544868D01*
X162752136Y-99525181D01*
G37*
G36*
X161656780Y-83663824D02*
G01*
X161685821Y-83765267D01*
X161695660Y-83962928D01*
X161695843Y-84007824D01*
X161695843Y-84380440D01*
X160764303Y-84380440D01*
X160764303Y-84007824D01*
X160771457Y-83791462D01*
X160796818Y-83675299D01*
X160846233Y-83635942D01*
X160857457Y-83635207D01*
X160922230Y-83676227D01*
X160948921Y-83812202D01*
X160950611Y-83883618D01*
X160965993Y-84056346D01*
X161016984Y-84127521D01*
X161043765Y-84132029D01*
X161112664Y-84084895D01*
X161136751Y-83934466D01*
X161136919Y-83914670D01*
X161157120Y-83753907D01*
X161221589Y-83697703D01*
X161230073Y-83697310D01*
X161298972Y-83744444D01*
X161323059Y-83894873D01*
X161323227Y-83914670D01*
X161343428Y-84075432D01*
X161407897Y-84131636D01*
X161416381Y-84132029D01*
X161481154Y-84091010D01*
X161507845Y-83955034D01*
X161509535Y-83883618D01*
X161524918Y-83710891D01*
X161575908Y-83639716D01*
X161602689Y-83635207D01*
X161656780Y-83663824D01*
G37*
G36*
X163213838Y-89195589D02*
G01*
X163242450Y-89310680D01*
X163248411Y-89472860D01*
X163248411Y-89783374D01*
X162316870Y-89783374D01*
X162316870Y-89472860D01*
X162326843Y-89277590D01*
X162361370Y-89182217D01*
X162410024Y-89162347D01*
X162474797Y-89203366D01*
X162501488Y-89339341D01*
X162503178Y-89410758D01*
X162518561Y-89583485D01*
X162569551Y-89654660D01*
X162596332Y-89659168D01*
X162665231Y-89612034D01*
X162689318Y-89461605D01*
X162689486Y-89441809D01*
X162709687Y-89281046D01*
X162774156Y-89224842D01*
X162782641Y-89224450D01*
X162851539Y-89271584D01*
X162875626Y-89422013D01*
X162875795Y-89441809D01*
X162895995Y-89602572D01*
X162960465Y-89658775D01*
X162968949Y-89659168D01*
X163033721Y-89618149D01*
X163060412Y-89482174D01*
X163062103Y-89410758D01*
X163077485Y-89238030D01*
X163128476Y-89166855D01*
X163155257Y-89162347D01*
X163213838Y-89195589D01*
G37*
G36*
X162416901Y-102337518D02*
G01*
X162439016Y-102486880D01*
X162441076Y-102642209D01*
X162441076Y-103018405D01*
X162094638Y-102719838D01*
X161748201Y-102421271D01*
X161985959Y-102348415D01*
X162214759Y-102284028D01*
X162350277Y-102275148D01*
X162416901Y-102337518D01*
G37*
G36*
X161468216Y-86246454D02*
G01*
X161607944Y-86259831D01*
X161674996Y-86290514D01*
X161695113Y-86345368D01*
X161695843Y-86367726D01*
X161684843Y-86431230D01*
X161634680Y-86468491D01*
X161519618Y-86486372D01*
X161313915Y-86491736D01*
X161230073Y-86491931D01*
X160991931Y-86488998D01*
X160852203Y-86475621D01*
X160785150Y-86444938D01*
X160765034Y-86390084D01*
X160764303Y-86367726D01*
X160775304Y-86304221D01*
X160825466Y-86266960D01*
X160940529Y-86249080D01*
X161146232Y-86243715D01*
X161230073Y-86243520D01*
X161468216Y-86246454D01*
G37*
G36*
X163211434Y-83790078D02*
G01*
X163240357Y-83897679D01*
X163248411Y-84100978D01*
X163248411Y-84442542D01*
X162316870Y-84442542D01*
X162316870Y-84100978D01*
X162325234Y-83894994D01*
X162354579Y-83788945D01*
X162410024Y-83759413D01*
X162474797Y-83800432D01*
X162501488Y-83936407D01*
X162503178Y-84007824D01*
X162518561Y-84180551D01*
X162569551Y-84251726D01*
X162596332Y-84256234D01*
X162665231Y-84209100D01*
X162689318Y-84058671D01*
X162689486Y-84038875D01*
X162709687Y-83878112D01*
X162774156Y-83821908D01*
X162782641Y-83821516D01*
X162851539Y-83868650D01*
X162875626Y-84019079D01*
X162875795Y-84038875D01*
X162895995Y-84199638D01*
X162960465Y-84255841D01*
X162968949Y-84256234D01*
X163033721Y-84215215D01*
X163060412Y-84079240D01*
X163062103Y-84007824D01*
X163077485Y-83835096D01*
X163128476Y-83763921D01*
X163155257Y-83759413D01*
X163211434Y-83790078D01*
G37*
G36*
X161661271Y-90623950D02*
G01*
X161689882Y-90739042D01*
X161695843Y-90901222D01*
X161695843Y-91211736D01*
X161230073Y-91211736D01*
X160991931Y-91208802D01*
X160852203Y-91195425D01*
X160785150Y-91164742D01*
X160765034Y-91109888D01*
X160764303Y-91087530D01*
X160777899Y-91018159D01*
X160837623Y-90980674D01*
X160971881Y-90965608D01*
X161136919Y-90963325D01*
X161509535Y-90963325D01*
X161509535Y-90777017D01*
X161537309Y-90629106D01*
X161602689Y-90590709D01*
X161661271Y-90623950D01*
G37*
G36*
X160411498Y-108989809D02*
G01*
X160298212Y-108880272D01*
X159847170Y-108349809D01*
X159511137Y-107773669D01*
X159287863Y-107146832D01*
X159175097Y-106464277D01*
X159167724Y-106359341D01*
X159177674Y-105930073D01*
X161136919Y-105930073D01*
X161136919Y-107482640D01*
X161354279Y-107482640D01*
X161493446Y-107475120D01*
X161555293Y-107428686D01*
X161571152Y-107307530D01*
X161571638Y-107234229D01*
X161571638Y-106985819D01*
X162875795Y-106985819D01*
X162875795Y-106431240D01*
X162239242Y-106413541D01*
X161602689Y-106395843D01*
X161583415Y-106162958D01*
X161561683Y-106010298D01*
X161506477Y-105944985D01*
X161380984Y-105930208D01*
X161350530Y-105930073D01*
X161136919Y-105930073D01*
X159177674Y-105930073D01*
X159184117Y-105652111D01*
X159317033Y-104983353D01*
X159564176Y-104359173D01*
X159863373Y-103881309D01*
X161130139Y-103881309D01*
X161149055Y-104171343D01*
X161167971Y-104461378D01*
X161611079Y-104596367D01*
X161912261Y-104688746D01*
X162098268Y-104754689D01*
X162172035Y-104806186D01*
X162136496Y-104855230D01*
X161994588Y-104913810D01*
X161749245Y-104993920D01*
X161711369Y-105006071D01*
X161136919Y-105190634D01*
X161136919Y-105467199D01*
X161149258Y-105632858D01*
X161180443Y-105731623D01*
X161198437Y-105743765D01*
X161284884Y-105720813D01*
X161481522Y-105653174D01*
X161783374Y-105542673D01*
X162185461Y-105391136D01*
X162682808Y-105200388D01*
X162736064Y-105179817D01*
X162823022Y-105126166D01*
X162864498Y-105028487D01*
X162875696Y-104848627D01*
X162875739Y-104829287D01*
X162875684Y-104532762D01*
X162518649Y-104400052D01*
X162284881Y-104312999D01*
X161991647Y-104203577D01*
X161695788Y-104093001D01*
X161645877Y-104074325D01*
X161130139Y-103881309D01*
X159863373Y-103881309D01*
X159923250Y-103785677D01*
X160294444Y-103362623D01*
X160507620Y-103159444D01*
X160711522Y-102979335D01*
X160876092Y-102848223D01*
X160939806Y-102805902D01*
X161136919Y-102693711D01*
X161136919Y-103756479D01*
X161571638Y-103756479D01*
X161571638Y-103383863D01*
X161578687Y-103187548D01*
X161597009Y-103052957D01*
X161618215Y-103012326D01*
X161682575Y-103051278D01*
X161815719Y-103154658D01*
X161994122Y-103303789D01*
X162087563Y-103384942D01*
X162328825Y-103584854D01*
X162509155Y-103703388D01*
X162648936Y-103753051D01*
X162693064Y-103756479D01*
X162875795Y-103756479D01*
X162875795Y-102185502D01*
X163357090Y-102224799D01*
X164028854Y-102339659D01*
X164659042Y-102565233D01*
X165236032Y-102891694D01*
X165748203Y-103309216D01*
X166183934Y-103807974D01*
X166531602Y-104378142D01*
X166779588Y-105009893D01*
X166818382Y-105151311D01*
X166887570Y-105556667D01*
X166913583Y-106024006D01*
X166897633Y-106506322D01*
X166840931Y-106956610D01*
X166763728Y-107272529D01*
X166553867Y-107804648D01*
X166281627Y-108274255D01*
X165923084Y-108719567D01*
X165737398Y-108912127D01*
X165210046Y-109359962D01*
X164646953Y-109689942D01*
X164041539Y-109904562D01*
X163387224Y-110006319D01*
X162844743Y-110009269D01*
X162154165Y-109918797D01*
X161524016Y-109721206D01*
X161354279Y-109630648D01*
X160945919Y-109412781D01*
X160411498Y-108989809D01*
G37*
G36*
X164617237Y-90941112D02*
G01*
X164673657Y-91019605D01*
X164735667Y-91248500D01*
X164687082Y-91467376D01*
X164616771Y-91567790D01*
X164425506Y-91713097D01*
X164225503Y-91737892D01*
X164059749Y-91679576D01*
X163887492Y-91528035D01*
X163814921Y-91318300D01*
X163844991Y-91098587D01*
X163910683Y-90974946D01*
X163968459Y-90965006D01*
X164003419Y-91058463D01*
X164004297Y-91208781D01*
X164027182Y-91418913D01*
X164128030Y-91541380D01*
X164291842Y-91564527D01*
X164413040Y-91526382D01*
X164512275Y-91464840D01*
X164547120Y-91374672D01*
X164535345Y-91209819D01*
X164535301Y-91209491D01*
X164528067Y-91028921D01*
X164558657Y-90934962D01*
X164617237Y-90941112D01*
G37*
G36*
X160572464Y-87948234D02*
G01*
X160627677Y-87994816D01*
X160698073Y-88136735D01*
X160662771Y-88279652D01*
X160577995Y-88355012D01*
X160481298Y-88389945D01*
X160453825Y-88342349D01*
X160453790Y-88338566D01*
X160494373Y-88224222D01*
X160528313Y-88181124D01*
X160571519Y-88119588D01*
X160528313Y-88106601D01*
X160462285Y-88056511D01*
X160453790Y-88013447D01*
X160486314Y-87928884D01*
X160572464Y-87948234D01*
G37*
G36*
X160933321Y-99895784D02*
G01*
X160950611Y-99968215D01*
X160964207Y-100037586D01*
X161023931Y-100075071D01*
X161158189Y-100090137D01*
X161323227Y-100092420D01*
X161529736Y-100095708D01*
X161641230Y-100113671D01*
X161686875Y-100158463D01*
X161695835Y-100242235D01*
X161695843Y-100247677D01*
X161687954Y-100333722D01*
X161644841Y-100380178D01*
X161537341Y-100399197D01*
X161336288Y-100402930D01*
X161323227Y-100402934D01*
X161115114Y-100407466D01*
X161002660Y-100427374D01*
X160957461Y-100472126D01*
X160950611Y-100527139D01*
X160911780Y-100628291D01*
X160857457Y-100651344D01*
X160805206Y-100624395D01*
X160776164Y-100528101D01*
X160764985Y-100339289D01*
X160764303Y-100247677D01*
X160770522Y-100021254D01*
X160792744Y-99895407D01*
X160836316Y-99846965D01*
X160857457Y-99844009D01*
X160933321Y-99895784D01*
G37*
G36*
X160572464Y-95711070D02*
G01*
X160627677Y-95757652D01*
X160698073Y-95899571D01*
X160662771Y-96042488D01*
X160577995Y-96117848D01*
X160481298Y-96152781D01*
X160453825Y-96105185D01*
X160453790Y-96101402D01*
X160494373Y-95987058D01*
X160528313Y-95943961D01*
X160571519Y-95882424D01*
X160528313Y-95869437D01*
X160462285Y-95819347D01*
X160453790Y-95776283D01*
X160486314Y-95691720D01*
X160572464Y-95711070D01*
G37*
G36*
X162316870Y-88701013D02*
G01*
X162329628Y-88598247D01*
X162503178Y-88598247D01*
X162527663Y-88745705D01*
X162600457Y-88789731D01*
X162663418Y-88741359D01*
X162680462Y-88631189D01*
X162674425Y-88603423D01*
X162875795Y-88603423D01*
X162895313Y-88739794D01*
X162967938Y-88787809D01*
X163000000Y-88789731D01*
X163092089Y-88777722D01*
X163118477Y-88719302D01*
X163091436Y-88580876D01*
X163085063Y-88556846D01*
X163020312Y-88436714D01*
X162942908Y-88424564D01*
X162886150Y-88512983D01*
X162875795Y-88603423D01*
X162674425Y-88603423D01*
X162654470Y-88511642D01*
X162588324Y-88435137D01*
X162580807Y-88432254D01*
X162521711Y-88464679D01*
X162503178Y-88598247D01*
X162329628Y-88598247D01*
X162344658Y-88477174D01*
X162417601Y-88318793D01*
X162520073Y-88243718D01*
X162636445Y-88269797D01*
X162669744Y-88298008D01*
X162762949Y-88329334D01*
X162868687Y-88282935D01*
X163025217Y-88231560D01*
X163140840Y-88295778D01*
X163213082Y-88473073D01*
X163236130Y-88656396D01*
X163254902Y-88976039D01*
X162316870Y-88976039D01*
X162316870Y-88701013D01*
G37*
G36*
X161695843Y-94654020D02*
G01*
X161637542Y-94822216D01*
X161540587Y-94912556D01*
X161429852Y-95001289D01*
X161385330Y-95068062D01*
X161437943Y-95121530D01*
X161540587Y-95160806D01*
X161667507Y-95235243D01*
X161695843Y-95317246D01*
X161683048Y-95377487D01*
X161627679Y-95412847D01*
X161504260Y-95429750D01*
X161287315Y-95434622D01*
X161230073Y-95434718D01*
X160991931Y-95431785D01*
X160852203Y-95418408D01*
X160785150Y-95387725D01*
X160765034Y-95332871D01*
X160764303Y-95310513D01*
X160791411Y-95221816D01*
X160894417Y-95188611D01*
X160962794Y-95186308D01*
X161161284Y-95186308D01*
X160956975Y-94975515D01*
X160836749Y-94824788D01*
X160775903Y-94693751D01*
X160774011Y-94654582D01*
X160798472Y-94593006D01*
X160853723Y-94603594D01*
X160968040Y-94693050D01*
X160980163Y-94703452D01*
X161164972Y-94862461D01*
X161430408Y-94679836D01*
X161695843Y-94497211D01*
X161695843Y-94654020D01*
G37*
G36*
X163969821Y-99018883D02*
G01*
X163981866Y-99114303D01*
X164020488Y-99282097D01*
X164084279Y-99347772D01*
X164149125Y-99307204D01*
X164190910Y-99156274D01*
X164191542Y-99150137D01*
X164230349Y-98987345D01*
X164288639Y-98925535D01*
X164342055Y-98968259D01*
X164366240Y-99119069D01*
X164366259Y-99124653D01*
X164376036Y-99272949D01*
X164426192Y-99334689D01*
X164547965Y-99347184D01*
X164552567Y-99347188D01*
X164689021Y-99371589D01*
X164739420Y-99428231D01*
X164688024Y-99492273D01*
X164654293Y-99507749D01*
X164549192Y-99522337D01*
X164365708Y-99526237D01*
X164204049Y-99521325D01*
X163838386Y-99502445D01*
X163838386Y-99207457D01*
X163853346Y-99015358D01*
X163889233Y-98914057D01*
X163932555Y-98912312D01*
X163969821Y-99018883D01*
G37*
G36*
X163953390Y-100481730D02*
G01*
X163892572Y-100416801D01*
X163816167Y-100227787D01*
X163820874Y-100168275D01*
X163993643Y-100168275D01*
X164044649Y-100334068D01*
X164173334Y-100430548D01*
X164343198Y-100437288D01*
X164420506Y-100407138D01*
X164520500Y-100292163D01*
X164553826Y-100125842D01*
X164513719Y-99965631D01*
X164478044Y-99918533D01*
X164356970Y-99856314D01*
X164273105Y-99844009D01*
X164102832Y-99893941D01*
X164009631Y-100038271D01*
X163993643Y-100168275D01*
X163820874Y-100168275D01*
X163832436Y-100022091D01*
X163924766Y-99835058D01*
X164076541Y-99702034D01*
X164249384Y-99657701D01*
X164469739Y-99711003D01*
X164629760Y-99851732D01*
X164713010Y-100051127D01*
X164703050Y-100280426D01*
X164664541Y-100384131D01*
X164533476Y-100529651D01*
X164345050Y-100595534D01*
X164343198Y-100595396D01*
X164138582Y-100580115D01*
X163953390Y-100481730D01*
G37*
G36*
X162316870Y-97341271D02*
G01*
X162321819Y-97266748D01*
X162503178Y-97266748D01*
X162532289Y-97388494D01*
X162627384Y-97422005D01*
X162724781Y-97385617D01*
X162751589Y-97266748D01*
X162722479Y-97145001D01*
X162627384Y-97111491D01*
X162529987Y-97147879D01*
X162503178Y-97266748D01*
X162321819Y-97266748D01*
X162330186Y-97140761D01*
X162364255Y-96987462D01*
X162391394Y-96937604D01*
X162523958Y-96875959D01*
X162697223Y-96869600D01*
X162841942Y-96919000D01*
X162860185Y-96934415D01*
X162943983Y-96968374D01*
X163068719Y-96915517D01*
X163089965Y-96901932D01*
X163200561Y-96836006D01*
X163242107Y-96850093D01*
X163248411Y-96950618D01*
X163201118Y-97093711D01*
X163124205Y-97142542D01*
X163023260Y-97224883D01*
X163000000Y-97301984D01*
X163045931Y-97402782D01*
X163124205Y-97422005D01*
X163227998Y-97465918D01*
X163248411Y-97546210D01*
X163237410Y-97609715D01*
X163187248Y-97646975D01*
X163072185Y-97664856D01*
X162866482Y-97670220D01*
X162782641Y-97670415D01*
X162316870Y-97670415D01*
X162316870Y-97341271D01*
G37*
G36*
X164616175Y-86193231D02*
G01*
X164638183Y-86213803D01*
X164726272Y-86383780D01*
X164711337Y-86596363D01*
X164655819Y-86726764D01*
X164580737Y-86826255D01*
X164535190Y-86810536D01*
X164523526Y-86686022D01*
X164536128Y-86550118D01*
X164541288Y-86373781D01*
X164501600Y-86309156D01*
X164427662Y-86356811D01*
X164330071Y-86517316D01*
X164319929Y-86538508D01*
X164201374Y-86714066D01*
X164068696Y-86792447D01*
X163943639Y-86766866D01*
X163869811Y-86678937D01*
X163821550Y-86517773D01*
X163826605Y-86352812D01*
X163878762Y-86230267D01*
X163934853Y-86195273D01*
X163997630Y-86208829D01*
X164013642Y-86300978D01*
X164005687Y-86396576D01*
X164005131Y-86558390D01*
X164047924Y-86608454D01*
X164124446Y-86547363D01*
X164221413Y-86383251D01*
X164346492Y-86196186D01*
X164478237Y-86132781D01*
X164616175Y-86193231D01*
G37*
G36*
X162881708Y-86945602D02*
G01*
X163045738Y-86998506D01*
X163124205Y-87050855D01*
X163224733Y-87223898D01*
X163239175Y-87422883D01*
X163166609Y-87597385D01*
X163134841Y-87631206D01*
X163013837Y-87692099D01*
X162837092Y-87728502D01*
X162642041Y-87739975D01*
X162466121Y-87726077D01*
X162346768Y-87686367D01*
X162316870Y-87640831D01*
X162347765Y-87584430D01*
X162456045Y-87555528D01*
X162655349Y-87547677D01*
X162910529Y-87521977D01*
X163056402Y-87446242D01*
X163090454Y-87322514D01*
X163054652Y-87223241D01*
X162985563Y-87154910D01*
X162852217Y-87121062D01*
X162656250Y-87112958D01*
X162451009Y-87104497D01*
X162345691Y-87074830D01*
X162316870Y-87019804D01*
X162370616Y-86955543D01*
X162507261Y-86922702D01*
X162689920Y-86919861D01*
X162881708Y-86945602D01*
G37*
G36*
X163807335Y-96344833D02*
G01*
X163824674Y-96237734D01*
X163993643Y-96237734D01*
X164009242Y-96372642D01*
X164077170Y-96422979D01*
X164153025Y-96428362D01*
X164266582Y-96410462D01*
X164297901Y-96331026D01*
X164292756Y-96257579D01*
X164241298Y-96117151D01*
X164133374Y-96066952D01*
X164034938Y-96071855D01*
X163997734Y-96147611D01*
X163993643Y-96237734D01*
X163824674Y-96237734D01*
X163847238Y-96098359D01*
X163960023Y-95935391D01*
X164135301Y-95870058D01*
X164156895Y-95869437D01*
X164320750Y-95919659D01*
X164410645Y-96068340D01*
X164428362Y-96223423D01*
X164441692Y-96364982D01*
X164500420Y-96420643D01*
X164583619Y-96428362D01*
X164708488Y-96460753D01*
X164738875Y-96521516D01*
X164714477Y-96570652D01*
X164626306Y-96599494D01*
X164451903Y-96612535D01*
X164273105Y-96614670D01*
X163807335Y-96614670D01*
X163807335Y-96344833D01*
G37*
G36*
X160848894Y-94328656D02*
G01*
X160843907Y-94322252D01*
X160770216Y-94134506D01*
X160778800Y-93975478D01*
X160980804Y-93975478D01*
X160987805Y-94079514D01*
X161008665Y-94122996D01*
X161121714Y-94229488D01*
X161219838Y-94254767D01*
X161389125Y-94211960D01*
X161486707Y-94107140D01*
X161502149Y-93975711D01*
X161425015Y-93853077D01*
X161351646Y-93807549D01*
X161220667Y-93769404D01*
X161116898Y-93816117D01*
X161065950Y-93863417D01*
X160980804Y-93975478D01*
X160778800Y-93975478D01*
X160782124Y-93913894D01*
X160873964Y-93711791D01*
X160916737Y-93661969D01*
X161114373Y-93533923D01*
X161324947Y-93528985D01*
X161532212Y-93638248D01*
X161656027Y-93807479D01*
X161699840Y-94028789D01*
X161658987Y-94255510D01*
X161604138Y-94358058D01*
X161441840Y-94495188D01*
X161238944Y-94534918D01*
X161219838Y-94529797D01*
X161029835Y-94478867D01*
X160848894Y-94328656D01*
G37*
G36*
X163910697Y-98166138D02*
G01*
X163831935Y-98097700D01*
X163821838Y-98061729D01*
X164087295Y-98061729D01*
X164114633Y-98107860D01*
X164205618Y-98153484D01*
X164319879Y-98195376D01*
X164361175Y-98160327D01*
X164366259Y-98072751D01*
X164348906Y-97956621D01*
X164316026Y-97918826D01*
X164230272Y-97951923D01*
X164155385Y-97999558D01*
X164087295Y-98061729D01*
X163821838Y-98061729D01*
X163820310Y-98056286D01*
X163881073Y-97990366D01*
X164021115Y-97901257D01*
X164206585Y-97804709D01*
X164403632Y-97716473D01*
X164578406Y-97652296D01*
X164697056Y-97627929D01*
X164724677Y-97635516D01*
X164718396Y-97701453D01*
X164661149Y-97759968D01*
X164586188Y-97871258D01*
X164552623Y-98033023D01*
X164561783Y-98195972D01*
X164615001Y-98310812D01*
X164645721Y-98331087D01*
X164728305Y-98412171D01*
X164738875Y-98458518D01*
X164712584Y-98528297D01*
X164688921Y-98529502D01*
X164327654Y-98375754D01*
X164319879Y-98372133D01*
X164072091Y-98256728D01*
X163910697Y-98166138D01*
G37*
G36*
X160932379Y-84496528D02*
G01*
X160950611Y-84597799D01*
X160958501Y-84683844D01*
X161001613Y-84730300D01*
X161109113Y-84749319D01*
X161310167Y-84753052D01*
X161323227Y-84753056D01*
X161531341Y-84757588D01*
X161643795Y-84777496D01*
X161688993Y-84822248D01*
X161695843Y-84877261D01*
X161682248Y-84946632D01*
X161622523Y-84984117D01*
X161488266Y-84999183D01*
X161323227Y-85001467D01*
X161115114Y-85005999D01*
X161002660Y-85025907D01*
X160957461Y-85070659D01*
X160950611Y-85125672D01*
X160911780Y-85226824D01*
X160857457Y-85249877D01*
X160805206Y-85222928D01*
X160776164Y-85126634D01*
X160764985Y-84937822D01*
X160764303Y-84846210D01*
X160770522Y-84619787D01*
X160792744Y-84493940D01*
X160836316Y-84445498D01*
X160857457Y-84442542D01*
X160932379Y-84496528D01*
G37*
G36*
X161654790Y-91362759D02*
G01*
X161683828Y-91458642D01*
X161695108Y-91646737D01*
X161695843Y-91742329D01*
X161695843Y-92148717D01*
X161245599Y-92130471D01*
X160795354Y-92112225D01*
X160776865Y-91724083D01*
X160771976Y-91506524D01*
X160786885Y-91386965D01*
X160826658Y-91340079D01*
X160854494Y-91335941D01*
X160920604Y-91373611D01*
X160948338Y-91501428D01*
X160950611Y-91584352D01*
X160965993Y-91757079D01*
X161016984Y-91828254D01*
X161043765Y-91832762D01*
X161112664Y-91785628D01*
X161136751Y-91635199D01*
X161136919Y-91615403D01*
X161157120Y-91454640D01*
X161221589Y-91398437D01*
X161230073Y-91398044D01*
X161298972Y-91445178D01*
X161323059Y-91595607D01*
X161323227Y-91615403D01*
X161343428Y-91776166D01*
X161407897Y-91832370D01*
X161416381Y-91832762D01*
X161481154Y-91791743D01*
X161507845Y-91655768D01*
X161509535Y-91584352D01*
X161524918Y-91411624D01*
X161575908Y-91340449D01*
X161602689Y-91335941D01*
X161654790Y-91362759D01*
G37*
G36*
X163807335Y-97214270D02*
G01*
X163824674Y-97107172D01*
X163993643Y-97107172D01*
X164009242Y-97242080D01*
X164077170Y-97292417D01*
X164153025Y-97297799D01*
X164266582Y-97279900D01*
X164297901Y-97200464D01*
X164292756Y-97127017D01*
X164241298Y-96986588D01*
X164133374Y-96936389D01*
X164034938Y-96941292D01*
X163997734Y-97017048D01*
X163993643Y-97107172D01*
X163824674Y-97107172D01*
X163847238Y-96967796D01*
X163960023Y-96804829D01*
X164135301Y-96739496D01*
X164156895Y-96738875D01*
X164320750Y-96789097D01*
X164410645Y-96937778D01*
X164428362Y-97092860D01*
X164441692Y-97234420D01*
X164500420Y-97290081D01*
X164583619Y-97297799D01*
X164708488Y-97330191D01*
X164738875Y-97390953D01*
X164714477Y-97440089D01*
X164626306Y-97468932D01*
X164451903Y-97481973D01*
X164273105Y-97484107D01*
X163807335Y-97484107D01*
X163807335Y-97214270D01*
G37*
G36*
X164544351Y-88737164D02*
G01*
X164695859Y-88770714D01*
X164730983Y-88835694D01*
X164653077Y-88939518D01*
X164465494Y-89089602D01*
X164443887Y-89105242D01*
X164148900Y-89317604D01*
X164443887Y-89336532D01*
X164642053Y-89363677D01*
X164730927Y-89415375D01*
X164738875Y-89445212D01*
X164711595Y-89492957D01*
X164615498Y-89520955D01*
X164429201Y-89533325D01*
X164273105Y-89534963D01*
X164001859Y-89525427D01*
X163850351Y-89491877D01*
X163815227Y-89426897D01*
X163893133Y-89323073D01*
X164080716Y-89172989D01*
X164102323Y-89157349D01*
X164397310Y-88944987D01*
X164102323Y-88926059D01*
X163904157Y-88898914D01*
X163815283Y-88847216D01*
X163807335Y-88817379D01*
X163834615Y-88769634D01*
X163930712Y-88741636D01*
X164117010Y-88729266D01*
X164273105Y-88727628D01*
X164544351Y-88737164D01*
G37*
G36*
X161468216Y-87426405D02*
G01*
X161607944Y-87439782D01*
X161674996Y-87470465D01*
X161695113Y-87525319D01*
X161695843Y-87547677D01*
X161684843Y-87611182D01*
X161634680Y-87648442D01*
X161519618Y-87666323D01*
X161313915Y-87671687D01*
X161230073Y-87671882D01*
X160991931Y-87668949D01*
X160852203Y-87655572D01*
X160785150Y-87624889D01*
X160765034Y-87570035D01*
X160764303Y-87547677D01*
X160775304Y-87484172D01*
X160825466Y-87446911D01*
X160940529Y-87429031D01*
X161146232Y-87423666D01*
X161230073Y-87423472D01*
X161468216Y-87426405D01*
G37*
%TO.C,JP2*%
X145420000Y-66355000D02*
X145420000Y-61155000D01*
X148080000Y-66355000D02*
X145420000Y-66355000D01*
X148080000Y-61155000D02*
X145420000Y-61155000D01*
X148080000Y-66355000D02*
X148080000Y-61155000D01*
%TO.C,D14*%
X164285000Y-46050000D02*
X164285000Y-42165000D01*
X162015000Y-42165000D02*
X162015000Y-46050000D01*
X164285000Y-42165000D02*
X162015000Y-42165000D01*
%TO.C,JP3*%
X150420000Y-66355000D02*
X150420000Y-61155000D01*
X153080000Y-66355000D02*
X153080000Y-61155000D01*
X153080000Y-66355000D02*
X150420000Y-66355000D01*
X153080000Y-61155000D02*
X150420000Y-61155000D01*
%TO.C,SW3*%
X103600000Y-115600000D02*
X105720000Y-115600000D01*
X115900000Y-115600000D02*
X115900000Y-127900000D01*
X113780000Y-115600000D02*
X115900000Y-115600000D01*
X103600000Y-127900000D02*
X103600000Y-115600000D01*
X115900000Y-127900000D02*
X113780000Y-127900000D01*
X110720000Y-127900000D02*
X108780000Y-127900000D01*
X105720000Y-127900000D02*
X103600000Y-127900000D01*
X108780000Y-115600000D02*
X110720000Y-115600000D01*
%TO.C,R4*%
X123262742Y-111322500D02*
X123737258Y-111322500D01*
X123262742Y-110277500D02*
X123737258Y-110277500D01*
%TO.C,D4*%
X135237500Y-100242500D02*
G75*
G03*
X135237500Y-100242500I-2500000J0D01*
G01*
X134282330Y-102802500D02*
G75*
G03*
X132737038Y-97252500I-1544830J2560000D01*
G01*
X132737962Y-97252500D02*
G75*
G03*
X131192670Y-102802500I-462J-2990000D01*
G01*
X131192500Y-102802500D02*
X134282500Y-102802500D01*
%TO.C,J5*%
X78680000Y-68080000D02*
G75*
G03*
X78680000Y-68080000I-1680000J0D01*
G01*
X76316000Y-64535001D02*
G75*
G03*
X77683042Y-64535427I684000J1535001D01*
G01*
X75465000Y-62316000D02*
G75*
G03*
X75319747Y-63028805I1535001J-683999D01*
G01*
X77684000Y-61465000D02*
G75*
G03*
X76316958Y-61464573I-684001J-1534993D01*
G01*
X78535000Y-63684000D02*
G75*
G03*
X78535427Y-62316958I-1534993J684001D01*
G01*
X75320000Y-63000000D02*
G75*
G03*
X75465244Y-63683318I1680000J0D01*
G01*
X75761000Y-67046000D02*
X75726000Y-67011000D01*
X72840000Y-60160000D02*
X72100000Y-60160000D01*
X82261000Y-60400000D02*
X72340000Y-60400000D01*
X78275000Y-69150000D02*
X78239000Y-69115000D01*
X75977000Y-66853000D02*
X75931000Y-66806000D01*
X72900000Y-60400000D02*
X72900000Y-70680000D01*
X82261000Y-70680000D02*
X72340000Y-70680000D01*
X78069000Y-69355000D02*
X78023000Y-69308000D01*
X72340000Y-60400000D02*
X72340000Y-70680000D01*
X74400000Y-60400000D02*
X74400000Y-70680000D01*
X82261000Y-60400000D02*
X82261000Y-70680000D01*
X72100000Y-60160000D02*
X72100000Y-60660000D01*
X79301000Y-60400000D02*
X79301000Y-70680000D01*
%TO.C,C1*%
X118414420Y-62010000D02*
X118695580Y-62010000D01*
X118414420Y-60990000D02*
X118695580Y-60990000D01*
%TO.C,J1*%
X152945000Y-51080000D02*
X163165000Y-51080000D01*
X152945000Y-48420000D02*
X163165000Y-48420000D01*
X152945000Y-51080000D02*
X152945000Y-48420000D01*
X150345000Y-51080000D02*
X150345000Y-49750000D01*
X151675000Y-51080000D02*
X150345000Y-51080000D01*
X163165000Y-51080000D02*
X163165000Y-48420000D01*
%TO.C,U3*%
X83525000Y-54690000D02*
X80075000Y-54690000D01*
X83525000Y-54690000D02*
X85475000Y-54690000D01*
X83525000Y-59810000D02*
X85475000Y-59810000D01*
X83525000Y-59810000D02*
X81575000Y-59810000D01*
%TO.C,R16*%
X122262742Y-65977500D02*
X122737258Y-65977500D01*
X122262742Y-67022500D02*
X122737258Y-67022500D01*
%TO.C,R14*%
X122262742Y-83272500D02*
X122737258Y-83272500D01*
X122262742Y-82227500D02*
X122737258Y-82227500D01*
%TD*%
%LPC*%
D16*
%TO.C,R21*%
X130675000Y-110800000D03*
X132325000Y-110800000D03*
%TD*%
%TO.C,R19*%
X112925000Y-110800000D03*
X114575000Y-110800000D03*
%TD*%
D17*
%TO.C,D2*%
X114737500Y-98972500D03*
D18*
X114737500Y-101512500D03*
%TD*%
D19*
%TO.C,R20*%
X167000000Y-45325000D03*
X167000000Y-43675000D03*
%TD*%
D16*
%TO.C,R3*%
X104925000Y-110800000D03*
X106575000Y-110800000D03*
%TD*%
D20*
%TO.C,C5*%
X91500000Y-65545000D03*
X86500000Y-65545000D03*
%TD*%
D19*
%TO.C,R18*%
X112500000Y-52325000D03*
X112500000Y-50675000D03*
%TD*%
D16*
%TO.C,R8*%
X123325000Y-69750000D03*
X121675000Y-69750000D03*
%TD*%
%TO.C,R11*%
X123325000Y-76250000D03*
X121675000Y-76250000D03*
%TD*%
D21*
%TO.C,H1*%
X72750000Y-37250000D03*
%TD*%
D22*
%TO.C,JP10*%
X94985000Y-90500000D03*
D23*
X97525000Y-90500000D03*
%TD*%
D16*
%TO.C,R10*%
X123325000Y-73000000D03*
X121675000Y-73000000D03*
%TD*%
D24*
%TO.C,CD1*%
X108800000Y-110800000D03*
X110700000Y-110800000D03*
%TD*%
D25*
%TO.C,C3*%
X90300000Y-55250000D03*
X88750000Y-55250000D03*
%TD*%
D26*
%TO.C,R2*%
X156750000Y-71675000D03*
X156750000Y-73325000D03*
%TD*%
D19*
%TO.C,R6*%
X161750000Y-73325000D03*
X161750000Y-71675000D03*
%TD*%
D27*
%TO.C,C2*%
X70750000Y-83475000D03*
X70750000Y-85025000D03*
%TD*%
D28*
%TO.C,U2*%
X127380000Y-65380000D03*
X129920000Y-65380000D03*
X132460000Y-65380000D03*
X135000000Y-65380000D03*
X137540000Y-65380000D03*
X137540000Y-80620000D03*
X135000000Y-80620000D03*
X132460000Y-80620000D03*
X129920000Y-80620000D03*
X127380000Y-80620000D03*
%TD*%
D21*
%TO.C,H4*%
X72750000Y-130250000D03*
%TD*%
D19*
%TO.C,R12*%
X105960000Y-66825000D03*
X105960000Y-65175000D03*
%TD*%
D22*
%TO.C,JP8*%
X116080000Y-44750000D03*
X113540000Y-44750000D03*
D29*
X111000000Y-44750000D03*
%TD*%
D30*
%TO.C,RV1*%
X148060500Y-93237500D03*
X150560500Y-93237500D03*
X153060500Y-93237500D03*
D31*
X145760500Y-100237500D03*
X155360500Y-100237500D03*
%TD*%
D22*
%TO.C,JP5*%
X96250000Y-98985000D03*
D23*
X96250000Y-101525000D03*
%TD*%
D22*
%TO.C,JP4*%
X161750000Y-62460000D03*
D23*
X161750000Y-65000000D03*
%TD*%
D22*
%TO.C,JP9*%
X94985000Y-81205000D03*
D23*
X97525000Y-81205000D03*
%TD*%
D22*
%TO.C,J3*%
X125595000Y-44750000D03*
X128135000Y-44750000D03*
X130675000Y-44750000D03*
X133215000Y-44750000D03*
X135755000Y-44750000D03*
X138295000Y-44750000D03*
X140835000Y-44750000D03*
D23*
X143375000Y-44750000D03*
%TD*%
D22*
%TO.C,J2*%
X161835000Y-54500000D03*
X159295000Y-54500000D03*
X156755000Y-54500000D03*
X154215000Y-54500000D03*
D23*
X151675000Y-54500000D03*
%TD*%
D27*
%TO.C,C4*%
X82250000Y-77125000D03*
X82250000Y-78675000D03*
%TD*%
D19*
%TO.C,R7*%
X123737500Y-95312500D03*
X123737500Y-93662500D03*
%TD*%
D32*
%TO.C,J4*%
X155445000Y-36840000D03*
X155445000Y-39380000D03*
X151635000Y-39420000D03*
X151635000Y-36880000D03*
X147825000Y-36840000D03*
X147825000Y-39380000D03*
X144015000Y-39420000D03*
X144015000Y-36880000D03*
X140205000Y-36800000D03*
X140205000Y-39340000D03*
X136395000Y-36840000D03*
X136395000Y-39380000D03*
X132585000Y-36880000D03*
X132585000Y-39420000D03*
X128775000Y-39380000D03*
X128775000Y-36840000D03*
X124965000Y-36880000D03*
X124965000Y-39420000D03*
X121155000Y-39340000D03*
X121155000Y-36800000D03*
X117345000Y-39380000D03*
X117345000Y-36840000D03*
X113535000Y-39340000D03*
X113535000Y-36800000D03*
X109725000Y-39340000D03*
X109725000Y-36800000D03*
X105915000Y-36840000D03*
X105915000Y-39380000D03*
X102105000Y-39340000D03*
X102105000Y-36800000D03*
X98295000Y-39380000D03*
X98295000Y-36840000D03*
X94485000Y-39300000D03*
X94485000Y-36760000D03*
X90675000Y-36800000D03*
X90675000Y-39340000D03*
X86865000Y-39300000D03*
X86865000Y-36760000D03*
X83055000Y-39340000D03*
X83055000Y-36800000D03*
%TD*%
D33*
%TO.C,U4*%
X73440000Y-92635000D03*
X78520000Y-91365000D03*
X73440000Y-90095000D03*
X78520000Y-88825000D03*
X73440000Y-87555000D03*
X78520000Y-86285000D03*
X73440000Y-85015000D03*
D34*
X85190000Y-74955000D03*
X85190000Y-92755000D03*
D33*
X78520000Y-83745000D03*
X73440000Y-82475000D03*
X78520000Y-81205000D03*
X73440000Y-79935000D03*
X78520000Y-78665000D03*
X73440000Y-77395000D03*
X78520000Y-76125000D03*
D18*
X73440000Y-74855000D03*
%TD*%
D22*
%TO.C,JP7*%
X100195000Y-44750000D03*
X102735000Y-44750000D03*
D29*
X105275000Y-44750000D03*
%TD*%
D19*
%TO.C,R5*%
X114737500Y-95312500D03*
X114737500Y-93662500D03*
%TD*%
D17*
%TO.C,D3*%
X123737500Y-98972500D03*
D18*
X123737500Y-101512500D03*
%TD*%
D35*
%TO.C,U1*%
X117780000Y-64125000D03*
X117780000Y-66665000D03*
X117780000Y-69205000D03*
X117780000Y-71745000D03*
X117780000Y-74285000D03*
X117780000Y-76825000D03*
X117780000Y-79365000D03*
X117780000Y-81905000D03*
X110160000Y-81905000D03*
X110160000Y-79365000D03*
X110160000Y-76825000D03*
X110160000Y-74285000D03*
X110160000Y-71745000D03*
X110160000Y-69205000D03*
X110160000Y-66665000D03*
D36*
X110160000Y-64125000D03*
%TD*%
D37*
%TO.C,J6*%
X77000000Y-104330000D03*
D38*
X77000000Y-99250000D03*
%TD*%
D25*
%TO.C,C6*%
X90300000Y-58000000D03*
X88750000Y-58000000D03*
%TD*%
D19*
%TO.C,R9*%
X132737500Y-95312500D03*
X132737500Y-93662500D03*
%TD*%
D24*
%TO.C,CD2*%
X128450000Y-110800000D03*
X126550000Y-110800000D03*
%TD*%
D19*
%TO.C,R1*%
X105737500Y-95312500D03*
X105737500Y-93662500D03*
%TD*%
D22*
%TO.C,JP1*%
X156750000Y-62485000D03*
D23*
X156750000Y-65025000D03*
%TD*%
D39*
%TO.C,J8*%
X88150000Y-120250000D03*
X72850000Y-120250000D03*
%TD*%
D40*
%TO.C,R17*%
X122950000Y-51750000D03*
X119550000Y-51750000D03*
%TD*%
D41*
%TO.C,SW4*%
X125000000Y-115500000D03*
X125000000Y-128000000D03*
X130000000Y-128000000D03*
X130000000Y-115500000D03*
D17*
X132000000Y-122000000D03*
X123000000Y-122000000D03*
%TD*%
%TO.C,D1*%
X105737500Y-98972500D03*
D18*
X105737500Y-101512500D03*
%TD*%
D16*
%TO.C,R15*%
X123325000Y-63250000D03*
X121675000Y-63250000D03*
%TD*%
D22*
%TO.C,JP6*%
X129930000Y-85750000D03*
X132470000Y-85750000D03*
D29*
X135010000Y-85750000D03*
%TD*%
D16*
%TO.C,R13*%
X123325000Y-79500000D03*
X121675000Y-79500000D03*
%TD*%
D21*
%TO.C,H3*%
X165750000Y-130250000D03*
%TD*%
D17*
%TO.C,SW1*%
X144250000Y-119210000D03*
X144250000Y-121750000D03*
X144250000Y-124290000D03*
%TD*%
D39*
%TO.C,J7*%
X72850000Y-47250000D03*
X88150000Y-47250000D03*
%TD*%
D17*
%TO.C,SW2*%
X157250000Y-119210000D03*
X157250000Y-121750000D03*
X157250000Y-124290000D03*
%TD*%
D22*
%TO.C,JP2*%
X146750000Y-62485000D03*
D23*
X146750000Y-65025000D03*
%TD*%
D42*
%TO.C,D14*%
X163150000Y-45850000D03*
X163150000Y-43050000D03*
%TD*%
D22*
%TO.C,JP3*%
X151750000Y-62485000D03*
D23*
X151750000Y-65025000D03*
%TD*%
D17*
%TO.C,SW3*%
X105250000Y-122000000D03*
X114250000Y-122000000D03*
D41*
X112250000Y-128000000D03*
X112250000Y-115500000D03*
X107250000Y-128000000D03*
X107250000Y-115500000D03*
%TD*%
D16*
%TO.C,R4*%
X124325000Y-110800000D03*
X122675000Y-110800000D03*
%TD*%
D17*
%TO.C,D4*%
X132737500Y-98972500D03*
D18*
X132737500Y-101512500D03*
%TD*%
D37*
%TO.C,J5*%
X77000000Y-68080000D03*
D38*
X77000000Y-63000000D03*
%TD*%
D25*
%TO.C,C1*%
X119330000Y-61500000D03*
X117780000Y-61500000D03*
%TD*%
D22*
%TO.C,J1*%
X161835000Y-49750000D03*
X159295000Y-49750000D03*
X156755000Y-49750000D03*
X154215000Y-49750000D03*
D23*
X151675000Y-49750000D03*
%TD*%
D21*
%TO.C,H2*%
X165750000Y-37250000D03*
%TD*%
D43*
%TO.C,U3*%
X86000000Y-55345000D03*
X86000000Y-56615000D03*
X86000000Y-57885000D03*
X86000000Y-59155000D03*
X81050000Y-59155000D03*
X81050000Y-57885000D03*
X81050000Y-56615000D03*
X81050000Y-55345000D03*
%TD*%
D16*
%TO.C,R16*%
X123325000Y-66500000D03*
X121675000Y-66500000D03*
%TD*%
%TO.C,R14*%
X123325000Y-82750000D03*
X121675000Y-82750000D03*
%TD*%
M02*
