%TF.GenerationSoftware,KiCad,Pcbnew,(6.0.7)*%
%TF.CreationDate,2022-09-06T17:39:21+02:00*%
%TF.ProjectId,myDAQExpansionBoard,6d794441-5145-4787-9061-6e73696f6e42,rev?*%
%TF.SameCoordinates,Original*%
%TF.FileFunction,Paste,Top*%
%TF.FilePolarity,Positive*%
%FSLAX46Y46*%
G04 Gerber Fmt 4.6, Leading zero omitted, Abs format (unit mm)*
G04 Created by KiCad (PCBNEW (6.0.7)) date 2022-09-06 17:39:21*
%MOMM*%
%LPD*%
G01*
G04 APERTURE LIST*
G04 Aperture macros list*
%AMRoundRect*
0 Rectangle with rounded corners*
0 $1 Rounding radius*
0 $2 $3 $4 $5 $6 $7 $8 $9 X,Y pos of 4 corners*
0 Add a 4 corners polygon primitive as box body*
4,1,4,$2,$3,$4,$5,$6,$7,$8,$9,$2,$3,0*
0 Add four circle primitives for the rounded corners*
1,1,$1+$1,$2,$3*
1,1,$1+$1,$4,$5*
1,1,$1+$1,$6,$7*
1,1,$1+$1,$8,$9*
0 Add four rect primitives between the rounded corners*
20,1,$1+$1,$2,$3,$4,$5,0*
20,1,$1+$1,$4,$5,$6,$7,0*
20,1,$1+$1,$6,$7,$8,$9,0*
20,1,$1+$1,$8,$9,$2,$3,0*%
G04 Aperture macros list end*
%ADD10RoundRect,0.200000X-0.200000X-0.275000X0.200000X-0.275000X0.200000X0.275000X-0.200000X0.275000X0*%
%ADD11RoundRect,0.225000X0.250000X-0.225000X0.250000X0.225000X-0.250000X0.225000X-0.250000X-0.225000X0*%
%ADD12RoundRect,0.200000X-0.275000X0.200000X-0.275000X-0.200000X0.275000X-0.200000X0.275000X0.200000X0*%
%ADD13RoundRect,0.225000X-0.250000X0.225000X-0.250000X-0.225000X0.250000X-0.225000X0.250000X0.225000X0*%
%ADD14RoundRect,0.200000X0.200000X0.275000X-0.200000X0.275000X-0.200000X-0.275000X0.200000X-0.275000X0*%
%ADD15RoundRect,0.150000X-0.825000X-0.150000X0.825000X-0.150000X0.825000X0.150000X-0.825000X0.150000X0*%
%ADD16RoundRect,0.200000X0.275000X-0.200000X0.275000X0.200000X-0.275000X0.200000X-0.275000X-0.200000X0*%
%ADD17RoundRect,0.150000X-0.150000X0.825000X-0.150000X-0.825000X0.150000X-0.825000X0.150000X0.825000X0*%
G04 APERTURE END LIST*
D10*
%TO.C,R11*%
X83407500Y-99600000D03*
X85057500Y-99600000D03*
%TD*%
D11*
%TO.C,CD2*%
X132250000Y-133025000D03*
X132250000Y-131475000D03*
%TD*%
%TO.C,C3*%
X89525000Y-125750000D03*
X89525000Y-124200000D03*
%TD*%
D12*
%TO.C,R3*%
X129000000Y-131425000D03*
X129000000Y-133075000D03*
%TD*%
D13*
%TO.C,C4*%
X69750000Y-68725000D03*
X69750000Y-70275000D03*
%TD*%
D14*
%TO.C,R21*%
X90350000Y-144225000D03*
X88700000Y-144225000D03*
%TD*%
D10*
%TO.C,R13*%
X83407500Y-102600000D03*
X85057500Y-102600000D03*
%TD*%
%TO.C,R8*%
X83407500Y-93600000D03*
X85057500Y-93600000D03*
%TD*%
D15*
%TO.C,U3*%
X61775000Y-66185000D03*
X61775000Y-67455000D03*
X61775000Y-68725000D03*
X61775000Y-69995000D03*
X66725000Y-69995000D03*
X66725000Y-68725000D03*
X66725000Y-67455000D03*
X66725000Y-66185000D03*
%TD*%
D12*
%TO.C,R20*%
X78525000Y-120900000D03*
X78525000Y-122550000D03*
%TD*%
D11*
%TO.C,CD1*%
X117250000Y-133575000D03*
X117250000Y-132025000D03*
%TD*%
D12*
%TO.C,R1*%
X125750000Y-71925000D03*
X125750000Y-73575000D03*
%TD*%
D11*
%TO.C,C1*%
X81500000Y-87375000D03*
X81500000Y-85825000D03*
%TD*%
D16*
%TO.C,R4*%
X122000000Y-112825000D03*
X122000000Y-111175000D03*
%TD*%
D11*
%TO.C,C2*%
X69750000Y-66185000D03*
X69750000Y-64635000D03*
%TD*%
D17*
%TO.C,U4*%
X50905000Y-101770000D03*
X49635000Y-101770000D03*
X48365000Y-101770000D03*
X47095000Y-101770000D03*
X47095000Y-106720000D03*
X48365000Y-106720000D03*
X49635000Y-106720000D03*
X50905000Y-106720000D03*
%TD*%
D10*
%TO.C,R14*%
X83407500Y-105600000D03*
X85057500Y-105600000D03*
%TD*%
%TO.C,R15*%
X83407500Y-87600000D03*
X85057500Y-87600000D03*
%TD*%
D12*
%TO.C,R12*%
X69300000Y-95875000D03*
X69300000Y-97525000D03*
%TD*%
%TO.C,R10*%
X136250000Y-81150000D03*
X136250000Y-82800000D03*
%TD*%
%TO.C,R6*%
X136250000Y-110925000D03*
X136250000Y-112575000D03*
%TD*%
D10*
%TO.C,R16*%
X83407500Y-90600000D03*
X85057500Y-90600000D03*
%TD*%
D12*
%TO.C,R5*%
X136225000Y-71925000D03*
X136225000Y-73575000D03*
%TD*%
%TO.C,R19*%
X87250000Y-69175000D03*
X87250000Y-70825000D03*
%TD*%
D10*
%TO.C,R9*%
X83407500Y-96600000D03*
X85057500Y-96600000D03*
%TD*%
D12*
%TO.C,R7*%
X125750000Y-80925000D03*
X125750000Y-82575000D03*
%TD*%
%TO.C,R2*%
X114000000Y-131925000D03*
X114000000Y-133575000D03*
%TD*%
M02*
