%TF.GenerationSoftware,KiCad,Pcbnew,(6.0.7)*%
%TF.CreationDate,2022-09-06T17:39:21+02:00*%
%TF.ProjectId,myDAQExpansionBoard,6d794441-5145-4787-9061-6e73696f6e42,rev?*%
%TF.SameCoordinates,Original*%
%TF.FileFunction,Copper,L1,Top*%
%TF.FilePolarity,Positive*%
%FSLAX46Y46*%
G04 Gerber Fmt 4.6, Leading zero omitted, Abs format (unit mm)*
G04 Created by KiCad (PCBNEW (6.0.7)) date 2022-09-06 17:39:21*
%MOMM*%
%LPD*%
G01*
G04 APERTURE LIST*
G04 Aperture macros list*
%AMRoundRect*
0 Rectangle with rounded corners*
0 $1 Rounding radius*
0 $2 $3 $4 $5 $6 $7 $8 $9 X,Y pos of 4 corners*
0 Add a 4 corners polygon primitive as box body*
4,1,4,$2,$3,$4,$5,$6,$7,$8,$9,$2,$3,0*
0 Add four circle primitives for the rounded corners*
1,1,$1+$1,$2,$3*
1,1,$1+$1,$4,$5*
1,1,$1+$1,$6,$7*
1,1,$1+$1,$8,$9*
0 Add four rect primitives between the rounded corners*
20,1,$1+$1,$2,$3,$4,$5,0*
20,1,$1+$1,$4,$5,$6,$7,0*
20,1,$1+$1,$6,$7,$8,$9,0*
20,1,$1+$1,$8,$9,$2,$3,0*%
G04 Aperture macros list end*
%TA.AperFunction,SMDPad,CuDef*%
%ADD10RoundRect,0.200000X-0.200000X-0.275000X0.200000X-0.275000X0.200000X0.275000X-0.200000X0.275000X0*%
%TD*%
%TA.AperFunction,ComponentPad*%
%ADD11C,6.400000*%
%TD*%
%TA.AperFunction,ComponentPad*%
%ADD12C,0.800000*%
%TD*%
%TA.AperFunction,ComponentPad*%
%ADD13R,1.800000X1.800000*%
%TD*%
%TA.AperFunction,ComponentPad*%
%ADD14C,1.800000*%
%TD*%
%TA.AperFunction,ComponentPad*%
%ADD15O,2.500000X3.000000*%
%TD*%
%TA.AperFunction,SMDPad,CuDef*%
%ADD16RoundRect,0.225000X0.250000X-0.225000X0.250000X0.225000X-0.250000X0.225000X-0.250000X-0.225000X0*%
%TD*%
%TA.AperFunction,ComponentPad*%
%ADD17R,1.700000X1.700000*%
%TD*%
%TA.AperFunction,ComponentPad*%
%ADD18O,1.700000X1.700000*%
%TD*%
%TA.AperFunction,SMDPad,CuDef*%
%ADD19RoundRect,0.200000X-0.275000X0.200000X-0.275000X-0.200000X0.275000X-0.200000X0.275000X0.200000X0*%
%TD*%
%TA.AperFunction,ComponentPad*%
%ADD20R,2.600000X2.600000*%
%TD*%
%TA.AperFunction,ComponentPad*%
%ADD21C,2.600000*%
%TD*%
%TA.AperFunction,SMDPad,CuDef*%
%ADD22RoundRect,0.225000X-0.250000X0.225000X-0.250000X-0.225000X0.250000X-0.225000X0.250000X0.225000X0*%
%TD*%
%TA.AperFunction,SMDPad,CuDef*%
%ADD23RoundRect,0.200000X0.200000X0.275000X-0.200000X0.275000X-0.200000X-0.275000X0.200000X-0.275000X0*%
%TD*%
%TA.AperFunction,ComponentPad*%
%ADD24C,2.300000*%
%TD*%
%TA.AperFunction,SMDPad,CuDef*%
%ADD25RoundRect,0.150000X-0.825000X-0.150000X0.825000X-0.150000X0.825000X0.150000X-0.825000X0.150000X0*%
%TD*%
%TA.AperFunction,ComponentPad*%
%ADD26R,1.600000X1.600000*%
%TD*%
%TA.AperFunction,ComponentPad*%
%ADD27O,1.600000X1.600000*%
%TD*%
%TA.AperFunction,ComponentPad*%
%ADD28C,1.500000*%
%TD*%
%TA.AperFunction,ComponentPad*%
%ADD29C,2.000000*%
%TD*%
%TA.AperFunction,SMDPad,CuDef*%
%ADD30RoundRect,0.200000X0.275000X-0.200000X0.275000X0.200000X-0.275000X0.200000X-0.275000X-0.200000X0*%
%TD*%
%TA.AperFunction,SMDPad,CuDef*%
%ADD31RoundRect,0.150000X-0.150000X0.825000X-0.150000X-0.825000X0.150000X-0.825000X0.150000X0.825000X0*%
%TD*%
%TA.AperFunction,ComponentPad*%
%ADD32C,5.000000*%
%TD*%
%TA.AperFunction,ComponentPad*%
%ADD33C,3.000000*%
%TD*%
%TA.AperFunction,ViaPad*%
%ADD34C,0.800000*%
%TD*%
%TA.AperFunction,Conductor*%
%ADD35C,0.254000*%
%TD*%
%TA.AperFunction,Conductor*%
%ADD36C,0.250000*%
%TD*%
G04 APERTURE END LIST*
D10*
%TO.P,R11,1*%
%TO.N,Net-(R11-Pad1)*%
X83407500Y-99600000D03*
%TO.P,R11,2*%
%TO.N,Net-(R11-Pad2)*%
X85057500Y-99600000D03*
%TD*%
D11*
%TO.P,H1,*%
%TO.N,*%
X135064466Y-50564466D03*
D12*
%TO.P,H1,1,1*%
%TO.N,unconnected-(H1-Pad1)*%
X133367410Y-52261522D03*
X135064466Y-48164466D03*
X136761522Y-52261522D03*
X133367410Y-48867410D03*
X132664466Y-50564466D03*
X136761522Y-48867410D03*
X137464466Y-50564466D03*
X135064466Y-52964466D03*
%TD*%
D13*
%TO.P,D4,1,K*%
%TO.N,Net-(D4-Pad1)*%
X132025000Y-81975000D03*
D14*
%TO.P,D4,2,A*%
%TO.N,DIO3*%
X129485000Y-81975000D03*
%TD*%
D15*
%TO.P,SW1,1,1*%
%TO.N,DIO4*%
X113000000Y-150750000D03*
X113000000Y-138250000D03*
%TO.P,SW1,2,2*%
%TO.N,GND*%
X118000000Y-150750000D03*
X118000000Y-138250000D03*
%TD*%
D16*
%TO.P,CD2,1*%
%TO.N,DIO5*%
X132250000Y-133025000D03*
%TO.P,CD2,2*%
%TO.N,GND*%
X132250000Y-131475000D03*
%TD*%
D17*
%TO.P,JP5,1,A*%
%TO.N,Net-(JP5-Pad1)*%
X132750000Y-89500000D03*
D18*
%TO.P,JP5,2,B*%
%TO.N,GND*%
X130210000Y-89500000D03*
%TD*%
D16*
%TO.P,C3,1*%
%TO.N,+5V*%
X89525000Y-125750000D03*
%TO.P,C3,2*%
%TO.N,GND*%
X89525000Y-124200000D03*
%TD*%
D14*
%TO.P,SW4,1,A*%
%TO.N,+5V*%
X132750000Y-114290000D03*
%TO.P,SW4,2,B*%
%TO.N,Net-(R6-Pad2)*%
X132750000Y-111750000D03*
%TO.P,SW4,3,C*%
%TO.N,GND*%
X132750000Y-109210000D03*
%TD*%
D17*
%TO.P,JP10,1,A*%
%TO.N,Net-(JP10-Pad1)*%
X81450000Y-58500000D03*
D18*
%TO.P,JP10,2,C*%
%TO.N,AI0+*%
X83990000Y-58500000D03*
%TO.P,JP10,3,B*%
%TO.N,Net-(JP10-Pad3)*%
X86530000Y-58500000D03*
%TD*%
D19*
%TO.P,R3,1*%
%TO.N,Net-(JP2-Pad1)*%
X129000000Y-131425000D03*
%TO.P,R3,2*%
%TO.N,DIO5*%
X129000000Y-133075000D03*
%TD*%
D17*
%TO.P,JP1,1,A*%
%TO.N,Net-(JP1-Pad1)*%
X114475000Y-128500000D03*
D18*
%TO.P,JP1,2,B*%
%TO.N,+5V*%
X117015000Y-128500000D03*
%TD*%
D17*
%TO.P,J2,1,Pin_1*%
%TO.N,+5V*%
X122675000Y-58500000D03*
D18*
%TO.P,J2,2,Pin_2*%
X125215000Y-58500000D03*
%TO.P,J2,3,Pin_3*%
X127755000Y-58500000D03*
%TO.P,J2,4,Pin_4*%
X130295000Y-58500000D03*
%TO.P,J2,5,Pin_5*%
X132835000Y-58500000D03*
%TD*%
D15*
%TO.P,SW2,1,1*%
%TO.N,DIO5*%
X128000000Y-138250000D03*
X128000000Y-150750000D03*
%TO.P,SW2,2,2*%
%TO.N,GND*%
X133000000Y-150750000D03*
X133000000Y-138250000D03*
%TD*%
D17*
%TO.P,JP14,1,A*%
%TO.N,SHUNT*%
X65250000Y-136725000D03*
D18*
%TO.P,JP14,2,C*%
%TO.N,Net-(J8-Pad1)*%
X65250000Y-139265000D03*
%TO.P,JP14,3,B*%
%TO.N,VDD*%
X65250000Y-141805000D03*
%TD*%
D20*
%TO.P,J6,1,Pin_1*%
%TO.N,Net-(J6-Pad1)*%
X89455000Y-157555000D03*
D21*
%TO.P,J6,2,Pin_2*%
%TO.N,Net-(J6-Pad2)*%
X94535000Y-157555000D03*
%TD*%
D22*
%TO.P,C4,1*%
%TO.N,Net-(C4-Pad1)*%
X69750000Y-68725000D03*
%TO.P,C4,2*%
%TO.N,GND*%
X69750000Y-70275000D03*
%TD*%
D13*
%TO.P,D2,1,K*%
%TO.N,Net-(D2-Pad1)*%
X132025000Y-72750000D03*
D14*
%TO.P,D2,2,A*%
%TO.N,DIO1*%
X129485000Y-72750000D03*
%TD*%
D23*
%TO.P,R21,1*%
%TO.N,Net-(R21-Pad1)*%
X90350000Y-144225000D03*
%TO.P,R21,2*%
%TO.N,Net-(R21-Pad2)*%
X88700000Y-144225000D03*
%TD*%
D10*
%TO.P,R13,1*%
%TO.N,Net-(R13-Pad1)*%
X83407500Y-102600000D03*
%TO.P,R13,2*%
%TO.N,Net-(R13-Pad2)*%
X85057500Y-102600000D03*
%TD*%
%TO.P,R8,1*%
%TO.N,Net-(R8-Pad1)*%
X83407500Y-93600000D03*
%TO.P,R8,2*%
%TO.N,Net-(R8-Pad2)*%
X85057500Y-93600000D03*
%TD*%
D11*
%TO.P,H4,*%
%TO.N,*%
X45064466Y-50564466D03*
D12*
%TO.P,H4,1,1*%
%TO.N,unconnected-(H4-Pad1)*%
X42664466Y-50564466D03*
X46761522Y-52261522D03*
X45064466Y-48164466D03*
X43367410Y-52261522D03*
X45064466Y-52964466D03*
X47464466Y-50564466D03*
X46761522Y-48867410D03*
X43367410Y-48867410D03*
%TD*%
D14*
%TO.P,SW3,1,A*%
%TO.N,+5V*%
X118500000Y-114540000D03*
%TO.P,SW3,2,B*%
%TO.N,Net-(R4-Pad1)*%
X118500000Y-112000000D03*
%TO.P,SW3,3,C*%
%TO.N,GND*%
X118500000Y-109460000D03*
%TD*%
D17*
%TO.P,JP12,1,A*%
%TO.N,GND*%
X81025000Y-116975000D03*
D18*
%TO.P,JP12,2,C*%
%TO.N,Net-(R20-Pad1)*%
X78485000Y-116975000D03*
%TO.P,JP12,3,B*%
%TO.N,+5V*%
X75945000Y-116975000D03*
%TD*%
D17*
%TO.P,JP2,1,A*%
%TO.N,Net-(JP2-Pad1)*%
X129475000Y-128000000D03*
D18*
%TO.P,JP2,2,B*%
%TO.N,+5V*%
X132015000Y-128000000D03*
%TD*%
D24*
%TO.P,J1,1,Pin_1*%
%TO.N,unconnected-(J1-Pad1)*%
X53905000Y-51340000D03*
X53905000Y-48800000D03*
X53905000Y-51340000D03*
%TO.P,J1,2,Pin_2*%
%TO.N,unconnected-(J1-Pad2)*%
X57715000Y-51300000D03*
X57715000Y-48760000D03*
X57715000Y-51300000D03*
%TO.P,J1,3,Pin_3*%
%TO.N,GND*%
X61525000Y-51340000D03*
X61525000Y-48800000D03*
X61525000Y-51340000D03*
%TO.P,J1,4,Pin_4*%
%TO.N,AO0*%
X65335000Y-48760000D03*
X65335000Y-51300000D03*
X65335000Y-51300000D03*
%TO.P,J1,5,Pin_5*%
%TO.N,unconnected-(J1-Pad5)*%
X69145000Y-51380000D03*
X69145000Y-48840000D03*
X69145000Y-51380000D03*
%TO.P,J1,6,Pin_6*%
%TO.N,GND*%
X72955000Y-48800000D03*
X72955000Y-51340000D03*
X72955000Y-51340000D03*
%TO.P,J1,7,Pin_7*%
%TO.N,AI0+*%
X76765000Y-51380000D03*
X76765000Y-51380000D03*
X76765000Y-48840000D03*
%TO.P,J1,8,Pin_8*%
%TO.N,GND*%
X80575000Y-51340000D03*
X80575000Y-48800000D03*
X80575000Y-51340000D03*
%TO.P,J1,9,Pin_9*%
%TO.N,AI1+*%
X84385000Y-48800000D03*
X84385000Y-51340000D03*
X84385000Y-51340000D03*
%TO.P,J1,10,Pin_10*%
%TO.N,GND*%
X88195000Y-51380000D03*
X88195000Y-51380000D03*
X88195000Y-48840000D03*
%TO.P,J1,11,Pin_11*%
%TO.N,DIO0*%
X92005000Y-48800000D03*
X92005000Y-51340000D03*
X92005000Y-51340000D03*
%TO.P,J1,12,Pin_12*%
%TO.N,DIO1*%
X95815000Y-51420000D03*
X95815000Y-51420000D03*
X95815000Y-48880000D03*
%TO.P,J1,13,Pin_13*%
%TO.N,DIO2*%
X99625000Y-51380000D03*
X99625000Y-51380000D03*
X99625000Y-48840000D03*
%TO.P,J1,14,Pin_14*%
%TO.N,DIO3*%
X103435000Y-51420000D03*
X103435000Y-48880000D03*
X103435000Y-51420000D03*
%TO.P,J1,15,Pin_15*%
%TO.N,DIO4*%
X107245000Y-51380000D03*
X107245000Y-51380000D03*
X107245000Y-48840000D03*
%TO.P,J1,16,Pin_16*%
%TO.N,DIO5*%
X111055000Y-48800000D03*
X111055000Y-51340000D03*
X111055000Y-51340000D03*
%TO.P,J1,17,Pin_17*%
%TO.N,DIO6*%
X114865000Y-51420000D03*
X114865000Y-48880000D03*
X114865000Y-51420000D03*
%TO.P,J1,18,Pin_18*%
%TO.N,DIO7*%
X118675000Y-51380000D03*
X118675000Y-51380000D03*
X118675000Y-48840000D03*
%TO.P,J1,19,Pin_19*%
%TO.N,GND*%
X122485000Y-51420000D03*
X122485000Y-51420000D03*
X122485000Y-48880000D03*
%TO.P,J1,20,Pin_20*%
%TO.N,+5V*%
X126295000Y-48840000D03*
X126295000Y-51380000D03*
X126295000Y-51380000D03*
%TD*%
D25*
%TO.P,U3,1,IP+*%
%TO.N,Net-(R17-Pad2)*%
X61775000Y-66185000D03*
%TO.P,U3,2,IP+*%
X61775000Y-67455000D03*
%TO.P,U3,3,IP-*%
%TO.N,GND*%
X61775000Y-68725000D03*
%TO.P,U3,4,IP-*%
X61775000Y-69995000D03*
%TO.P,U3,5,GND*%
X66725000Y-69995000D03*
%TO.P,U3,6,FILTER*%
%TO.N,Net-(C4-Pad1)*%
X66725000Y-68725000D03*
%TO.P,U3,7,VIOUT*%
%TO.N,Net-(JP10-Pad1)*%
X66725000Y-67455000D03*
%TO.P,U3,8,VCC*%
%TO.N,+5V*%
X66725000Y-66185000D03*
%TD*%
D17*
%TO.P,JP9,1,A*%
%TO.N,+5V*%
X92225000Y-82500000D03*
D18*
%TO.P,JP9,2,C*%
%TO.N,Net-(JP9-Pad2)*%
X94765000Y-82500000D03*
%TO.P,JP9,3,B*%
%TO.N,GND*%
X97305000Y-82500000D03*
%TD*%
D26*
%TO.P,U1,1,B*%
%TO.N,DIO1*%
X71517500Y-87375000D03*
D27*
%TO.P,U1,2,C*%
%TO.N,DIO2*%
X71517500Y-89915000D03*
%TO.P,U1,3,LT*%
%TO.N,Net-(R12-Pad2)*%
X71517500Y-92455000D03*
%TO.P,U1,4,BI*%
X71517500Y-94995000D03*
%TO.P,U1,5,RBI*%
X71517500Y-97535000D03*
%TO.P,U1,6,D*%
%TO.N,DIO3*%
X71517500Y-100075000D03*
%TO.P,U1,7,A*%
%TO.N,DIO0*%
X71517500Y-102615000D03*
%TO.P,U1,8,GND*%
%TO.N,GND*%
X71517500Y-105155000D03*
%TO.P,U1,9,e*%
%TO.N,Net-(R14-Pad1)*%
X79137500Y-105155000D03*
%TO.P,U1,10,d*%
%TO.N,Net-(R13-Pad1)*%
X79137500Y-102615000D03*
%TO.P,U1,11,c*%
%TO.N,Net-(R11-Pad1)*%
X79137500Y-100075000D03*
%TO.P,U1,12,b*%
%TO.N,Net-(R9-Pad1)*%
X79137500Y-97535000D03*
%TO.P,U1,13,a*%
%TO.N,Net-(R8-Pad1)*%
X79137500Y-94995000D03*
%TO.P,U1,14,g*%
%TO.N,Net-(R16-Pad1)*%
X79137500Y-92455000D03*
%TO.P,U1,15,f*%
%TO.N,Net-(R15-Pad1)*%
X79137500Y-89915000D03*
%TO.P,U1,16,VCC*%
%TO.N,+5V*%
X79137500Y-87375000D03*
%TD*%
D28*
%TO.P,R18,1*%
%TO.N,+5V*%
X83500000Y-71700000D03*
%TO.P,R18,2*%
%TO.N,Net-(JP10-Pad3)*%
X83500000Y-68300000D03*
%TD*%
D17*
%TO.P,JP3,1,A*%
%TO.N,Net-(JP3-Pad1)*%
X120250000Y-97750000D03*
D18*
%TO.P,JP3,2,B*%
%TO.N,DIO6*%
X117710000Y-97750000D03*
%TD*%
D19*
%TO.P,R20,1*%
%TO.N,Net-(R20-Pad1)*%
X78525000Y-120900000D03*
%TO.P,R20,2*%
%TO.N,Net-(R20-Pad2)*%
X78525000Y-122550000D03*
%TD*%
D16*
%TO.P,CD1,1*%
%TO.N,DIO4*%
X117250000Y-133575000D03*
%TO.P,CD1,2*%
%TO.N,GND*%
X117250000Y-132025000D03*
%TD*%
D19*
%TO.P,R1,1*%
%TO.N,Net-(D1-Pad1)*%
X125750000Y-71925000D03*
%TO.P,R1,2*%
%TO.N,Net-(JP5-Pad1)*%
X125750000Y-73575000D03*
%TD*%
D16*
%TO.P,C1,1*%
%TO.N,+5V*%
X81500000Y-87375000D03*
%TO.P,C1,2*%
%TO.N,GND*%
X81500000Y-85825000D03*
%TD*%
D26*
%TO.P,U5,1,EN1\u002C2*%
%TO.N,Net-(R20-Pad2)*%
X78555000Y-126445000D03*
D27*
%TO.P,U5,2,1A*%
%TO.N,DIO0*%
X78555000Y-128985000D03*
%TO.P,U5,3,1Y*%
%TO.N,Net-(J4-Pad1)*%
X78555000Y-131525000D03*
%TO.P,U5,4,GND*%
%TO.N,GND*%
X78555000Y-134065000D03*
%TO.P,U5,5,GND*%
X78555000Y-136605000D03*
%TO.P,U5,6,2Y*%
%TO.N,Net-(J4-Pad2)*%
X78555000Y-139145000D03*
%TO.P,U5,7,2A*%
%TO.N,DIO1*%
X78555000Y-141685000D03*
%TO.P,U5,8,VCC2*%
%TO.N,VDD*%
X78555000Y-144225000D03*
%TO.P,U5,9,EN3\u002C4*%
%TO.N,Net-(R21-Pad2)*%
X86175000Y-144225000D03*
%TO.P,U5,10,3A*%
%TO.N,DIO2*%
X86175000Y-141685000D03*
%TO.P,U5,11,3Y*%
%TO.N,Net-(J6-Pad1)*%
X86175000Y-139145000D03*
%TO.P,U5,12,GND*%
%TO.N,GND*%
X86175000Y-136605000D03*
%TO.P,U5,13,GND*%
X86175000Y-134065000D03*
%TO.P,U5,14,4Y*%
%TO.N,Net-(J6-Pad2)*%
X86175000Y-131525000D03*
%TO.P,U5,15,4A*%
%TO.N,DIO3*%
X86175000Y-128985000D03*
%TO.P,U5,16,VCC1*%
%TO.N,+5V*%
X86175000Y-126445000D03*
%TD*%
D29*
%TO.P,U2,1,E*%
%TO.N,Net-(R14-Pad2)*%
X89670000Y-103870000D03*
%TO.P,U2,2,D*%
%TO.N,Net-(R13-Pad2)*%
X92210000Y-103870000D03*
%TO.P,U2,3,CA/CC*%
%TO.N,unconnected-(U2-Pad3)*%
X94750000Y-103870000D03*
%TO.P,U2,4,C*%
%TO.N,Net-(R11-Pad2)*%
X97290000Y-103870000D03*
%TO.P,U2,5,DP*%
%TO.N,unconnected-(U2-Pad5)*%
X99830000Y-103870000D03*
%TO.P,U2,6,B*%
%TO.N,Net-(R9-Pad2)*%
X99830000Y-88630000D03*
%TO.P,U2,7,A*%
%TO.N,Net-(R8-Pad2)*%
X97290000Y-88630000D03*
%TO.P,U2,8,CA/CC*%
%TO.N,Net-(JP9-Pad2)*%
X94750000Y-88630000D03*
%TO.P,U2,9,F*%
%TO.N,Net-(R15-Pad2)*%
X92210000Y-88630000D03*
%TO.P,U2,10,G*%
%TO.N,Net-(R16-Pad2)*%
X89670000Y-88630000D03*
%TD*%
D11*
%TO.P,H2,*%
%TO.N,*%
X135000000Y-158000000D03*
D12*
%TO.P,H2,1,1*%
%TO.N,unconnected-(H2-Pad1)*%
X132600000Y-158000000D03*
X133302944Y-156302944D03*
X136697056Y-156302944D03*
X135000000Y-155600000D03*
X137400000Y-158000000D03*
X136697056Y-159697056D03*
X133302944Y-159697056D03*
X135000000Y-160400000D03*
%TD*%
D17*
%TO.P,JP13,1,A*%
%TO.N,GND*%
X94250000Y-148000000D03*
D18*
%TO.P,JP13,2,C*%
%TO.N,Net-(R21-Pad1)*%
X94250000Y-145460000D03*
%TO.P,JP13,3,B*%
%TO.N,+5V*%
X94250000Y-142920000D03*
%TD*%
D30*
%TO.P,R4,1*%
%TO.N,Net-(R4-Pad1)*%
X122000000Y-112825000D03*
%TO.P,R4,2*%
%TO.N,Net-(JP3-Pad1)*%
X122000000Y-111175000D03*
%TD*%
D16*
%TO.P,C2,1*%
%TO.N,+5V*%
X69750000Y-66185000D03*
%TO.P,C2,2*%
%TO.N,GND*%
X69750000Y-64635000D03*
%TD*%
D17*
%TO.P,JP11,1,A*%
%TO.N,Net-(JP11-Pad1)*%
X77775000Y-58500000D03*
D18*
%TO.P,JP11,2,C*%
%TO.N,AI1+*%
X75235000Y-58500000D03*
%TO.P,JP11,3,B*%
%TO.N,AO0*%
X72695000Y-58500000D03*
%TD*%
D31*
%TO.P,U4,1,Vout*%
%TO.N,Net-(JP11-Pad1)*%
X50905000Y-101770000D03*
%TO.P,U4,2,NC*%
%TO.N,unconnected-(U4-Pad2)*%
X49635000Y-101770000D03*
%TO.P,U4,3,NC*%
%TO.N,unconnected-(U4-Pad3)*%
X48365000Y-101770000D03*
%TO.P,U4,4,GND*%
%TO.N,GND*%
X47095000Y-101770000D03*
%TO.P,U4,5,NC*%
%TO.N,unconnected-(U4-Pad5)*%
X47095000Y-106720000D03*
%TO.P,U4,6,NC*%
%TO.N,unconnected-(U4-Pad6)*%
X48365000Y-106720000D03*
%TO.P,U4,7,NC*%
%TO.N,unconnected-(U4-Pad7)*%
X49635000Y-106720000D03*
%TO.P,U4,8,+VS*%
%TO.N,+5V*%
X50905000Y-106720000D03*
%TD*%
D13*
%TO.P,D1,1,K*%
%TO.N,Net-(D1-Pad1)*%
X121775000Y-72750000D03*
D14*
%TO.P,D1,2,A*%
%TO.N,DIO0*%
X119235000Y-72750000D03*
%TD*%
D11*
%TO.P,H3,*%
%TO.N,*%
X45000000Y-158000000D03*
D12*
%TO.P,H3,1,1*%
%TO.N,unconnected-(H3-Pad1)*%
X47400000Y-158000000D03*
X45000000Y-160400000D03*
X42600000Y-158000000D03*
X46697056Y-159697056D03*
X46697056Y-156302944D03*
X43302944Y-156302944D03*
X45000000Y-155600000D03*
X43302944Y-159697056D03*
%TD*%
D32*
%TO.P,J8,1,Pin_1*%
%TO.N,Net-(J8-Pad1)*%
X44600000Y-148750000D03*
X59900000Y-148750000D03*
%TD*%
D10*
%TO.P,R14,1*%
%TO.N,Net-(R14-Pad1)*%
X83407500Y-105600000D03*
%TO.P,R14,2*%
%TO.N,Net-(R14-Pad2)*%
X85057500Y-105600000D03*
%TD*%
D17*
%TO.P,JP4,1,A*%
%TO.N,Net-(JP4-Pad1)*%
X132750000Y-97750000D03*
D18*
%TO.P,JP4,2,B*%
%TO.N,DIO7*%
X130210000Y-97750000D03*
%TD*%
D33*
%TO.P,R17,1*%
%TO.N,SHUNT*%
X49000000Y-139810000D03*
%TO.P,R17,2*%
%TO.N,Net-(R17-Pad2)*%
X49000000Y-68690000D03*
%TD*%
D10*
%TO.P,R15,1*%
%TO.N,Net-(R15-Pad1)*%
X83407500Y-87600000D03*
%TO.P,R15,2*%
%TO.N,Net-(R15-Pad2)*%
X85057500Y-87600000D03*
%TD*%
D19*
%TO.P,R12,1*%
%TO.N,+5V*%
X69300000Y-95875000D03*
%TO.P,R12,2*%
%TO.N,Net-(R12-Pad2)*%
X69300000Y-97525000D03*
%TD*%
%TO.P,R10,1*%
%TO.N,Net-(D4-Pad1)*%
X136250000Y-81150000D03*
%TO.P,R10,2*%
%TO.N,Net-(JP5-Pad1)*%
X136250000Y-82800000D03*
%TD*%
%TO.P,R6,1*%
%TO.N,Net-(JP4-Pad1)*%
X136250000Y-110925000D03*
%TO.P,R6,2*%
%TO.N,Net-(R6-Pad2)*%
X136250000Y-112575000D03*
%TD*%
D10*
%TO.P,R16,1*%
%TO.N,Net-(R16-Pad1)*%
X83407500Y-90600000D03*
%TO.P,R16,2*%
%TO.N,Net-(R16-Pad2)*%
X85057500Y-90600000D03*
%TD*%
D13*
%TO.P,D3,1,K*%
%TO.N,Net-(D3-Pad1)*%
X121525000Y-82000000D03*
D14*
%TO.P,D3,2,A*%
%TO.N,DIO2*%
X118985000Y-82000000D03*
%TD*%
D19*
%TO.P,R5,1*%
%TO.N,Net-(D2-Pad1)*%
X136225000Y-71925000D03*
%TO.P,R5,2*%
%TO.N,Net-(JP5-Pad1)*%
X136225000Y-73575000D03*
%TD*%
%TO.P,R19,1*%
%TO.N,Net-(JP10-Pad3)*%
X87250000Y-69175000D03*
%TO.P,R19,2*%
%TO.N,GND*%
X87250000Y-70825000D03*
%TD*%
D32*
%TO.P,J5,1,Pin_1*%
%TO.N,GND*%
X59900000Y-59750000D03*
X44600000Y-59750000D03*
%TD*%
D17*
%TO.P,J3,1,Pin_1*%
%TO.N,GND*%
X122675000Y-62250000D03*
D18*
%TO.P,J3,2,Pin_2*%
X125215000Y-62250000D03*
%TO.P,J3,3,Pin_3*%
X127755000Y-62250000D03*
%TO.P,J3,4,Pin_4*%
X130295000Y-62250000D03*
%TO.P,J3,5,Pin_5*%
X132835000Y-62250000D03*
%TD*%
D17*
%TO.P,J7,1,Pin_1*%
%TO.N,DIO7*%
X115250000Y-58450000D03*
D18*
%TO.P,J7,2,Pin_2*%
%TO.N,DIO6*%
X112710000Y-58450000D03*
%TO.P,J7,3,Pin_3*%
%TO.N,DIO5*%
X110170000Y-58450000D03*
%TO.P,J7,4,Pin_4*%
%TO.N,DIO4*%
X107630000Y-58450000D03*
%TO.P,J7,5,Pin_5*%
%TO.N,DIO3*%
X105090000Y-58450000D03*
%TO.P,J7,6,Pin_6*%
%TO.N,DIO2*%
X102550000Y-58450000D03*
%TO.P,J7,7,Pin_7*%
%TO.N,DIO1*%
X100010000Y-58450000D03*
%TO.P,J7,8,Pin_8*%
%TO.N,DIO0*%
X97470000Y-58450000D03*
%TD*%
D10*
%TO.P,R9,1*%
%TO.N,Net-(R9-Pad1)*%
X83407500Y-96600000D03*
%TO.P,R9,2*%
%TO.N,Net-(R9-Pad2)*%
X85057500Y-96600000D03*
%TD*%
D19*
%TO.P,R7,1*%
%TO.N,Net-(D3-Pad1)*%
X125750000Y-80925000D03*
%TO.P,R7,2*%
%TO.N,Net-(JP5-Pad1)*%
X125750000Y-82575000D03*
%TD*%
%TO.P,R2,1*%
%TO.N,Net-(JP1-Pad1)*%
X114000000Y-131925000D03*
%TO.P,R2,2*%
%TO.N,DIO4*%
X114000000Y-133575000D03*
%TD*%
D20*
%TO.P,J4,1,Pin_1*%
%TO.N,Net-(J4-Pad1)*%
X70260000Y-157555000D03*
D21*
%TO.P,J4,2,Pin_2*%
%TO.N,Net-(J4-Pad2)*%
X75340000Y-157555000D03*
%TD*%
D34*
%TO.N,GND*%
X59750000Y-68750000D03*
X47100000Y-100000000D03*
X59750000Y-70000000D03*
X89500000Y-123000000D03*
X69750000Y-71250000D03*
X117250000Y-131000000D03*
X69750000Y-63500000D03*
X132250000Y-130500000D03*
X87250000Y-72000000D03*
X81500000Y-84700000D03*
%TO.N,DIO0*%
X108250000Y-72750000D03*
X97470000Y-67030000D03*
X116500000Y-72750000D03*
X102250000Y-72750000D03*
%TO.N,DIO1*%
X62800000Y-89700000D03*
X65100000Y-87400000D03*
X116500000Y-68250000D03*
X100010000Y-68240000D03*
X67000000Y-131800000D03*
%TO.N,DIO2*%
X68300000Y-135100000D03*
X116250000Y-82000000D03*
X80300000Y-143000000D03*
X107750000Y-82000000D03*
X66000000Y-89900000D03*
%TO.N,DIO3*%
X109500000Y-77500000D03*
X116250000Y-77500000D03*
%TD*%
D35*
%TO.N,+5V*%
X130500000Y-154000000D02*
X127750000Y-156750000D01*
X123000000Y-156750000D02*
X109500000Y-156750000D01*
X118500000Y-114540000D02*
X132500000Y-114540000D01*
X126295000Y-51380000D02*
X126295000Y-57420000D01*
X132500000Y-142750000D02*
X132500000Y-145361903D01*
X109500000Y-156750000D02*
X106500000Y-153750000D01*
X86175000Y-126445000D02*
X88830000Y-126445000D01*
X139000000Y-112000000D02*
X139000000Y-125750000D01*
X130500000Y-147361903D02*
X130500000Y-154000000D01*
X136500000Y-58500000D02*
X139000000Y-61000000D01*
X88750000Y-112750000D02*
X93500000Y-117500000D01*
X117015000Y-128500000D02*
X123000000Y-134485000D01*
X106500000Y-153750000D02*
X106500000Y-135250000D01*
X139000000Y-112000000D02*
X139000000Y-112500000D01*
X137000000Y-128000000D02*
X132015000Y-128000000D01*
X126295000Y-57420000D02*
X125215000Y-58500000D01*
X123000000Y-134485000D02*
X123000000Y-156750000D01*
X122675000Y-58500000D02*
X132835000Y-58500000D01*
D36*
X81500000Y-87375000D02*
X79137500Y-87375000D01*
D35*
X90750000Y-125750000D02*
X89525000Y-125750000D01*
X139000000Y-61000000D02*
X139000000Y-112000000D01*
X139000000Y-125750000D02*
X139000000Y-136250000D01*
X139000000Y-126000000D02*
X137000000Y-128000000D01*
X106500000Y-135250000D02*
X102500000Y-131250000D01*
X139000000Y-136250000D02*
X132500000Y-142750000D01*
X69750000Y-66185000D02*
X66725000Y-66185000D01*
X139000000Y-112500000D02*
X137210000Y-114290000D01*
X137210000Y-114290000D02*
X132750000Y-114290000D01*
X132500000Y-114540000D02*
X132750000Y-114290000D01*
X88830000Y-126445000D02*
X89525000Y-125750000D01*
X77000000Y-112750000D02*
X88750000Y-112750000D01*
X93500000Y-117500000D02*
X93500000Y-123000000D01*
X132835000Y-58500000D02*
X136500000Y-58500000D01*
X75945000Y-116975000D02*
X75945000Y-113805000D01*
X132500000Y-145361903D02*
X130500000Y-147361903D01*
X126295000Y-51380000D02*
X126295000Y-48840000D01*
X93500000Y-123000000D02*
X90750000Y-125750000D01*
X127750000Y-156750000D02*
X123000000Y-156750000D01*
X75945000Y-113805000D02*
X77000000Y-112750000D01*
X139000000Y-125750000D02*
X139000000Y-126000000D01*
%TO.N,GND*%
X61775000Y-69995000D02*
X59755000Y-69995000D01*
D36*
X47095000Y-101770000D02*
X47095000Y-100005000D01*
D35*
X69750000Y-70275000D02*
X68525000Y-70275000D01*
X117250000Y-132025000D02*
X117250000Y-131000000D01*
X69750000Y-64635000D02*
X69750000Y-63500000D01*
X89525000Y-123025000D02*
X89500000Y-123000000D01*
X61775000Y-68725000D02*
X59775000Y-68725000D01*
D36*
X47095000Y-100005000D02*
X47100000Y-100000000D01*
D35*
X87250000Y-70825000D02*
X87250000Y-72000000D01*
X89525000Y-124200000D02*
X89525000Y-123025000D01*
X68525000Y-70275000D02*
X68245000Y-69995000D01*
X59775000Y-68725000D02*
X59750000Y-68750000D01*
D36*
X81500000Y-85825000D02*
X81500000Y-84700000D01*
D35*
X69750000Y-70275000D02*
X69750000Y-71250000D01*
X132250000Y-131475000D02*
X132250000Y-130500000D01*
X59755000Y-69995000D02*
X59750000Y-70000000D01*
X68245000Y-69995000D02*
X66725000Y-69995000D01*
%TO.N,Net-(C4-Pad1)*%
X66725000Y-68725000D02*
X69750000Y-68725000D01*
D36*
%TO.N,unconnected-(J1-Pad1)*%
X53905000Y-48800000D02*
X53905000Y-51340000D01*
D35*
%TO.N,unconnected-(J1-Pad2)*%
X57715000Y-48760000D02*
X57715000Y-51300000D01*
%TO.N,AO0*%
X65335000Y-56335000D02*
X65335000Y-51300000D01*
X67500000Y-58500000D02*
X65335000Y-56335000D01*
X72695000Y-58500000D02*
X67500000Y-58500000D01*
X65335000Y-48760000D02*
X65335000Y-51300000D01*
%TO.N,unconnected-(J1-Pad5)*%
X69145000Y-48840000D02*
X69145000Y-51380000D01*
%TO.N,AI0+*%
X76765000Y-48840000D02*
X76765000Y-51380000D01*
%TO.N,AI1+*%
X84385000Y-48800000D02*
X84385000Y-51340000D01*
%TO.N,DIO0*%
X92005000Y-48800000D02*
X92005000Y-51340000D01*
X67635000Y-102615000D02*
X69135000Y-102615000D01*
X67500000Y-102750000D02*
X67635000Y-102615000D01*
X67500000Y-123250000D02*
X67500000Y-102750000D01*
X69750000Y-74500000D02*
X64250000Y-80000000D01*
X90000000Y-74500000D02*
X69750000Y-74500000D01*
X92005000Y-54255000D02*
X92005000Y-51340000D01*
X71517500Y-102615000D02*
X69135000Y-102615000D01*
X78555000Y-128985000D02*
X73235000Y-128985000D01*
X97470000Y-58450000D02*
X97470000Y-67030000D01*
X73235000Y-128985000D02*
X67500000Y-123250000D01*
X66615000Y-102615000D02*
X67635000Y-102615000D01*
X119235000Y-72750000D02*
X116500000Y-72750000D01*
X97470000Y-58450000D02*
X96200000Y-58450000D01*
X108250000Y-72750000D02*
X102250000Y-72750000D01*
X64250000Y-100250000D02*
X66615000Y-102615000D01*
X64250000Y-80000000D02*
X64250000Y-100250000D01*
X97470000Y-67030000D02*
X90000000Y-74500000D01*
X96200000Y-58450000D02*
X92005000Y-54255000D01*
%TO.N,DIO1*%
X95815000Y-54255000D02*
X95815000Y-51420000D01*
X124985000Y-68250000D02*
X129485000Y-72750000D01*
X77750000Y-76250000D02*
X71517500Y-82482500D01*
X95815000Y-48880000D02*
X95815000Y-51420000D01*
D36*
X65100000Y-87400000D02*
X65125000Y-87375000D01*
D35*
X100010000Y-68240000D02*
X92000000Y-76250000D01*
X92000000Y-76250000D02*
X77750000Y-76250000D01*
D36*
X62800000Y-127600000D02*
X62800000Y-89700000D01*
X65125000Y-87375000D02*
X71517500Y-87375000D01*
D35*
X71517500Y-82482500D02*
X71517500Y-87375000D01*
X100010000Y-58450000D02*
X100010000Y-68240000D01*
X100010000Y-58450000D02*
X95815000Y-54255000D01*
X116500000Y-68250000D02*
X124985000Y-68250000D01*
D36*
X67000000Y-131800000D02*
X62800000Y-127600000D01*
D35*
%TO.N,DIO2*%
X78750000Y-79250000D02*
X75000000Y-83000000D01*
X99625000Y-55525000D02*
X102550000Y-58450000D01*
D36*
X68300000Y-130600000D02*
X68300000Y-127000000D01*
D35*
X72835000Y-89915000D02*
X71517500Y-89915000D01*
D36*
X81615000Y-141685000D02*
X80300000Y-143000000D01*
D35*
X102550000Y-70950000D02*
X99625000Y-73875000D01*
X99625000Y-48840000D02*
X99625000Y-51380000D01*
D36*
X66200000Y-124900000D02*
X63525000Y-122225000D01*
X71517500Y-89915000D02*
X66015000Y-89915000D01*
D35*
X94250000Y-79250000D02*
X78750000Y-79250000D01*
X107750000Y-82000000D02*
X99625000Y-73875000D01*
D36*
X86175000Y-141685000D02*
X81615000Y-141685000D01*
D35*
X102550000Y-58450000D02*
X102550000Y-70950000D01*
D36*
X68300000Y-135100000D02*
X68300000Y-130600000D01*
D35*
X99625000Y-73875000D02*
X94250000Y-79250000D01*
X118985000Y-82000000D02*
X116250000Y-82000000D01*
D36*
X68300000Y-127000000D02*
X66200000Y-124900000D01*
D35*
X75000000Y-83000000D02*
X75000000Y-87750000D01*
X75000000Y-87750000D02*
X72835000Y-89915000D01*
X99625000Y-51380000D02*
X99625000Y-55525000D01*
D36*
X66015000Y-89915000D02*
X66000000Y-89900000D01*
D35*
%TO.N,DIO3*%
X125010000Y-77500000D02*
X129485000Y-81975000D01*
X74500000Y-101250000D02*
X74500000Y-106500000D01*
X105090000Y-58450000D02*
X105090000Y-64090000D01*
X80985000Y-128985000D02*
X79750000Y-127750000D01*
X109500000Y-77500000D02*
X109500000Y-123750000D01*
X73000000Y-125500000D02*
X73000000Y-108000000D01*
X71517500Y-100075000D02*
X73325000Y-100075000D01*
X105090000Y-53075000D02*
X103435000Y-51420000D01*
X86175000Y-128985000D02*
X80985000Y-128985000D01*
X79750000Y-127750000D02*
X75250000Y-127750000D01*
X75250000Y-127750000D02*
X73000000Y-125500000D01*
X116250000Y-77500000D02*
X125010000Y-77500000D01*
X105090000Y-58450000D02*
X105090000Y-53075000D01*
X109500000Y-68500000D02*
X109500000Y-77500000D01*
X74500000Y-106500000D02*
X73000000Y-108000000D01*
X104265000Y-128985000D02*
X86175000Y-128985000D01*
X103435000Y-48880000D02*
X103435000Y-51420000D01*
X109500000Y-123750000D02*
X104265000Y-128985000D01*
X73325000Y-100075000D02*
X74500000Y-101250000D01*
X105090000Y-64090000D02*
X109500000Y-68500000D01*
%TO.N,DIO4*%
X111250000Y-132500000D02*
X111250000Y-66500000D01*
X107630000Y-62880000D02*
X107630000Y-58450000D01*
X114000000Y-133575000D02*
X117250000Y-133575000D01*
X107630000Y-51765000D02*
X107245000Y-51380000D01*
X112325000Y-133575000D02*
X111250000Y-132500000D01*
X107245000Y-48840000D02*
X107245000Y-51380000D01*
X114000000Y-133575000D02*
X112325000Y-133575000D01*
X111250000Y-66500000D02*
X107630000Y-62880000D01*
X113000000Y-138250000D02*
X113000000Y-150750000D01*
X113000000Y-134575000D02*
X114000000Y-133575000D01*
X113000000Y-138250000D02*
X113000000Y-134575000D01*
X107630000Y-58450000D02*
X107630000Y-51765000D01*
%TO.N,DIO5*%
X129000000Y-134750000D02*
X129000000Y-133075000D01*
X111055000Y-51340000D02*
X111055000Y-57565000D01*
X128000000Y-138250000D02*
X128000000Y-135750000D01*
X112750000Y-65250000D02*
X112750000Y-120250000D01*
X125525000Y-133025000D02*
X132250000Y-133025000D01*
X110170000Y-58450000D02*
X110170000Y-62670000D01*
X128000000Y-135750000D02*
X129000000Y-134750000D01*
X111055000Y-48800000D02*
X111055000Y-51340000D01*
X112750000Y-120250000D02*
X125525000Y-133025000D01*
X111055000Y-57565000D02*
X110170000Y-58450000D01*
X110170000Y-62670000D02*
X112750000Y-65250000D01*
X128000000Y-138250000D02*
X128000000Y-150750000D01*
%TO.N,DIO6*%
X117710000Y-97750000D02*
X114000000Y-94040000D01*
X114865000Y-48880000D02*
X114865000Y-51420000D01*
X112710000Y-53575000D02*
X114865000Y-51420000D01*
X112710000Y-61710000D02*
X112750000Y-61750000D01*
X114000000Y-94040000D02*
X114000000Y-63000000D01*
X112710000Y-58450000D02*
X112710000Y-53575000D01*
X112710000Y-58450000D02*
X112710000Y-61710000D01*
X114000000Y-63000000D02*
X112750000Y-61750000D01*
%TO.N,DIO7*%
X124750000Y-97750000D02*
X130210000Y-97750000D01*
D36*
X115250000Y-54805000D02*
X118675000Y-51380000D01*
D35*
X115250000Y-58450000D02*
X115250000Y-88250000D01*
X115250000Y-88250000D02*
X124750000Y-97750000D01*
D36*
X118675000Y-48840000D02*
X118675000Y-51380000D01*
X115250000Y-58450000D02*
X115250000Y-54805000D01*
D35*
%TO.N,Net-(J4-Pad1)*%
X75975000Y-131525000D02*
X78555000Y-131525000D01*
X70260000Y-157555000D02*
X70260000Y-137240000D01*
X70260000Y-137240000D02*
X75975000Y-131525000D01*
%TO.N,Net-(J4-Pad2)*%
X75340000Y-157555000D02*
X75340000Y-142360000D01*
X75340000Y-142360000D02*
X78555000Y-139145000D01*
%TO.N,Net-(J6-Pad1)*%
X89455000Y-155045000D02*
X92250000Y-152250000D01*
X99250000Y-149750000D02*
X99250000Y-141500000D01*
X89455000Y-157555000D02*
X89455000Y-155045000D01*
X92250000Y-152250000D02*
X96750000Y-152250000D01*
X96750000Y-152250000D02*
X99250000Y-149750000D01*
X96895000Y-139145000D02*
X86175000Y-139145000D01*
X99250000Y-141500000D02*
X96895000Y-139145000D01*
%TO.N,Net-(J6-Pad2)*%
X94535000Y-157555000D02*
X99445000Y-157555000D01*
X96025000Y-131525000D02*
X86175000Y-131525000D01*
X104250000Y-139750000D02*
X96025000Y-131525000D01*
X104250000Y-152750000D02*
X104250000Y-139750000D01*
X99445000Y-157555000D02*
X104250000Y-152750000D01*
%TO.N,Net-(JP9-Pad2)*%
X94750000Y-88630000D02*
X94750000Y-82515000D01*
X94750000Y-82515000D02*
X94765000Y-82500000D01*
%TO.N,Net-(JP10-Pad3)*%
X87250000Y-69175000D02*
X86375000Y-68300000D01*
X86530000Y-65270000D02*
X83500000Y-68300000D01*
X86530000Y-58500000D02*
X86530000Y-65270000D01*
X86375000Y-68300000D02*
X83500000Y-68300000D01*
%TO.N,Net-(JP11-Pad1)*%
X61250000Y-78250000D02*
X66250000Y-73250000D01*
X50905000Y-101770000D02*
X55520000Y-101770000D01*
X72750000Y-73250000D02*
X77775000Y-68225000D01*
X61250000Y-102250000D02*
X61250000Y-78250000D01*
X60500000Y-103000000D02*
X61250000Y-102250000D01*
X55520000Y-101770000D02*
X56750000Y-103000000D01*
X56750000Y-103000000D02*
X60500000Y-103000000D01*
X66250000Y-73250000D02*
X72750000Y-73250000D01*
X77775000Y-68225000D02*
X77775000Y-58500000D01*
%TO.N,Net-(D1-Pad1)*%
X124925000Y-72750000D02*
X125750000Y-71925000D01*
X121775000Y-72750000D02*
X124925000Y-72750000D01*
%TO.N,Net-(D4-Pad1)*%
X136250000Y-81150000D02*
X135425000Y-81975000D01*
X135425000Y-81975000D02*
X132025000Y-81975000D01*
%TO.N,SHUNT*%
X57940000Y-139810000D02*
X49000000Y-139810000D01*
X65250000Y-136725000D02*
X61025000Y-136725000D01*
X61025000Y-136725000D02*
X57940000Y-139810000D01*
%TO.N,VDD*%
X81750000Y-158250000D02*
X79000000Y-161000000D01*
X79000000Y-161000000D02*
X67000000Y-161000000D01*
X67000000Y-161000000D02*
X65250000Y-159250000D01*
X65250000Y-159250000D02*
X65250000Y-141805000D01*
X81750000Y-152750000D02*
X81750000Y-158250000D01*
X78555000Y-149555000D02*
X81750000Y-152750000D01*
X78555000Y-144225000D02*
X78555000Y-149555000D01*
%TO.N,Net-(R8-Pad1)*%
X82012500Y-94995000D02*
X83407500Y-93600000D01*
X79137500Y-94995000D02*
X82012500Y-94995000D01*
%TO.N,Net-(R8-Pad2)*%
X97290000Y-90710000D02*
X97290000Y-88630000D01*
X94400000Y-93600000D02*
X97290000Y-90710000D01*
X85057500Y-93600000D02*
X94400000Y-93600000D01*
%TO.N,Net-(R9-Pad1)*%
X83407500Y-96600000D02*
X82472500Y-97535000D01*
X82472500Y-97535000D02*
X79137500Y-97535000D01*
%TO.N,Net-(R9-Pad2)*%
X95650000Y-96600000D02*
X85057500Y-96600000D01*
X99830000Y-92420000D02*
X95650000Y-96600000D01*
X99830000Y-88630000D02*
X99830000Y-92420000D01*
%TO.N,Net-(R11-Pad1)*%
X79137500Y-100075000D02*
X82932500Y-100075000D01*
X82932500Y-100075000D02*
X83407500Y-99600000D01*
%TO.N,Net-(R11-Pad2)*%
X95600000Y-99600000D02*
X97290000Y-101290000D01*
X97290000Y-101290000D02*
X97290000Y-103870000D01*
X85057500Y-99600000D02*
X95600000Y-99600000D01*
D36*
%TO.N,Net-(R12-Pad2)*%
X71507500Y-97525000D02*
X71517500Y-97535000D01*
X69300000Y-97525000D02*
X71507500Y-97525000D01*
X71517500Y-92455000D02*
X71517500Y-94995000D01*
X71517500Y-94995000D02*
X71517500Y-97535000D01*
D35*
%TO.N,Net-(R13-Pad1)*%
X79137500Y-102615000D02*
X83392500Y-102615000D01*
X83392500Y-102615000D02*
X83407500Y-102600000D01*
%TO.N,Net-(R13-Pad2)*%
X91000000Y-101250000D02*
X88750000Y-101250000D01*
X92210000Y-102460000D02*
X91000000Y-101250000D01*
X92210000Y-103870000D02*
X92210000Y-102460000D01*
X87400000Y-102600000D02*
X85057500Y-102600000D01*
X88750000Y-101250000D02*
X87400000Y-102600000D01*
D36*
%TO.N,Net-(R14-Pad1)*%
X83407500Y-105600000D02*
X81800000Y-105600000D01*
D35*
X81355000Y-105155000D02*
X79137500Y-105155000D01*
D36*
X81800000Y-105600000D02*
X81355000Y-105155000D01*
%TO.N,Net-(R14-Pad2)*%
X85057500Y-105600000D02*
X87940000Y-105600000D01*
X87940000Y-105600000D02*
X89670000Y-103870000D01*
D35*
%TO.N,Net-(R15-Pad1)*%
X81092500Y-89915000D02*
X83407500Y-87600000D01*
X79137500Y-89915000D02*
X81092500Y-89915000D01*
%TO.N,Net-(R15-Pad2)*%
X86400000Y-87600000D02*
X88250000Y-85750000D01*
X88250000Y-85750000D02*
X91250000Y-85750000D01*
X85057500Y-87600000D02*
X86400000Y-87600000D01*
X92210000Y-86710000D02*
X92210000Y-88630000D01*
X91250000Y-85750000D02*
X92210000Y-86710000D01*
%TO.N,Net-(R16-Pad1)*%
X79137500Y-92455000D02*
X81552500Y-92455000D01*
X81552500Y-92455000D02*
X83407500Y-90600000D01*
%TO.N,Net-(R16-Pad2)*%
X89670000Y-88630000D02*
X87027500Y-88630000D01*
X87027500Y-88630000D02*
X85057500Y-90600000D01*
%TO.N,Net-(R17-Pad2)*%
X54705000Y-67455000D02*
X53435000Y-66185000D01*
X61775000Y-66185000D02*
X53435000Y-66185000D01*
X51505000Y-66185000D02*
X49000000Y-68690000D01*
X53435000Y-66185000D02*
X51505000Y-66185000D01*
X61775000Y-67455000D02*
X54705000Y-67455000D01*
%TO.N,Net-(R4-Pad1)*%
X121175000Y-112000000D02*
X122000000Y-112825000D01*
X118500000Y-112000000D02*
X121175000Y-112000000D01*
%TO.N,Net-(R6-Pad2)*%
X135425000Y-111750000D02*
X136250000Y-112575000D01*
X132750000Y-111750000D02*
X135425000Y-111750000D01*
%TO.N,Net-(JP1-Pad1)*%
X114000000Y-131925000D02*
X114475000Y-131450000D01*
X114475000Y-131450000D02*
X114475000Y-128500000D01*
%TO.N,Net-(JP2-Pad1)*%
X129000000Y-131425000D02*
X129000000Y-130250000D01*
X129475000Y-128000000D02*
X129475000Y-129775000D01*
X129475000Y-129775000D02*
X129000000Y-130250000D01*
%TO.N,Net-(JP3-Pad1)*%
X122000000Y-111175000D02*
X120250000Y-109425000D01*
X120250000Y-109425000D02*
X120250000Y-97750000D01*
%TO.N,Net-(JP4-Pad1)*%
X132750000Y-99250000D02*
X132750000Y-97750000D01*
X136250000Y-110925000D02*
X136250000Y-102750000D01*
X136250000Y-102750000D02*
X132750000Y-99250000D01*
%TO.N,Net-(R20-Pad2)*%
X78555000Y-122580000D02*
X78555000Y-126445000D01*
X78525000Y-122550000D02*
X78555000Y-122580000D01*
%TO.N,Net-(D2-Pad1)*%
X134250000Y-72750000D02*
X134250000Y-72000000D01*
X132025000Y-72750000D02*
X134250000Y-72750000D01*
X134325000Y-71925000D02*
X136225000Y-71925000D01*
X134250000Y-72000000D02*
X134325000Y-71925000D01*
%TO.N,Net-(D3-Pad1)*%
X124675000Y-82000000D02*
X121525000Y-82000000D01*
X125750000Y-80925000D02*
X124675000Y-82000000D01*
%TO.N,Net-(R21-Pad2)*%
X88700000Y-144225000D02*
X86175000Y-144225000D01*
%TO.N,Net-(JP5-Pad1)*%
X136000000Y-88250000D02*
X136000000Y-85750000D01*
X132750000Y-89500000D02*
X134750000Y-89500000D01*
X125750000Y-82575000D02*
X125750000Y-83500000D01*
X138000000Y-85000000D02*
X138000000Y-77800000D01*
X136000000Y-85750000D02*
X136250000Y-85750000D01*
X125750000Y-83500000D02*
X128000000Y-85750000D01*
X128000000Y-85750000D02*
X136000000Y-85750000D01*
X135250000Y-77000000D02*
X126500000Y-77000000D01*
X126500000Y-77000000D02*
X125750000Y-76250000D01*
X125750000Y-76250000D02*
X125750000Y-73575000D01*
X136250000Y-82800000D02*
X136250000Y-85750000D01*
X137250000Y-85750000D02*
X138000000Y-85000000D01*
X134750000Y-89500000D02*
X136000000Y-88250000D01*
X138000000Y-77800000D02*
X136225000Y-76025000D01*
X136225000Y-73575000D02*
X136225000Y-76025000D01*
X136250000Y-85750000D02*
X137250000Y-85750000D01*
X136225000Y-76025000D02*
X135250000Y-77000000D01*
%TO.N,Net-(J8-Pad1)*%
X44600000Y-148750000D02*
X59900000Y-148750000D01*
X65250000Y-139265000D02*
X61985000Y-139265000D01*
X59900000Y-141350000D02*
X59900000Y-148750000D01*
X61985000Y-139265000D02*
X59900000Y-141350000D01*
%TO.N,Net-(R20-Pad1)*%
X78525000Y-120900000D02*
X78485000Y-120860000D01*
X78485000Y-120860000D02*
X78485000Y-116975000D01*
%TO.N,Net-(R21-Pad1)*%
X94250000Y-145460000D02*
X91585000Y-145460000D01*
X91585000Y-145460000D02*
X90350000Y-144225000D01*
%TD*%
%TA.AperFunction,Conductor*%
%TO.N,GND*%
G36*
X77534140Y-133020002D02*
G01*
X77580633Y-133073658D01*
X77590737Y-133143932D01*
X77561243Y-133208512D01*
X77555114Y-133215095D01*
X77553084Y-133217125D01*
X77546028Y-133225533D01*
X77421069Y-133403993D01*
X77415586Y-133413489D01*
X77323510Y-133610947D01*
X77319764Y-133621239D01*
X77273606Y-133793503D01*
X77273942Y-133807599D01*
X77281884Y-133811000D01*
X79822967Y-133811000D01*
X79836498Y-133807027D01*
X79837727Y-133798478D01*
X79790236Y-133621239D01*
X79786490Y-133610947D01*
X79694414Y-133413489D01*
X79688931Y-133403993D01*
X79563972Y-133225533D01*
X79556916Y-133217125D01*
X79554886Y-133215095D01*
X79554278Y-133213981D01*
X79553389Y-133212922D01*
X79553602Y-133212743D01*
X79520860Y-133152783D01*
X79525925Y-133081968D01*
X79568472Y-133025132D01*
X79634992Y-133000321D01*
X79643981Y-133000000D01*
X85086019Y-133000000D01*
X85154140Y-133020002D01*
X85200633Y-133073658D01*
X85210737Y-133143932D01*
X85181243Y-133208512D01*
X85175114Y-133215095D01*
X85173084Y-133217125D01*
X85166028Y-133225533D01*
X85041069Y-133403993D01*
X85035586Y-133413489D01*
X84943510Y-133610947D01*
X84939764Y-133621239D01*
X84893606Y-133793503D01*
X84893942Y-133807599D01*
X84901884Y-133811000D01*
X87442967Y-133811000D01*
X87456498Y-133807027D01*
X87457727Y-133798478D01*
X87410236Y-133621239D01*
X87406490Y-133610947D01*
X87314414Y-133413489D01*
X87308931Y-133403993D01*
X87183972Y-133225533D01*
X87176916Y-133217125D01*
X87174886Y-133215095D01*
X87174278Y-133213981D01*
X87173389Y-133212922D01*
X87173602Y-133212743D01*
X87140860Y-133152783D01*
X87145925Y-133081968D01*
X87188472Y-133025132D01*
X87254992Y-133000321D01*
X87263981Y-133000000D01*
X88374000Y-133000000D01*
X88442121Y-133020002D01*
X88488614Y-133073658D01*
X88500000Y-133126000D01*
X88500000Y-137874000D01*
X88479998Y-137942121D01*
X88426342Y-137988614D01*
X88374000Y-138000000D01*
X86846754Y-138000000D01*
X86778633Y-137979998D01*
X86732140Y-137926342D01*
X86722036Y-137856068D01*
X86751530Y-137791488D01*
X86793504Y-137759805D01*
X86826511Y-137744414D01*
X86836007Y-137738931D01*
X87014467Y-137613972D01*
X87022875Y-137606916D01*
X87176916Y-137452875D01*
X87183972Y-137444467D01*
X87308931Y-137266007D01*
X87314414Y-137256511D01*
X87406490Y-137059053D01*
X87410236Y-137048761D01*
X87456394Y-136876497D01*
X87456058Y-136862401D01*
X87448116Y-136859000D01*
X84907033Y-136859000D01*
X84893502Y-136862973D01*
X84892273Y-136871522D01*
X84939764Y-137048761D01*
X84943510Y-137059053D01*
X85035586Y-137256511D01*
X85041069Y-137266007D01*
X85166028Y-137444467D01*
X85173084Y-137452875D01*
X85327125Y-137606916D01*
X85335533Y-137613972D01*
X85513993Y-137738931D01*
X85523489Y-137744414D01*
X85556496Y-137759805D01*
X85609781Y-137806723D01*
X85629242Y-137875000D01*
X85608700Y-137942960D01*
X85554677Y-137989025D01*
X85503246Y-138000000D01*
X79226754Y-138000000D01*
X79158633Y-137979998D01*
X79112140Y-137926342D01*
X79102036Y-137856068D01*
X79131530Y-137791488D01*
X79173504Y-137759805D01*
X79206511Y-137744414D01*
X79216007Y-137738931D01*
X79394467Y-137613972D01*
X79402875Y-137606916D01*
X79556916Y-137452875D01*
X79563972Y-137444467D01*
X79688931Y-137266007D01*
X79694414Y-137256511D01*
X79786490Y-137059053D01*
X79790236Y-137048761D01*
X79836394Y-136876497D01*
X79836058Y-136862401D01*
X79828116Y-136859000D01*
X77287033Y-136859000D01*
X77273502Y-136862973D01*
X77272273Y-136871522D01*
X77319764Y-137048761D01*
X77323510Y-137059053D01*
X77415586Y-137256511D01*
X77421069Y-137266007D01*
X77546028Y-137444467D01*
X77553084Y-137452875D01*
X77707125Y-137606916D01*
X77715533Y-137613972D01*
X77893993Y-137738931D01*
X77903489Y-137744414D01*
X77936496Y-137759805D01*
X77989781Y-137806723D01*
X78009242Y-137875000D01*
X77988700Y-137942960D01*
X77934677Y-137989025D01*
X77883246Y-138000000D01*
X76376000Y-138000000D01*
X76307879Y-137979998D01*
X76261386Y-137926342D01*
X76250000Y-137874000D01*
X76250000Y-134331522D01*
X77272273Y-134331522D01*
X77319764Y-134508761D01*
X77323510Y-134519053D01*
X77415586Y-134716511D01*
X77421069Y-134726007D01*
X77546028Y-134904467D01*
X77553084Y-134912875D01*
X77707125Y-135066916D01*
X77715533Y-135073972D01*
X77893993Y-135198931D01*
X77903489Y-135204414D01*
X77938641Y-135220805D01*
X77991926Y-135267722D01*
X78011387Y-135335999D01*
X77990845Y-135403959D01*
X77938641Y-135449195D01*
X77903489Y-135465586D01*
X77893993Y-135471069D01*
X77715533Y-135596028D01*
X77707125Y-135603084D01*
X77553084Y-135757125D01*
X77546028Y-135765533D01*
X77421069Y-135943993D01*
X77415586Y-135953489D01*
X77323510Y-136150947D01*
X77319764Y-136161239D01*
X77273606Y-136333503D01*
X77273942Y-136347599D01*
X77281884Y-136351000D01*
X78282885Y-136351000D01*
X78298124Y-136346525D01*
X78299329Y-136345135D01*
X78301000Y-136337452D01*
X78301000Y-136332885D01*
X78809000Y-136332885D01*
X78813475Y-136348124D01*
X78814865Y-136349329D01*
X78822548Y-136351000D01*
X79822967Y-136351000D01*
X79836498Y-136347027D01*
X79837727Y-136338478D01*
X79790236Y-136161239D01*
X79786490Y-136150947D01*
X79694414Y-135953489D01*
X79688931Y-135943993D01*
X79563972Y-135765533D01*
X79556916Y-135757125D01*
X79402875Y-135603084D01*
X79394467Y-135596028D01*
X79216007Y-135471069D01*
X79206511Y-135465586D01*
X79171359Y-135449195D01*
X79118074Y-135402278D01*
X79098613Y-135334001D01*
X79119155Y-135266041D01*
X79171359Y-135220805D01*
X79206511Y-135204414D01*
X79216007Y-135198931D01*
X79394467Y-135073972D01*
X79402875Y-135066916D01*
X79556916Y-134912875D01*
X79563972Y-134904467D01*
X79688931Y-134726007D01*
X79694414Y-134716511D01*
X79786490Y-134519053D01*
X79790236Y-134508761D01*
X79836394Y-134336497D01*
X79836275Y-134331522D01*
X84892273Y-134331522D01*
X84939764Y-134508761D01*
X84943510Y-134519053D01*
X85035586Y-134716511D01*
X85041069Y-134726007D01*
X85166028Y-134904467D01*
X85173084Y-134912875D01*
X85327125Y-135066916D01*
X85335533Y-135073972D01*
X85513993Y-135198931D01*
X85523489Y-135204414D01*
X85558641Y-135220805D01*
X85611926Y-135267722D01*
X85631387Y-135335999D01*
X85610845Y-135403959D01*
X85558641Y-135449195D01*
X85523489Y-135465586D01*
X85513993Y-135471069D01*
X85335533Y-135596028D01*
X85327125Y-135603084D01*
X85173084Y-135757125D01*
X85166028Y-135765533D01*
X85041069Y-135943993D01*
X85035586Y-135953489D01*
X84943510Y-136150947D01*
X84939764Y-136161239D01*
X84893606Y-136333503D01*
X84893942Y-136347599D01*
X84901884Y-136351000D01*
X85902885Y-136351000D01*
X85918124Y-136346525D01*
X85919329Y-136345135D01*
X85921000Y-136337452D01*
X85921000Y-136332885D01*
X86429000Y-136332885D01*
X86433475Y-136348124D01*
X86434865Y-136349329D01*
X86442548Y-136351000D01*
X87442967Y-136351000D01*
X87456498Y-136347027D01*
X87457727Y-136338478D01*
X87410236Y-136161239D01*
X87406490Y-136150947D01*
X87314414Y-135953489D01*
X87308931Y-135943993D01*
X87183972Y-135765533D01*
X87176916Y-135757125D01*
X87022875Y-135603084D01*
X87014467Y-135596028D01*
X86836007Y-135471069D01*
X86826511Y-135465586D01*
X86791359Y-135449195D01*
X86738074Y-135402278D01*
X86718613Y-135334001D01*
X86739155Y-135266041D01*
X86791359Y-135220805D01*
X86826511Y-135204414D01*
X86836007Y-135198931D01*
X87014467Y-135073972D01*
X87022875Y-135066916D01*
X87176916Y-134912875D01*
X87183972Y-134904467D01*
X87308931Y-134726007D01*
X87314414Y-134716511D01*
X87406490Y-134519053D01*
X87410236Y-134508761D01*
X87456394Y-134336497D01*
X87456058Y-134322401D01*
X87448116Y-134319000D01*
X86447115Y-134319000D01*
X86431876Y-134323475D01*
X86430671Y-134324865D01*
X86429000Y-134332548D01*
X86429000Y-136332885D01*
X85921000Y-136332885D01*
X85921000Y-134337115D01*
X85916525Y-134321876D01*
X85915135Y-134320671D01*
X85907452Y-134319000D01*
X84907033Y-134319000D01*
X84893502Y-134322973D01*
X84892273Y-134331522D01*
X79836275Y-134331522D01*
X79836058Y-134322401D01*
X79828116Y-134319000D01*
X78827115Y-134319000D01*
X78811876Y-134323475D01*
X78810671Y-134324865D01*
X78809000Y-134332548D01*
X78809000Y-136332885D01*
X78301000Y-136332885D01*
X78301000Y-134337115D01*
X78296525Y-134321876D01*
X78295135Y-134320671D01*
X78287452Y-134319000D01*
X77287033Y-134319000D01*
X77273502Y-134322973D01*
X77272273Y-134331522D01*
X76250000Y-134331522D01*
X76250000Y-133126000D01*
X76270002Y-133057879D01*
X76323658Y-133011386D01*
X76376000Y-133000000D01*
X77466019Y-133000000D01*
X77534140Y-133020002D01*
G37*
%TD.AperFunction*%
%TD*%
M02*
