%TF.GenerationSoftware,KiCad,Pcbnew,(6.0.6)*%
%TF.CreationDate,2022-09-15T12:52:00+02:00*%
%TF.ProjectId,myDAQExpansionBoard,6d794441-5145-4787-9061-6e73696f6e42,rev?*%
%TF.SameCoordinates,Original*%
%TF.FileFunction,Copper,L1,Top*%
%TF.FilePolarity,Positive*%
%FSLAX46Y46*%
G04 Gerber Fmt 4.6, Leading zero omitted, Abs format (unit mm)*
G04 Created by KiCad (PCBNEW (6.0.6)) date 2022-09-15 12:52:00*
%MOMM*%
%LPD*%
G01*
G04 APERTURE LIST*
G04 Aperture macros list*
%AMRoundRect*
0 Rectangle with rounded corners*
0 $1 Rounding radius*
0 $2 $3 $4 $5 $6 $7 $8 $9 X,Y pos of 4 corners*
0 Add a 4 corners polygon primitive as box body*
4,1,4,$2,$3,$4,$5,$6,$7,$8,$9,$2,$3,0*
0 Add four circle primitives for the rounded corners*
1,1,$1+$1,$2,$3*
1,1,$1+$1,$4,$5*
1,1,$1+$1,$6,$7*
1,1,$1+$1,$8,$9*
0 Add four rect primitives between the rounded corners*
20,1,$1+$1,$2,$3,$4,$5,0*
20,1,$1+$1,$4,$5,$6,$7,0*
20,1,$1+$1,$6,$7,$8,$9,0*
20,1,$1+$1,$8,$9,$2,$3,0*%
G04 Aperture macros list end*
%TA.AperFunction,ComponentPad*%
%ADD10R,1.800000X1.800000*%
%TD*%
%TA.AperFunction,ComponentPad*%
%ADD11C,1.800000*%
%TD*%
%TA.AperFunction,SMDPad,CuDef*%
%ADD12RoundRect,0.200000X-0.275000X0.200000X-0.275000X-0.200000X0.275000X-0.200000X0.275000X0.200000X0*%
%TD*%
%TA.AperFunction,SMDPad,CuDef*%
%ADD13RoundRect,0.200000X-0.200000X-0.275000X0.200000X-0.275000X0.200000X0.275000X-0.200000X0.275000X0*%
%TD*%
%TA.AperFunction,ComponentPad*%
%ADD14C,1.600000*%
%TD*%
%TA.AperFunction,ComponentPad*%
%ADD15C,5.700000*%
%TD*%
%TA.AperFunction,ComponentPad*%
%ADD16R,1.700000X1.700000*%
%TD*%
%TA.AperFunction,ComponentPad*%
%ADD17O,1.700000X1.700000*%
%TD*%
%TA.AperFunction,SMDPad,CuDef*%
%ADD18RoundRect,0.250000X-0.250000X-0.475000X0.250000X-0.475000X0.250000X0.475000X-0.250000X0.475000X0*%
%TD*%
%TA.AperFunction,SMDPad,CuDef*%
%ADD19RoundRect,0.225000X-0.225000X-0.250000X0.225000X-0.250000X0.225000X0.250000X-0.225000X0.250000X0*%
%TD*%
%TA.AperFunction,SMDPad,CuDef*%
%ADD20RoundRect,0.200000X0.275000X-0.200000X0.275000X0.200000X-0.275000X0.200000X-0.275000X-0.200000X0*%
%TD*%
%TA.AperFunction,SMDPad,CuDef*%
%ADD21RoundRect,0.225000X0.250000X-0.225000X0.250000X0.225000X-0.250000X0.225000X-0.250000X-0.225000X0*%
%TD*%
%TA.AperFunction,ComponentPad*%
%ADD22C,2.000000*%
%TD*%
%TA.AperFunction,ComponentPad*%
%ADD23C,1.700000*%
%TD*%
%TA.AperFunction,ComponentPad*%
%ADD24O,3.000000X5.000000*%
%TD*%
%TA.AperFunction,ComponentPad*%
%ADD25O,2.000000X3.000000*%
%TD*%
%TA.AperFunction,ComponentPad*%
%ADD26C,2.300000*%
%TD*%
%TA.AperFunction,ComponentPad*%
%ADD27O,1.800000X1.800000*%
%TD*%
%TA.AperFunction,ComponentPad*%
%ADD28C,2.500000*%
%TD*%
%TA.AperFunction,ComponentPad*%
%ADD29R,1.600000X1.600000*%
%TD*%
%TA.AperFunction,ComponentPad*%
%ADD30O,1.600000X1.600000*%
%TD*%
%TA.AperFunction,ComponentPad*%
%ADD31R,2.600000X2.600000*%
%TD*%
%TA.AperFunction,ComponentPad*%
%ADD32C,2.600000*%
%TD*%
%TA.AperFunction,ComponentPad*%
%ADD33C,5.000000*%
%TD*%
%TA.AperFunction,ComponentPad*%
%ADD34C,1.500000*%
%TD*%
%TA.AperFunction,ComponentPad*%
%ADD35O,2.500000X3.000000*%
%TD*%
%TA.AperFunction,SMDPad,CuDef*%
%ADD36RoundRect,0.250000X-0.625000X0.375000X-0.625000X-0.375000X0.625000X-0.375000X0.625000X0.375000X0*%
%TD*%
%TA.AperFunction,SMDPad,CuDef*%
%ADD37RoundRect,0.150000X-0.825000X-0.150000X0.825000X-0.150000X0.825000X0.150000X-0.825000X0.150000X0*%
%TD*%
%TA.AperFunction,ViaPad*%
%ADD38C,0.800000*%
%TD*%
%TA.AperFunction,Conductor*%
%ADD39C,0.508000*%
%TD*%
%TA.AperFunction,Conductor*%
%ADD40C,1.270000*%
%TD*%
%TA.AperFunction,Conductor*%
%ADD41C,0.762000*%
%TD*%
%TA.AperFunction,Conductor*%
%ADD42C,0.355600*%
%TD*%
%TA.AperFunction,Conductor*%
%ADD43C,0.254000*%
%TD*%
%TA.AperFunction,Conductor*%
%ADD44C,0.304800*%
%TD*%
G04 APERTURE END LIST*
D10*
%TO.P,D2,1,K*%
%TO.N,Net-(D1-Pad1)*%
X114737500Y-101512500D03*
D11*
%TO.P,D2,2,A*%
%TO.N,Net-(D2-Pad2)*%
X114737500Y-98972500D03*
%TD*%
D12*
%TO.P,R20,1*%
%TO.N,Net-(D14-Pad1)*%
X167000000Y-43675000D03*
%TO.P,R20,2*%
%TO.N,GND*%
X167000000Y-45325000D03*
%TD*%
D13*
%TO.P,R3,1*%
%TO.N,+5V*%
X107025000Y-109750000D03*
%TO.P,R3,2*%
%TO.N,Net-(CD1-Pad1)*%
X108675000Y-109750000D03*
%TD*%
D14*
%TO.P,C5,1*%
%TO.N,/IP-*%
X86500000Y-65545000D03*
%TO.P,C5,2*%
%TO.N,GND*%
X91500000Y-65545000D03*
%TD*%
D12*
%TO.P,R18,1*%
%TO.N,Net-(JP8-Pad3)*%
X112500000Y-50675000D03*
%TO.P,R18,2*%
%TO.N,GND*%
X112500000Y-52325000D03*
%TD*%
D13*
%TO.P,R8,1*%
%TO.N,Net-(R8-Pad1)*%
X121675000Y-69750000D03*
%TO.P,R8,2*%
%TO.N,Net-(R8-Pad2)*%
X123325000Y-69750000D03*
%TD*%
%TO.P,R11,1*%
%TO.N,Net-(R11-Pad1)*%
X121675000Y-76250000D03*
%TO.P,R11,2*%
%TO.N,Net-(R11-Pad2)*%
X123325000Y-76250000D03*
%TD*%
D15*
%TO.P,H1,1,1*%
%TO.N,unconnected-(H1-Pad1)*%
X72750000Y-37250000D03*
%TD*%
D16*
%TO.P,JP10,1,A*%
%TO.N,+5V*%
X97525000Y-90500000D03*
D17*
%TO.P,JP10,2,B*%
%TO.N,Net-(JP10-Pad2)*%
X94985000Y-90500000D03*
%TD*%
D13*
%TO.P,R10,1*%
%TO.N,Net-(R10-Pad1)*%
X121675000Y-73000000D03*
%TO.P,R10,2*%
%TO.N,Net-(R10-Pad2)*%
X123325000Y-73000000D03*
%TD*%
D18*
%TO.P,CD1,1*%
%TO.N,Net-(CD1-Pad1)*%
X110500000Y-109750000D03*
%TO.P,CD1,2*%
%TO.N,GND*%
X112400000Y-109750000D03*
%TD*%
D19*
%TO.P,C3,1*%
%TO.N,+5V*%
X88750000Y-55250000D03*
%TO.P,C3,2*%
%TO.N,GND*%
X90300000Y-55250000D03*
%TD*%
D20*
%TO.P,R2,1*%
%TO.N,Net-(R2-Pad1)*%
X156750000Y-73325000D03*
%TO.P,R2,2*%
%TO.N,Net-(JP1-Pad1)*%
X156750000Y-71675000D03*
%TD*%
D12*
%TO.P,R6,1*%
%TO.N,Net-(JP4-Pad1)*%
X161750000Y-71675000D03*
%TO.P,R6,2*%
%TO.N,Net-(R6-Pad2)*%
X161750000Y-73325000D03*
%TD*%
D21*
%TO.P,C2,1*%
%TO.N,+5V*%
X70750000Y-85025000D03*
%TO.P,C2,2*%
%TO.N,GND*%
X70750000Y-83475000D03*
%TD*%
D22*
%TO.P,U2,1,E*%
%TO.N,Net-(R14-Pad2)*%
X127380000Y-80620000D03*
%TO.P,U2,2,D*%
%TO.N,Net-(R13-Pad2)*%
X129920000Y-80620000D03*
%TO.P,U2,3,CA/CC*%
%TO.N,Net-(JP6-Pad2)*%
X132460000Y-80620000D03*
%TO.P,U2,4,C*%
%TO.N,Net-(R11-Pad2)*%
X135000000Y-80620000D03*
%TO.P,U2,5,DP*%
%TO.N,unconnected-(U2-Pad5)*%
X137540000Y-80620000D03*
%TO.P,U2,6,B*%
%TO.N,Net-(R10-Pad2)*%
X137540000Y-65380000D03*
%TO.P,U2,7,A*%
%TO.N,Net-(R8-Pad2)*%
X135000000Y-65380000D03*
%TO.P,U2,8,CA/CC*%
%TO.N,unconnected-(U2-Pad8)*%
X132460000Y-65380000D03*
%TO.P,U2,9,F*%
%TO.N,Net-(R15-Pad2)*%
X129920000Y-65380000D03*
%TO.P,U2,10,G*%
%TO.N,Net-(R16-Pad2)*%
X127380000Y-65380000D03*
%TD*%
D15*
%TO.P,H4,1,1*%
%TO.N,unconnected-(H4-Pad1)*%
X72750000Y-130250000D03*
%TD*%
D12*
%TO.P,R12,1*%
%TO.N,+5V*%
X105960000Y-65175000D03*
%TO.P,R12,2*%
%TO.N,Net-(R12-Pad2)*%
X105960000Y-66825000D03*
%TD*%
D23*
%TO.P,JP8,1,A*%
%TO.N,Net-(JP8-Pad1)*%
X111000000Y-44750000D03*
D17*
%TO.P,JP8,2,C*%
%TO.N,AI1+*%
X113540000Y-44750000D03*
%TO.P,JP8,3,B*%
%TO.N,Net-(JP8-Pad3)*%
X116080000Y-44750000D03*
%TD*%
D24*
%TO.P,RV1,*%
%TO.N,*%
X155360500Y-100237500D03*
X145760500Y-100237500D03*
D25*
%TO.P,RV1,1,1*%
%TO.N,GND*%
X153060500Y-93237500D03*
%TO.P,RV1,2,2*%
%TO.N,Net-(JP8-Pad1)*%
X150560500Y-93237500D03*
%TO.P,RV1,3,3*%
%TO.N,+5V*%
X148060500Y-93237500D03*
%TD*%
D16*
%TO.P,JP5,1,A*%
%TO.N,Net-(D1-Pad1)*%
X96250000Y-101525000D03*
D17*
%TO.P,JP5,2,B*%
%TO.N,GND*%
X96250000Y-98985000D03*
%TD*%
D16*
%TO.P,JP4,1,A*%
%TO.N,Net-(JP4-Pad1)*%
X161750000Y-65000000D03*
D17*
%TO.P,JP4,2,B*%
%TO.N,DIO7*%
X161750000Y-62460000D03*
%TD*%
D16*
%TO.P,JP9,1,A*%
%TO.N,+5V*%
X97525000Y-81205000D03*
D17*
%TO.P,JP9,2,B*%
%TO.N,Net-(JP9-Pad2)*%
X94985000Y-81205000D03*
%TD*%
D16*
%TO.P,J3,1,Pin_1*%
%TO.N,DIO7*%
X143375000Y-44750000D03*
D17*
%TO.P,J3,2,Pin_2*%
%TO.N,DIO6*%
X140835000Y-44750000D03*
%TO.P,J3,3,Pin_3*%
%TO.N,DIO5*%
X138295000Y-44750000D03*
%TO.P,J3,4,Pin_4*%
%TO.N,DIO4*%
X135755000Y-44750000D03*
%TO.P,J3,5,Pin_5*%
%TO.N,DIO3*%
X133215000Y-44750000D03*
%TO.P,J3,6,Pin_6*%
%TO.N,DIO2*%
X130675000Y-44750000D03*
%TO.P,J3,7,Pin_7*%
%TO.N,DIO1*%
X128135000Y-44750000D03*
%TO.P,J3,8,Pin_8*%
%TO.N,DIO0*%
X125595000Y-44750000D03*
%TD*%
D16*
%TO.P,J2,1,Pin_1*%
%TO.N,GND*%
X151675000Y-54500000D03*
D17*
%TO.P,J2,2,Pin_2*%
X154215000Y-54500000D03*
%TO.P,J2,3,Pin_3*%
X156755000Y-54500000D03*
%TO.P,J2,4,Pin_4*%
X159295000Y-54500000D03*
%TO.P,J2,5,Pin_5*%
X161835000Y-54500000D03*
%TD*%
D21*
%TO.P,C4,1*%
%TO.N,/IP-*%
X82250000Y-78675000D03*
%TO.P,C4,2*%
%TO.N,GND*%
X82250000Y-77125000D03*
%TD*%
D12*
%TO.P,R7,1*%
%TO.N,DIO2*%
X123737500Y-93662500D03*
%TO.P,R7,2*%
%TO.N,Net-(D3-Pad2)*%
X123737500Y-95312500D03*
%TD*%
D26*
%TO.P,J4,1,Pin_1*%
%TO.N,unconnected-(J4-Pad1)*%
X83055000Y-36800000D03*
X83055000Y-39340000D03*
%TO.P,J4,2,Pin_2*%
%TO.N,unconnected-(J4-Pad2)*%
X86865000Y-36760000D03*
X86865000Y-39300000D03*
%TO.P,J4,3,Pin_3*%
%TO.N,GND*%
X90675000Y-39340000D03*
X90675000Y-36800000D03*
%TO.P,J4,4,Pin_4*%
%TO.N,AO0*%
X94485000Y-36760000D03*
X94485000Y-39300000D03*
%TO.P,J4,5,Pin_5*%
%TO.N,unconnected-(J4-Pad5)*%
X98295000Y-36840000D03*
X98295000Y-39380000D03*
%TO.P,J4,6,Pin_6*%
%TO.N,GND*%
X102105000Y-36800000D03*
X102105000Y-39340000D03*
%TO.P,J4,7,Pin_7*%
%TO.N,AI0+*%
X105915000Y-39380000D03*
X105915000Y-36840000D03*
%TO.P,J4,8,Pin_8*%
%TO.N,GND*%
X109725000Y-36800000D03*
X109725000Y-39340000D03*
%TO.P,J4,9,Pin_9*%
%TO.N,AI1+*%
X113535000Y-36800000D03*
X113535000Y-39340000D03*
%TO.P,J4,10,Pin_10*%
%TO.N,GND*%
X117345000Y-36840000D03*
X117345000Y-39380000D03*
%TO.P,J4,11,Pin_11*%
%TO.N,DIO0*%
X121155000Y-36800000D03*
X121155000Y-39340000D03*
%TO.P,J4,12,Pin_12*%
%TO.N,DIO1*%
X124965000Y-39420000D03*
X124965000Y-36880000D03*
%TO.P,J4,13,Pin_13*%
%TO.N,DIO2*%
X128775000Y-36840000D03*
X128775000Y-39380000D03*
%TO.P,J4,14,Pin_14*%
%TO.N,DIO3*%
X132585000Y-39420000D03*
X132585000Y-36880000D03*
%TO.P,J4,15,Pin_15*%
%TO.N,DIO4*%
X136395000Y-39380000D03*
X136395000Y-36840000D03*
%TO.P,J4,16,Pin_16*%
%TO.N,DIO5*%
X140205000Y-39340000D03*
X140205000Y-36800000D03*
%TO.P,J4,17,Pin_17*%
%TO.N,DIO6*%
X144015000Y-36880000D03*
X144015000Y-39420000D03*
%TO.P,J4,18,Pin_18*%
%TO.N,DIO7*%
X147825000Y-39380000D03*
X147825000Y-36840000D03*
%TO.P,J4,19,Pin_19*%
%TO.N,GND*%
X151635000Y-36880000D03*
X151635000Y-39420000D03*
%TO.P,J4,20,Pin_20*%
%TO.N,+5V*%
X155445000Y-39380000D03*
X155445000Y-36840000D03*
%TD*%
D10*
%TO.P,U4,1,SENSE_A*%
%TO.N,GND*%
X73440000Y-74855000D03*
D27*
%TO.P,U4,2,OUT1*%
%TO.N,/OUT1*%
X78520000Y-76125000D03*
%TO.P,U4,3,OUT2*%
%TO.N,/OUT2*%
X73440000Y-77395000D03*
%TO.P,U4,4,Vs*%
%TO.N,/IP-*%
X78520000Y-78665000D03*
%TO.P,U4,5,IN1*%
%TO.N,DIO0*%
X73440000Y-79935000D03*
%TO.P,U4,6,EnA*%
%TO.N,Net-(JP9-Pad2)*%
X78520000Y-81205000D03*
%TO.P,U4,7,IN2*%
%TO.N,DIO1*%
X73440000Y-82475000D03*
%TO.P,U4,8,GND*%
%TO.N,GND*%
X78520000Y-83745000D03*
D28*
X85190000Y-92755000D03*
X85190000Y-74955000D03*
D27*
%TO.P,U4,9,Vss*%
%TO.N,+5V*%
X73440000Y-85015000D03*
%TO.P,U4,10,IN3*%
%TO.N,DIO2*%
X78520000Y-86285000D03*
%TO.P,U4,11,EnB*%
%TO.N,Net-(JP10-Pad2)*%
X73440000Y-87555000D03*
%TO.P,U4,12,IN4*%
%TO.N,DIO3*%
X78520000Y-88825000D03*
%TO.P,U4,13,OUT3*%
%TO.N,/OUT3*%
X73440000Y-90095000D03*
%TO.P,U4,14,OUT4*%
%TO.N,/OUT4*%
X78520000Y-91365000D03*
%TO.P,U4,15,SENSE_B*%
%TO.N,GND*%
X73440000Y-92635000D03*
%TD*%
D23*
%TO.P,JP7,1,A*%
%TO.N,Net-(JP7-Pad1)*%
X105275000Y-44750000D03*
D17*
%TO.P,JP7,2,C*%
%TO.N,AI0+*%
X102735000Y-44750000D03*
%TO.P,JP7,3,B*%
%TO.N,AO0*%
X100195000Y-44750000D03*
%TD*%
D12*
%TO.P,R5,1*%
%TO.N,DIO1*%
X114737500Y-93662500D03*
%TO.P,R5,2*%
%TO.N,Net-(D2-Pad2)*%
X114737500Y-95312500D03*
%TD*%
D10*
%TO.P,D3,1,K*%
%TO.N,Net-(D1-Pad1)*%
X123737500Y-101512500D03*
D11*
%TO.P,D3,2,A*%
%TO.N,Net-(D3-Pad2)*%
X123737500Y-98972500D03*
%TD*%
D29*
%TO.P,U1,1,B*%
%TO.N,DIO1*%
X110160000Y-64125000D03*
D30*
%TO.P,U1,2,C*%
%TO.N,DIO2*%
X110160000Y-66665000D03*
%TO.P,U1,3,LT*%
%TO.N,Net-(R12-Pad2)*%
X110160000Y-69205000D03*
%TO.P,U1,4,BI*%
X110160000Y-71745000D03*
%TO.P,U1,5,RBI*%
X110160000Y-74285000D03*
%TO.P,U1,6,D*%
%TO.N,DIO3*%
X110160000Y-76825000D03*
%TO.P,U1,7,A*%
%TO.N,DIO0*%
X110160000Y-79365000D03*
%TO.P,U1,8,GND*%
%TO.N,GND*%
X110160000Y-81905000D03*
%TO.P,U1,9,e*%
%TO.N,Net-(R14-Pad1)*%
X117780000Y-81905000D03*
%TO.P,U1,10,d*%
%TO.N,Net-(R13-Pad1)*%
X117780000Y-79365000D03*
%TO.P,U1,11,c*%
%TO.N,Net-(R11-Pad1)*%
X117780000Y-76825000D03*
%TO.P,U1,12,b*%
%TO.N,Net-(R10-Pad1)*%
X117780000Y-74285000D03*
%TO.P,U1,13,a*%
%TO.N,Net-(R8-Pad1)*%
X117780000Y-71745000D03*
%TO.P,U1,14,g*%
%TO.N,Net-(R16-Pad1)*%
X117780000Y-69205000D03*
%TO.P,U1,15,f*%
%TO.N,Net-(R15-Pad1)*%
X117780000Y-66665000D03*
%TO.P,U1,16,VCC*%
%TO.N,+5V*%
X117780000Y-64125000D03*
%TD*%
D31*
%TO.P,J6,1,Pin_1*%
%TO.N,/OUT3*%
X77000000Y-99250000D03*
D32*
%TO.P,J6,2,Pin_2*%
%TO.N,/OUT4*%
X77000000Y-104330000D03*
%TD*%
D19*
%TO.P,C6,1*%
%TO.N,Net-(C6-Pad1)*%
X88750000Y-58000000D03*
%TO.P,C6,2*%
%TO.N,GND*%
X90300000Y-58000000D03*
%TD*%
D12*
%TO.P,R9,1*%
%TO.N,DIO3*%
X132737500Y-93662500D03*
%TO.P,R9,2*%
%TO.N,Net-(D4-Pad2)*%
X132737500Y-95312500D03*
%TD*%
D18*
%TO.P,CD2,1*%
%TO.N,Net-(CD2-Pad1)*%
X128550000Y-110000000D03*
%TO.P,CD2,2*%
%TO.N,GND*%
X130450000Y-110000000D03*
%TD*%
D12*
%TO.P,R1,1*%
%TO.N,DIO0*%
X105737500Y-93662500D03*
%TO.P,R1,2*%
%TO.N,Net-(D1-Pad2)*%
X105737500Y-95312500D03*
%TD*%
D16*
%TO.P,JP1,1,A*%
%TO.N,Net-(JP1-Pad1)*%
X156750000Y-65025000D03*
D17*
%TO.P,JP1,2,B*%
%TO.N,DIO6*%
X156750000Y-62485000D03*
%TD*%
D33*
%TO.P,J8,1,Pin_1*%
%TO.N,GND*%
X72850000Y-120250000D03*
X88150000Y-120250000D03*
%TD*%
D34*
%TO.P,R17,1*%
%TO.N,+5V*%
X119550000Y-51750000D03*
%TO.P,R17,2*%
%TO.N,Net-(JP8-Pad3)*%
X122950000Y-51750000D03*
%TD*%
D35*
%TO.P,SW4,1,1*%
%TO.N,Net-(CD2-Pad1)*%
X130000000Y-115500000D03*
X130000000Y-128000000D03*
%TO.P,SW4,2,2*%
%TO.N,GND*%
X125000000Y-128000000D03*
X125000000Y-115500000D03*
%TD*%
D10*
%TO.P,D1,1,K*%
%TO.N,Net-(D1-Pad1)*%
X105737500Y-101512500D03*
D11*
%TO.P,D1,2,A*%
%TO.N,Net-(D1-Pad2)*%
X105737500Y-98972500D03*
%TD*%
D13*
%TO.P,R15,1*%
%TO.N,Net-(R15-Pad1)*%
X121675000Y-63250000D03*
%TO.P,R15,2*%
%TO.N,Net-(R15-Pad2)*%
X123325000Y-63250000D03*
%TD*%
D23*
%TO.P,JP6,1,A*%
%TO.N,+5V*%
X135010000Y-85750000D03*
D17*
%TO.P,JP6,2,C*%
%TO.N,Net-(JP6-Pad2)*%
X132470000Y-85750000D03*
%TO.P,JP6,3,B*%
%TO.N,GND*%
X129930000Y-85750000D03*
%TD*%
D13*
%TO.P,R13,1*%
%TO.N,Net-(R13-Pad1)*%
X121675000Y-79500000D03*
%TO.P,R13,2*%
%TO.N,Net-(R13-Pad2)*%
X123325000Y-79500000D03*
%TD*%
D15*
%TO.P,H3,1,1*%
%TO.N,unconnected-(H3-Pad1)*%
X165750000Y-130250000D03*
%TD*%
D11*
%TO.P,SW1,1,A*%
%TO.N,+5V*%
X144250000Y-124290000D03*
%TO.P,SW1,2,B*%
%TO.N,Net-(R2-Pad1)*%
X144250000Y-121750000D03*
%TO.P,SW1,3,C*%
%TO.N,GND*%
X144250000Y-119210000D03*
%TD*%
D33*
%TO.P,J7,1,Pin_1*%
%TO.N,VDD*%
X88150000Y-47250000D03*
X72850000Y-47250000D03*
%TD*%
D11*
%TO.P,SW2,1,A*%
%TO.N,+5V*%
X157250000Y-124290000D03*
%TO.P,SW2,2,B*%
%TO.N,Net-(R6-Pad2)*%
X157250000Y-121750000D03*
%TO.P,SW2,3,C*%
%TO.N,GND*%
X157250000Y-119210000D03*
%TD*%
D16*
%TO.P,JP2,1,A*%
%TO.N,Net-(CD1-Pad1)*%
X146750000Y-65025000D03*
D17*
%TO.P,JP2,2,B*%
%TO.N,DIO4*%
X146750000Y-62485000D03*
%TD*%
D36*
%TO.P,D14,1,K*%
%TO.N,Net-(D14-Pad1)*%
X163150000Y-43050000D03*
%TO.P,D14,2,A*%
%TO.N,+5V*%
X163150000Y-45850000D03*
%TD*%
D16*
%TO.P,JP3,1,A*%
%TO.N,Net-(CD2-Pad1)*%
X151750000Y-65025000D03*
D17*
%TO.P,JP3,2,B*%
%TO.N,DIO5*%
X151750000Y-62485000D03*
%TD*%
D35*
%TO.P,SW3,1,1*%
%TO.N,Net-(CD1-Pad1)*%
X112250000Y-128000000D03*
X112250000Y-115500000D03*
%TO.P,SW3,2,2*%
%TO.N,GND*%
X107250000Y-128000000D03*
X107250000Y-115500000D03*
%TD*%
D13*
%TO.P,R4,1*%
%TO.N,+5V*%
X125175000Y-110000000D03*
%TO.P,R4,2*%
%TO.N,Net-(CD2-Pad1)*%
X126825000Y-110000000D03*
%TD*%
D10*
%TO.P,D4,1,K*%
%TO.N,Net-(D1-Pad1)*%
X132737500Y-101512500D03*
D11*
%TO.P,D4,2,A*%
%TO.N,Net-(D4-Pad2)*%
X132737500Y-98972500D03*
%TD*%
D31*
%TO.P,J5,1,Pin_1*%
%TO.N,/OUT1*%
X77000000Y-63000000D03*
D32*
%TO.P,J5,2,Pin_2*%
%TO.N,/OUT2*%
X77000000Y-68080000D03*
%TD*%
D19*
%TO.P,C1,1*%
%TO.N,+5V*%
X117780000Y-61500000D03*
%TO.P,C1,2*%
%TO.N,GND*%
X119330000Y-61500000D03*
%TD*%
D16*
%TO.P,J1,1,Pin_1*%
%TO.N,+5V*%
X151675000Y-49750000D03*
D17*
%TO.P,J1,2,Pin_2*%
X154215000Y-49750000D03*
%TO.P,J1,3,Pin_3*%
X156755000Y-49750000D03*
%TO.P,J1,4,Pin_4*%
X159295000Y-49750000D03*
%TO.P,J1,5,Pin_5*%
X161835000Y-49750000D03*
%TD*%
D15*
%TO.P,H2,1,1*%
%TO.N,unconnected-(H2-Pad1)*%
X165750000Y-37250000D03*
%TD*%
D37*
%TO.P,U3,1,IP+*%
%TO.N,VDD*%
X81050000Y-55345000D03*
%TO.P,U3,2,IP+*%
X81050000Y-56615000D03*
%TO.P,U3,3,IP-*%
%TO.N,/IP-*%
X81050000Y-57885000D03*
%TO.P,U3,4,IP-*%
X81050000Y-59155000D03*
%TO.P,U3,5,GND*%
%TO.N,GND*%
X86000000Y-59155000D03*
%TO.P,U3,6,FILTER*%
%TO.N,Net-(C6-Pad1)*%
X86000000Y-57885000D03*
%TO.P,U3,7,VIOUT*%
%TO.N,Net-(JP7-Pad1)*%
X86000000Y-56615000D03*
%TO.P,U3,8,VCC*%
%TO.N,+5V*%
X86000000Y-55345000D03*
%TD*%
D13*
%TO.P,R16,1*%
%TO.N,Net-(R16-Pad1)*%
X121675000Y-66500000D03*
%TO.P,R16,2*%
%TO.N,Net-(R16-Pad2)*%
X123325000Y-66500000D03*
%TD*%
%TO.P,R14,1*%
%TO.N,Net-(R14-Pad1)*%
X121675000Y-82750000D03*
%TO.P,R14,2*%
%TO.N,Net-(R14-Pad2)*%
X123325000Y-82750000D03*
%TD*%
D38*
%TO.N,+5V*%
X111750000Y-84250000D03*
X115500000Y-61500000D03*
X141500000Y-85750000D03*
X158250000Y-90500000D03*
X101750000Y-51750000D03*
X109000000Y-61500000D03*
X103000000Y-83750000D03*
X148750000Y-85750000D03*
X107250000Y-83750000D03*
X108500000Y-51750000D03*
X97250000Y-51750000D03*
X104750000Y-51750000D03*
X165500000Y-90500000D03*
X115750000Y-84250000D03*
%TO.N,GND*%
X167000000Y-46500000D03*
X113500000Y-109750000D03*
X131500000Y-110000000D03*
X87775000Y-59250000D03*
X91275000Y-58000000D03*
X111400000Y-52300000D03*
X91275000Y-55250000D03*
X120500000Y-61500000D03*
X70750000Y-82250000D03*
%TO.N,DIO0*%
X104210000Y-73415000D03*
X98750000Y-73500000D03*
%TO.N,DIO1*%
X135000000Y-53750000D03*
X129500000Y-53750000D03*
%TO.N,DIO2*%
X132000000Y-51250000D03*
X135000000Y-51250000D03*
%TO.N,Net-(JP8-Pad1)*%
X108500000Y-87250000D03*
X138500000Y-94250000D03*
X111000000Y-89000000D03*
X121750000Y-89000000D03*
%TO.N,Net-(JP10-Pad2)*%
X99750000Y-100250000D03*
X99750000Y-106500000D03*
%TD*%
D39*
%TO.N,+5V*%
X140000000Y-64750000D02*
X140000000Y-85250000D01*
D40*
X119750000Y-132000000D02*
X104250000Y-132000000D01*
D39*
X105960000Y-65175000D02*
X105960000Y-63040000D01*
X144250000Y-124290000D02*
X144250000Y-132000000D01*
D41*
X70750000Y-85025000D02*
X70750000Y-106500000D01*
D39*
X107250000Y-79500000D02*
X107250000Y-83750000D01*
X88750000Y-53750000D02*
X90750000Y-51750000D01*
X119550000Y-53200000D02*
X118500000Y-54250000D01*
D40*
X165500000Y-49750000D02*
X166750000Y-51000000D01*
D42*
X160875000Y-125125000D02*
X161625000Y-125125000D01*
D39*
X141500000Y-85750000D02*
X140500000Y-85750000D01*
D40*
X144250000Y-132000000D02*
X119750000Y-132000000D01*
D39*
X140000000Y-85250000D02*
X140000000Y-85750000D01*
X90750000Y-51750000D02*
X97250000Y-51750000D01*
D42*
X140000000Y-85250000D02*
X140500000Y-85750000D01*
D40*
X155445000Y-36840000D02*
X155445000Y-39380000D01*
X166750000Y-123250000D02*
X165250000Y-124750000D01*
D39*
X118500000Y-54250000D02*
X108500000Y-54250000D01*
X135010000Y-86990000D02*
X134375000Y-87625000D01*
X111750000Y-84250000D02*
X107750000Y-84250000D01*
X117780000Y-61500000D02*
X115500000Y-61500000D01*
X101750000Y-51750000D02*
X104750000Y-51750000D01*
X117780000Y-61500000D02*
X117780000Y-64125000D01*
D40*
X104250000Y-132000000D02*
X102000000Y-129750000D01*
D39*
X115750000Y-84250000D02*
X123000000Y-84250000D01*
D40*
X160500000Y-127000000D02*
X160500000Y-129000000D01*
D39*
X160875000Y-125125000D02*
X161625000Y-125875000D01*
X102750000Y-63750000D02*
X102750000Y-75000000D01*
X117750000Y-60750000D02*
X118250000Y-60250000D01*
D40*
X162750000Y-124750000D02*
X162000000Y-125500000D01*
D39*
X121250000Y-60250000D02*
X122000000Y-61000000D01*
D40*
X165250000Y-124750000D02*
X162750000Y-124750000D01*
D39*
X102750000Y-75000000D02*
X106750000Y-79000000D01*
X136250000Y-61000000D02*
X140000000Y-64750000D01*
X88655000Y-55345000D02*
X88750000Y-55250000D01*
X107750000Y-84250000D02*
X107250000Y-83750000D01*
X105960000Y-63040000D02*
X107500000Y-61500000D01*
X135010000Y-85750000D02*
X138500000Y-85750000D01*
X148750000Y-85750000D02*
X148750000Y-89750000D01*
X135010000Y-85750000D02*
X135010000Y-86990000D01*
D40*
X151675000Y-49750000D02*
X151675000Y-47325000D01*
D42*
X140000000Y-85250000D02*
X139500000Y-85750000D01*
X160875000Y-125125000D02*
X160875000Y-126625000D01*
D41*
X70750000Y-85025000D02*
X73430000Y-85025000D01*
D39*
X163150000Y-47350000D02*
X161835000Y-48665000D01*
X139500000Y-85750000D02*
X138500000Y-85750000D01*
X102000000Y-83750000D02*
X99455000Y-81205000D01*
X140000000Y-85750000D02*
X139500000Y-85750000D01*
X99455000Y-81205000D02*
X97525000Y-81205000D01*
D41*
X74000000Y-109750000D02*
X102000000Y-109750000D01*
D39*
X119750000Y-112000000D02*
X119750000Y-132000000D01*
X157250000Y-124290000D02*
X160040000Y-124290000D01*
D41*
X73430000Y-85025000D02*
X73440000Y-85015000D01*
D39*
X103000000Y-83750000D02*
X102000000Y-83750000D01*
X125175000Y-110000000D02*
X121750000Y-110000000D01*
D40*
X166750000Y-99500000D02*
X166750000Y-123250000D01*
X102000000Y-129750000D02*
X102000000Y-110250000D01*
D39*
X122000000Y-61000000D02*
X136250000Y-61000000D01*
X107500000Y-61500000D02*
X109000000Y-61500000D01*
D40*
X160875000Y-126625000D02*
X160500000Y-127000000D01*
D39*
X153500000Y-85750000D02*
X148750000Y-85750000D01*
X119550000Y-51750000D02*
X119550000Y-53200000D01*
X97525000Y-81205000D02*
X97525000Y-90500000D01*
X148060500Y-93237500D02*
X148060500Y-90439500D01*
X88750000Y-55250000D02*
X88750000Y-53750000D01*
X117750000Y-61470000D02*
X117750000Y-60750000D01*
D40*
X161835000Y-49750000D02*
X151675000Y-49750000D01*
D39*
X163150000Y-45850000D02*
X163150000Y-47350000D01*
D40*
X164850000Y-49750000D02*
X165500000Y-49750000D01*
D39*
X158250000Y-90500000D02*
X153500000Y-85750000D01*
X121750000Y-110000000D02*
X119750000Y-112000000D01*
D41*
X70750000Y-106500000D02*
X74000000Y-109750000D01*
D40*
X160500000Y-129000000D02*
X157500000Y-132000000D01*
D39*
X102750000Y-60000000D02*
X102750000Y-63750000D01*
D40*
X151675000Y-47325000D02*
X155445000Y-43555000D01*
D39*
X118250000Y-60250000D02*
X121250000Y-60250000D01*
X161835000Y-48665000D02*
X161835000Y-49750000D01*
D40*
X166750000Y-90500000D02*
X166750000Y-99500000D01*
D41*
X107025000Y-109750000D02*
X102000000Y-109750000D01*
D42*
X161625000Y-125125000D02*
X162000000Y-125500000D01*
D39*
X108500000Y-54250000D02*
X102750000Y-60000000D01*
D40*
X161835000Y-49750000D02*
X164850000Y-49750000D01*
X157500000Y-132000000D02*
X144250000Y-132000000D01*
D39*
X140500000Y-85750000D02*
X140000000Y-85750000D01*
D40*
X166750000Y-51000000D02*
X166750000Y-90500000D01*
D39*
X86000000Y-55345000D02*
X88655000Y-55345000D01*
X117780000Y-61500000D02*
X117750000Y-61470000D01*
X123000000Y-84250000D02*
X126375000Y-87625000D01*
X106750000Y-79000000D02*
X107250000Y-79500000D01*
D40*
X162000000Y-125500000D02*
X161625000Y-125875000D01*
D39*
X160040000Y-124290000D02*
X160875000Y-125125000D01*
D40*
X155445000Y-43555000D02*
X155445000Y-39380000D01*
D39*
X108500000Y-51750000D02*
X108500000Y-54250000D01*
X148750000Y-89750000D02*
X148060500Y-90439500D01*
X126375000Y-87625000D02*
X134375000Y-87625000D01*
D40*
X161625000Y-125875000D02*
X160875000Y-126625000D01*
D39*
X166750000Y-90500000D02*
X165500000Y-90500000D01*
%TO.N,GND*%
X130450000Y-110000000D02*
X131500000Y-110000000D01*
X86000000Y-59155000D02*
X87680000Y-59155000D01*
X82250000Y-77125000D02*
X82250000Y-76000000D01*
X119330000Y-61500000D02*
X120500000Y-61500000D01*
X111425000Y-52325000D02*
X111400000Y-52300000D01*
X82250000Y-76000000D02*
X83395000Y-74855000D01*
X167000000Y-45325000D02*
X167000000Y-46500000D01*
X90300000Y-55250000D02*
X91275000Y-55250000D01*
X83395000Y-74855000D02*
X84190000Y-74855000D01*
X70750000Y-83475000D02*
X70750000Y-82250000D01*
X112400000Y-109750000D02*
X113500000Y-109750000D01*
X87680000Y-59155000D02*
X87775000Y-59250000D01*
X90300000Y-58000000D02*
X91275000Y-58000000D01*
X112500000Y-52325000D02*
X111425000Y-52325000D01*
%TO.N,Net-(C6-Pad1)*%
X86000000Y-57885000D02*
X88635000Y-57885000D01*
X88635000Y-57885000D02*
X88750000Y-58000000D01*
%TO.N,DIO4*%
X136395000Y-41355000D02*
X135755000Y-41995000D01*
X136395000Y-39380000D02*
X136395000Y-41355000D01*
D40*
X136395000Y-36840000D02*
X136395000Y-39380000D01*
D39*
X135755000Y-41995000D02*
X135755000Y-44750000D01*
D42*
X144000000Y-59735000D02*
X144000000Y-54500000D01*
X135755000Y-46255000D02*
X135755000Y-44750000D01*
X146750000Y-62485000D02*
X144000000Y-59735000D01*
X144000000Y-54500000D02*
X135755000Y-46255000D01*
%TO.N,DIO5*%
X138295000Y-46295000D02*
X145250000Y-53250000D01*
D40*
X140205000Y-36800000D02*
X140205000Y-39340000D01*
D39*
X138295000Y-44750000D02*
X138295000Y-41250000D01*
D42*
X138295000Y-44750000D02*
X138295000Y-46295000D01*
X146750000Y-59750000D02*
X151250000Y-59750000D01*
X145250000Y-53250000D02*
X145250000Y-58250000D01*
X151250000Y-59750000D02*
X151750000Y-60250000D01*
X145250000Y-58250000D02*
X146750000Y-59750000D01*
X151750000Y-60250000D02*
X151750000Y-62485000D01*
D39*
X138295000Y-41250000D02*
X140205000Y-39340000D01*
%TO.N,Net-(D1-Pad1)*%
X105737500Y-101512500D02*
X96262500Y-101512500D01*
X123737500Y-101512500D02*
X114737500Y-101512500D01*
X96262500Y-101512500D02*
X96250000Y-101525000D01*
D42*
%TO.N,DIO0*%
X111575000Y-79365000D02*
X110160000Y-79365000D01*
X113750000Y-84500000D02*
X113750000Y-81540000D01*
D39*
X123000000Y-44750000D02*
X121155000Y-42905000D01*
D42*
X113750000Y-81540000D02*
X111575000Y-79365000D01*
D40*
X121155000Y-36800000D02*
X121155000Y-39340000D01*
D42*
X104210000Y-61290000D02*
X109750000Y-55750000D01*
X104210000Y-73415000D02*
X104210000Y-61290000D01*
X98750000Y-73500000D02*
X92315000Y-79935000D01*
D43*
X77335000Y-79935000D02*
X79835000Y-79935000D01*
D42*
X109750000Y-55750000D02*
X122750000Y-55750000D01*
X92315000Y-79935000D02*
X79835000Y-79935000D01*
X73440000Y-79935000D02*
X77335000Y-79935000D01*
X125595000Y-52905000D02*
X125595000Y-44750000D01*
D39*
X125595000Y-44750000D02*
X123000000Y-44750000D01*
D42*
X105737500Y-93662500D02*
X105737500Y-92512500D01*
X105737500Y-92512500D02*
X113750000Y-84500000D01*
X122750000Y-55750000D02*
X125595000Y-52905000D01*
X110160000Y-79365000D02*
X104210000Y-73415000D01*
D39*
X121155000Y-42905000D02*
X121155000Y-39340000D01*
%TO.N,DIO1*%
X128135000Y-42590000D02*
X124965000Y-39420000D01*
D42*
X114250000Y-91000000D02*
X112750000Y-91000000D01*
X114762500Y-91487500D02*
X114737500Y-91487500D01*
X142750000Y-83000000D02*
X142750000Y-86250000D01*
X109000000Y-103750000D02*
X93950000Y-103750000D01*
X110160000Y-59340000D02*
X110160000Y-64125000D01*
X128135000Y-53635000D02*
X128135000Y-54115000D01*
X136500000Y-53750000D02*
X140250000Y-57500000D01*
X135000000Y-53750000D02*
X136500000Y-53750000D01*
D40*
X124965000Y-36880000D02*
X124965000Y-39420000D01*
D42*
X142750000Y-86250000D02*
X139500000Y-89500000D01*
X128135000Y-53385000D02*
X128135000Y-53635000D01*
X129500000Y-53750000D02*
X128500000Y-53750000D01*
X114737500Y-93662500D02*
X114737500Y-91487500D01*
X114737500Y-91487500D02*
X114737500Y-91012500D01*
X93950000Y-103750000D02*
X93100000Y-102900000D01*
X140250000Y-57500000D02*
X140250000Y-63500000D01*
X89200000Y-83400000D02*
X80500000Y-83400000D01*
X128250000Y-53750000D02*
X128135000Y-53635000D01*
X142000000Y-65250000D02*
X142000000Y-82250000D01*
X126250000Y-57000000D02*
X112500000Y-57000000D01*
X93100000Y-87300000D02*
X89200000Y-83400000D01*
X110500000Y-102250000D02*
X109000000Y-103750000D01*
X124250000Y-89500000D02*
X122750000Y-91000000D01*
X114737500Y-91487500D02*
X114250000Y-91000000D01*
X142000000Y-82250000D02*
X142750000Y-83000000D01*
X128500000Y-53750000D02*
X128135000Y-54115000D01*
X128135000Y-44750000D02*
X128135000Y-53385000D01*
X112500000Y-57000000D02*
X110160000Y-59340000D01*
X114762500Y-91487500D02*
X115250000Y-91000000D01*
X80500000Y-83400000D02*
X79575000Y-82475000D01*
X93100000Y-102900000D02*
X93100000Y-87300000D01*
D39*
X128135000Y-44750000D02*
X128135000Y-42590000D01*
D42*
X128135000Y-54115000D02*
X128135000Y-55115000D01*
X128500000Y-53750000D02*
X128250000Y-53750000D01*
X128500000Y-53750000D02*
X128135000Y-53385000D01*
X110500000Y-93250000D02*
X110500000Y-102250000D01*
X140250000Y-63500000D02*
X142000000Y-65250000D01*
X112750000Y-91000000D02*
X110500000Y-93250000D01*
X115250000Y-91000000D02*
X114750000Y-91000000D01*
X114750000Y-91000000D02*
X114250000Y-91000000D01*
D43*
X77575000Y-82475000D02*
X79575000Y-82475000D01*
D42*
X73440000Y-82475000D02*
X77575000Y-82475000D01*
X122750000Y-91000000D02*
X115250000Y-91000000D01*
X128135000Y-55115000D02*
X126250000Y-57000000D01*
X114737500Y-91012500D02*
X114750000Y-91000000D01*
X139500000Y-89500000D02*
X124250000Y-89500000D01*
%TO.N,DIO2*%
X145250000Y-81750000D02*
X145250000Y-87500000D01*
X91750000Y-88650000D02*
X91750000Y-103250000D01*
X114250000Y-58250000D02*
X112210000Y-60290000D01*
X130675000Y-51675000D02*
X130675000Y-56325000D01*
X123737500Y-92512500D02*
X124250000Y-92000000D01*
X143250000Y-64250000D02*
X143250000Y-79750000D01*
X112210000Y-60290000D02*
X112210000Y-66000000D01*
X124250000Y-92000000D02*
X126000000Y-92000000D01*
D39*
X130675000Y-44750000D02*
X130675000Y-41280000D01*
D42*
X130675000Y-56325000D02*
X128750000Y-58250000D01*
X130675000Y-50825000D02*
X130675000Y-51325000D01*
X141500000Y-56500000D02*
X141500000Y-62500000D01*
D40*
X128775000Y-36840000D02*
X128775000Y-39380000D01*
D42*
X89385000Y-86285000D02*
X91750000Y-88650000D01*
X128750000Y-90750000D02*
X127500000Y-92000000D01*
X125500000Y-104000000D02*
X126500000Y-103000000D01*
X142000000Y-90750000D02*
X128750000Y-90750000D01*
X130675000Y-47075000D02*
X130675000Y-47575000D01*
D39*
X130675000Y-41280000D02*
X128775000Y-39380000D01*
D42*
X130675000Y-51575000D02*
X130675000Y-51675000D01*
X135000000Y-51250000D02*
X136250000Y-51250000D01*
X93500000Y-105000000D02*
X114750000Y-105000000D01*
X112210000Y-66000000D02*
X111545000Y-66665000D01*
X143250000Y-79750000D02*
X145250000Y-81750000D01*
X141500000Y-62500000D02*
X143250000Y-64250000D01*
X130675000Y-50925000D02*
X130675000Y-50825000D01*
X136250000Y-51250000D02*
X141500000Y-56500000D01*
X78520000Y-86285000D02*
X89385000Y-86285000D01*
X115750000Y-104000000D02*
X125500000Y-104000000D01*
X127000000Y-92000000D02*
X126500000Y-92000000D01*
X127500000Y-92000000D02*
X127000000Y-92000000D01*
X111545000Y-66665000D02*
X110160000Y-66665000D01*
X131000000Y-51250000D02*
X130675000Y-50925000D01*
X130750000Y-51250000D02*
X130675000Y-51325000D01*
X131000000Y-51250000D02*
X130675000Y-51575000D01*
X126500000Y-103000000D02*
X126500000Y-92500000D01*
X130675000Y-44750000D02*
X130675000Y-47075000D01*
X126500000Y-92500000D02*
X127000000Y-92000000D01*
X130675000Y-51325000D02*
X130675000Y-51675000D01*
X128750000Y-58250000D02*
X114250000Y-58250000D01*
X130675000Y-50075000D02*
X130675000Y-50825000D01*
X126000000Y-92000000D02*
X126500000Y-92000000D01*
X91750000Y-103250000D02*
X93500000Y-105000000D01*
X114750000Y-105000000D02*
X115750000Y-104000000D01*
X130675000Y-47575000D02*
X130675000Y-50075000D01*
X126500000Y-92000000D02*
X126500000Y-92500000D01*
X145250000Y-87500000D02*
X142000000Y-90750000D01*
X131000000Y-51250000D02*
X130750000Y-51250000D01*
X123737500Y-93662500D02*
X123737500Y-92512500D01*
X126500000Y-92500000D02*
X126000000Y-92000000D01*
X132000000Y-51250000D02*
X131000000Y-51250000D01*
%TO.N,DIO3*%
X133215000Y-48605000D02*
X133535000Y-48285000D01*
X117350000Y-107900000D02*
X119250000Y-106000000D01*
X85325000Y-88825000D02*
X88000000Y-91500000D01*
X111885000Y-76825000D02*
X110160000Y-76825000D01*
D39*
X132585000Y-39420000D02*
X132585000Y-41835000D01*
D42*
X136500000Y-92750000D02*
X136500000Y-92250000D01*
X135785000Y-48285000D02*
X142750000Y-55250000D01*
X119250000Y-106000000D02*
X133750000Y-106000000D01*
D40*
X132585000Y-36880000D02*
X132585000Y-39420000D01*
D42*
X132737500Y-92762500D02*
X133250000Y-92250000D01*
X91400000Y-107900000D02*
X117350000Y-107900000D01*
X136000000Y-92250000D02*
X136500000Y-92250000D01*
X113960000Y-74750000D02*
X111885000Y-76825000D01*
X142750000Y-55250000D02*
X142750000Y-61000000D01*
X133535000Y-48285000D02*
X135785000Y-48285000D01*
X133535000Y-48285000D02*
X133215000Y-47965000D01*
X133250000Y-92250000D02*
X136000000Y-92250000D01*
X144500000Y-77500000D02*
X147250000Y-80250000D01*
X78520000Y-88825000D02*
X85325000Y-88825000D01*
D39*
X132585000Y-41835000D02*
X133215000Y-42465000D01*
D42*
X133215000Y-48285000D02*
X133535000Y-48285000D01*
X142750000Y-61000000D02*
X144500000Y-62750000D01*
X137000000Y-92250000D02*
X136500000Y-92250000D01*
X136500000Y-103250000D02*
X136500000Y-92750000D01*
D39*
X133215000Y-42465000D02*
X133215000Y-44750000D01*
D42*
X147250000Y-80250000D02*
X147250000Y-88500000D01*
X132737500Y-93662500D02*
X132737500Y-92762500D01*
X131250000Y-59500000D02*
X115500000Y-59500000D01*
X133215000Y-48715000D02*
X133215000Y-48605000D01*
X115500000Y-59500000D02*
X113960000Y-61040000D01*
X133215000Y-48715000D02*
X133215000Y-57535000D01*
X113960000Y-61040000D02*
X113960000Y-74750000D01*
X143500000Y-92250000D02*
X137000000Y-92250000D01*
X133215000Y-57535000D02*
X131250000Y-59500000D01*
X136500000Y-92750000D02*
X136000000Y-92250000D01*
X133215000Y-48285000D02*
X133215000Y-48715000D01*
X88000000Y-91500000D02*
X88000000Y-104500000D01*
X133215000Y-47965000D02*
X133215000Y-48285000D01*
X144500000Y-62750000D02*
X144500000Y-77500000D01*
X133750000Y-106000000D02*
X136500000Y-103250000D01*
X133215000Y-44750000D02*
X133215000Y-47965000D01*
X147250000Y-88500000D02*
X143500000Y-92250000D01*
X136500000Y-92750000D02*
X137000000Y-92250000D01*
X88000000Y-104500000D02*
X91400000Y-107900000D01*
D40*
%TO.N,/OUT4*%
X77000000Y-104330000D02*
X79420000Y-104330000D01*
X80750000Y-103000000D02*
X80750000Y-92250000D01*
X79420000Y-104330000D02*
X80750000Y-103000000D01*
X79865000Y-91365000D02*
X78520000Y-91365000D01*
X80750000Y-92250000D02*
X79865000Y-91365000D01*
%TO.N,/OUT3*%
X76000000Y-91000000D02*
X76000000Y-95750000D01*
X73440000Y-90095000D02*
X75095000Y-90095000D01*
X76000000Y-95750000D02*
X77000000Y-96750000D01*
X77000000Y-96750000D02*
X77000000Y-99250000D01*
X75095000Y-90095000D02*
X76000000Y-91000000D01*
%TO.N,/OUT1*%
X78520000Y-76125000D02*
X80750000Y-73895000D01*
X79750000Y-63000000D02*
X77000000Y-63000000D01*
X80750000Y-73895000D02*
X80750000Y-64000000D01*
X80750000Y-64000000D02*
X79750000Y-63000000D01*
%TO.N,/OUT2*%
X76000000Y-76500000D02*
X76000000Y-71750000D01*
X77000000Y-70750000D02*
X77000000Y-68080000D01*
X73440000Y-77395000D02*
X75105000Y-77395000D01*
X75105000Y-77395000D02*
X76000000Y-76500000D01*
X76000000Y-71750000D02*
X77000000Y-70750000D01*
D39*
%TO.N,Net-(D14-Pad1)*%
X163750000Y-41000000D02*
X163150000Y-41600000D01*
X163150000Y-41600000D02*
X163150000Y-43050000D01*
X167000000Y-41500000D02*
X166500000Y-41000000D01*
X167000000Y-43675000D02*
X167000000Y-41500000D01*
X166500000Y-41000000D02*
X163750000Y-41000000D01*
D42*
%TO.N,DIO7*%
X149000000Y-56750000D02*
X159000000Y-56750000D01*
X147500000Y-44750000D02*
X147750000Y-44750000D01*
X147500000Y-44750000D02*
X147825000Y-45075000D01*
D40*
X147825000Y-36840000D02*
X147825000Y-39380000D01*
D42*
X161750000Y-59500000D02*
X161750000Y-62460000D01*
X147825000Y-39380000D02*
X147825000Y-44325000D01*
X159000000Y-56750000D02*
X161750000Y-59500000D01*
X147825000Y-55575000D02*
X149000000Y-56750000D01*
X143375000Y-44750000D02*
X147500000Y-44750000D01*
X147500000Y-44750000D02*
X147825000Y-44425000D01*
X147750000Y-44750000D02*
X147825000Y-44675000D01*
X147825000Y-44425000D02*
X147825000Y-44325000D01*
X147825000Y-45075000D02*
X147825000Y-55575000D01*
X147825000Y-44675000D02*
X147825000Y-45075000D01*
X147825000Y-44325000D02*
X147825000Y-44675000D01*
%TO.N,DIO6*%
X140835000Y-46335000D02*
X140835000Y-44750000D01*
X148000000Y-58250000D02*
X146500000Y-56750000D01*
X156750000Y-62485000D02*
X156750000Y-60500000D01*
D40*
X144015000Y-36880000D02*
X144015000Y-39420000D01*
D39*
X140835000Y-44750000D02*
X140835000Y-42600000D01*
D42*
X146500000Y-56750000D02*
X146500000Y-52000000D01*
X154500000Y-58250000D02*
X148000000Y-58250000D01*
X156750000Y-60500000D02*
X154500000Y-58250000D01*
X146500000Y-52000000D02*
X140835000Y-46335000D01*
D39*
X140835000Y-42600000D02*
X144015000Y-39420000D01*
D40*
%TO.N,unconnected-(J4-Pad1)*%
X83055000Y-36800000D02*
X83055000Y-39340000D01*
%TO.N,unconnected-(J4-Pad2)*%
X86865000Y-36760000D02*
X86865000Y-39300000D01*
D42*
%TO.N,AO0*%
X94485000Y-39300000D02*
X94485000Y-42985000D01*
D40*
X94485000Y-36760000D02*
X94485000Y-39300000D01*
D42*
X94485000Y-42985000D02*
X96250000Y-44750000D01*
X96250000Y-44750000D02*
X100195000Y-44750000D01*
D40*
%TO.N,unconnected-(J4-Pad5)*%
X98295000Y-36840000D02*
X98295000Y-39380000D01*
D42*
%TO.N,AI0+*%
X105915000Y-39380000D02*
X102735000Y-42560000D01*
X102735000Y-42560000D02*
X102735000Y-44750000D01*
D40*
X105915000Y-36840000D02*
X105915000Y-39380000D01*
%TO.N,AI1+*%
X113535000Y-36800000D02*
X113535000Y-39340000D01*
D42*
X113540000Y-39345000D02*
X113535000Y-39340000D01*
X113540000Y-44750000D02*
X113540000Y-39345000D01*
%TO.N,Net-(JP1-Pad1)*%
X156750000Y-65025000D02*
X156750000Y-71675000D01*
%TO.N,Net-(JP4-Pad1)*%
X161750000Y-71675000D02*
X161750000Y-65000000D01*
D39*
%TO.N,Net-(JP6-Pad2)*%
X132460000Y-80620000D02*
X132460000Y-85740000D01*
D40*
X132460000Y-85710000D02*
X132500000Y-85750000D01*
D39*
X132460000Y-85740000D02*
X132470000Y-85750000D01*
D42*
%TO.N,Net-(JP7-Pad1)*%
X105275000Y-44750000D02*
X105275000Y-46225000D01*
X94885000Y-56615000D02*
X105275000Y-46225000D01*
X86000000Y-56615000D02*
X94885000Y-56615000D01*
%TO.N,Net-(JP8-Pad1)*%
X100000000Y-58500000D02*
X100000000Y-78750000D01*
X111000000Y-47500000D02*
X100000000Y-58500000D01*
X111000000Y-44750000D02*
X111000000Y-47500000D01*
X149750000Y-96000000D02*
X145500000Y-96000000D01*
X121750000Y-89000000D02*
X111000000Y-89000000D01*
X100000000Y-78750000D02*
X108500000Y-87250000D01*
X150560500Y-95189500D02*
X149750000Y-96000000D01*
X143750000Y-94250000D02*
X145500000Y-96000000D01*
X150560500Y-93237500D02*
X150560500Y-95189500D01*
X138500000Y-94250000D02*
X143750000Y-94250000D01*
%TO.N,Net-(JP9-Pad2)*%
X94985000Y-81205000D02*
X78520000Y-81205000D01*
%TO.N,Net-(JP10-Pad2)*%
X89500000Y-89000000D02*
X90250000Y-89750000D01*
X90250000Y-89750000D02*
X90250000Y-90500000D01*
X90250000Y-90500000D02*
X90250000Y-92250000D01*
X90250000Y-104000000D02*
X92750000Y-106500000D01*
X99750000Y-97250000D02*
X99750000Y-100250000D01*
X73440000Y-87555000D02*
X77045000Y-87555000D01*
X94985000Y-92485000D02*
X99750000Y-97250000D01*
D43*
X77045000Y-87555000D02*
X79945000Y-87555000D01*
D42*
X90250000Y-92250000D02*
X90250000Y-103750000D01*
X94985000Y-90500000D02*
X94985000Y-92485000D01*
X92750000Y-106500000D02*
X99750000Y-106500000D01*
X88055000Y-87555000D02*
X89500000Y-89000000D01*
X79945000Y-87555000D02*
X88055000Y-87555000D01*
X90250000Y-103750000D02*
X90250000Y-104000000D01*
%TO.N,Net-(R2-Pad1)*%
X145750000Y-121750000D02*
X152750000Y-114750000D01*
X144250000Y-121750000D02*
X145750000Y-121750000D01*
X156750000Y-74250000D02*
X156750000Y-73325000D01*
X159000000Y-114750000D02*
X162750000Y-111000000D01*
X162750000Y-111000000D02*
X162750000Y-80250000D01*
X162750000Y-80250000D02*
X156750000Y-74250000D01*
X152750000Y-114750000D02*
X159000000Y-114750000D01*
%TO.N,Net-(R6-Pad2)*%
X164000000Y-119000000D02*
X164000000Y-77750000D01*
X161750000Y-75500000D02*
X161750000Y-73325000D01*
X164000000Y-77750000D02*
X161750000Y-75500000D01*
X157250000Y-121750000D02*
X161250000Y-121750000D01*
X161250000Y-121750000D02*
X164000000Y-119000000D01*
%TO.N,Net-(R8-Pad1)*%
X119750000Y-71000000D02*
X119750000Y-70250000D01*
X120250000Y-69750000D02*
X119750000Y-70250000D01*
X119005000Y-71745000D02*
X119750000Y-71000000D01*
X121675000Y-69750000D02*
X120250000Y-69750000D01*
X117780000Y-71745000D02*
X119005000Y-71745000D01*
%TO.N,Net-(R8-Pad2)*%
X133250000Y-69750000D02*
X123325000Y-69750000D01*
X135000000Y-68000000D02*
X133250000Y-69750000D01*
X135000000Y-65380000D02*
X135000000Y-68000000D01*
%TO.N,Net-(R10-Pad1)*%
X120500000Y-73000000D02*
X119215000Y-74285000D01*
X121675000Y-73000000D02*
X120500000Y-73000000D01*
X119215000Y-74285000D02*
X117780000Y-74285000D01*
%TO.N,Net-(R10-Pad2)*%
X133500000Y-73000000D02*
X137540000Y-68960000D01*
X123325000Y-73000000D02*
X133500000Y-73000000D01*
X137540000Y-68960000D02*
X137540000Y-65380000D01*
%TO.N,Net-(R11-Pad1)*%
X121675000Y-76250000D02*
X120000000Y-76250000D01*
X120000000Y-76250000D02*
X119425000Y-76825000D01*
X119425000Y-76825000D02*
X117780000Y-76825000D01*
%TO.N,Net-(R11-Pad2)*%
X123325000Y-76250000D02*
X132750000Y-76250000D01*
X135000000Y-78500000D02*
X135000000Y-80620000D01*
X132750000Y-76250000D02*
X135000000Y-78500000D01*
%TO.N,Net-(R12-Pad2)*%
X105960000Y-69700000D02*
X106455000Y-69205000D01*
X105965000Y-71745000D02*
X105960000Y-71750000D01*
X106030000Y-72210000D02*
X106495000Y-71745000D01*
X110160000Y-69205000D02*
X106455000Y-69205000D01*
X106455000Y-69205000D02*
X106005000Y-69205000D01*
X105960000Y-71290000D02*
X106040000Y-71290000D01*
X105960000Y-73000000D02*
X107245000Y-74285000D01*
X106040000Y-68790000D02*
X106455000Y-69205000D01*
X105960000Y-69710000D02*
X105960000Y-71290000D01*
X106005000Y-69205000D02*
X105960000Y-69250000D01*
X106495000Y-71745000D02*
X105965000Y-71745000D01*
X105960000Y-71750000D02*
X105960000Y-72210000D01*
X105960000Y-71290000D02*
X105960000Y-71750000D01*
X105960000Y-69250000D02*
X105960000Y-69710000D01*
X105960000Y-68790000D02*
X105960000Y-69250000D01*
X110160000Y-71745000D02*
X106495000Y-71745000D01*
X105960000Y-72210000D02*
X106030000Y-72210000D01*
X105960000Y-69710000D02*
X105960000Y-69700000D01*
X106040000Y-71290000D02*
X106495000Y-71745000D01*
X105960000Y-72210000D02*
X105960000Y-73000000D01*
X105960000Y-66825000D02*
X105960000Y-68790000D01*
X107245000Y-74285000D02*
X110160000Y-74285000D01*
X105960000Y-68790000D02*
X106040000Y-68790000D01*
%TO.N,Net-(R13-Pad1)*%
X121675000Y-79500000D02*
X117915000Y-79500000D01*
X117915000Y-79500000D02*
X117780000Y-79365000D01*
%TO.N,Net-(R13-Pad2)*%
X129250000Y-78250000D02*
X125750000Y-78250000D01*
X129920000Y-80620000D02*
X129920000Y-78920000D01*
X129920000Y-78920000D02*
X129250000Y-78250000D01*
X124500000Y-79500000D02*
X123325000Y-79500000D01*
X125750000Y-78250000D02*
X124500000Y-79500000D01*
%TO.N,Net-(R14-Pad1)*%
X121675000Y-82750000D02*
X118625000Y-82750000D01*
X118625000Y-82750000D02*
X117780000Y-81905000D01*
%TO.N,Net-(R14-Pad2)*%
X125250000Y-82750000D02*
X127380000Y-80620000D01*
X123325000Y-82750000D02*
X125250000Y-82750000D01*
%TO.N,Net-(R15-Pad1)*%
X120000000Y-64445000D02*
X117780000Y-66665000D01*
X120500000Y-63250000D02*
X120000000Y-63750000D01*
X121675000Y-63250000D02*
X120500000Y-63250000D01*
X120000000Y-63750000D02*
X120000000Y-64445000D01*
%TO.N,Net-(R15-Pad2)*%
X129000000Y-63250000D02*
X129920000Y-64170000D01*
X123325000Y-63250000D02*
X129000000Y-63250000D01*
X129920000Y-64170000D02*
X129920000Y-65380000D01*
%TO.N,Net-(R16-Pad1)*%
X120000000Y-67000000D02*
X120000000Y-68000000D01*
X121675000Y-66500000D02*
X120500000Y-66500000D01*
X118795000Y-69205000D02*
X117780000Y-69205000D01*
X120500000Y-66500000D02*
X120000000Y-67000000D01*
X120000000Y-68000000D02*
X118795000Y-69205000D01*
%TO.N,Net-(R16-Pad2)*%
X126260000Y-66500000D02*
X127380000Y-65380000D01*
X123325000Y-66500000D02*
X126260000Y-66500000D01*
%TO.N,Net-(JP8-Pad3)*%
X116080000Y-46080000D02*
X116080000Y-44750000D01*
X122950000Y-51750000D02*
X122950000Y-48200000D01*
X112500000Y-49660000D02*
X116080000Y-46080000D01*
X122950000Y-48200000D02*
X119500000Y-44750000D01*
X112500000Y-50675000D02*
X112500000Y-49660000D01*
X119500000Y-44750000D02*
X116080000Y-44750000D01*
%TO.N,Net-(CD1-Pad1)*%
X120750000Y-107750000D02*
X118250000Y-110250000D01*
X118250000Y-113750000D02*
X118250000Y-110250000D01*
X156000000Y-107750000D02*
X120750000Y-107750000D01*
X116500000Y-115500000D02*
X118250000Y-113750000D01*
X159500000Y-104250000D02*
X156000000Y-107750000D01*
X108675000Y-109750000D02*
X110500000Y-109750000D01*
X110500000Y-113750000D02*
X112250000Y-115500000D01*
X112250000Y-115500000D02*
X116500000Y-115500000D01*
X146750000Y-65025000D02*
X146750000Y-75750000D01*
X112250000Y-128000000D02*
X112250000Y-115500000D01*
X146750000Y-75750000D02*
X159500000Y-88500000D01*
X110500000Y-109750000D02*
X110500000Y-113750000D01*
X159500000Y-88500000D02*
X159500000Y-104250000D01*
%TO.N,Net-(CD2-Pad1)*%
X144250000Y-112500000D02*
X156750000Y-112500000D01*
X128550000Y-114050000D02*
X130000000Y-115500000D01*
X161500000Y-84750000D02*
X151750000Y-75000000D01*
X130000000Y-115500000D02*
X141250000Y-115500000D01*
X151750000Y-75000000D02*
X151750000Y-65025000D01*
X126825000Y-110000000D02*
X128550000Y-110000000D01*
X128550000Y-110000000D02*
X128550000Y-114050000D01*
X130000000Y-115500000D02*
X130000000Y-128000000D01*
X156750000Y-112500000D02*
X161500000Y-107750000D01*
X161500000Y-107750000D02*
X161500000Y-84750000D01*
X141250000Y-115500000D02*
X144250000Y-112500000D01*
D44*
%TO.N,Net-(D1-Pad2)*%
X105737500Y-95312500D02*
X105737500Y-98972500D01*
%TO.N,Net-(D2-Pad2)*%
X114737500Y-98972500D02*
X114737500Y-95312500D01*
%TO.N,Net-(D3-Pad2)*%
X123737500Y-95312500D02*
X123737500Y-98972500D01*
%TO.N,Net-(D4-Pad2)*%
X132737500Y-95312500D02*
X132737500Y-98972500D01*
%TD*%
%TA.AperFunction,Conductor*%
%TO.N,/IP-*%
G36*
X81808188Y-57601078D02*
G01*
X81912963Y-57614872D01*
X81944735Y-57623385D01*
X82034674Y-57660639D01*
X82063160Y-57677086D01*
X82140393Y-57736349D01*
X82163651Y-57759607D01*
X82222914Y-57836840D01*
X82239361Y-57865326D01*
X82276615Y-57955265D01*
X82285128Y-57987037D01*
X82298922Y-58091812D01*
X82300000Y-58108258D01*
X82300000Y-59900000D01*
X82448496Y-60046789D01*
X82451451Y-60049710D01*
X90845586Y-68347361D01*
X90856599Y-68359785D01*
X90921809Y-68443926D01*
X90938486Y-68472556D01*
X90976274Y-68563042D01*
X90984911Y-68595031D01*
X90998906Y-68700553D01*
X91000000Y-68717119D01*
X91000000Y-76037136D01*
X90998945Y-76053409D01*
X90986976Y-76145309D01*
X90985438Y-76157114D01*
X90977100Y-76188578D01*
X90940601Y-76277733D01*
X90924482Y-76306010D01*
X90861394Y-76389411D01*
X90850739Y-76401749D01*
X88152782Y-79144672D01*
X88140352Y-79155740D01*
X88056074Y-79221336D01*
X88027392Y-79238107D01*
X87936666Y-79276127D01*
X87904590Y-79284816D01*
X87798744Y-79298899D01*
X87782126Y-79300000D01*
X80900000Y-79300000D01*
X80810002Y-79389998D01*
X80778276Y-79402263D01*
X80767794Y-79402700D01*
X79798470Y-79402700D01*
X79794225Y-79403282D01*
X79794218Y-79403282D01*
X79699017Y-79416323D01*
X79699014Y-79416324D01*
X79690508Y-79417489D01*
X79631237Y-79443138D01*
X79581199Y-79453500D01*
X77652627Y-79453500D01*
X77584506Y-79433498D01*
X77536218Y-79375717D01*
X77523384Y-79344733D01*
X77514872Y-79312963D01*
X77501078Y-79208188D01*
X77500000Y-79191742D01*
X77500000Y-78108258D01*
X77501078Y-78091812D01*
X77514872Y-77987037D01*
X77523385Y-77955265D01*
X77560639Y-77865326D01*
X77577086Y-77836840D01*
X77636349Y-77759607D01*
X77659607Y-77736349D01*
X77736840Y-77677086D01*
X77765326Y-77660639D01*
X77855265Y-77623385D01*
X77887037Y-77614872D01*
X77991812Y-77601078D01*
X78008258Y-77600000D01*
X80184635Y-77600000D01*
X80201081Y-77601078D01*
X80305856Y-77614872D01*
X80337628Y-77623385D01*
X80427569Y-77660640D01*
X80456052Y-77677084D01*
X80539906Y-77741428D01*
X80552288Y-77752288D01*
X80900000Y-78100000D01*
X81113450Y-78095360D01*
X81113452Y-78095360D01*
X81117687Y-78095268D01*
X81117689Y-78095268D01*
X85329497Y-78003707D01*
X85329501Y-78003707D01*
X85500000Y-78000000D01*
X85634616Y-77895298D01*
X85634620Y-77895296D01*
X87553192Y-76403073D01*
X87553193Y-76403072D01*
X87750000Y-76250000D01*
X87750000Y-69000000D01*
X87253087Y-68500000D01*
X79851153Y-61052092D01*
X79840364Y-61039719D01*
X79776497Y-60956040D01*
X79760173Y-60927631D01*
X79723202Y-60837981D01*
X79714756Y-60806327D01*
X79701070Y-60701960D01*
X79700000Y-60685577D01*
X79700000Y-58108258D01*
X79701078Y-58091812D01*
X79714872Y-57987037D01*
X79723385Y-57955265D01*
X79760639Y-57865326D01*
X79777086Y-57836840D01*
X79836349Y-57759607D01*
X79859607Y-57736349D01*
X79936840Y-57677086D01*
X79965326Y-57660639D01*
X80055265Y-57623385D01*
X80087037Y-57614872D01*
X80191812Y-57601078D01*
X80208258Y-57600000D01*
X81791742Y-57600000D01*
X81808188Y-57601078D01*
G37*
%TD.AperFunction*%
%TD*%
%TA.AperFunction,Conductor*%
%TO.N,VDD*%
G36*
X90708188Y-44201078D02*
G01*
X90812963Y-44214872D01*
X90844735Y-44223385D01*
X90934674Y-44260639D01*
X90963160Y-44277086D01*
X91040393Y-44336349D01*
X91063651Y-44359607D01*
X91122914Y-44436840D01*
X91139361Y-44465326D01*
X91176615Y-44555265D01*
X91185128Y-44587037D01*
X91198922Y-44691812D01*
X91200000Y-44708258D01*
X91200000Y-49791742D01*
X91198922Y-49808188D01*
X91185128Y-49912963D01*
X91176615Y-49944735D01*
X91139361Y-50034674D01*
X91122914Y-50063160D01*
X91063651Y-50140393D01*
X91040393Y-50163651D01*
X90963160Y-50222914D01*
X90934674Y-50239361D01*
X90844735Y-50276615D01*
X90812963Y-50285128D01*
X90708188Y-50298922D01*
X90691742Y-50300000D01*
X82300000Y-50300000D01*
X82300000Y-56391742D01*
X82298922Y-56408188D01*
X82285128Y-56512963D01*
X82276615Y-56544735D01*
X82239361Y-56634674D01*
X82222914Y-56663160D01*
X82163651Y-56740393D01*
X82140393Y-56763651D01*
X82063160Y-56822914D01*
X82034674Y-56839361D01*
X81944735Y-56876615D01*
X81912963Y-56885128D01*
X81808188Y-56898922D01*
X81791742Y-56900000D01*
X80208258Y-56900000D01*
X80191812Y-56898922D01*
X80087037Y-56885128D01*
X80055265Y-56876615D01*
X79965326Y-56839361D01*
X79936840Y-56822914D01*
X79859607Y-56763651D01*
X79836349Y-56740393D01*
X79777086Y-56663160D01*
X79760639Y-56634674D01*
X79723385Y-56544735D01*
X79714872Y-56512963D01*
X79701078Y-56408188D01*
X79700000Y-56391742D01*
X79700000Y-50300000D01*
X70308258Y-50300000D01*
X70291812Y-50298922D01*
X70187037Y-50285128D01*
X70155265Y-50276615D01*
X70065326Y-50239361D01*
X70036840Y-50222914D01*
X69959607Y-50163651D01*
X69936349Y-50140393D01*
X69877086Y-50063160D01*
X69860639Y-50034674D01*
X69823385Y-49944735D01*
X69814872Y-49912963D01*
X69801078Y-49808188D01*
X69800000Y-49791742D01*
X69800000Y-44708258D01*
X69801078Y-44691812D01*
X69814872Y-44587037D01*
X69823385Y-44555265D01*
X69860639Y-44465326D01*
X69877086Y-44436840D01*
X69936349Y-44359607D01*
X69959607Y-44336349D01*
X70036840Y-44277086D01*
X70065326Y-44260639D01*
X70155265Y-44223385D01*
X70187037Y-44214872D01*
X70291812Y-44201078D01*
X70308258Y-44200000D01*
X90691742Y-44200000D01*
X90708188Y-44201078D01*
G37*
%TD.AperFunction*%
%TD*%
M02*
