M48
; DRILL file {KiCad (6.0.7)} date Tue Sep  6 17:39:22 2022
; FORMAT={-:-/ absolute / inch / decimal}
; #@! TF.CreationDate,2022-09-06T17:39:22+02:00
; #@! TF.GenerationSoftware,Kicad,Pcbnew,(6.0.7)
; #@! TF.FileFunction,Plated,1,2,PTH
FMAT,2
INCH
; #@! TA.AperFunction,Plated,PTH,ViaDrill
T1C0.0157
; #@! TA.AperFunction,Plated,PTH,ComponentDrill
T2C0.0197
; #@! TA.AperFunction,Plated,PTH,ComponentDrill
T3C0.0315
; #@! TA.AperFunction,Plated,PTH,ComponentDrill
T4C0.0354
; #@! TA.AperFunction,Plated,PTH,ComponentDrill
T5C0.0394
; #@! TA.AperFunction,Plated,PTH,ComponentDrill
T6C0.0472
; #@! TA.AperFunction,Plated,PTH,ComponentDrill
T7C0.0512
; #@! TA.AperFunction,Plated,PTH,ComponentDrill
T8C0.0551
; #@! TA.AperFunction,Plated,PTH,ComponentDrill
T9C0.0764
; #@! TA.AperFunction,Plated,PTH,ComponentDrill
T10C0.1260
%
G90
G05
T1
X1.8543Y-3.937
X2.3524Y-2.7067
X2.3524Y-2.7559
X2.4724Y-3.5315
X2.563Y-3.4409
X2.5984Y-3.5394
X2.6378Y-5.189
X2.689Y-5.3189
X2.7461Y-2.5
X2.7461Y-2.8051
X3.1614Y-5.6299
X3.2087Y-3.3346
X3.435Y-2.8346
X3.5236Y-4.8425
X3.8374Y-2.639
X3.9374Y-2.6866
X4.0256Y-2.8642
X4.2421Y-3.2283
X4.2618Y-2.8642
X4.311Y-3.0512
X4.5768Y-3.0512
X4.5768Y-3.2283
X4.5866Y-2.687
X4.5866Y-2.8642
X4.6161Y-5.1575
X5.2067Y-5.1378
T2
X1.6772Y-6.2205
X1.6797Y-1.9907
X1.7048Y-6.1537
X1.7048Y-6.2873
X1.7074Y-1.9239
X1.7074Y-2.0575
X1.7717Y-6.126
X1.7717Y-6.315
X1.7742Y-1.8962
X1.7742Y-2.0852
X1.8385Y-6.1537
X1.8385Y-6.2873
X1.841Y-1.9239
X1.841Y-2.0575
X1.8661Y-6.2205
X1.8687Y-1.9907
X5.2205Y-6.2205
X5.223Y-1.9907
X5.2481Y-6.1537
X5.2481Y-6.2873
X5.2507Y-1.9239
X5.2507Y-2.0575
X5.315Y-6.126
X5.315Y-6.315
X5.3175Y-1.8962
X5.3175Y-2.0852
X5.3818Y-6.1537
X5.3818Y-6.2873
X5.3843Y-1.9239
X5.3843Y-2.0575
X5.4094Y-6.2205
X5.412Y-1.9907
T3
X2.8156Y-3.44
X2.8156Y-3.54
X2.8156Y-3.64
X2.8156Y-3.74
X2.8156Y-3.84
X2.8156Y-3.94
X2.8156Y-4.04
X2.8156Y-4.14
X3.0927Y-4.9781
X3.0927Y-5.0781
X3.0927Y-5.1781
X3.0927Y-5.2781
X3.0927Y-5.3781
X3.0927Y-5.4781
X3.0927Y-5.5781
X3.0927Y-5.6781
X3.1156Y-3.44
X3.1156Y-3.54
X3.1156Y-3.64
X3.1156Y-3.74
X3.1156Y-3.84
X3.1156Y-3.94
X3.1156Y-4.04
X3.1156Y-4.14
X3.2874Y-2.689
X3.2874Y-2.8228
X3.3927Y-4.9781
X3.3927Y-5.0781
X3.3927Y-5.1781
X3.3927Y-5.2781
X3.3927Y-5.3781
X3.3927Y-5.4781
X3.3927Y-5.5781
X3.3927Y-5.6781
X4.6654Y-4.3094
X4.6654Y-4.4094
X4.6654Y-4.5094
X5.2264Y-4.2996
X5.2264Y-4.3996
X5.2264Y-4.4996
T4
X4.6844Y-3.2283
X4.6943Y-2.8642
X4.7844Y-3.2283
X4.7943Y-2.8642
X5.0978Y-2.8642
X5.0978Y-3.2274
X5.1978Y-2.8642
X5.1978Y-3.2274
T5
X2.5689Y-5.3829
X2.5689Y-5.4829
X2.5689Y-5.5829
X2.862Y-2.3031
X2.962Y-2.3031
X2.99Y-4.6053
X3.062Y-2.3031
X3.09Y-4.6053
X3.19Y-4.6053
X3.2067Y-2.3031
X3.3067Y-2.3031
X3.4067Y-2.3031
X3.5303Y-3.4894
X3.5303Y-4.0894
X3.6303Y-3.4894
X3.6303Y-4.0894
X3.6309Y-3.248
X3.7106Y-5.6268
X3.7106Y-5.7268
X3.7106Y-5.8268
X3.7303Y-3.4894
X3.7303Y-4.0894
X3.7309Y-3.248
X3.8303Y-3.4894
X3.8303Y-4.0894
X3.8309Y-3.248
X3.8374Y-2.3012
X3.9303Y-3.4894
X3.9303Y-4.0894
X3.9374Y-2.3012
X4.0374Y-2.3012
X4.1374Y-2.3012
X4.2374Y-2.3012
X4.3374Y-2.3012
X4.4374Y-2.3012
X4.5069Y-5.0591
X4.5374Y-2.3012
X4.6069Y-5.0591
X4.6343Y-3.8484
X4.7343Y-3.8484
X4.8297Y-2.3031
X4.8297Y-2.4508
X4.9297Y-2.3031
X4.9297Y-2.4508
X5.0297Y-2.3031
X5.0297Y-2.4508
X5.0974Y-5.0394
X5.1264Y-3.5236
X5.1264Y-3.8484
X5.1297Y-2.3031
X5.1297Y-2.4508
X5.1974Y-5.0394
X5.2264Y-3.5236
X5.2264Y-3.8484
X5.2297Y-2.3031
X5.2297Y-2.4508
T6
X4.4488Y-5.4429
X4.4488Y-5.935
X4.6457Y-5.4429
X4.6457Y-5.935
X5.0394Y-5.4429
X5.0394Y-5.935
X5.2362Y-5.4429
X5.2362Y-5.935
T7
X2.7661Y-6.203
X2.9661Y-6.203
X3.5219Y-6.203
X3.7219Y-6.203
T8
X1.9291Y-2.7043
X1.9291Y-5.5043
X2.1222Y-1.9213
X2.1222Y-2.0213
X2.1222Y-2.0213
X2.2722Y-1.9197
X2.2722Y-2.0197
X2.2722Y-2.0197
X2.4222Y-1.9213
X2.4222Y-2.0213
X2.4222Y-2.0213
X2.5722Y-1.9197
X2.5722Y-2.0197
X2.5722Y-2.0197
X2.7222Y-1.9228
X2.7222Y-2.0228
X2.7222Y-2.0228
X2.8722Y-1.9213
X2.8722Y-2.0213
X2.8722Y-2.0213
X3.0222Y-1.9228
X3.0222Y-2.0228
X3.0222Y-2.0228
X3.1722Y-1.9213
X3.1722Y-2.0213
X3.1722Y-2.0213
X3.3222Y-1.9213
X3.3222Y-2.0213
X3.3222Y-2.0213
X3.4722Y-1.9228
X3.4722Y-2.0228
X3.4722Y-2.0228
X3.6222Y-1.9213
X3.6222Y-2.0213
X3.6222Y-2.0213
X3.7722Y-1.9244
X3.7722Y-2.0244
X3.7722Y-2.0244
X3.9222Y-1.9228
X3.9222Y-2.0228
X3.9222Y-2.0228
X4.0722Y-1.9244
X4.0722Y-2.0244
X4.0722Y-2.0244
X4.2222Y-1.9228
X4.2222Y-2.0228
X4.2222Y-2.0228
X4.3722Y-1.9213
X4.3722Y-2.0213
X4.3722Y-2.0213
X4.5222Y-1.9244
X4.5222Y-2.0244
X4.5222Y-2.0244
X4.6722Y-1.9228
X4.6722Y-2.0228
X4.6722Y-2.0228
X4.8222Y-1.9244
X4.8222Y-2.0244
X4.8222Y-2.0244
X4.9722Y-1.9228
X4.9722Y-2.0228
X4.9722Y-2.0228
T9
X1.7559Y-2.3524
X1.7559Y-5.8563
X2.3583Y-2.3524
X2.3583Y-5.8563
T10
X1.7717Y-6.2205
X1.7742Y-1.9907
X5.315Y-6.2205
X5.3175Y-1.9907
T0
M30
