%TF.GenerationSoftware,KiCad,Pcbnew,(6.0.7)*%
%TF.CreationDate,2022-09-06T17:39:21+02:00*%
%TF.ProjectId,myDAQExpansionBoard,6d794441-5145-4787-9061-6e73696f6e42,rev?*%
%TF.SameCoordinates,Original*%
%TF.FileFunction,Legend,Top*%
%TF.FilePolarity,Positive*%
%FSLAX46Y46*%
G04 Gerber Fmt 4.6, Leading zero omitted, Abs format (unit mm)*
G04 Created by KiCad (PCBNEW (6.0.7)) date 2022-09-06 17:39:21*
%MOMM*%
%LPD*%
G01*
G04 APERTURE LIST*
G04 Aperture macros list*
%AMRoundRect*
0 Rectangle with rounded corners*
0 $1 Rounding radius*
0 $2 $3 $4 $5 $6 $7 $8 $9 X,Y pos of 4 corners*
0 Add a 4 corners polygon primitive as box body*
4,1,4,$2,$3,$4,$5,$6,$7,$8,$9,$2,$3,0*
0 Add four circle primitives for the rounded corners*
1,1,$1+$1,$2,$3*
1,1,$1+$1,$4,$5*
1,1,$1+$1,$6,$7*
1,1,$1+$1,$8,$9*
0 Add four rect primitives between the rounded corners*
20,1,$1+$1,$2,$3,$4,$5,0*
20,1,$1+$1,$4,$5,$6,$7,0*
20,1,$1+$1,$6,$7,$8,$9,0*
20,1,$1+$1,$8,$9,$2,$3,0*%
G04 Aperture macros list end*
%ADD10C,0.150000*%
%ADD11C,0.250000*%
%ADD12C,0.300000*%
%ADD13C,0.120000*%
%ADD14C,0.200000*%
%ADD15RoundRect,0.200000X-0.200000X-0.275000X0.200000X-0.275000X0.200000X0.275000X-0.200000X0.275000X0*%
%ADD16C,6.400000*%
%ADD17C,0.800000*%
%ADD18R,1.800000X1.800000*%
%ADD19C,1.800000*%
%ADD20O,2.500000X3.000000*%
%ADD21RoundRect,0.225000X0.250000X-0.225000X0.250000X0.225000X-0.250000X0.225000X-0.250000X-0.225000X0*%
%ADD22R,1.700000X1.700000*%
%ADD23O,1.700000X1.700000*%
%ADD24RoundRect,0.200000X-0.275000X0.200000X-0.275000X-0.200000X0.275000X-0.200000X0.275000X0.200000X0*%
%ADD25R,2.600000X2.600000*%
%ADD26C,2.600000*%
%ADD27RoundRect,0.225000X-0.250000X0.225000X-0.250000X-0.225000X0.250000X-0.225000X0.250000X0.225000X0*%
%ADD28RoundRect,0.200000X0.200000X0.275000X-0.200000X0.275000X-0.200000X-0.275000X0.200000X-0.275000X0*%
%ADD29C,2.300000*%
%ADD30RoundRect,0.150000X-0.825000X-0.150000X0.825000X-0.150000X0.825000X0.150000X-0.825000X0.150000X0*%
%ADD31R,1.600000X1.600000*%
%ADD32O,1.600000X1.600000*%
%ADD33C,1.500000*%
%ADD34C,2.000000*%
%ADD35RoundRect,0.200000X0.275000X-0.200000X0.275000X0.200000X-0.275000X0.200000X-0.275000X-0.200000X0*%
%ADD36RoundRect,0.150000X-0.150000X0.825000X-0.150000X-0.825000X0.150000X-0.825000X0.150000X0.825000X0*%
%ADD37C,5.000000*%
%ADD38C,3.000000*%
G04 APERTURE END LIST*
D10*
X103250000Y-77250000D02*
X66650000Y-77250000D01*
X66650000Y-77250000D02*
X66650000Y-109750000D01*
X66650000Y-109750000D02*
X103250000Y-109750000D01*
X103250000Y-109750000D02*
X103250000Y-77250000D01*
X139000000Y-93250000D02*
X112500000Y-93250000D01*
X112500000Y-93250000D02*
X112500000Y-120000000D01*
X112500000Y-120000000D02*
X139000000Y-120000000D01*
X139000000Y-120000000D02*
X139000000Y-93250000D01*
X138750000Y-121000000D02*
X108000000Y-121000000D01*
X108000000Y-121000000D02*
X108000000Y-153250000D01*
X108000000Y-153250000D02*
X138750000Y-153250000D01*
X138750000Y-153250000D02*
X138750000Y-121000000D01*
X139000000Y-67750000D02*
X112250000Y-67750000D01*
X112250000Y-67750000D02*
X112250000Y-92250000D01*
X112250000Y-92250000D02*
X139000000Y-92250000D01*
X139000000Y-92250000D02*
X139000000Y-67750000D01*
X82809523Y-74202380D02*
X82333333Y-74202380D01*
X82333333Y-73202380D01*
X83142857Y-74202380D02*
X83142857Y-73202380D01*
X83380952Y-73202380D01*
X83523809Y-73250000D01*
X83619047Y-73345238D01*
X83666666Y-73440476D01*
X83714285Y-73630952D01*
X83714285Y-73773809D01*
X83666666Y-73964285D01*
X83619047Y-74059523D01*
X83523809Y-74154761D01*
X83380952Y-74202380D01*
X83142857Y-74202380D01*
X84714285Y-74202380D02*
X84380952Y-73726190D01*
X84142857Y-74202380D02*
X84142857Y-73202380D01*
X84523809Y-73202380D01*
X84619047Y-73250000D01*
X84666666Y-73297619D01*
X84714285Y-73392857D01*
X84714285Y-73535714D01*
X84666666Y-73630952D01*
X84619047Y-73678571D01*
X84523809Y-73726190D01*
X84142857Y-73726190D01*
D11*
X62564285Y-134235714D02*
X62735714Y-134292857D01*
X63021428Y-134292857D01*
X63135714Y-134235714D01*
X63192857Y-134178571D01*
X63250000Y-134064285D01*
X63250000Y-133950000D01*
X63192857Y-133835714D01*
X63135714Y-133778571D01*
X63021428Y-133721428D01*
X62792857Y-133664285D01*
X62678571Y-133607142D01*
X62621428Y-133550000D01*
X62564285Y-133435714D01*
X62564285Y-133321428D01*
X62621428Y-133207142D01*
X62678571Y-133150000D01*
X62792857Y-133092857D01*
X63078571Y-133092857D01*
X63250000Y-133150000D01*
X63764285Y-134292857D02*
X63764285Y-133092857D01*
X63764285Y-133664285D02*
X64450000Y-133664285D01*
X64450000Y-134292857D02*
X64450000Y-133092857D01*
X65021428Y-133092857D02*
X65021428Y-134064285D01*
X65078571Y-134178571D01*
X65135714Y-134235714D01*
X65250000Y-134292857D01*
X65478571Y-134292857D01*
X65592857Y-134235714D01*
X65650000Y-134178571D01*
X65707142Y-134064285D01*
X65707142Y-133092857D01*
X66278571Y-134292857D02*
X66278571Y-133092857D01*
X66964285Y-134292857D01*
X66964285Y-133092857D01*
X67364285Y-133092857D02*
X68050000Y-133092857D01*
X67707142Y-134292857D02*
X67707142Y-133092857D01*
D12*
X110848571Y-65000000D02*
X109348571Y-65000000D01*
X109348571Y-64642857D01*
X109420000Y-64428571D01*
X109562857Y-64285714D01*
X109705714Y-64214285D01*
X109991428Y-64142857D01*
X110205714Y-64142857D01*
X110491428Y-64214285D01*
X110634285Y-64285714D01*
X110777142Y-64428571D01*
X110848571Y-64642857D01*
X110848571Y-65000000D01*
X110848571Y-63500000D02*
X109348571Y-63500000D01*
X109348571Y-62500000D02*
X109348571Y-62214285D01*
X109420000Y-62071428D01*
X109562857Y-61928571D01*
X109848571Y-61857142D01*
X110348571Y-61857142D01*
X110634285Y-61928571D01*
X110777142Y-62071428D01*
X110848571Y-62214285D01*
X110848571Y-62500000D01*
X110777142Y-62642857D01*
X110634285Y-62785714D01*
X110348571Y-62857142D01*
X109848571Y-62857142D01*
X109562857Y-62785714D01*
X109420000Y-62642857D01*
X109348571Y-62500000D01*
X109348571Y-60500000D02*
X109348571Y-61214285D01*
X110062857Y-61285714D01*
X109991428Y-61214285D01*
X109920000Y-61071428D01*
X109920000Y-60714285D01*
X109991428Y-60571428D01*
X110062857Y-60500000D01*
X110205714Y-60428571D01*
X110562857Y-60428571D01*
X110705714Y-60500000D01*
X110777142Y-60571428D01*
X110848571Y-60714285D01*
X110848571Y-61071428D01*
X110777142Y-61214285D01*
X110705714Y-61285714D01*
X105768571Y-65000000D02*
X104268571Y-65000000D01*
X104268571Y-64642857D01*
X104340000Y-64428571D01*
X104482857Y-64285714D01*
X104625714Y-64214285D01*
X104911428Y-64142857D01*
X105125714Y-64142857D01*
X105411428Y-64214285D01*
X105554285Y-64285714D01*
X105697142Y-64428571D01*
X105768571Y-64642857D01*
X105768571Y-65000000D01*
X105768571Y-63500000D02*
X104268571Y-63500000D01*
X104268571Y-62500000D02*
X104268571Y-62214285D01*
X104340000Y-62071428D01*
X104482857Y-61928571D01*
X104768571Y-61857142D01*
X105268571Y-61857142D01*
X105554285Y-61928571D01*
X105697142Y-62071428D01*
X105768571Y-62214285D01*
X105768571Y-62500000D01*
X105697142Y-62642857D01*
X105554285Y-62785714D01*
X105268571Y-62857142D01*
X104768571Y-62857142D01*
X104482857Y-62785714D01*
X104340000Y-62642857D01*
X104268571Y-62500000D01*
X104268571Y-61357142D02*
X104268571Y-60428571D01*
X104840000Y-60928571D01*
X104840000Y-60714285D01*
X104911428Y-60571428D01*
X104982857Y-60500000D01*
X105125714Y-60428571D01*
X105482857Y-60428571D01*
X105625714Y-60500000D01*
X105697142Y-60571428D01*
X105768571Y-60714285D01*
X105768571Y-61142857D01*
X105697142Y-61285714D01*
X105625714Y-61357142D01*
D11*
X61821428Y-145292857D02*
X61821428Y-144092857D01*
X61821428Y-144664285D02*
X62507142Y-144664285D01*
X62507142Y-145292857D02*
X62507142Y-144092857D01*
X63078571Y-144835714D02*
X63992857Y-144835714D01*
X64564285Y-145292857D02*
X64564285Y-144092857D01*
X64964285Y-144950000D01*
X65364285Y-144092857D01*
X65364285Y-145292857D01*
X66164285Y-144092857D02*
X66392857Y-144092857D01*
X66507142Y-144150000D01*
X66621428Y-144264285D01*
X66678571Y-144492857D01*
X66678571Y-144892857D01*
X66621428Y-145121428D01*
X66507142Y-145235714D01*
X66392857Y-145292857D01*
X66164285Y-145292857D01*
X66050000Y-145235714D01*
X65935714Y-145121428D01*
X65878571Y-144892857D01*
X65878571Y-144492857D01*
X65935714Y-144264285D01*
X66050000Y-144150000D01*
X66164285Y-144092857D01*
X67135714Y-145235714D02*
X67307142Y-145292857D01*
X67592857Y-145292857D01*
X67707142Y-145235714D01*
X67764285Y-145178571D01*
X67821428Y-145064285D01*
X67821428Y-144950000D01*
X67764285Y-144835714D01*
X67707142Y-144778571D01*
X67592857Y-144721428D01*
X67364285Y-144664285D01*
X67250000Y-144607142D01*
X67192857Y-144550000D01*
X67135714Y-144435714D01*
X67135714Y-144321428D01*
X67192857Y-144207142D01*
X67250000Y-144150000D01*
X67364285Y-144092857D01*
X67650000Y-144092857D01*
X67821428Y-144150000D01*
X68164285Y-144092857D02*
X68850000Y-144092857D01*
X68507142Y-145292857D02*
X68507142Y-144092857D01*
D12*
X98148571Y-65000000D02*
X96648571Y-65000000D01*
X96648571Y-64642857D01*
X96720000Y-64428571D01*
X96862857Y-64285714D01*
X97005714Y-64214285D01*
X97291428Y-64142857D01*
X97505714Y-64142857D01*
X97791428Y-64214285D01*
X97934285Y-64285714D01*
X98077142Y-64428571D01*
X98148571Y-64642857D01*
X98148571Y-65000000D01*
X98148571Y-63500000D02*
X96648571Y-63500000D01*
X96648571Y-62500000D02*
X96648571Y-62214285D01*
X96720000Y-62071428D01*
X96862857Y-61928571D01*
X97148571Y-61857142D01*
X97648571Y-61857142D01*
X97934285Y-61928571D01*
X98077142Y-62071428D01*
X98148571Y-62214285D01*
X98148571Y-62500000D01*
X98077142Y-62642857D01*
X97934285Y-62785714D01*
X97648571Y-62857142D01*
X97148571Y-62857142D01*
X96862857Y-62785714D01*
X96720000Y-62642857D01*
X96648571Y-62500000D01*
X96648571Y-60928571D02*
X96648571Y-60785714D01*
X96720000Y-60642857D01*
X96791428Y-60571428D01*
X96934285Y-60500000D01*
X97220000Y-60428571D01*
X97577142Y-60428571D01*
X97862857Y-60500000D01*
X98005714Y-60571428D01*
X98077142Y-60642857D01*
X98148571Y-60785714D01*
X98148571Y-60928571D01*
X98077142Y-61071428D01*
X98005714Y-61142857D01*
X97862857Y-61214285D01*
X97577142Y-61285714D01*
X97220000Y-61285714D01*
X96934285Y-61214285D01*
X96791428Y-61142857D01*
X96720000Y-61071428D01*
X96648571Y-60928571D01*
X103228571Y-65000000D02*
X101728571Y-65000000D01*
X101728571Y-64642857D01*
X101800000Y-64428571D01*
X101942857Y-64285714D01*
X102085714Y-64214285D01*
X102371428Y-64142857D01*
X102585714Y-64142857D01*
X102871428Y-64214285D01*
X103014285Y-64285714D01*
X103157142Y-64428571D01*
X103228571Y-64642857D01*
X103228571Y-65000000D01*
X103228571Y-63500000D02*
X101728571Y-63500000D01*
X101728571Y-62500000D02*
X101728571Y-62214285D01*
X101800000Y-62071428D01*
X101942857Y-61928571D01*
X102228571Y-61857142D01*
X102728571Y-61857142D01*
X103014285Y-61928571D01*
X103157142Y-62071428D01*
X103228571Y-62214285D01*
X103228571Y-62500000D01*
X103157142Y-62642857D01*
X103014285Y-62785714D01*
X102728571Y-62857142D01*
X102228571Y-62857142D01*
X101942857Y-62785714D01*
X101800000Y-62642857D01*
X101728571Y-62500000D01*
X101871428Y-61285714D02*
X101800000Y-61214285D01*
X101728571Y-61071428D01*
X101728571Y-60714285D01*
X101800000Y-60571428D01*
X101871428Y-60500000D01*
X102014285Y-60428571D01*
X102157142Y-60428571D01*
X102371428Y-60500000D01*
X103228571Y-61357142D01*
X103228571Y-60428571D01*
X108308571Y-65000000D02*
X106808571Y-65000000D01*
X106808571Y-64642857D01*
X106880000Y-64428571D01*
X107022857Y-64285714D01*
X107165714Y-64214285D01*
X107451428Y-64142857D01*
X107665714Y-64142857D01*
X107951428Y-64214285D01*
X108094285Y-64285714D01*
X108237142Y-64428571D01*
X108308571Y-64642857D01*
X108308571Y-65000000D01*
X108308571Y-63500000D02*
X106808571Y-63500000D01*
X106808571Y-62500000D02*
X106808571Y-62214285D01*
X106880000Y-62071428D01*
X107022857Y-61928571D01*
X107308571Y-61857142D01*
X107808571Y-61857142D01*
X108094285Y-61928571D01*
X108237142Y-62071428D01*
X108308571Y-62214285D01*
X108308571Y-62500000D01*
X108237142Y-62642857D01*
X108094285Y-62785714D01*
X107808571Y-62857142D01*
X107308571Y-62857142D01*
X107022857Y-62785714D01*
X106880000Y-62642857D01*
X106808571Y-62500000D01*
X107308571Y-60571428D02*
X108308571Y-60571428D01*
X106737142Y-60928571D02*
X107808571Y-61285714D01*
X107808571Y-60357142D01*
X115928571Y-65000000D02*
X114428571Y-65000000D01*
X114428571Y-64642857D01*
X114500000Y-64428571D01*
X114642857Y-64285714D01*
X114785714Y-64214285D01*
X115071428Y-64142857D01*
X115285714Y-64142857D01*
X115571428Y-64214285D01*
X115714285Y-64285714D01*
X115857142Y-64428571D01*
X115928571Y-64642857D01*
X115928571Y-65000000D01*
X115928571Y-63500000D02*
X114428571Y-63500000D01*
X114428571Y-62500000D02*
X114428571Y-62214285D01*
X114500000Y-62071428D01*
X114642857Y-61928571D01*
X114928571Y-61857142D01*
X115428571Y-61857142D01*
X115714285Y-61928571D01*
X115857142Y-62071428D01*
X115928571Y-62214285D01*
X115928571Y-62500000D01*
X115857142Y-62642857D01*
X115714285Y-62785714D01*
X115428571Y-62857142D01*
X114928571Y-62857142D01*
X114642857Y-62785714D01*
X114500000Y-62642857D01*
X114428571Y-62500000D01*
X114428571Y-61357142D02*
X114428571Y-60357142D01*
X115928571Y-61000000D01*
X134842857Y-58728571D02*
X134842857Y-59300000D01*
X135414285Y-59357142D01*
X135357142Y-59300000D01*
X135300000Y-59185714D01*
X135300000Y-58900000D01*
X135357142Y-58785714D01*
X135414285Y-58728571D01*
X135528571Y-58671428D01*
X135814285Y-58671428D01*
X135928571Y-58728571D01*
X135985714Y-58785714D01*
X136042857Y-58900000D01*
X136042857Y-59185714D01*
X135985714Y-59300000D01*
X135928571Y-59357142D01*
X134842857Y-58328571D02*
X136042857Y-57928571D01*
X134842857Y-57528571D01*
X88803928Y-83035714D02*
X88732500Y-83107142D01*
X88518214Y-83178571D01*
X88375357Y-83178571D01*
X88161071Y-83107142D01*
X88018214Y-82964285D01*
X87946785Y-82821428D01*
X87875357Y-82535714D01*
X87875357Y-82321428D01*
X87946785Y-82035714D01*
X88018214Y-81892857D01*
X88161071Y-81750000D01*
X88375357Y-81678571D01*
X88518214Y-81678571D01*
X88732500Y-81750000D01*
X88803928Y-81821428D01*
X89375357Y-82750000D02*
X90089642Y-82750000D01*
X89232500Y-83178571D02*
X89732500Y-81678571D01*
X90232500Y-83178571D01*
X113388571Y-65000000D02*
X111888571Y-65000000D01*
X111888571Y-64642857D01*
X111960000Y-64428571D01*
X112102857Y-64285714D01*
X112245714Y-64214285D01*
X112531428Y-64142857D01*
X112745714Y-64142857D01*
X113031428Y-64214285D01*
X113174285Y-64285714D01*
X113317142Y-64428571D01*
X113388571Y-64642857D01*
X113388571Y-65000000D01*
X113388571Y-63500000D02*
X111888571Y-63500000D01*
X111888571Y-62500000D02*
X111888571Y-62214285D01*
X111960000Y-62071428D01*
X112102857Y-61928571D01*
X112388571Y-61857142D01*
X112888571Y-61857142D01*
X113174285Y-61928571D01*
X113317142Y-62071428D01*
X113388571Y-62214285D01*
X113388571Y-62500000D01*
X113317142Y-62642857D01*
X113174285Y-62785714D01*
X112888571Y-62857142D01*
X112388571Y-62857142D01*
X112102857Y-62785714D01*
X111960000Y-62642857D01*
X111888571Y-62500000D01*
X111888571Y-60571428D02*
X111888571Y-60857142D01*
X111960000Y-61000000D01*
X112031428Y-61071428D01*
X112245714Y-61214285D01*
X112531428Y-61285714D01*
X113102857Y-61285714D01*
X113245714Y-61214285D01*
X113317142Y-61142857D01*
X113388571Y-61000000D01*
X113388571Y-60714285D01*
X113317142Y-60571428D01*
X113245714Y-60500000D01*
X113102857Y-60428571D01*
X112745714Y-60428571D01*
X112602857Y-60500000D01*
X112531428Y-60571428D01*
X112460000Y-60714285D01*
X112460000Y-61000000D01*
X112531428Y-61142857D01*
X112602857Y-61214285D01*
X112745714Y-61285714D01*
X134900000Y-63164285D02*
X134842857Y-63278571D01*
X134842857Y-63450000D01*
X134900000Y-63621428D01*
X135014285Y-63735714D01*
X135128571Y-63792857D01*
X135357142Y-63850000D01*
X135528571Y-63850000D01*
X135757142Y-63792857D01*
X135871428Y-63735714D01*
X135985714Y-63621428D01*
X136042857Y-63450000D01*
X136042857Y-63335714D01*
X135985714Y-63164285D01*
X135928571Y-63107142D01*
X135528571Y-63107142D01*
X135528571Y-63335714D01*
X136042857Y-62592857D02*
X134842857Y-62592857D01*
X136042857Y-61907142D01*
X134842857Y-61907142D01*
X136042857Y-61335714D02*
X134842857Y-61335714D01*
X134842857Y-61050000D01*
X134900000Y-60878571D01*
X135014285Y-60764285D01*
X135128571Y-60707142D01*
X135357142Y-60650000D01*
X135528571Y-60650000D01*
X135757142Y-60707142D01*
X135871428Y-60764285D01*
X135985714Y-60878571D01*
X136042857Y-61050000D01*
X136042857Y-61335714D01*
X100688571Y-65000000D02*
X99188571Y-65000000D01*
X99188571Y-64642857D01*
X99260000Y-64428571D01*
X99402857Y-64285714D01*
X99545714Y-64214285D01*
X99831428Y-64142857D01*
X100045714Y-64142857D01*
X100331428Y-64214285D01*
X100474285Y-64285714D01*
X100617142Y-64428571D01*
X100688571Y-64642857D01*
X100688571Y-65000000D01*
X100688571Y-63500000D02*
X99188571Y-63500000D01*
X99188571Y-62500000D02*
X99188571Y-62214285D01*
X99260000Y-62071428D01*
X99402857Y-61928571D01*
X99688571Y-61857142D01*
X100188571Y-61857142D01*
X100474285Y-61928571D01*
X100617142Y-62071428D01*
X100688571Y-62214285D01*
X100688571Y-62500000D01*
X100617142Y-62642857D01*
X100474285Y-62785714D01*
X100188571Y-62857142D01*
X99688571Y-62857142D01*
X99402857Y-62785714D01*
X99260000Y-62642857D01*
X99188571Y-62500000D01*
X100688571Y-60428571D02*
X100688571Y-61285714D01*
X100688571Y-60857142D02*
X99188571Y-60857142D01*
X99402857Y-61000000D01*
X99545714Y-61142857D01*
X99617142Y-61285714D01*
X100196785Y-83035714D02*
X100125357Y-83107142D01*
X99911071Y-83178571D01*
X99768214Y-83178571D01*
X99553928Y-83107142D01*
X99411071Y-82964285D01*
X99339642Y-82821428D01*
X99268214Y-82535714D01*
X99268214Y-82321428D01*
X99339642Y-82035714D01*
X99411071Y-81892857D01*
X99553928Y-81750000D01*
X99768214Y-81678571D01*
X99911071Y-81678571D01*
X100125357Y-81750000D01*
X100196785Y-81821428D01*
X101696785Y-83035714D02*
X101625357Y-83107142D01*
X101411071Y-83178571D01*
X101268214Y-83178571D01*
X101053928Y-83107142D01*
X100911071Y-82964285D01*
X100839642Y-82821428D01*
X100768214Y-82535714D01*
X100768214Y-82321428D01*
X100839642Y-82035714D01*
X100911071Y-81892857D01*
X101053928Y-81750000D01*
X101268214Y-81678571D01*
X101411071Y-81678571D01*
X101625357Y-81750000D01*
X101696785Y-81821428D01*
D10*
%TO.C,R11*%
X83589642Y-98622380D02*
X83256309Y-98146190D01*
X83018214Y-98622380D02*
X83018214Y-97622380D01*
X83399166Y-97622380D01*
X83494404Y-97670000D01*
X83542023Y-97717619D01*
X83589642Y-97812857D01*
X83589642Y-97955714D01*
X83542023Y-98050952D01*
X83494404Y-98098571D01*
X83399166Y-98146190D01*
X83018214Y-98146190D01*
X84542023Y-98622380D02*
X83970595Y-98622380D01*
X84256309Y-98622380D02*
X84256309Y-97622380D01*
X84161071Y-97765238D01*
X84065833Y-97860476D01*
X83970595Y-97908095D01*
X85494404Y-98622380D02*
X84922976Y-98622380D01*
X85208690Y-98622380D02*
X85208690Y-97622380D01*
X85113452Y-97765238D01*
X85018214Y-97860476D01*
X84922976Y-97908095D01*
%TO.C,D4*%
X129986904Y-86427380D02*
X129986904Y-85427380D01*
X130225000Y-85427380D01*
X130367857Y-85475000D01*
X130463095Y-85570238D01*
X130510714Y-85665476D01*
X130558333Y-85855952D01*
X130558333Y-85998809D01*
X130510714Y-86189285D01*
X130463095Y-86284523D01*
X130367857Y-86379761D01*
X130225000Y-86427380D01*
X129986904Y-86427380D01*
X131415476Y-85760714D02*
X131415476Y-86427380D01*
X131177380Y-85379761D02*
X130939285Y-86094047D01*
X131558333Y-86094047D01*
%TO.C,SW1*%
X114166666Y-154654761D02*
X114309523Y-154702380D01*
X114547619Y-154702380D01*
X114642857Y-154654761D01*
X114690476Y-154607142D01*
X114738095Y-154511904D01*
X114738095Y-154416666D01*
X114690476Y-154321428D01*
X114642857Y-154273809D01*
X114547619Y-154226190D01*
X114357142Y-154178571D01*
X114261904Y-154130952D01*
X114214285Y-154083333D01*
X114166666Y-153988095D01*
X114166666Y-153892857D01*
X114214285Y-153797619D01*
X114261904Y-153750000D01*
X114357142Y-153702380D01*
X114595238Y-153702380D01*
X114738095Y-153750000D01*
X115071428Y-153702380D02*
X115309523Y-154702380D01*
X115500000Y-153988095D01*
X115690476Y-154702380D01*
X115928571Y-153702380D01*
X116833333Y-154702380D02*
X116261904Y-154702380D01*
X116547619Y-154702380D02*
X116547619Y-153702380D01*
X116452380Y-153845238D01*
X116357142Y-153940476D01*
X116261904Y-153988095D01*
%TO.C,CD2*%
X131177142Y-132916666D02*
X131224761Y-132964285D01*
X131272380Y-133107142D01*
X131272380Y-133202380D01*
X131224761Y-133345238D01*
X131129523Y-133440476D01*
X131034285Y-133488095D01*
X130843809Y-133535714D01*
X130700952Y-133535714D01*
X130510476Y-133488095D01*
X130415238Y-133440476D01*
X130320000Y-133345238D01*
X130272380Y-133202380D01*
X130272380Y-133107142D01*
X130320000Y-132964285D01*
X130367619Y-132916666D01*
X131272380Y-132488095D02*
X130272380Y-132488095D01*
X130272380Y-132250000D01*
X130320000Y-132107142D01*
X130415238Y-132011904D01*
X130510476Y-131964285D01*
X130700952Y-131916666D01*
X130843809Y-131916666D01*
X131034285Y-131964285D01*
X131129523Y-132011904D01*
X131224761Y-132107142D01*
X131272380Y-132250000D01*
X131272380Y-132488095D01*
X130367619Y-131535714D02*
X130320000Y-131488095D01*
X130272380Y-131392857D01*
X130272380Y-131154761D01*
X130320000Y-131059523D01*
X130367619Y-131011904D01*
X130462857Y-130964285D01*
X130558095Y-130964285D01*
X130700952Y-131011904D01*
X131272380Y-131583333D01*
X131272380Y-130964285D01*
%TO.C,JP5*%
X127177380Y-90333333D02*
X127891666Y-90333333D01*
X128034523Y-90380952D01*
X128129761Y-90476190D01*
X128177380Y-90619047D01*
X128177380Y-90714285D01*
X128177380Y-89857142D02*
X127177380Y-89857142D01*
X127177380Y-89476190D01*
X127225000Y-89380952D01*
X127272619Y-89333333D01*
X127367857Y-89285714D01*
X127510714Y-89285714D01*
X127605952Y-89333333D01*
X127653571Y-89380952D01*
X127701190Y-89476190D01*
X127701190Y-89857142D01*
X127177380Y-88380952D02*
X127177380Y-88857142D01*
X127653571Y-88904761D01*
X127605952Y-88857142D01*
X127558333Y-88761904D01*
X127558333Y-88523809D01*
X127605952Y-88428571D01*
X127653571Y-88380952D01*
X127748809Y-88333333D01*
X127986904Y-88333333D01*
X128082142Y-88380952D01*
X128129761Y-88428571D01*
X128177380Y-88523809D01*
X128177380Y-88761904D01*
X128129761Y-88857142D01*
X128082142Y-88904761D01*
%TO.C,C3*%
X88452142Y-125141666D02*
X88499761Y-125189285D01*
X88547380Y-125332142D01*
X88547380Y-125427380D01*
X88499761Y-125570238D01*
X88404523Y-125665476D01*
X88309285Y-125713095D01*
X88118809Y-125760714D01*
X87975952Y-125760714D01*
X87785476Y-125713095D01*
X87690238Y-125665476D01*
X87595000Y-125570238D01*
X87547380Y-125427380D01*
X87547380Y-125332142D01*
X87595000Y-125189285D01*
X87642619Y-125141666D01*
X87547380Y-124808333D02*
X87547380Y-124189285D01*
X87928333Y-124522619D01*
X87928333Y-124379761D01*
X87975952Y-124284523D01*
X88023571Y-124236904D01*
X88118809Y-124189285D01*
X88356904Y-124189285D01*
X88452142Y-124236904D01*
X88499761Y-124284523D01*
X88547380Y-124379761D01*
X88547380Y-124665476D01*
X88499761Y-124760714D01*
X88452142Y-124808333D01*
%TO.C,SW4*%
X131416666Y-118404761D02*
X131559523Y-118452380D01*
X131797619Y-118452380D01*
X131892857Y-118404761D01*
X131940476Y-118357142D01*
X131988095Y-118261904D01*
X131988095Y-118166666D01*
X131940476Y-118071428D01*
X131892857Y-118023809D01*
X131797619Y-117976190D01*
X131607142Y-117928571D01*
X131511904Y-117880952D01*
X131464285Y-117833333D01*
X131416666Y-117738095D01*
X131416666Y-117642857D01*
X131464285Y-117547619D01*
X131511904Y-117500000D01*
X131607142Y-117452380D01*
X131845238Y-117452380D01*
X131988095Y-117500000D01*
X132321428Y-117452380D02*
X132559523Y-118452380D01*
X132750000Y-117738095D01*
X132940476Y-118452380D01*
X133178571Y-117452380D01*
X133988095Y-117785714D02*
X133988095Y-118452380D01*
X133750000Y-117404761D02*
X133511904Y-118119047D01*
X134130952Y-118119047D01*
%TO.C,JP10*%
X82640476Y-60702380D02*
X82640476Y-61416666D01*
X82592857Y-61559523D01*
X82497619Y-61654761D01*
X82354761Y-61702380D01*
X82259523Y-61702380D01*
X83116666Y-61702380D02*
X83116666Y-60702380D01*
X83497619Y-60702380D01*
X83592857Y-60750000D01*
X83640476Y-60797619D01*
X83688095Y-60892857D01*
X83688095Y-61035714D01*
X83640476Y-61130952D01*
X83592857Y-61178571D01*
X83497619Y-61226190D01*
X83116666Y-61226190D01*
X84640476Y-61702380D02*
X84069047Y-61702380D01*
X84354761Y-61702380D02*
X84354761Y-60702380D01*
X84259523Y-60845238D01*
X84164285Y-60940476D01*
X84069047Y-60988095D01*
X85259523Y-60702380D02*
X85354761Y-60702380D01*
X85450000Y-60750000D01*
X85497619Y-60797619D01*
X85545238Y-60892857D01*
X85592857Y-61083333D01*
X85592857Y-61321428D01*
X85545238Y-61511904D01*
X85497619Y-61607142D01*
X85450000Y-61654761D01*
X85354761Y-61702380D01*
X85259523Y-61702380D01*
X85164285Y-61654761D01*
X85116666Y-61607142D01*
X85069047Y-61511904D01*
X85021428Y-61321428D01*
X85021428Y-61083333D01*
X85069047Y-60892857D01*
X85116666Y-60797619D01*
X85164285Y-60750000D01*
X85259523Y-60702380D01*
%TO.C,R3*%
X127952380Y-132416666D02*
X127476190Y-132750000D01*
X127952380Y-132988095D02*
X126952380Y-132988095D01*
X126952380Y-132607142D01*
X127000000Y-132511904D01*
X127047619Y-132464285D01*
X127142857Y-132416666D01*
X127285714Y-132416666D01*
X127380952Y-132464285D01*
X127428571Y-132511904D01*
X127476190Y-132607142D01*
X127476190Y-132988095D01*
X126952380Y-132083333D02*
X126952380Y-131464285D01*
X127333333Y-131797619D01*
X127333333Y-131654761D01*
X127380952Y-131559523D01*
X127428571Y-131511904D01*
X127523809Y-131464285D01*
X127761904Y-131464285D01*
X127857142Y-131511904D01*
X127904761Y-131559523D01*
X127952380Y-131654761D01*
X127952380Y-131940476D01*
X127904761Y-132035714D01*
X127857142Y-132083333D01*
%TO.C,JP1*%
X118952380Y-129333333D02*
X119666666Y-129333333D01*
X119809523Y-129380952D01*
X119904761Y-129476190D01*
X119952380Y-129619047D01*
X119952380Y-129714285D01*
X119952380Y-128857142D02*
X118952380Y-128857142D01*
X118952380Y-128476190D01*
X119000000Y-128380952D01*
X119047619Y-128333333D01*
X119142857Y-128285714D01*
X119285714Y-128285714D01*
X119380952Y-128333333D01*
X119428571Y-128380952D01*
X119476190Y-128476190D01*
X119476190Y-128857142D01*
X119952380Y-127333333D02*
X119952380Y-127904761D01*
X119952380Y-127619047D02*
X118952380Y-127619047D01*
X119095238Y-127714285D01*
X119190476Y-127809523D01*
X119238095Y-127904761D01*
%TO.C,SW2*%
X129416666Y-154654761D02*
X129559523Y-154702380D01*
X129797619Y-154702380D01*
X129892857Y-154654761D01*
X129940476Y-154607142D01*
X129988095Y-154511904D01*
X129988095Y-154416666D01*
X129940476Y-154321428D01*
X129892857Y-154273809D01*
X129797619Y-154226190D01*
X129607142Y-154178571D01*
X129511904Y-154130952D01*
X129464285Y-154083333D01*
X129416666Y-153988095D01*
X129416666Y-153892857D01*
X129464285Y-153797619D01*
X129511904Y-153750000D01*
X129607142Y-153702380D01*
X129845238Y-153702380D01*
X129988095Y-153750000D01*
X130321428Y-153702380D02*
X130559523Y-154702380D01*
X130750000Y-153988095D01*
X130940476Y-154702380D01*
X131178571Y-153702380D01*
X131511904Y-153797619D02*
X131559523Y-153750000D01*
X131654761Y-153702380D01*
X131892857Y-153702380D01*
X131988095Y-153750000D01*
X132035714Y-153797619D01*
X132083333Y-153892857D01*
X132083333Y-153988095D01*
X132035714Y-154130952D01*
X131464285Y-154702380D01*
X132083333Y-154702380D01*
%TO.C,JP14*%
X67702380Y-140559523D02*
X68416666Y-140559523D01*
X68559523Y-140607142D01*
X68654761Y-140702380D01*
X68702380Y-140845238D01*
X68702380Y-140940476D01*
X68702380Y-140083333D02*
X67702380Y-140083333D01*
X67702380Y-139702380D01*
X67750000Y-139607142D01*
X67797619Y-139559523D01*
X67892857Y-139511904D01*
X68035714Y-139511904D01*
X68130952Y-139559523D01*
X68178571Y-139607142D01*
X68226190Y-139702380D01*
X68226190Y-140083333D01*
X68702380Y-138559523D02*
X68702380Y-139130952D01*
X68702380Y-138845238D02*
X67702380Y-138845238D01*
X67845238Y-138940476D01*
X67940476Y-139035714D01*
X67988095Y-139130952D01*
X68035714Y-137702380D02*
X68702380Y-137702380D01*
X67654761Y-137940476D02*
X68369047Y-138178571D01*
X68369047Y-137559523D01*
%TO.C,C4*%
X71607142Y-69666666D02*
X71654761Y-69714285D01*
X71702380Y-69857142D01*
X71702380Y-69952380D01*
X71654761Y-70095238D01*
X71559523Y-70190476D01*
X71464285Y-70238095D01*
X71273809Y-70285714D01*
X71130952Y-70285714D01*
X70940476Y-70238095D01*
X70845238Y-70190476D01*
X70750000Y-70095238D01*
X70702380Y-69952380D01*
X70702380Y-69857142D01*
X70750000Y-69714285D01*
X70797619Y-69666666D01*
X71035714Y-68809523D02*
X71702380Y-68809523D01*
X70654761Y-69047619D02*
X71369047Y-69285714D01*
X71369047Y-68666666D01*
%TO.C,D2*%
X129986904Y-77202380D02*
X129986904Y-76202380D01*
X130225000Y-76202380D01*
X130367857Y-76250000D01*
X130463095Y-76345238D01*
X130510714Y-76440476D01*
X130558333Y-76630952D01*
X130558333Y-76773809D01*
X130510714Y-76964285D01*
X130463095Y-77059523D01*
X130367857Y-77154761D01*
X130225000Y-77202380D01*
X129986904Y-77202380D01*
X130939285Y-76297619D02*
X130986904Y-76250000D01*
X131082142Y-76202380D01*
X131320238Y-76202380D01*
X131415476Y-76250000D01*
X131463095Y-76297619D01*
X131510714Y-76392857D01*
X131510714Y-76488095D01*
X131463095Y-76630952D01*
X130891666Y-77202380D01*
X131510714Y-77202380D01*
%TO.C,R21*%
X88882142Y-146107380D02*
X88548809Y-145631190D01*
X88310714Y-146107380D02*
X88310714Y-145107380D01*
X88691666Y-145107380D01*
X88786904Y-145155000D01*
X88834523Y-145202619D01*
X88882142Y-145297857D01*
X88882142Y-145440714D01*
X88834523Y-145535952D01*
X88786904Y-145583571D01*
X88691666Y-145631190D01*
X88310714Y-145631190D01*
X89263095Y-145202619D02*
X89310714Y-145155000D01*
X89405952Y-145107380D01*
X89644047Y-145107380D01*
X89739285Y-145155000D01*
X89786904Y-145202619D01*
X89834523Y-145297857D01*
X89834523Y-145393095D01*
X89786904Y-145535952D01*
X89215476Y-146107380D01*
X89834523Y-146107380D01*
X90786904Y-146107380D02*
X90215476Y-146107380D01*
X90501190Y-146107380D02*
X90501190Y-145107380D01*
X90405952Y-145250238D01*
X90310714Y-145345476D01*
X90215476Y-145393095D01*
%TO.C,R13*%
X83589642Y-101622380D02*
X83256309Y-101146190D01*
X83018214Y-101622380D02*
X83018214Y-100622380D01*
X83399166Y-100622380D01*
X83494404Y-100670000D01*
X83542023Y-100717619D01*
X83589642Y-100812857D01*
X83589642Y-100955714D01*
X83542023Y-101050952D01*
X83494404Y-101098571D01*
X83399166Y-101146190D01*
X83018214Y-101146190D01*
X84542023Y-101622380D02*
X83970595Y-101622380D01*
X84256309Y-101622380D02*
X84256309Y-100622380D01*
X84161071Y-100765238D01*
X84065833Y-100860476D01*
X83970595Y-100908095D01*
X84875357Y-100622380D02*
X85494404Y-100622380D01*
X85161071Y-101003333D01*
X85303928Y-101003333D01*
X85399166Y-101050952D01*
X85446785Y-101098571D01*
X85494404Y-101193809D01*
X85494404Y-101431904D01*
X85446785Y-101527142D01*
X85399166Y-101574761D01*
X85303928Y-101622380D01*
X85018214Y-101622380D01*
X84922976Y-101574761D01*
X84875357Y-101527142D01*
%TO.C,R8*%
X84065833Y-92622380D02*
X83732500Y-92146190D01*
X83494404Y-92622380D02*
X83494404Y-91622380D01*
X83875357Y-91622380D01*
X83970595Y-91670000D01*
X84018214Y-91717619D01*
X84065833Y-91812857D01*
X84065833Y-91955714D01*
X84018214Y-92050952D01*
X83970595Y-92098571D01*
X83875357Y-92146190D01*
X83494404Y-92146190D01*
X84637261Y-92050952D02*
X84542023Y-92003333D01*
X84494404Y-91955714D01*
X84446785Y-91860476D01*
X84446785Y-91812857D01*
X84494404Y-91717619D01*
X84542023Y-91670000D01*
X84637261Y-91622380D01*
X84827738Y-91622380D01*
X84922976Y-91670000D01*
X84970595Y-91717619D01*
X85018214Y-91812857D01*
X85018214Y-91860476D01*
X84970595Y-91955714D01*
X84922976Y-92003333D01*
X84827738Y-92050952D01*
X84637261Y-92050952D01*
X84542023Y-92098571D01*
X84494404Y-92146190D01*
X84446785Y-92241428D01*
X84446785Y-92431904D01*
X84494404Y-92527142D01*
X84542023Y-92574761D01*
X84637261Y-92622380D01*
X84827738Y-92622380D01*
X84922976Y-92574761D01*
X84970595Y-92527142D01*
X85018214Y-92431904D01*
X85018214Y-92241428D01*
X84970595Y-92146190D01*
X84922976Y-92098571D01*
X84827738Y-92050952D01*
%TO.C,SW3*%
X117166666Y-118654761D02*
X117309523Y-118702380D01*
X117547619Y-118702380D01*
X117642857Y-118654761D01*
X117690476Y-118607142D01*
X117738095Y-118511904D01*
X117738095Y-118416666D01*
X117690476Y-118321428D01*
X117642857Y-118273809D01*
X117547619Y-118226190D01*
X117357142Y-118178571D01*
X117261904Y-118130952D01*
X117214285Y-118083333D01*
X117166666Y-117988095D01*
X117166666Y-117892857D01*
X117214285Y-117797619D01*
X117261904Y-117750000D01*
X117357142Y-117702380D01*
X117595238Y-117702380D01*
X117738095Y-117750000D01*
X118071428Y-117702380D02*
X118309523Y-118702380D01*
X118500000Y-117988095D01*
X118690476Y-118702380D01*
X118928571Y-117702380D01*
X119214285Y-117702380D02*
X119833333Y-117702380D01*
X119500000Y-118083333D01*
X119642857Y-118083333D01*
X119738095Y-118130952D01*
X119785714Y-118178571D01*
X119833333Y-118273809D01*
X119833333Y-118511904D01*
X119785714Y-118607142D01*
X119738095Y-118654761D01*
X119642857Y-118702380D01*
X119357142Y-118702380D01*
X119261904Y-118654761D01*
X119214285Y-118607142D01*
%TO.C,JP12*%
X82807380Y-118284523D02*
X83521666Y-118284523D01*
X83664523Y-118332142D01*
X83759761Y-118427380D01*
X83807380Y-118570238D01*
X83807380Y-118665476D01*
X83807380Y-117808333D02*
X82807380Y-117808333D01*
X82807380Y-117427380D01*
X82855000Y-117332142D01*
X82902619Y-117284523D01*
X82997857Y-117236904D01*
X83140714Y-117236904D01*
X83235952Y-117284523D01*
X83283571Y-117332142D01*
X83331190Y-117427380D01*
X83331190Y-117808333D01*
X83807380Y-116284523D02*
X83807380Y-116855952D01*
X83807380Y-116570238D02*
X82807380Y-116570238D01*
X82950238Y-116665476D01*
X83045476Y-116760714D01*
X83093095Y-116855952D01*
X82902619Y-115903571D02*
X82855000Y-115855952D01*
X82807380Y-115760714D01*
X82807380Y-115522619D01*
X82855000Y-115427380D01*
X82902619Y-115379761D01*
X82997857Y-115332142D01*
X83093095Y-115332142D01*
X83235952Y-115379761D01*
X83807380Y-115951190D01*
X83807380Y-115332142D01*
%TO.C,JP2*%
X134202380Y-128833333D02*
X134916666Y-128833333D01*
X135059523Y-128880952D01*
X135154761Y-128976190D01*
X135202380Y-129119047D01*
X135202380Y-129214285D01*
X135202380Y-128357142D02*
X134202380Y-128357142D01*
X134202380Y-127976190D01*
X134250000Y-127880952D01*
X134297619Y-127833333D01*
X134392857Y-127785714D01*
X134535714Y-127785714D01*
X134630952Y-127833333D01*
X134678571Y-127880952D01*
X134726190Y-127976190D01*
X134726190Y-128357142D01*
X134297619Y-127404761D02*
X134250000Y-127357142D01*
X134202380Y-127261904D01*
X134202380Y-127023809D01*
X134250000Y-126928571D01*
X134297619Y-126880952D01*
X134392857Y-126833333D01*
X134488095Y-126833333D01*
X134630952Y-126880952D01*
X135202380Y-127452380D01*
X135202380Y-126833333D01*
%TO.C,U3*%
X63488095Y-71162380D02*
X63488095Y-71971904D01*
X63535714Y-72067142D01*
X63583333Y-72114761D01*
X63678571Y-72162380D01*
X63869047Y-72162380D01*
X63964285Y-72114761D01*
X64011904Y-72067142D01*
X64059523Y-71971904D01*
X64059523Y-71162380D01*
X64440476Y-71162380D02*
X65059523Y-71162380D01*
X64726190Y-71543333D01*
X64869047Y-71543333D01*
X64964285Y-71590952D01*
X65011904Y-71638571D01*
X65059523Y-71733809D01*
X65059523Y-71971904D01*
X65011904Y-72067142D01*
X64964285Y-72114761D01*
X64869047Y-72162380D01*
X64583333Y-72162380D01*
X64488095Y-72114761D01*
X64440476Y-72067142D01*
%TO.C,JP9*%
X93916666Y-78152380D02*
X93916666Y-78866666D01*
X93869047Y-79009523D01*
X93773809Y-79104761D01*
X93630952Y-79152380D01*
X93535714Y-79152380D01*
X94392857Y-79152380D02*
X94392857Y-78152380D01*
X94773809Y-78152380D01*
X94869047Y-78200000D01*
X94916666Y-78247619D01*
X94964285Y-78342857D01*
X94964285Y-78485714D01*
X94916666Y-78580952D01*
X94869047Y-78628571D01*
X94773809Y-78676190D01*
X94392857Y-78676190D01*
X95440476Y-79152380D02*
X95630952Y-79152380D01*
X95726190Y-79104761D01*
X95773809Y-79057142D01*
X95869047Y-78914285D01*
X95916666Y-78723809D01*
X95916666Y-78342857D01*
X95869047Y-78247619D01*
X95821428Y-78200000D01*
X95726190Y-78152380D01*
X95535714Y-78152380D01*
X95440476Y-78200000D01*
X95392857Y-78247619D01*
X95345238Y-78342857D01*
X95345238Y-78580952D01*
X95392857Y-78676190D01*
X95440476Y-78723809D01*
X95535714Y-78771428D01*
X95726190Y-78771428D01*
X95821428Y-78723809D01*
X95869047Y-78676190D01*
X95916666Y-78580952D01*
%TO.C,U1*%
X74565595Y-106802380D02*
X74565595Y-107611904D01*
X74613214Y-107707142D01*
X74660833Y-107754761D01*
X74756071Y-107802380D01*
X74946547Y-107802380D01*
X75041785Y-107754761D01*
X75089404Y-107707142D01*
X75137023Y-107611904D01*
X75137023Y-106802380D01*
X76137023Y-107802380D02*
X75565595Y-107802380D01*
X75851309Y-107802380D02*
X75851309Y-106802380D01*
X75756071Y-106945238D01*
X75660833Y-107040476D01*
X75565595Y-107088095D01*
%TO.C,JP3*%
X122032380Y-98583333D02*
X122746666Y-98583333D01*
X122889523Y-98630952D01*
X122984761Y-98726190D01*
X123032380Y-98869047D01*
X123032380Y-98964285D01*
X123032380Y-98107142D02*
X122032380Y-98107142D01*
X122032380Y-97726190D01*
X122080000Y-97630952D01*
X122127619Y-97583333D01*
X122222857Y-97535714D01*
X122365714Y-97535714D01*
X122460952Y-97583333D01*
X122508571Y-97630952D01*
X122556190Y-97726190D01*
X122556190Y-98107142D01*
X122032380Y-97202380D02*
X122032380Y-96583333D01*
X122413333Y-96916666D01*
X122413333Y-96773809D01*
X122460952Y-96678571D01*
X122508571Y-96630952D01*
X122603809Y-96583333D01*
X122841904Y-96583333D01*
X122937142Y-96630952D01*
X122984761Y-96678571D01*
X123032380Y-96773809D01*
X123032380Y-97059523D01*
X122984761Y-97154761D01*
X122937142Y-97202380D01*
%TO.C,R20*%
X80407380Y-122367857D02*
X79931190Y-122701190D01*
X80407380Y-122939285D02*
X79407380Y-122939285D01*
X79407380Y-122558333D01*
X79455000Y-122463095D01*
X79502619Y-122415476D01*
X79597857Y-122367857D01*
X79740714Y-122367857D01*
X79835952Y-122415476D01*
X79883571Y-122463095D01*
X79931190Y-122558333D01*
X79931190Y-122939285D01*
X79502619Y-121986904D02*
X79455000Y-121939285D01*
X79407380Y-121844047D01*
X79407380Y-121605952D01*
X79455000Y-121510714D01*
X79502619Y-121463095D01*
X79597857Y-121415476D01*
X79693095Y-121415476D01*
X79835952Y-121463095D01*
X80407380Y-122034523D01*
X80407380Y-121415476D01*
X79407380Y-120796428D02*
X79407380Y-120701190D01*
X79455000Y-120605952D01*
X79502619Y-120558333D01*
X79597857Y-120510714D01*
X79788333Y-120463095D01*
X80026428Y-120463095D01*
X80216904Y-120510714D01*
X80312142Y-120558333D01*
X80359761Y-120605952D01*
X80407380Y-120701190D01*
X80407380Y-120796428D01*
X80359761Y-120891666D01*
X80312142Y-120939285D01*
X80216904Y-120986904D01*
X80026428Y-121034523D01*
X79788333Y-121034523D01*
X79597857Y-120986904D01*
X79502619Y-120939285D01*
X79455000Y-120891666D01*
X79407380Y-120796428D01*
%TO.C,CD1*%
X116177142Y-133466666D02*
X116224761Y-133514285D01*
X116272380Y-133657142D01*
X116272380Y-133752380D01*
X116224761Y-133895238D01*
X116129523Y-133990476D01*
X116034285Y-134038095D01*
X115843809Y-134085714D01*
X115700952Y-134085714D01*
X115510476Y-134038095D01*
X115415238Y-133990476D01*
X115320000Y-133895238D01*
X115272380Y-133752380D01*
X115272380Y-133657142D01*
X115320000Y-133514285D01*
X115367619Y-133466666D01*
X116272380Y-133038095D02*
X115272380Y-133038095D01*
X115272380Y-132800000D01*
X115320000Y-132657142D01*
X115415238Y-132561904D01*
X115510476Y-132514285D01*
X115700952Y-132466666D01*
X115843809Y-132466666D01*
X116034285Y-132514285D01*
X116129523Y-132561904D01*
X116224761Y-132657142D01*
X116272380Y-132800000D01*
X116272380Y-133038095D01*
X116272380Y-131514285D02*
X116272380Y-132085714D01*
X116272380Y-131800000D02*
X115272380Y-131800000D01*
X115415238Y-131895238D01*
X115510476Y-131990476D01*
X115558095Y-132085714D01*
%TO.C,R1*%
X127632380Y-72916666D02*
X127156190Y-73250000D01*
X127632380Y-73488095D02*
X126632380Y-73488095D01*
X126632380Y-73107142D01*
X126680000Y-73011904D01*
X126727619Y-72964285D01*
X126822857Y-72916666D01*
X126965714Y-72916666D01*
X127060952Y-72964285D01*
X127108571Y-73011904D01*
X127156190Y-73107142D01*
X127156190Y-73488095D01*
X127632380Y-71964285D02*
X127632380Y-72535714D01*
X127632380Y-72250000D02*
X126632380Y-72250000D01*
X126775238Y-72345238D01*
X126870476Y-72440476D01*
X126918095Y-72535714D01*
%TO.C,C1*%
X81268333Y-89307142D02*
X81220714Y-89354761D01*
X81077857Y-89402380D01*
X80982619Y-89402380D01*
X80839761Y-89354761D01*
X80744523Y-89259523D01*
X80696904Y-89164285D01*
X80649285Y-88973809D01*
X80649285Y-88830952D01*
X80696904Y-88640476D01*
X80744523Y-88545238D01*
X80839761Y-88450000D01*
X80982619Y-88402380D01*
X81077857Y-88402380D01*
X81220714Y-88450000D01*
X81268333Y-88497619D01*
X82220714Y-89402380D02*
X81649285Y-89402380D01*
X81935000Y-89402380D02*
X81935000Y-88402380D01*
X81839761Y-88545238D01*
X81744523Y-88640476D01*
X81649285Y-88688095D01*
%TO.C,U5*%
X81603095Y-123567380D02*
X81603095Y-124376904D01*
X81650714Y-124472142D01*
X81698333Y-124519761D01*
X81793571Y-124567380D01*
X81984047Y-124567380D01*
X82079285Y-124519761D01*
X82126904Y-124472142D01*
X82174523Y-124376904D01*
X82174523Y-123567380D01*
X83126904Y-123567380D02*
X82650714Y-123567380D01*
X82603095Y-124043571D01*
X82650714Y-123995952D01*
X82745952Y-123948333D01*
X82984047Y-123948333D01*
X83079285Y-123995952D01*
X83126904Y-124043571D01*
X83174523Y-124138809D01*
X83174523Y-124376904D01*
X83126904Y-124472142D01*
X83079285Y-124519761D01*
X82984047Y-124567380D01*
X82745952Y-124567380D01*
X82650714Y-124519761D01*
X82603095Y-124472142D01*
%TO.C,U2*%
X93988095Y-95702380D02*
X93988095Y-96511904D01*
X94035714Y-96607142D01*
X94083333Y-96654761D01*
X94178571Y-96702380D01*
X94369047Y-96702380D01*
X94464285Y-96654761D01*
X94511904Y-96607142D01*
X94559523Y-96511904D01*
X94559523Y-95702380D01*
X94988095Y-95797619D02*
X95035714Y-95750000D01*
X95130952Y-95702380D01*
X95369047Y-95702380D01*
X95464285Y-95750000D01*
X95511904Y-95797619D01*
X95559523Y-95892857D01*
X95559523Y-95988095D01*
X95511904Y-96130952D01*
X94940476Y-96702380D01*
X95559523Y-96702380D01*
%TO.C,JP13*%
X92940476Y-149782380D02*
X92940476Y-150496666D01*
X92892857Y-150639523D01*
X92797619Y-150734761D01*
X92654761Y-150782380D01*
X92559523Y-150782380D01*
X93416666Y-150782380D02*
X93416666Y-149782380D01*
X93797619Y-149782380D01*
X93892857Y-149830000D01*
X93940476Y-149877619D01*
X93988095Y-149972857D01*
X93988095Y-150115714D01*
X93940476Y-150210952D01*
X93892857Y-150258571D01*
X93797619Y-150306190D01*
X93416666Y-150306190D01*
X94940476Y-150782380D02*
X94369047Y-150782380D01*
X94654761Y-150782380D02*
X94654761Y-149782380D01*
X94559523Y-149925238D01*
X94464285Y-150020476D01*
X94369047Y-150068095D01*
X95273809Y-149782380D02*
X95892857Y-149782380D01*
X95559523Y-150163333D01*
X95702380Y-150163333D01*
X95797619Y-150210952D01*
X95845238Y-150258571D01*
X95892857Y-150353809D01*
X95892857Y-150591904D01*
X95845238Y-150687142D01*
X95797619Y-150734761D01*
X95702380Y-150782380D01*
X95416666Y-150782380D01*
X95321428Y-150734761D01*
X95273809Y-150687142D01*
%TO.C,R4*%
X121833333Y-114952380D02*
X121500000Y-114476190D01*
X121261904Y-114952380D02*
X121261904Y-113952380D01*
X121642857Y-113952380D01*
X121738095Y-114000000D01*
X121785714Y-114047619D01*
X121833333Y-114142857D01*
X121833333Y-114285714D01*
X121785714Y-114380952D01*
X121738095Y-114428571D01*
X121642857Y-114476190D01*
X121261904Y-114476190D01*
X122690476Y-114285714D02*
X122690476Y-114952380D01*
X122452380Y-113904761D02*
X122214285Y-114619047D01*
X122833333Y-114619047D01*
%TO.C,C2*%
X71607142Y-65576666D02*
X71654761Y-65624285D01*
X71702380Y-65767142D01*
X71702380Y-65862380D01*
X71654761Y-66005238D01*
X71559523Y-66100476D01*
X71464285Y-66148095D01*
X71273809Y-66195714D01*
X71130952Y-66195714D01*
X70940476Y-66148095D01*
X70845238Y-66100476D01*
X70750000Y-66005238D01*
X70702380Y-65862380D01*
X70702380Y-65767142D01*
X70750000Y-65624285D01*
X70797619Y-65576666D01*
X70797619Y-65195714D02*
X70750000Y-65148095D01*
X70702380Y-65052857D01*
X70702380Y-64814761D01*
X70750000Y-64719523D01*
X70797619Y-64671904D01*
X70892857Y-64624285D01*
X70988095Y-64624285D01*
X71130952Y-64671904D01*
X71702380Y-65243333D01*
X71702380Y-64624285D01*
%TO.C,JP11*%
X73940476Y-60552380D02*
X73940476Y-61266666D01*
X73892857Y-61409523D01*
X73797619Y-61504761D01*
X73654761Y-61552380D01*
X73559523Y-61552380D01*
X74416666Y-61552380D02*
X74416666Y-60552380D01*
X74797619Y-60552380D01*
X74892857Y-60600000D01*
X74940476Y-60647619D01*
X74988095Y-60742857D01*
X74988095Y-60885714D01*
X74940476Y-60980952D01*
X74892857Y-61028571D01*
X74797619Y-61076190D01*
X74416666Y-61076190D01*
X75940476Y-61552380D02*
X75369047Y-61552380D01*
X75654761Y-61552380D02*
X75654761Y-60552380D01*
X75559523Y-60695238D01*
X75464285Y-60790476D01*
X75369047Y-60838095D01*
X76892857Y-61552380D02*
X76321428Y-61552380D01*
X76607142Y-61552380D02*
X76607142Y-60552380D01*
X76511904Y-60695238D01*
X76416666Y-60790476D01*
X76321428Y-60838095D01*
%TO.C,U4*%
X51852380Y-105006904D02*
X52661904Y-105006904D01*
X52757142Y-104959285D01*
X52804761Y-104911666D01*
X52852380Y-104816428D01*
X52852380Y-104625952D01*
X52804761Y-104530714D01*
X52757142Y-104483095D01*
X52661904Y-104435476D01*
X51852380Y-104435476D01*
X52185714Y-103530714D02*
X52852380Y-103530714D01*
X51804761Y-103768809D02*
X52519047Y-104006904D01*
X52519047Y-103387857D01*
%TO.C,D1*%
X119761904Y-77202380D02*
X119761904Y-76202380D01*
X120000000Y-76202380D01*
X120142857Y-76250000D01*
X120238095Y-76345238D01*
X120285714Y-76440476D01*
X120333333Y-76630952D01*
X120333333Y-76773809D01*
X120285714Y-76964285D01*
X120238095Y-77059523D01*
X120142857Y-77154761D01*
X120000000Y-77202380D01*
X119761904Y-77202380D01*
X121285714Y-77202380D02*
X120714285Y-77202380D01*
X121000000Y-77202380D02*
X121000000Y-76202380D01*
X120904761Y-76345238D01*
X120809523Y-76440476D01*
X120714285Y-76488095D01*
%TO.C,J8*%
X51916666Y-148202380D02*
X51916666Y-148916666D01*
X51869047Y-149059523D01*
X51773809Y-149154761D01*
X51630952Y-149202380D01*
X51535714Y-149202380D01*
X52535714Y-148630952D02*
X52440476Y-148583333D01*
X52392857Y-148535714D01*
X52345238Y-148440476D01*
X52345238Y-148392857D01*
X52392857Y-148297619D01*
X52440476Y-148250000D01*
X52535714Y-148202380D01*
X52726190Y-148202380D01*
X52821428Y-148250000D01*
X52869047Y-148297619D01*
X52916666Y-148392857D01*
X52916666Y-148440476D01*
X52869047Y-148535714D01*
X52821428Y-148583333D01*
X52726190Y-148630952D01*
X52535714Y-148630952D01*
X52440476Y-148678571D01*
X52392857Y-148726190D01*
X52345238Y-148821428D01*
X52345238Y-149011904D01*
X52392857Y-149107142D01*
X52440476Y-149154761D01*
X52535714Y-149202380D01*
X52726190Y-149202380D01*
X52821428Y-149154761D01*
X52869047Y-149107142D01*
X52916666Y-149011904D01*
X52916666Y-148821428D01*
X52869047Y-148726190D01*
X52821428Y-148678571D01*
X52726190Y-148630952D01*
%TO.C,R14*%
X83589642Y-104622380D02*
X83256309Y-104146190D01*
X83018214Y-104622380D02*
X83018214Y-103622380D01*
X83399166Y-103622380D01*
X83494404Y-103670000D01*
X83542023Y-103717619D01*
X83589642Y-103812857D01*
X83589642Y-103955714D01*
X83542023Y-104050952D01*
X83494404Y-104098571D01*
X83399166Y-104146190D01*
X83018214Y-104146190D01*
X84542023Y-104622380D02*
X83970595Y-104622380D01*
X84256309Y-104622380D02*
X84256309Y-103622380D01*
X84161071Y-103765238D01*
X84065833Y-103860476D01*
X83970595Y-103908095D01*
X85399166Y-103955714D02*
X85399166Y-104622380D01*
X85161071Y-103574761D02*
X84922976Y-104289047D01*
X85542023Y-104289047D01*
%TO.C,JP4*%
X134532380Y-98583333D02*
X135246666Y-98583333D01*
X135389523Y-98630952D01*
X135484761Y-98726190D01*
X135532380Y-98869047D01*
X135532380Y-98964285D01*
X135532380Y-98107142D02*
X134532380Y-98107142D01*
X134532380Y-97726190D01*
X134580000Y-97630952D01*
X134627619Y-97583333D01*
X134722857Y-97535714D01*
X134865714Y-97535714D01*
X134960952Y-97583333D01*
X135008571Y-97630952D01*
X135056190Y-97726190D01*
X135056190Y-98107142D01*
X134865714Y-96678571D02*
X135532380Y-96678571D01*
X134484761Y-96916666D02*
X135199047Y-97154761D01*
X135199047Y-96535714D01*
%TO.C,R15*%
X83589642Y-86622380D02*
X83256309Y-86146190D01*
X83018214Y-86622380D02*
X83018214Y-85622380D01*
X83399166Y-85622380D01*
X83494404Y-85670000D01*
X83542023Y-85717619D01*
X83589642Y-85812857D01*
X83589642Y-85955714D01*
X83542023Y-86050952D01*
X83494404Y-86098571D01*
X83399166Y-86146190D01*
X83018214Y-86146190D01*
X84542023Y-86622380D02*
X83970595Y-86622380D01*
X84256309Y-86622380D02*
X84256309Y-85622380D01*
X84161071Y-85765238D01*
X84065833Y-85860476D01*
X83970595Y-85908095D01*
X85446785Y-85622380D02*
X84970595Y-85622380D01*
X84922976Y-86098571D01*
X84970595Y-86050952D01*
X85065833Y-86003333D01*
X85303928Y-86003333D01*
X85399166Y-86050952D01*
X85446785Y-86098571D01*
X85494404Y-86193809D01*
X85494404Y-86431904D01*
X85446785Y-86527142D01*
X85399166Y-86574761D01*
X85303928Y-86622380D01*
X85065833Y-86622380D01*
X84970595Y-86574761D01*
X84922976Y-86527142D01*
%TO.C,R12*%
X68152380Y-97342857D02*
X67676190Y-97676190D01*
X68152380Y-97914285D02*
X67152380Y-97914285D01*
X67152380Y-97533333D01*
X67200000Y-97438095D01*
X67247619Y-97390476D01*
X67342857Y-97342857D01*
X67485714Y-97342857D01*
X67580952Y-97390476D01*
X67628571Y-97438095D01*
X67676190Y-97533333D01*
X67676190Y-97914285D01*
X68152380Y-96390476D02*
X68152380Y-96961904D01*
X68152380Y-96676190D02*
X67152380Y-96676190D01*
X67295238Y-96771428D01*
X67390476Y-96866666D01*
X67438095Y-96961904D01*
X67247619Y-96009523D02*
X67200000Y-95961904D01*
X67152380Y-95866666D01*
X67152380Y-95628571D01*
X67200000Y-95533333D01*
X67247619Y-95485714D01*
X67342857Y-95438095D01*
X67438095Y-95438095D01*
X67580952Y-95485714D01*
X68152380Y-96057142D01*
X68152380Y-95438095D01*
%TO.C,R10*%
X138132380Y-82617857D02*
X137656190Y-82951190D01*
X138132380Y-83189285D02*
X137132380Y-83189285D01*
X137132380Y-82808333D01*
X137180000Y-82713095D01*
X137227619Y-82665476D01*
X137322857Y-82617857D01*
X137465714Y-82617857D01*
X137560952Y-82665476D01*
X137608571Y-82713095D01*
X137656190Y-82808333D01*
X137656190Y-83189285D01*
X138132380Y-81665476D02*
X138132380Y-82236904D01*
X138132380Y-81951190D02*
X137132380Y-81951190D01*
X137275238Y-82046428D01*
X137370476Y-82141666D01*
X137418095Y-82236904D01*
X137132380Y-81046428D02*
X137132380Y-80951190D01*
X137180000Y-80855952D01*
X137227619Y-80808333D01*
X137322857Y-80760714D01*
X137513333Y-80713095D01*
X137751428Y-80713095D01*
X137941904Y-80760714D01*
X138037142Y-80808333D01*
X138084761Y-80855952D01*
X138132380Y-80951190D01*
X138132380Y-81046428D01*
X138084761Y-81141666D01*
X138037142Y-81189285D01*
X137941904Y-81236904D01*
X137751428Y-81284523D01*
X137513333Y-81284523D01*
X137322857Y-81236904D01*
X137227619Y-81189285D01*
X137180000Y-81141666D01*
X137132380Y-81046428D01*
%TO.C,R6*%
X136083333Y-114702380D02*
X135750000Y-114226190D01*
X135511904Y-114702380D02*
X135511904Y-113702380D01*
X135892857Y-113702380D01*
X135988095Y-113750000D01*
X136035714Y-113797619D01*
X136083333Y-113892857D01*
X136083333Y-114035714D01*
X136035714Y-114130952D01*
X135988095Y-114178571D01*
X135892857Y-114226190D01*
X135511904Y-114226190D01*
X136940476Y-113702380D02*
X136750000Y-113702380D01*
X136654761Y-113750000D01*
X136607142Y-113797619D01*
X136511904Y-113940476D01*
X136464285Y-114130952D01*
X136464285Y-114511904D01*
X136511904Y-114607142D01*
X136559523Y-114654761D01*
X136654761Y-114702380D01*
X136845238Y-114702380D01*
X136940476Y-114654761D01*
X136988095Y-114607142D01*
X137035714Y-114511904D01*
X137035714Y-114273809D01*
X136988095Y-114178571D01*
X136940476Y-114130952D01*
X136845238Y-114083333D01*
X136654761Y-114083333D01*
X136559523Y-114130952D01*
X136511904Y-114178571D01*
X136464285Y-114273809D01*
%TO.C,R16*%
X83589642Y-89622380D02*
X83256309Y-89146190D01*
X83018214Y-89622380D02*
X83018214Y-88622380D01*
X83399166Y-88622380D01*
X83494404Y-88670000D01*
X83542023Y-88717619D01*
X83589642Y-88812857D01*
X83589642Y-88955714D01*
X83542023Y-89050952D01*
X83494404Y-89098571D01*
X83399166Y-89146190D01*
X83018214Y-89146190D01*
X84542023Y-89622380D02*
X83970595Y-89622380D01*
X84256309Y-89622380D02*
X84256309Y-88622380D01*
X84161071Y-88765238D01*
X84065833Y-88860476D01*
X83970595Y-88908095D01*
X85399166Y-88622380D02*
X85208690Y-88622380D01*
X85113452Y-88670000D01*
X85065833Y-88717619D01*
X84970595Y-88860476D01*
X84922976Y-89050952D01*
X84922976Y-89431904D01*
X84970595Y-89527142D01*
X85018214Y-89574761D01*
X85113452Y-89622380D01*
X85303928Y-89622380D01*
X85399166Y-89574761D01*
X85446785Y-89527142D01*
X85494404Y-89431904D01*
X85494404Y-89193809D01*
X85446785Y-89098571D01*
X85399166Y-89050952D01*
X85303928Y-89003333D01*
X85113452Y-89003333D01*
X85018214Y-89050952D01*
X84970595Y-89098571D01*
X84922976Y-89193809D01*
%TO.C,D3*%
X119511904Y-86452380D02*
X119511904Y-85452380D01*
X119750000Y-85452380D01*
X119892857Y-85500000D01*
X119988095Y-85595238D01*
X120035714Y-85690476D01*
X120083333Y-85880952D01*
X120083333Y-86023809D01*
X120035714Y-86214285D01*
X119988095Y-86309523D01*
X119892857Y-86404761D01*
X119750000Y-86452380D01*
X119511904Y-86452380D01*
X120416666Y-85452380D02*
X121035714Y-85452380D01*
X120702380Y-85833333D01*
X120845238Y-85833333D01*
X120940476Y-85880952D01*
X120988095Y-85928571D01*
X121035714Y-86023809D01*
X121035714Y-86261904D01*
X120988095Y-86357142D01*
X120940476Y-86404761D01*
X120845238Y-86452380D01*
X120559523Y-86452380D01*
X120464285Y-86404761D01*
X120416666Y-86357142D01*
%TO.C,R5*%
X138107380Y-72916666D02*
X137631190Y-73250000D01*
X138107380Y-73488095D02*
X137107380Y-73488095D01*
X137107380Y-73107142D01*
X137155000Y-73011904D01*
X137202619Y-72964285D01*
X137297857Y-72916666D01*
X137440714Y-72916666D01*
X137535952Y-72964285D01*
X137583571Y-73011904D01*
X137631190Y-73107142D01*
X137631190Y-73488095D01*
X137107380Y-72011904D02*
X137107380Y-72488095D01*
X137583571Y-72535714D01*
X137535952Y-72488095D01*
X137488333Y-72392857D01*
X137488333Y-72154761D01*
X137535952Y-72059523D01*
X137583571Y-72011904D01*
X137678809Y-71964285D01*
X137916904Y-71964285D01*
X138012142Y-72011904D01*
X138059761Y-72059523D01*
X138107380Y-72154761D01*
X138107380Y-72392857D01*
X138059761Y-72488095D01*
X138012142Y-72535714D01*
%TO.C,R19*%
X89452380Y-70642857D02*
X88976190Y-70976190D01*
X89452380Y-71214285D02*
X88452380Y-71214285D01*
X88452380Y-70833333D01*
X88500000Y-70738095D01*
X88547619Y-70690476D01*
X88642857Y-70642857D01*
X88785714Y-70642857D01*
X88880952Y-70690476D01*
X88928571Y-70738095D01*
X88976190Y-70833333D01*
X88976190Y-71214285D01*
X89452380Y-69690476D02*
X89452380Y-70261904D01*
X89452380Y-69976190D02*
X88452380Y-69976190D01*
X88595238Y-70071428D01*
X88690476Y-70166666D01*
X88738095Y-70261904D01*
X89452380Y-69214285D02*
X89452380Y-69023809D01*
X89404761Y-68928571D01*
X89357142Y-68880952D01*
X89214285Y-68785714D01*
X89023809Y-68738095D01*
X88642857Y-68738095D01*
X88547619Y-68785714D01*
X88500000Y-68833333D01*
X88452380Y-68928571D01*
X88452380Y-69119047D01*
X88500000Y-69214285D01*
X88547619Y-69261904D01*
X88642857Y-69309523D01*
X88880952Y-69309523D01*
X88976190Y-69261904D01*
X89023809Y-69214285D01*
X89071428Y-69119047D01*
X89071428Y-68928571D01*
X89023809Y-68833333D01*
X88976190Y-68785714D01*
X88880952Y-68738095D01*
%TO.C,J5*%
X51916666Y-59202380D02*
X51916666Y-59916666D01*
X51869047Y-60059523D01*
X51773809Y-60154761D01*
X51630952Y-60202380D01*
X51535714Y-60202380D01*
X52869047Y-59202380D02*
X52392857Y-59202380D01*
X52345238Y-59678571D01*
X52392857Y-59630952D01*
X52488095Y-59583333D01*
X52726190Y-59583333D01*
X52821428Y-59630952D01*
X52869047Y-59678571D01*
X52916666Y-59773809D01*
X52916666Y-60011904D01*
X52869047Y-60107142D01*
X52821428Y-60154761D01*
X52726190Y-60202380D01*
X52488095Y-60202380D01*
X52392857Y-60154761D01*
X52345238Y-60107142D01*
%TO.C,R9*%
X84065833Y-95622380D02*
X83732500Y-95146190D01*
X83494404Y-95622380D02*
X83494404Y-94622380D01*
X83875357Y-94622380D01*
X83970595Y-94670000D01*
X84018214Y-94717619D01*
X84065833Y-94812857D01*
X84065833Y-94955714D01*
X84018214Y-95050952D01*
X83970595Y-95098571D01*
X83875357Y-95146190D01*
X83494404Y-95146190D01*
X84542023Y-95622380D02*
X84732500Y-95622380D01*
X84827738Y-95574761D01*
X84875357Y-95527142D01*
X84970595Y-95384285D01*
X85018214Y-95193809D01*
X85018214Y-94812857D01*
X84970595Y-94717619D01*
X84922976Y-94670000D01*
X84827738Y-94622380D01*
X84637261Y-94622380D01*
X84542023Y-94670000D01*
X84494404Y-94717619D01*
X84446785Y-94812857D01*
X84446785Y-95050952D01*
X84494404Y-95146190D01*
X84542023Y-95193809D01*
X84637261Y-95241428D01*
X84827738Y-95241428D01*
X84922976Y-95193809D01*
X84970595Y-95146190D01*
X85018214Y-95050952D01*
%TO.C,R7*%
X127632380Y-81916666D02*
X127156190Y-82250000D01*
X127632380Y-82488095D02*
X126632380Y-82488095D01*
X126632380Y-82107142D01*
X126680000Y-82011904D01*
X126727619Y-81964285D01*
X126822857Y-81916666D01*
X126965714Y-81916666D01*
X127060952Y-81964285D01*
X127108571Y-82011904D01*
X127156190Y-82107142D01*
X127156190Y-82488095D01*
X126632380Y-81583333D02*
X126632380Y-80916666D01*
X127632380Y-81345238D01*
%TO.C,R2*%
X112952380Y-132916666D02*
X112476190Y-133250000D01*
X112952380Y-133488095D02*
X111952380Y-133488095D01*
X111952380Y-133107142D01*
X112000000Y-133011904D01*
X112047619Y-132964285D01*
X112142857Y-132916666D01*
X112285714Y-132916666D01*
X112380952Y-132964285D01*
X112428571Y-133011904D01*
X112476190Y-133107142D01*
X112476190Y-133488095D01*
X112047619Y-132535714D02*
X112000000Y-132488095D01*
X111952380Y-132392857D01*
X111952380Y-132154761D01*
X112000000Y-132059523D01*
X112047619Y-132011904D01*
X112142857Y-131964285D01*
X112238095Y-131964285D01*
X112380952Y-132011904D01*
X112952380Y-132583333D01*
X112952380Y-131964285D01*
D13*
%TO.C,R11*%
X83995242Y-100122500D02*
X84469758Y-100122500D01*
X83995242Y-99077500D02*
X84469758Y-99077500D01*
%TO.C,D4*%
X133315000Y-83520000D02*
X133315000Y-80430000D01*
X133315000Y-80430170D02*
G75*
G03*
X127765000Y-81975462I-2560000J-1544830D01*
G01*
X127765000Y-81974538D02*
G75*
G03*
X133315000Y-83519830I2990000J-462D01*
G01*
X133255000Y-81975000D02*
G75*
G03*
X133255000Y-81975000I-2500000J0D01*
G01*
%TO.C,SW1*%
X121650000Y-138350000D02*
X121650000Y-150650000D01*
X111470000Y-150650000D02*
X109350000Y-150650000D01*
X121650000Y-150650000D02*
X119530000Y-150650000D01*
X119530000Y-138350000D02*
X121650000Y-138350000D01*
X116470000Y-150650000D02*
X114530000Y-150650000D01*
X109350000Y-138350000D02*
X111470000Y-138350000D01*
X114530000Y-138350000D02*
X116470000Y-138350000D01*
X109350000Y-150650000D02*
X109350000Y-138350000D01*
%TO.C,CD2*%
X131740000Y-132390580D02*
X131740000Y-132109420D01*
X132760000Y-132390580D02*
X132760000Y-132109420D01*
%TO.C,JP5*%
X134080000Y-88170000D02*
X134080000Y-89500000D01*
X132750000Y-88170000D02*
X134080000Y-88170000D01*
X131480000Y-90830000D02*
X128880000Y-90830000D01*
X131480000Y-88170000D02*
X131480000Y-90830000D01*
X131480000Y-88170000D02*
X128880000Y-88170000D01*
X128880000Y-88170000D02*
X128880000Y-90830000D01*
%TO.C,C3*%
X90035000Y-125115580D02*
X90035000Y-124834420D01*
X89015000Y-125115580D02*
X89015000Y-124834420D01*
%TO.C,SW4*%
X131250000Y-117000000D02*
X134250000Y-117000000D01*
X134250000Y-117000000D02*
X134250000Y-106500000D01*
X134250000Y-106500000D02*
X131250000Y-106500000D01*
X131250000Y-106500000D02*
X131250000Y-117000000D01*
%TO.C,JP10*%
X82720000Y-57170000D02*
X87860000Y-57170000D01*
X81450000Y-59830000D02*
X80120000Y-59830000D01*
X80120000Y-59830000D02*
X80120000Y-58500000D01*
X82720000Y-59830000D02*
X87860000Y-59830000D01*
X82720000Y-59830000D02*
X82720000Y-57170000D01*
X87860000Y-59830000D02*
X87860000Y-57170000D01*
%TO.C,R3*%
X128477500Y-132012742D02*
X128477500Y-132487258D01*
X129522500Y-132012742D02*
X129522500Y-132487258D01*
%TO.C,JP1*%
X114475000Y-129830000D02*
X113145000Y-129830000D01*
X115745000Y-127170000D02*
X118345000Y-127170000D01*
X115745000Y-129830000D02*
X118345000Y-129830000D01*
X115745000Y-129830000D02*
X115745000Y-127170000D01*
X113145000Y-129830000D02*
X113145000Y-128500000D01*
X118345000Y-129830000D02*
X118345000Y-127170000D01*
%TO.C,J2*%
X123945000Y-59830000D02*
X134165000Y-59830000D01*
X134165000Y-59830000D02*
X134165000Y-57170000D01*
X121345000Y-59830000D02*
X121345000Y-58500000D01*
X122675000Y-59830000D02*
X121345000Y-59830000D01*
X123945000Y-57170000D02*
X134165000Y-57170000D01*
X123945000Y-59830000D02*
X123945000Y-57170000D01*
%TO.C,SW2*%
X131470000Y-150650000D02*
X129530000Y-150650000D01*
X124350000Y-138350000D02*
X126470000Y-138350000D01*
X129530000Y-138350000D02*
X131470000Y-138350000D01*
X124350000Y-150650000D02*
X124350000Y-138350000D01*
X126470000Y-150650000D02*
X124350000Y-150650000D01*
X136650000Y-150650000D02*
X134530000Y-150650000D01*
X136650000Y-138350000D02*
X136650000Y-150650000D01*
X134530000Y-138350000D02*
X136650000Y-138350000D01*
%TO.C,JP14*%
X63920000Y-137995000D02*
X66580000Y-137995000D01*
X63920000Y-143135000D02*
X66580000Y-143135000D01*
X63920000Y-136725000D02*
X63920000Y-135395000D01*
X66580000Y-137995000D02*
X66580000Y-143135000D01*
X63920000Y-135395000D02*
X65250000Y-135395000D01*
X63920000Y-137995000D02*
X63920000Y-143135000D01*
%TO.C,J6*%
X86855000Y-160155000D02*
X97135000Y-160155000D01*
X95605000Y-156280000D02*
X95570000Y-156316000D01*
X86855000Y-161655000D02*
X97135000Y-161655000D01*
X97135000Y-152294000D02*
X97135000Y-162215000D01*
X86855000Y-152294000D02*
X86855000Y-162215000D01*
X86855000Y-155254000D02*
X97135000Y-155254000D01*
X95810000Y-156486000D02*
X95763000Y-156532000D01*
X86615000Y-162455000D02*
X87115000Y-162455000D01*
X86855000Y-152294000D02*
X97135000Y-152294000D01*
X93308000Y-158578000D02*
X93261000Y-158624000D01*
X93501000Y-158794000D02*
X93466000Y-158829000D01*
X86855000Y-162215000D02*
X97135000Y-162215000D01*
X86615000Y-161715000D02*
X86615000Y-162455000D01*
X90139000Y-156020000D02*
G75*
G03*
X88771958Y-156019573I-684001J-1534993D01*
G01*
X88771000Y-159090000D02*
G75*
G03*
X89483805Y-159235253I683999J1535001D01*
G01*
X87920000Y-156871000D02*
G75*
G03*
X87919573Y-158238042I1534993J-684001D01*
G01*
X90990001Y-158239000D02*
G75*
G03*
X90990427Y-156871958I-1535001J684000D01*
G01*
X89455000Y-159235000D02*
G75*
G03*
X90138318Y-159089756I0J1680000D01*
G01*
X96215000Y-157555000D02*
G75*
G03*
X96215000Y-157555000I-1680000J0D01*
G01*
%TO.C,C4*%
X69240000Y-69359420D02*
X69240000Y-69640580D01*
X70260000Y-69359420D02*
X70260000Y-69640580D01*
%TO.C,D2*%
X133315000Y-74295000D02*
X133315000Y-71205000D01*
X133315000Y-71205170D02*
G75*
G03*
X127765000Y-72750462I-2560000J-1544830D01*
G01*
X127765000Y-72749538D02*
G75*
G03*
X133315000Y-74294830I2990000J-462D01*
G01*
X133255000Y-72750000D02*
G75*
G03*
X133255000Y-72750000I-2500000J0D01*
G01*
%TO.C,R21*%
X89762258Y-144747500D02*
X89287742Y-144747500D01*
X89762258Y-143702500D02*
X89287742Y-143702500D01*
%TO.C,R13*%
X83995242Y-103122500D02*
X84469758Y-103122500D01*
X83995242Y-102077500D02*
X84469758Y-102077500D01*
%TO.C,R8*%
X83995242Y-94122500D02*
X84469758Y-94122500D01*
X83995242Y-93077500D02*
X84469758Y-93077500D01*
%TO.C,SW3*%
X117000000Y-117250000D02*
X120000000Y-117250000D01*
X120000000Y-117250000D02*
X120000000Y-106750000D01*
X120000000Y-106750000D02*
X117000000Y-106750000D01*
X117000000Y-106750000D02*
X117000000Y-117250000D01*
%TO.C,JP12*%
X81025000Y-115645000D02*
X82355000Y-115645000D01*
X79755000Y-115645000D02*
X79755000Y-118305000D01*
X79755000Y-118305000D02*
X74615000Y-118305000D01*
X79755000Y-115645000D02*
X74615000Y-115645000D01*
X74615000Y-115645000D02*
X74615000Y-118305000D01*
X82355000Y-115645000D02*
X82355000Y-116975000D01*
%TO.C,JP2*%
X130745000Y-129330000D02*
X130745000Y-126670000D01*
X133345000Y-129330000D02*
X133345000Y-126670000D01*
X128145000Y-129330000D02*
X128145000Y-128000000D01*
X129475000Y-129330000D02*
X128145000Y-129330000D01*
X130745000Y-129330000D02*
X133345000Y-129330000D01*
X130745000Y-126670000D02*
X133345000Y-126670000D01*
%TO.C,J1*%
X128835000Y-53700000D02*
X128835000Y-46300000D01*
X51365000Y-53700000D02*
X128835000Y-53700000D01*
X51365000Y-46300000D02*
X51365000Y-53700000D01*
%TO.C,U3*%
X64250000Y-65530000D02*
X60800000Y-65530000D01*
X64250000Y-70650000D02*
X62300000Y-70650000D01*
X64250000Y-70650000D02*
X66200000Y-70650000D01*
X64250000Y-65530000D02*
X66200000Y-65530000D01*
%TO.C,JP9*%
X98635000Y-83830000D02*
X98635000Y-81170000D01*
X90895000Y-83830000D02*
X90895000Y-82500000D01*
X92225000Y-83830000D02*
X90895000Y-83830000D01*
X93495000Y-83830000D02*
X98635000Y-83830000D01*
X93495000Y-83830000D02*
X93495000Y-81170000D01*
X93495000Y-81170000D02*
X98635000Y-81170000D01*
%TO.C,U1*%
X77977500Y-86045000D02*
X76327500Y-86045000D01*
X74327500Y-86045000D02*
X72677500Y-86045000D01*
X72677500Y-86045000D02*
X72677500Y-106485000D01*
X77977500Y-106485000D02*
X77977500Y-86045000D01*
X72677500Y-106485000D02*
X77977500Y-106485000D01*
X74327500Y-86045000D02*
G75*
G03*
X76327500Y-86045000I1000000J0D01*
G01*
%TO.C,R18*%
X81350000Y-71550000D02*
X81350000Y-68500000D01*
X85650000Y-71550000D02*
X85650000Y-68500000D01*
X81334474Y-71528234D02*
G75*
G03*
X85650000Y-71550000I2165526J1528234D01*
G01*
X85618249Y-68455487D02*
G75*
G03*
X81350000Y-68500000I-2118249J-1544513D01*
G01*
%TO.C,JP3*%
X118980000Y-99080000D02*
X116380000Y-99080000D01*
X118980000Y-96420000D02*
X118980000Y-99080000D01*
X116380000Y-96420000D02*
X116380000Y-99080000D01*
X121580000Y-96420000D02*
X121580000Y-97750000D01*
X120250000Y-96420000D02*
X121580000Y-96420000D01*
X118980000Y-96420000D02*
X116380000Y-96420000D01*
%TO.C,R20*%
X78002500Y-121487742D02*
X78002500Y-121962258D01*
X79047500Y-121487742D02*
X79047500Y-121962258D01*
%TO.C,CD1*%
X116740000Y-132940580D02*
X116740000Y-132659420D01*
X117760000Y-132940580D02*
X117760000Y-132659420D01*
%TO.C,R1*%
X126272500Y-72512742D02*
X126272500Y-72987258D01*
X125227500Y-72512742D02*
X125227500Y-72987258D01*
%TO.C,C1*%
X80990000Y-86740580D02*
X80990000Y-86459420D01*
X82010000Y-86740580D02*
X82010000Y-86459420D01*
%TO.C,U5*%
X79715000Y-125115000D02*
X79715000Y-145555000D01*
X85015000Y-125115000D02*
X83365000Y-125115000D01*
X81365000Y-125115000D02*
X79715000Y-125115000D01*
X79715000Y-145555000D02*
X85015000Y-145555000D01*
X85015000Y-145555000D02*
X85015000Y-125115000D01*
X81365000Y-125115000D02*
G75*
G03*
X83365000Y-125115000I1000000J0D01*
G01*
D14*
%TO.C,U2*%
X88250000Y-87250000D02*
X101250000Y-87250000D01*
X101250000Y-87250000D02*
X101250000Y-105250000D01*
X101250000Y-105250000D02*
X88250000Y-105250000D01*
X88250000Y-105250000D02*
X88250000Y-87250000D01*
D13*
%TO.C,JP13*%
X95580000Y-146730000D02*
X95580000Y-141590000D01*
X92920000Y-146730000D02*
X92920000Y-141590000D01*
X95580000Y-149330000D02*
X94250000Y-149330000D01*
X95580000Y-148000000D02*
X95580000Y-149330000D01*
X95580000Y-146730000D02*
X92920000Y-146730000D01*
X95580000Y-141590000D02*
X92920000Y-141590000D01*
%TO.C,R4*%
X122522500Y-112237258D02*
X122522500Y-111762742D01*
X121477500Y-112237258D02*
X121477500Y-111762742D01*
%TO.C,C2*%
X70260000Y-65550580D02*
X70260000Y-65269420D01*
X69240000Y-65550580D02*
X69240000Y-65269420D01*
%TO.C,JP11*%
X79105000Y-57170000D02*
X79105000Y-58500000D01*
X76505000Y-57170000D02*
X76505000Y-59830000D01*
X76505000Y-57170000D02*
X71365000Y-57170000D01*
X71365000Y-57170000D02*
X71365000Y-59830000D01*
X77775000Y-57170000D02*
X79105000Y-57170000D01*
X76505000Y-59830000D02*
X71365000Y-59830000D01*
%TO.C,U4*%
X46440000Y-104245000D02*
X46440000Y-106195000D01*
X51560000Y-104245000D02*
X51560000Y-100795000D01*
X51560000Y-104245000D02*
X51560000Y-106195000D01*
X46440000Y-104245000D02*
X46440000Y-102295000D01*
%TO.C,D1*%
X123065000Y-74295000D02*
X123065000Y-71205000D01*
X123065000Y-71205170D02*
G75*
G03*
X117515000Y-72750462I-2560000J-1544830D01*
G01*
X117515000Y-72749538D02*
G75*
G03*
X123065000Y-74294830I2990000J-462D01*
G01*
X123005000Y-72750000D02*
G75*
G03*
X123005000Y-72750000I-2500000J0D01*
G01*
%TO.C,R14*%
X83995242Y-106122500D02*
X84469758Y-106122500D01*
X83995242Y-105077500D02*
X84469758Y-105077500D01*
%TO.C,JP4*%
X131480000Y-99080000D02*
X128880000Y-99080000D01*
X128880000Y-96420000D02*
X128880000Y-99080000D01*
X131480000Y-96420000D02*
X131480000Y-99080000D01*
X132750000Y-96420000D02*
X134080000Y-96420000D01*
X134080000Y-96420000D02*
X134080000Y-97750000D01*
X131480000Y-96420000D02*
X128880000Y-96420000D01*
%TO.C,R17*%
X56120000Y-135410000D02*
X56120000Y-73010000D01*
X56120000Y-73010000D02*
X41880000Y-73010000D01*
X41880000Y-135410000D02*
X56120000Y-135410000D01*
X41880000Y-73010000D02*
X41880000Y-135410000D01*
X49000000Y-138060000D02*
X49000000Y-135410000D01*
X49000000Y-70310000D02*
X49000000Y-73010000D01*
%TO.C,R15*%
X83995242Y-87077500D02*
X84469758Y-87077500D01*
X83995242Y-88122500D02*
X84469758Y-88122500D01*
%TO.C,R12*%
X68777500Y-96462742D02*
X68777500Y-96937258D01*
X69822500Y-96462742D02*
X69822500Y-96937258D01*
%TO.C,R10*%
X136772500Y-81737742D02*
X136772500Y-82212258D01*
X135727500Y-81737742D02*
X135727500Y-82212258D01*
%TO.C,R6*%
X136772500Y-111512742D02*
X136772500Y-111987258D01*
X135727500Y-111512742D02*
X135727500Y-111987258D01*
%TO.C,R16*%
X83995242Y-90077500D02*
X84469758Y-90077500D01*
X83995242Y-91122500D02*
X84469758Y-91122500D01*
%TO.C,D3*%
X122815000Y-83545000D02*
X122815000Y-80455000D01*
X117265000Y-81999538D02*
G75*
G03*
X122815000Y-83544830I2990000J-462D01*
G01*
X122815000Y-80455170D02*
G75*
G03*
X117265000Y-82000462I-2560000J-1544830D01*
G01*
X122755000Y-82000000D02*
G75*
G03*
X122755000Y-82000000I-2500000J0D01*
G01*
%TO.C,R5*%
X135702500Y-72512742D02*
X135702500Y-72987258D01*
X136747500Y-72512742D02*
X136747500Y-72987258D01*
%TO.C,R19*%
X87772500Y-69762742D02*
X87772500Y-70237258D01*
X86727500Y-69762742D02*
X86727500Y-70237258D01*
%TO.C,J3*%
X123945000Y-60920000D02*
X134165000Y-60920000D01*
X122675000Y-63580000D02*
X121345000Y-63580000D01*
X123945000Y-63580000D02*
X134165000Y-63580000D01*
X123945000Y-63580000D02*
X123945000Y-60920000D01*
X121345000Y-63580000D02*
X121345000Y-62250000D01*
X134165000Y-63580000D02*
X134165000Y-60920000D01*
%TO.C,J7*%
X113980000Y-59780000D02*
X96140000Y-59780000D01*
X113980000Y-57120000D02*
X96140000Y-57120000D01*
X96140000Y-57120000D02*
X96140000Y-59780000D01*
X113980000Y-57120000D02*
X113980000Y-59780000D01*
X116580000Y-57120000D02*
X116580000Y-58450000D01*
X115250000Y-57120000D02*
X116580000Y-57120000D01*
%TO.C,R9*%
X83995242Y-96077500D02*
X84469758Y-96077500D01*
X83995242Y-97122500D02*
X84469758Y-97122500D01*
%TO.C,R7*%
X125227500Y-81512742D02*
X125227500Y-81987258D01*
X126272500Y-81512742D02*
X126272500Y-81987258D01*
%TO.C,R2*%
X114522500Y-132512742D02*
X114522500Y-132987258D01*
X113477500Y-132512742D02*
X113477500Y-132987258D01*
%TO.C,J4*%
X76410000Y-156280000D02*
X76375000Y-156316000D01*
X77940000Y-152294000D02*
X77940000Y-162215000D01*
X74113000Y-158578000D02*
X74066000Y-158624000D01*
X67660000Y-162215000D02*
X77940000Y-162215000D01*
X67660000Y-152294000D02*
X67660000Y-162215000D01*
X67660000Y-160155000D02*
X77940000Y-160155000D01*
X67420000Y-162455000D02*
X67920000Y-162455000D01*
X67420000Y-161715000D02*
X67420000Y-162455000D01*
X67660000Y-161655000D02*
X77940000Y-161655000D01*
X67660000Y-155254000D02*
X77940000Y-155254000D01*
X76615000Y-156486000D02*
X76568000Y-156532000D01*
X67660000Y-152294000D02*
X77940000Y-152294000D01*
X74306000Y-158794000D02*
X74271000Y-158829000D01*
X70260000Y-159235000D02*
G75*
G03*
X70943318Y-159089756I0J1680000D01*
G01*
X71795001Y-158239000D02*
G75*
G03*
X71795427Y-156871958I-1535001J684000D01*
G01*
X70944000Y-156020000D02*
G75*
G03*
X69576958Y-156019573I-684001J-1534993D01*
G01*
X68725000Y-156871000D02*
G75*
G03*
X68724573Y-158238042I1534993J-684001D01*
G01*
X69576000Y-159090000D02*
G75*
G03*
X70288805Y-159235253I683999J1535001D01*
G01*
X77020000Y-157555000D02*
G75*
G03*
X77020000Y-157555000I-1680000J0D01*
G01*
%TD*%
%LPC*%
D15*
%TO.C,R11*%
X83407500Y-99600000D03*
X85057500Y-99600000D03*
%TD*%
D16*
%TO.C,H1*%
X135064466Y-50564466D03*
D17*
X133367410Y-52261522D03*
X135064466Y-48164466D03*
X136761522Y-52261522D03*
X133367410Y-48867410D03*
X132664466Y-50564466D03*
X136761522Y-48867410D03*
X137464466Y-50564466D03*
X135064466Y-52964466D03*
%TD*%
D18*
%TO.C,D4*%
X132025000Y-81975000D03*
D19*
X129485000Y-81975000D03*
%TD*%
%TO.C,SW1*%
X120000000Y-144250000D03*
X111000000Y-144250000D03*
D20*
X113000000Y-150750000D03*
X113000000Y-138250000D03*
X118000000Y-150750000D03*
X118000000Y-138250000D03*
%TD*%
D21*
%TO.C,CD2*%
X132250000Y-133025000D03*
X132250000Y-131475000D03*
%TD*%
D22*
%TO.C,JP5*%
X132750000Y-89500000D03*
D23*
X130210000Y-89500000D03*
%TD*%
D21*
%TO.C,C3*%
X89525000Y-125750000D03*
X89525000Y-124200000D03*
%TD*%
D19*
%TO.C,SW4*%
X132750000Y-114290000D03*
X132750000Y-111750000D03*
X132750000Y-109210000D03*
%TD*%
D22*
%TO.C,JP10*%
X81450000Y-58500000D03*
D23*
X83990000Y-58500000D03*
X86530000Y-58500000D03*
%TD*%
D24*
%TO.C,R3*%
X129000000Y-131425000D03*
X129000000Y-133075000D03*
%TD*%
D22*
%TO.C,JP1*%
X114475000Y-128500000D03*
D23*
X117015000Y-128500000D03*
%TD*%
D22*
%TO.C,J2*%
X122675000Y-58500000D03*
D23*
X125215000Y-58500000D03*
X127755000Y-58500000D03*
X130295000Y-58500000D03*
X132835000Y-58500000D03*
%TD*%
D19*
%TO.C,SW2*%
X135000000Y-144250000D03*
X126000000Y-144250000D03*
D20*
X128000000Y-138250000D03*
X128000000Y-150750000D03*
X133000000Y-150750000D03*
X133000000Y-138250000D03*
%TD*%
D22*
%TO.C,JP14*%
X65250000Y-136725000D03*
D23*
X65250000Y-139265000D03*
X65250000Y-141805000D03*
%TD*%
D25*
%TO.C,J6*%
X89455000Y-157555000D03*
D26*
X94535000Y-157555000D03*
%TD*%
D27*
%TO.C,C4*%
X69750000Y-68725000D03*
X69750000Y-70275000D03*
%TD*%
D18*
%TO.C,D2*%
X132025000Y-72750000D03*
D19*
X129485000Y-72750000D03*
%TD*%
D28*
%TO.C,R21*%
X90350000Y-144225000D03*
X88700000Y-144225000D03*
%TD*%
D15*
%TO.C,R13*%
X83407500Y-102600000D03*
X85057500Y-102600000D03*
%TD*%
%TO.C,R8*%
X83407500Y-93600000D03*
X85057500Y-93600000D03*
%TD*%
D16*
%TO.C,H4*%
X45064466Y-50564466D03*
D17*
X42664466Y-50564466D03*
X46761522Y-52261522D03*
X45064466Y-48164466D03*
X43367410Y-52261522D03*
X45064466Y-52964466D03*
X47464466Y-50564466D03*
X46761522Y-48867410D03*
X43367410Y-48867410D03*
%TD*%
D19*
%TO.C,SW3*%
X118500000Y-114540000D03*
X118500000Y-112000000D03*
X118500000Y-109460000D03*
%TD*%
D22*
%TO.C,JP12*%
X81025000Y-116975000D03*
D23*
X78485000Y-116975000D03*
X75945000Y-116975000D03*
%TD*%
D22*
%TO.C,JP2*%
X129475000Y-128000000D03*
D23*
X132015000Y-128000000D03*
%TD*%
D29*
%TO.C,J1*%
X53905000Y-51340000D03*
X53905000Y-48800000D03*
X53905000Y-51340000D03*
X57715000Y-51300000D03*
X57715000Y-48760000D03*
X57715000Y-51300000D03*
X61525000Y-51340000D03*
X61525000Y-48800000D03*
X61525000Y-51340000D03*
X65335000Y-48760000D03*
X65335000Y-51300000D03*
X65335000Y-51300000D03*
X69145000Y-51380000D03*
X69145000Y-48840000D03*
X69145000Y-51380000D03*
X72955000Y-48800000D03*
X72955000Y-51340000D03*
X72955000Y-51340000D03*
X76765000Y-51380000D03*
X76765000Y-51380000D03*
X76765000Y-48840000D03*
X80575000Y-51340000D03*
X80575000Y-48800000D03*
X80575000Y-51340000D03*
X84385000Y-48800000D03*
X84385000Y-51340000D03*
X84385000Y-51340000D03*
X88195000Y-51380000D03*
X88195000Y-51380000D03*
X88195000Y-48840000D03*
X92005000Y-48800000D03*
X92005000Y-51340000D03*
X92005000Y-51340000D03*
X95815000Y-51420000D03*
X95815000Y-51420000D03*
X95815000Y-48880000D03*
X99625000Y-51380000D03*
X99625000Y-51380000D03*
X99625000Y-48840000D03*
X103435000Y-51420000D03*
X103435000Y-48880000D03*
X103435000Y-51420000D03*
X107245000Y-51380000D03*
X107245000Y-51380000D03*
X107245000Y-48840000D03*
X111055000Y-48800000D03*
X111055000Y-51340000D03*
X111055000Y-51340000D03*
X114865000Y-51420000D03*
X114865000Y-48880000D03*
X114865000Y-51420000D03*
X118675000Y-51380000D03*
X118675000Y-51380000D03*
X118675000Y-48840000D03*
X122485000Y-51420000D03*
X122485000Y-51420000D03*
X122485000Y-48880000D03*
X126295000Y-48840000D03*
X126295000Y-51380000D03*
X126295000Y-51380000D03*
%TD*%
D30*
%TO.C,U3*%
X61775000Y-66185000D03*
X61775000Y-67455000D03*
X61775000Y-68725000D03*
X61775000Y-69995000D03*
X66725000Y-69995000D03*
X66725000Y-68725000D03*
X66725000Y-67455000D03*
X66725000Y-66185000D03*
%TD*%
D22*
%TO.C,JP9*%
X92225000Y-82500000D03*
D23*
X94765000Y-82500000D03*
X97305000Y-82500000D03*
%TD*%
D31*
%TO.C,U1*%
X71517500Y-87375000D03*
D32*
X71517500Y-89915000D03*
X71517500Y-92455000D03*
X71517500Y-94995000D03*
X71517500Y-97535000D03*
X71517500Y-100075000D03*
X71517500Y-102615000D03*
X71517500Y-105155000D03*
X79137500Y-105155000D03*
X79137500Y-102615000D03*
X79137500Y-100075000D03*
X79137500Y-97535000D03*
X79137500Y-94995000D03*
X79137500Y-92455000D03*
X79137500Y-89915000D03*
X79137500Y-87375000D03*
%TD*%
D33*
%TO.C,R18*%
X83500000Y-71700000D03*
X83500000Y-68300000D03*
%TD*%
D22*
%TO.C,JP3*%
X120250000Y-97750000D03*
D23*
X117710000Y-97750000D03*
%TD*%
D24*
%TO.C,R20*%
X78525000Y-120900000D03*
X78525000Y-122550000D03*
%TD*%
D21*
%TO.C,CD1*%
X117250000Y-133575000D03*
X117250000Y-132025000D03*
%TD*%
D24*
%TO.C,R1*%
X125750000Y-71925000D03*
X125750000Y-73575000D03*
%TD*%
D21*
%TO.C,C1*%
X81500000Y-87375000D03*
X81500000Y-85825000D03*
%TD*%
D31*
%TO.C,U5*%
X78555000Y-126445000D03*
D32*
X78555000Y-128985000D03*
X78555000Y-131525000D03*
X78555000Y-134065000D03*
X78555000Y-136605000D03*
X78555000Y-139145000D03*
X78555000Y-141685000D03*
X78555000Y-144225000D03*
X86175000Y-144225000D03*
X86175000Y-141685000D03*
X86175000Y-139145000D03*
X86175000Y-136605000D03*
X86175000Y-134065000D03*
X86175000Y-131525000D03*
X86175000Y-128985000D03*
X86175000Y-126445000D03*
%TD*%
D34*
%TO.C,U2*%
X89670000Y-103870000D03*
X92210000Y-103870000D03*
X94750000Y-103870000D03*
X97290000Y-103870000D03*
X99830000Y-103870000D03*
X99830000Y-88630000D03*
X97290000Y-88630000D03*
X94750000Y-88630000D03*
X92210000Y-88630000D03*
X89670000Y-88630000D03*
%TD*%
D16*
%TO.C,H2*%
X135000000Y-158000000D03*
D17*
X132600000Y-158000000D03*
X133302944Y-156302944D03*
X136697056Y-156302944D03*
X135000000Y-155600000D03*
X137400000Y-158000000D03*
X136697056Y-159697056D03*
X133302944Y-159697056D03*
X135000000Y-160400000D03*
%TD*%
D22*
%TO.C,JP13*%
X94250000Y-148000000D03*
D23*
X94250000Y-145460000D03*
X94250000Y-142920000D03*
%TD*%
D35*
%TO.C,R4*%
X122000000Y-112825000D03*
X122000000Y-111175000D03*
%TD*%
D21*
%TO.C,C2*%
X69750000Y-66185000D03*
X69750000Y-64635000D03*
%TD*%
D22*
%TO.C,JP11*%
X77775000Y-58500000D03*
D23*
X75235000Y-58500000D03*
X72695000Y-58500000D03*
%TD*%
D36*
%TO.C,U4*%
X50905000Y-101770000D03*
X49635000Y-101770000D03*
X48365000Y-101770000D03*
X47095000Y-101770000D03*
X47095000Y-106720000D03*
X48365000Y-106720000D03*
X49635000Y-106720000D03*
X50905000Y-106720000D03*
%TD*%
D18*
%TO.C,D1*%
X121775000Y-72750000D03*
D19*
X119235000Y-72750000D03*
%TD*%
D16*
%TO.C,H3*%
X45000000Y-158000000D03*
D17*
X47400000Y-158000000D03*
X45000000Y-160400000D03*
X42600000Y-158000000D03*
X46697056Y-159697056D03*
X46697056Y-156302944D03*
X43302944Y-156302944D03*
X45000000Y-155600000D03*
X43302944Y-159697056D03*
%TD*%
D37*
%TO.C,J8*%
X44600000Y-148750000D03*
X59900000Y-148750000D03*
%TD*%
D15*
%TO.C,R14*%
X83407500Y-105600000D03*
X85057500Y-105600000D03*
%TD*%
D22*
%TO.C,JP4*%
X132750000Y-97750000D03*
D23*
X130210000Y-97750000D03*
%TD*%
D38*
%TO.C,R17*%
X49000000Y-139810000D03*
X49000000Y-68690000D03*
%TD*%
D15*
%TO.C,R15*%
X83407500Y-87600000D03*
X85057500Y-87600000D03*
%TD*%
D24*
%TO.C,R12*%
X69300000Y-95875000D03*
X69300000Y-97525000D03*
%TD*%
%TO.C,R10*%
X136250000Y-81150000D03*
X136250000Y-82800000D03*
%TD*%
%TO.C,R6*%
X136250000Y-110925000D03*
X136250000Y-112575000D03*
%TD*%
D15*
%TO.C,R16*%
X83407500Y-90600000D03*
X85057500Y-90600000D03*
%TD*%
D18*
%TO.C,D3*%
X121525000Y-82000000D03*
D19*
X118985000Y-82000000D03*
%TD*%
D24*
%TO.C,R5*%
X136225000Y-71925000D03*
X136225000Y-73575000D03*
%TD*%
%TO.C,R19*%
X87250000Y-69175000D03*
X87250000Y-70825000D03*
%TD*%
D37*
%TO.C,J5*%
X59900000Y-59750000D03*
X44600000Y-59750000D03*
%TD*%
D22*
%TO.C,J3*%
X122675000Y-62250000D03*
D23*
X125215000Y-62250000D03*
X127755000Y-62250000D03*
X130295000Y-62250000D03*
X132835000Y-62250000D03*
%TD*%
D22*
%TO.C,J7*%
X115250000Y-58450000D03*
D23*
X112710000Y-58450000D03*
X110170000Y-58450000D03*
X107630000Y-58450000D03*
X105090000Y-58450000D03*
X102550000Y-58450000D03*
X100010000Y-58450000D03*
X97470000Y-58450000D03*
%TD*%
D15*
%TO.C,R9*%
X83407500Y-96600000D03*
X85057500Y-96600000D03*
%TD*%
D24*
%TO.C,R7*%
X125750000Y-80925000D03*
X125750000Y-82575000D03*
%TD*%
%TO.C,R2*%
X114000000Y-131925000D03*
X114000000Y-133575000D03*
%TD*%
D25*
%TO.C,J4*%
X70260000Y-157555000D03*
D26*
X75340000Y-157555000D03*
%TD*%
D17*
X59750000Y-68750000D03*
X47100000Y-100000000D03*
X59750000Y-70000000D03*
X89500000Y-123000000D03*
X69750000Y-71250000D03*
X117250000Y-131000000D03*
X69750000Y-63500000D03*
X132250000Y-130500000D03*
X87250000Y-72000000D03*
X81500000Y-84700000D03*
X108250000Y-72750000D03*
X97470000Y-67030000D03*
X116500000Y-72750000D03*
X102250000Y-72750000D03*
X62800000Y-89700000D03*
X65100000Y-87400000D03*
X116500000Y-68250000D03*
X100010000Y-68240000D03*
X67000000Y-131800000D03*
X68300000Y-135100000D03*
X116250000Y-82000000D03*
X80300000Y-143000000D03*
X107750000Y-82000000D03*
X66000000Y-89900000D03*
X109500000Y-77500000D03*
X116250000Y-77500000D03*
M02*
