%TF.GenerationSoftware,KiCad,Pcbnew,(6.0.7)*%
%TF.CreationDate,2022-09-06T17:39:22+02:00*%
%TF.ProjectId,myDAQExpansionBoard,6d794441-5145-4787-9061-6e73696f6e42,rev?*%
%TF.SameCoordinates,Original*%
%TF.FileFunction,Soldermask,Bot*%
%TF.FilePolarity,Negative*%
%FSLAX46Y46*%
G04 Gerber Fmt 4.6, Leading zero omitted, Abs format (unit mm)*
G04 Created by KiCad (PCBNEW (6.0.7)) date 2022-09-06 17:39:22*
%MOMM*%
%LPD*%
G01*
G04 APERTURE LIST*
%ADD10C,6.400000*%
%ADD11C,0.800000*%
%ADD12R,1.800000X1.800000*%
%ADD13C,1.800000*%
%ADD14O,2.500000X3.000000*%
%ADD15R,1.700000X1.700000*%
%ADD16O,1.700000X1.700000*%
%ADD17R,2.600000X2.600000*%
%ADD18C,2.600000*%
%ADD19C,2.300000*%
%ADD20R,1.600000X1.600000*%
%ADD21O,1.600000X1.600000*%
%ADD22C,1.500000*%
%ADD23C,2.000000*%
%ADD24C,5.000000*%
%ADD25C,3.000000*%
G04 APERTURE END LIST*
D10*
%TO.C,H1*%
X135064466Y-50564466D03*
D11*
X133367410Y-52261522D03*
X135064466Y-48164466D03*
X136761522Y-52261522D03*
X133367410Y-48867410D03*
X132664466Y-50564466D03*
X136761522Y-48867410D03*
X137464466Y-50564466D03*
X135064466Y-52964466D03*
%TD*%
D12*
%TO.C,D4*%
X132025000Y-81975000D03*
D13*
X129485000Y-81975000D03*
%TD*%
%TO.C,SW1*%
X120000000Y-144250000D03*
X111000000Y-144250000D03*
D14*
X113000000Y-150750000D03*
X113000000Y-138250000D03*
X118000000Y-150750000D03*
X118000000Y-138250000D03*
%TD*%
D15*
%TO.C,JP5*%
X132750000Y-89500000D03*
D16*
X130210000Y-89500000D03*
%TD*%
D13*
%TO.C,SW4*%
X132750000Y-114290000D03*
X132750000Y-111750000D03*
X132750000Y-109210000D03*
%TD*%
D15*
%TO.C,JP10*%
X81450000Y-58500000D03*
D16*
X83990000Y-58500000D03*
X86530000Y-58500000D03*
%TD*%
D15*
%TO.C,JP1*%
X114475000Y-128500000D03*
D16*
X117015000Y-128500000D03*
%TD*%
D15*
%TO.C,J2*%
X122675000Y-58500000D03*
D16*
X125215000Y-58500000D03*
X127755000Y-58500000D03*
X130295000Y-58500000D03*
X132835000Y-58500000D03*
%TD*%
D13*
%TO.C,SW2*%
X135000000Y-144250000D03*
X126000000Y-144250000D03*
D14*
X128000000Y-138250000D03*
X128000000Y-150750000D03*
X133000000Y-150750000D03*
X133000000Y-138250000D03*
%TD*%
D15*
%TO.C,JP14*%
X65250000Y-136725000D03*
D16*
X65250000Y-139265000D03*
X65250000Y-141805000D03*
%TD*%
D17*
%TO.C,J6*%
X89455000Y-157555000D03*
D18*
X94535000Y-157555000D03*
%TD*%
D12*
%TO.C,D2*%
X132025000Y-72750000D03*
D13*
X129485000Y-72750000D03*
%TD*%
D10*
%TO.C,H4*%
X45064466Y-50564466D03*
D11*
X42664466Y-50564466D03*
X46761522Y-52261522D03*
X45064466Y-48164466D03*
X43367410Y-52261522D03*
X45064466Y-52964466D03*
X47464466Y-50564466D03*
X46761522Y-48867410D03*
X43367410Y-48867410D03*
%TD*%
D13*
%TO.C,SW3*%
X118500000Y-114540000D03*
X118500000Y-112000000D03*
X118500000Y-109460000D03*
%TD*%
D15*
%TO.C,JP12*%
X81025000Y-116975000D03*
D16*
X78485000Y-116975000D03*
X75945000Y-116975000D03*
%TD*%
D15*
%TO.C,JP2*%
X129475000Y-128000000D03*
D16*
X132015000Y-128000000D03*
%TD*%
D19*
%TO.C,J1*%
X53905000Y-51340000D03*
X53905000Y-48800000D03*
X53905000Y-51340000D03*
X57715000Y-51300000D03*
X57715000Y-48760000D03*
X57715000Y-51300000D03*
X61525000Y-51340000D03*
X61525000Y-48800000D03*
X61525000Y-51340000D03*
X65335000Y-48760000D03*
X65335000Y-51300000D03*
X65335000Y-51300000D03*
X69145000Y-51380000D03*
X69145000Y-48840000D03*
X69145000Y-51380000D03*
X72955000Y-48800000D03*
X72955000Y-51340000D03*
X72955000Y-51340000D03*
X76765000Y-51380000D03*
X76765000Y-51380000D03*
X76765000Y-48840000D03*
X80575000Y-51340000D03*
X80575000Y-48800000D03*
X80575000Y-51340000D03*
X84385000Y-48800000D03*
X84385000Y-51340000D03*
X84385000Y-51340000D03*
X88195000Y-51380000D03*
X88195000Y-51380000D03*
X88195000Y-48840000D03*
X92005000Y-48800000D03*
X92005000Y-51340000D03*
X92005000Y-51340000D03*
X95815000Y-51420000D03*
X95815000Y-51420000D03*
X95815000Y-48880000D03*
X99625000Y-51380000D03*
X99625000Y-51380000D03*
X99625000Y-48840000D03*
X103435000Y-51420000D03*
X103435000Y-48880000D03*
X103435000Y-51420000D03*
X107245000Y-51380000D03*
X107245000Y-51380000D03*
X107245000Y-48840000D03*
X111055000Y-48800000D03*
X111055000Y-51340000D03*
X111055000Y-51340000D03*
X114865000Y-51420000D03*
X114865000Y-48880000D03*
X114865000Y-51420000D03*
X118675000Y-51380000D03*
X118675000Y-51380000D03*
X118675000Y-48840000D03*
X122485000Y-51420000D03*
X122485000Y-51420000D03*
X122485000Y-48880000D03*
X126295000Y-48840000D03*
X126295000Y-51380000D03*
X126295000Y-51380000D03*
%TD*%
D15*
%TO.C,JP9*%
X92225000Y-82500000D03*
D16*
X94765000Y-82500000D03*
X97305000Y-82500000D03*
%TD*%
D20*
%TO.C,U1*%
X71517500Y-87375000D03*
D21*
X71517500Y-89915000D03*
X71517500Y-92455000D03*
X71517500Y-94995000D03*
X71517500Y-97535000D03*
X71517500Y-100075000D03*
X71517500Y-102615000D03*
X71517500Y-105155000D03*
X79137500Y-105155000D03*
X79137500Y-102615000D03*
X79137500Y-100075000D03*
X79137500Y-97535000D03*
X79137500Y-94995000D03*
X79137500Y-92455000D03*
X79137500Y-89915000D03*
X79137500Y-87375000D03*
%TD*%
D22*
%TO.C,R18*%
X83500000Y-71700000D03*
X83500000Y-68300000D03*
%TD*%
D15*
%TO.C,JP3*%
X120250000Y-97750000D03*
D16*
X117710000Y-97750000D03*
%TD*%
D20*
%TO.C,U5*%
X78555000Y-126445000D03*
D21*
X78555000Y-128985000D03*
X78555000Y-131525000D03*
X78555000Y-134065000D03*
X78555000Y-136605000D03*
X78555000Y-139145000D03*
X78555000Y-141685000D03*
X78555000Y-144225000D03*
X86175000Y-144225000D03*
X86175000Y-141685000D03*
X86175000Y-139145000D03*
X86175000Y-136605000D03*
X86175000Y-134065000D03*
X86175000Y-131525000D03*
X86175000Y-128985000D03*
X86175000Y-126445000D03*
%TD*%
D23*
%TO.C,U2*%
X89670000Y-103870000D03*
X92210000Y-103870000D03*
X94750000Y-103870000D03*
X97290000Y-103870000D03*
X99830000Y-103870000D03*
X99830000Y-88630000D03*
X97290000Y-88630000D03*
X94750000Y-88630000D03*
X92210000Y-88630000D03*
X89670000Y-88630000D03*
%TD*%
D10*
%TO.C,H2*%
X135000000Y-158000000D03*
D11*
X132600000Y-158000000D03*
X133302944Y-156302944D03*
X136697056Y-156302944D03*
X135000000Y-155600000D03*
X137400000Y-158000000D03*
X136697056Y-159697056D03*
X133302944Y-159697056D03*
X135000000Y-160400000D03*
%TD*%
D15*
%TO.C,JP13*%
X94250000Y-148000000D03*
D16*
X94250000Y-145460000D03*
X94250000Y-142920000D03*
%TD*%
D15*
%TO.C,JP11*%
X77775000Y-58500000D03*
D16*
X75235000Y-58500000D03*
X72695000Y-58500000D03*
%TD*%
D12*
%TO.C,D1*%
X121775000Y-72750000D03*
D13*
X119235000Y-72750000D03*
%TD*%
D10*
%TO.C,H3*%
X45000000Y-158000000D03*
D11*
X47400000Y-158000000D03*
X45000000Y-160400000D03*
X42600000Y-158000000D03*
X46697056Y-159697056D03*
X46697056Y-156302944D03*
X43302944Y-156302944D03*
X45000000Y-155600000D03*
X43302944Y-159697056D03*
%TD*%
D24*
%TO.C,J8*%
X44600000Y-148750000D03*
X59900000Y-148750000D03*
%TD*%
D15*
%TO.C,JP4*%
X132750000Y-97750000D03*
D16*
X130210000Y-97750000D03*
%TD*%
D25*
%TO.C,R17*%
X49000000Y-139810000D03*
X49000000Y-68690000D03*
%TD*%
D12*
%TO.C,D3*%
X121525000Y-82000000D03*
D13*
X118985000Y-82000000D03*
%TD*%
D24*
%TO.C,J5*%
X59900000Y-59750000D03*
X44600000Y-59750000D03*
%TD*%
D15*
%TO.C,J3*%
X122675000Y-62250000D03*
D16*
X125215000Y-62250000D03*
X127755000Y-62250000D03*
X130295000Y-62250000D03*
X132835000Y-62250000D03*
%TD*%
D15*
%TO.C,J7*%
X115250000Y-58450000D03*
D16*
X112710000Y-58450000D03*
X110170000Y-58450000D03*
X107630000Y-58450000D03*
X105090000Y-58450000D03*
X102550000Y-58450000D03*
X100010000Y-58450000D03*
X97470000Y-58450000D03*
%TD*%
D17*
%TO.C,J4*%
X70260000Y-157555000D03*
D18*
X75340000Y-157555000D03*
%TD*%
D11*
X59750000Y-68750000D03*
X47100000Y-100000000D03*
X59750000Y-70000000D03*
X89500000Y-123000000D03*
X69750000Y-71250000D03*
X117250000Y-131000000D03*
X69750000Y-63500000D03*
X132250000Y-130500000D03*
X87250000Y-72000000D03*
X81500000Y-84700000D03*
X108250000Y-72750000D03*
X97470000Y-67030000D03*
X116500000Y-72750000D03*
X102250000Y-72750000D03*
X62800000Y-89700000D03*
X65100000Y-87400000D03*
X116500000Y-68250000D03*
X100010000Y-68240000D03*
X67000000Y-131800000D03*
X68300000Y-135100000D03*
X116250000Y-82000000D03*
X80300000Y-143000000D03*
X107750000Y-82000000D03*
X66000000Y-89900000D03*
X109500000Y-77500000D03*
X116250000Y-77500000D03*
M02*
